<?xml version="1.0" encoding="utf-8"?>
<!-- Generator: Adobe Illustrator 19.2.1, SVG Export Plug-In . SVG Version: 6.00 Build 0)  -->
<svg version="1.1" id="Layer_1" xmlns="http://www.w3.org/2000/svg" xmlns:xlink="http://www.w3.org/1999/xlink" x="0px" y="0px"
	 viewBox="0 0 70.6 33.7" style="enable-background:new 0 0 70.6 33.7;" xml:space="preserve">
<style type="text/css">
	.st0{fill:#003A70;}
</style>
<title>accepted_into_master</title>
<g>
	<path class="st0" d="M50.2,8.3c-0.2,0.2-0.5,0.4-0.7,0.6c-0.4,0.3-0.8,0.6-1.2,0.9c-0.3,0.2-0.6,0.3-1,0.3c-0.5,0-0.8-0.3-0.8-0.8
		c0-0.6,0.1-1.2,0.3-1.8c0.1-0.3,0.3-0.7,0.4-1c0.1-0.2,0.1-0.4,0.2-0.7c-0.2,0.1-0.3,0.1-0.4,0.1c-0.6,0.4-1.1,0.8-1.4,1.5
		c-0.4,0.9-1.1,1.5-1.8,2.1c-0.2,0.1-0.3,0.2-0.5,0C43,9.3,43,9.1,43.1,9c0.1-0.2,0.2-0.3,0.3-0.5c0.4-0.5,0.8-1.1,1.3-1.6
		C45.1,6.4,45,6,44.9,5.5c0-0.1-0.1-0.1-0.1-0.2c-0.1-0.3-0.1-0.5,0.1-0.6c0.2-0.1,0.4,0,0.6,0.2c0.1,0.1,0.1,0.2,0.2,0.3
		c0,0.1,0.1,0.2,0.1,0.4c0.2-0.1,0.3-0.2,0.4-0.3c0.3-0.2,0.7-0.4,1-0.5C47.7,4.8,48,5,48,5.5c0,0.3-0.1,0.7-0.1,1
		c-0.1,0.4-0.3,0.8-0.4,1.2c-0.2,0.5-0.3,1-0.2,1.5c0.3,0.1,0.5,0,0.7-0.2c0.4-0.3,0.8-0.6,1.2-0.9c0.1-0.1,0.2-0.2,0.3-0.3
		c0.4-0.3,0.5-0.3,1,0c0.3-0.8,0.7-1.7,1-2.6c-0.6,0.1-0.8,0.4-1,0.8c-0.1,0.1-0.1,0.3-0.1,0.4c-0.1,0.3-0.3,0.4-0.5,0.3
		s-0.3-0.2-0.2-0.5c0.2-0.8,0.6-1.5,1.5-1.7c0.7-0.1,0.8-0.5,1-1.1c0.3-1,0.8-1.9,1.1-2.9c0-0.1,0.1-0.2,0.1-0.2
		C53.6,0.1,54,0.2,54,0.5c0,0.4-0.1,0.9-0.1,1.3c0,0.1-0.1,0.2-0.2,0.2c-0.3,0-0.3,0.2-0.4,0.4C53,3,52.8,3.6,52.6,4.2
		c0.2,0,0.3,0,0.3,0c0.8,0,1.5,0.1,2.3,0.4c0.1,0,0.3,0,0.4,0c0.2,0,0.5-0.1,0.7,0c0.3,0.1,0.4,0.3,0.2,0.6c-0.1,0.1-0.1,0.2,0,0.4
		c0.3,1.5-0.2,2.8-1.5,3.7c-0.3,0.2-0.6,0.2-0.9,0.2c-0.6-0.1-1-0.4-1-1c0-0.7,0.2-1.4,0.6-1.9C54,6.3,54.2,6,54.5,5.7
		c0.1-0.1,0.1-0.2,0.2-0.3C54,5.1,53.2,5,52.5,5.1c-0.1,0-0.2,0.1-0.2,0.2c-0.4,1-0.8,2.1-1.2,3.1c-0.1,0.4-0.2,0.8-0.3,1.3
		c0,0.1-0.1,0.3-0.1,0.4c-0.1,0.2-0.4,0.3-0.6,0.2c-0.2-0.1-0.2-0.3-0.1-0.5C50,9.3,50.2,8.8,50.2,8.3C50.3,8.3,50.2,8.3,50.2,8.3
		 M55.8,5.4L55.8,5.4c-0.6,0.5-1.1,1.1-1.5,1.6C54.1,7.5,54,7.9,54,8.3c0,0.4,0.2,0.6,0.6,0.4c0.1-0.1,0.2-0.1,0.3-0.2
		c0.6-0.5,0.9-1.2,0.9-2C55.8,6.1,55.8,5.8,55.8,5.4"/>
	<path class="st0" d="M20.1,9.9c-0.5,1.2-1,2.4-1.5,3.5c-0.1,0.1-0.1,0.3-0.2,0.4C18.3,13.9,18.2,14,18,14c-0.2-0.1-0.3-0.2-0.3-0.4
		s0.1-0.3,0.1-0.5c0.3-0.7,0.6-1.4,0.9-2.1c0.1-0.1,0.1-0.3,0.2-0.5c-1.3,0.1-2-0.4-2.3-1.7c-0.2,0.2-0.2,0.3-0.4,0.4
		c-0.4,0.3-0.7,0.7-1.1,1c-1.1,0.7-2.4,0.1-2.6-1.2c-0.2-1.2-0.1-2.3,0.5-3.3c0.2-0.3,0.4-0.5,0.6-0.8c0.3-0.3,0.6-0.4,1-0.3
		s0.6,0.3,0.6,0.7c0,0.2-0.1,0.4-0.3,0.4c-0.2,0.1-0.3,0-0.4-0.2c0-0.1-0.1-0.1-0.2-0.2c-0.2,0.1-0.3,0.2-0.4,0.3
		C13.6,6,13.4,6.5,13.3,7c-0.1,0.5-0.1,1-0.1,1.5c0.1,1,0.9,1.4,1.7,0.8c0.6-0.4,1-1,1.4-1.5c-0.3-0.3-0.6-0.6-0.3-1
		c0.2-0.4,0.5-0.5,0.9-0.4c0.2-0.4,0.4-0.8,0.6-1.2c0.4-0.7,0.8-0.8,1.6-0.6c0.5,0.1,0.7,0.4,0.7,0.9c0,0.6-0.3,1.1-0.7,1.5
		c-0.5,0.5-1,0.8-1.6,1.1c0,0.3,0,0.6,0.1,0.9c0.1,0.4,0.4,0.7,0.8,0.7c0.2,0,0.4,0,0.5-0.2c0.1-0.1,0.2-0.2,0.3-0.2
		c0.3,0,0.4-0.2,0.5-0.4c0.3-1,0.7-1.9,1-2.8c0.1-0.4,0.3-0.7,0.8-0.6c0.1,0,0.2-0.1,0.4-0.1c0.2,0,0.4-0.1,0.6-0.1
		c0.4,0,0.7,0.2,0.8,0.6c0.2,0.6,0.2,1.2-0.1,1.7c-0.4,0.8-0.9,1.5-1.6,2.1c-0.1,0.1-0.3,0.2-0.4,0.3C20.8,10.3,20.5,10.4,20.1,9.9
		 M20.5,8.9h0.1c0.1,0.2,0.2,0.3,0.3,0.5c0.8-0.6,1.4-1.3,1.7-2.1c0.1-0.4,0.1-0.7,0-1.1c-0.3-0.1-0.5,0-0.7,0.2s-0.4,0.5-0.5,0.7
		C21,7.7,20.8,8.3,20.5,8.9 M18.9,5.3c-0.2-0.1-0.5-0.1-0.6,0.1c-0.4,0.5-0.6,1-0.7,1.7C18.5,6.7,19,6,18.9,5.3"/>
	<path class="st0" d="M3.2,7.6C3,7.7,2.9,7.9,2.7,8C2.6,8.1,2.6,8.2,2.5,8.3C2,9.2,1.6,10,1.3,11c0,0.1,0,0.2-0.1,0.3
		s-0.3,0.2-0.4,0.2s-0.2-0.2-0.3-0.3c0-0.1,0-0.3,0-0.4c0.1-0.3,0.2-0.6,0.3-0.9c0.5-1,1-2,1.5-3c0.8-1.7,1.6-3.3,2.4-5
		c0.1-0.2,0.1-0.5,0.2-0.8C5,0.8,5,0.7,5,0.6c0.1-0.2,0.2-0.3,0.4-0.3c0.2,0,0.3,0.2,0.3,0.3c0,0.2,0,0.4,0,0.7C5.9,1.2,6,1.1,6.1,1
		s0.3-0.3,0.4-0.4c0.3-0.2,0.7-0.2,0.8,0.2C7.4,1,7.5,1.3,7.5,1.5c0.1,1.4,0.1,2.8-0.3,4.2c0,0.1-0.1,0.2,0,0.2
		C7.3,6.4,7,6.8,6.8,7.2c-0.4,0.9-0.7,1.9-1,2.8c-0.2,0.5-0.4,1-0.6,1.5c-0.1,0.2-0.3,0.5-0.5,0.7c-0.1,0.1-0.2,0.1-0.4,0.2
		c-0.2,0-0.4,0-0.4-0.2c-0.1-0.2,0-0.3,0.1-0.4c0.5-0.3,0.7-0.8,0.9-1.3c0.4-0.9,0.7-1.8,1-2.7C5.9,7.7,6,7.6,6,7.4
		C5,7.3,4.1,7.4,3.2,7.6C3.2,7.5,3.2,7.5,3.2,7.6 M6.7,1.6C6.2,2,3.8,5.8,3.6,6.7C4.4,6.6,5.2,6.5,6,6.5c0.2,0,0.3-0.2,0.4-0.4
		c0.4-1.4,0.5-2.9,0.4-4.4C6.7,1.7,6.7,1.6,6.7,1.6"/>
	<path class="st0" d="M27.6,8.7c-0.2,0.1-0.4,0.2-0.5,0.2c-0.5,0.2-1,0.2-1.5,0.1c-0.6-0.2-0.9-0.5-0.9-1.2c0-0.6,0.1-1.1,0.2-1.6
		c0.3-0.9,0.7-1.9,1-2.8C26,3.3,26,3.1,26.1,2.9c-0.4,0-0.8,0.1-1.1,0.4c-0.3,0.2-0.4,0.2-0.6,0.1c-0.2-0.2-0.2-0.5,0-0.7
		c0.1-0.1,0.3-0.2,0.4-0.2c0.4-0.1,0.9-0.3,1.3-0.4C26.5,2,26.8,1.4,26.6,1c-0.1-0.1-0.1-0.3-0.1-0.4c0-0.3,0.2-0.5,0.5-0.5
		c0.2,0,0.5,0.2,0.5,0.5s0,0.6-0.1,1c0,0.2-0.1,0.3-0.1,0.5c0.2,0,0.4,0,0.5,0c0.2,0,0.5,0,0.7,0.1c0.3,0.1,0.4,0.3,0.4,0.5
		C28.8,2.9,28.7,3,28.4,3c-0.4,0-0.8,0-1.1-0.1C27.2,2.7,27,2.8,27,3c-0.4,1.2-0.9,2.5-1.3,3.7c-0.1,0.3-0.1,0.7-0.1,1
		s0.1,0.4,0.4,0.5s0.6,0.1,0.9-0.1c0.1,0,0.3-0.1,0.4-0.2c0.3-0.2,0.5-0.4,0.5-0.7C28,6.4,28.4,5.6,29,5c0.1-0.2,0.3-0.3,0.5-0.4
		c0.4-0.2,0.7,0.1,0.7,0.5c0,0.2-0.1,0.4-0.2,0.6c-0.3,0.8-0.7,1.5-1.3,2.1c-0.4,0.4-0.3,0.8-0.3,1.2c0,0.1,0.1,0.2,0.2,0.2
		s0.2-0.1,0.2-0.1c0.1-0.2,0.2-0.3,0.3-0.5c0.1-0.3,0.3-0.4,0.5-0.3c0.2,0.1,0.3,0.3,0.2,0.6c-0.1,0.3-0.2,0.5-0.4,0.7
		c-0.3,0.4-0.6,0.5-1,0.4s-0.7-0.4-0.8-0.8C27.7,9,27.6,8.9,27.6,8.7"/>
	<path class="st0" d="M33.9,8.2c-0.2,0.2-0.5,0.5-0.7,0.6c-0.3,0.2-0.6,0.5-1,0.7c-0.5,0.3-1,0.3-1.5,0.2C30.2,9.6,30,9.3,30,8.9
		c0-0.4,0.1-0.8,0.3-1.1c0.6-0.9,1.3-1.7,2.2-2.3c0.5-0.3,0.9-0.4,1.7-0.1c0-0.2,0.1-0.4,0.1-0.6c0.2-1.2,0.6-2.4,1.2-3.5
		c0.1-0.2,0.3-0.5,0.4-0.7c0.3-0.3,0.6-0.2,0.7,0.2c0,0.2,0,0.4,0,0.6c-0.1,0.3-0.2,0.5-0.3,0.8c-0.7,1.4-1.2,2.9-1.5,4.5
		c-0.1,0.4-0.1,0.9-0.1,1.3s0.1,0.8,0.5,1.1c0.2,0.1,0.2,0.3,0.1,0.5c-0.1,0.2-0.3,0.2-0.5,0.1c-0.2-0.1-0.4-0.3-0.5-0.5
		C34.1,9,34,8.6,33.9,8.2 M34.1,6c-0.4,0-0.8-0.1-1.2,0.1c-0.8,0.6-1.4,1.3-1.9,2c-0.2,0.2-0.3,0.5-0.2,0.8C31.3,9,31.5,9,31.9,8.8
		c0.9-0.5,1.5-1.2,2-2.1C34,6.5,34,6.3,34.1,6"/>
	<path class="st0" d="M11,5.4c-0.3-0.1-0.5-0.1-0.7,0.1C9.6,6.3,9,7.3,9,8.5c0,0.6,0.2,0.9,0.6,1c0.6,0.2,1.1,0,1.3-0.5
		C11,8.9,11,8.8,11.1,8.7c0.1-0.2,0.3-0.2,0.5-0.2c0.2,0.1,0.3,0.2,0.2,0.4c0,0.2-0.1,0.3-0.2,0.4c-0.5,0.9-2,1.2-2.8,0.5
		c-0.4-0.2-0.6-0.5-0.6-1s0-0.9,0.1-1.4C8.6,6.5,9.1,5.7,9.8,5c0.4-0.5,0.9-0.6,1.5-0.4c0.4,0.1,0.5,0.3,0.5,0.7
		c0,0.4-0.1,0.8-0.3,1.1c-0.2,0.2-0.4,0.3-0.6,0.2c-0.2-0.1-0.2-0.3-0.1-0.6C10.9,5.8,11,5.6,11,5.4"/>
	<path class="st0" d="M40,10c0.1-0.1,0.1-0.3,0.2-0.5c0.3-0.6,0.7-1.2,1-1.9c0.3-0.6,0.5-1.2,0.7-1.8c0-0.1,0.1-0.3,0.2-0.4
		c0.2-0.2,0.5-0.2,0.7,0s0.2,0.4,0,0.6c-0.1,0.1-0.2,0.2-0.2,0.3c-0.3,1-0.8,1.9-1.3,2.8c-0.2,0.4-0.4,0.7-0.6,1.1
		c-0.1,0.2-0.2,0.3-0.5,0.3C40.1,10.5,40,10.3,40,10"/>
	<path class="st0" d="M42.8,3.6c0.1,0,0.2,0,0.2,0.1c0.2,0.2,0.4,0.3,0.6,0.5c0.2,0.2,0.2,0.4,0.1,0.5c-0.1,0.2-0.3,0.2-0.5,0.1
		c-0.3-0.2-0.7-0.3-0.8-0.7C42.3,3.8,42.5,3.6,42.8,3.6"/>
	<path class="st0" d="M28.1,15.2c0.4-0.8,0.8-0.9,1.5-1.3c0.2-0.1,0.3-0.1,0.5,0c0.2,0.2,0.1,0.4,0,0.5s-0.2,0.2-0.3,0.3
		c-0.3,0.3-0.6,0.5-0.9,0.8c-0.2,0.2-0.1,0.1-0.3,0.4c-0.1,0.3-0.3,0.4-0.5,0.3s-0.3-0.2-0.3-0.5C27.9,15.7,28,15.4,28.1,15.2"/>
	<path class="st0" d="M56.4,28.4c0.1-0.1,0.2-0.3,0.3-0.4c0.2-0.2,0.3-0.4,0.5-0.5c0.4-0.2,0.7-0.1,0.9,0.3c0.1,0.3,0.1,0.5,0.2,0.9
		c0.1-0.1,0.2-0.2,0.3-0.3c0.1-0.1,0.2-0.1,0.3-0.2c0.2-0.1,0.5-0.2,0.7-0.1c0.3,0.1,0.3,0.4,0.3,0.7c0,0.2,0,0.4-0.1,0.6
		c-0.2,0.8-0.2,1.6-0.2,2.3c0,0.1,0,0.1,0,0.2c0.3,0.1,0.5,0,0.7-0.1c0.4-0.2,0.8-0.4,1.1-0.5c0.2-0.1,0.3-0.3,0.3-0.5
		c0-1.1,0.4-2.1,0.8-3.1c0.1-0.3,0.3-0.6,0.6-0.9c0.3-0.4,0.8-0.4,1.2-0.2c0.4,0.2,0.6,0.5,0.5,0.9s-0.1,0.9-0.3,1.3
		c-0.3,0.9-0.9,1.7-1.6,2.3c-0.1,0.1-0.2,0.1-0.4,0.3c0.3,0.2,0.4,0.3,0.6,0.3c0.4,0.1,0.7,0.2,1.1,0.3c1,0.1,1.9,0.1,2.9-0.1
		c0.4-0.1,0.7-0.3,1.1-0.4l0.1-0.1c0.2-0.1,0.4-0.1,0.5,0.1s0.1,0.4-0.1,0.5c-0.2,0.2-0.5,0.3-0.7,0.4c-0.5,0.1-1,0.3-1.4,0.3
		c-0.9,0.1-1.8,0.1-2.6,0c-0.7-0.1-1.4-0.3-1.9-0.8c-0.4,0.2-0.7,0.3-1.1,0.5c-0.4,0.2-0.9,0.3-1.4,0.3s-0.7-0.2-0.7-0.8
		c0-0.8,0.1-1.6,0.1-2.4c0-0.1,0-0.2,0-0.4c-0.2,0.1-0.2,0.2-0.3,0.3c-0.5,0.6-0.8,1.3-1.2,2c-0.2,0.4-0.4,0.9-0.7,1.3
		c-0.1,0.2-0.3,0.3-0.5,0.5c-0.2,0.1-0.5,0.1-0.6,0c-0.2-0.2-0.2-0.4-0.1-0.6c0.1-0.3,0.3-0.5,0.5-0.7c0.5-0.6,0.8-1.2,1.1-1.8
		c0.2-0.5,0.2-1,0.1-1.6c-0.1,0.1-0.2,0.2-0.3,0.3c-0.8,1.1-1.6,2.2-2.1,3.6c-0.1,0.3-0.2,0.6-0.4,0.8c-0.1,0.1-0.2,0.3-0.3,0.4
		c-0.3,0.2-0.7,0.1-0.7-0.3c0-0.3,0.1-0.5,0.2-0.8c0.2-0.3,0.4-0.6,0.6-0.9c0.2-0.4,0.4-0.8,0.6-1.3c0.2-0.7,0.4-1.3,0.5-2
		c0.1-0.2,0.1-0.4,0.3-0.6c0.1-0.2,0.4-0.2,0.5-0.2c0.2,0.1,0.2,0.3,0.1,0.5C56.4,28.1,56.4,28.2,56.4,28.4
		C56.3,28.4,56.4,28.4,56.4,28.4 M62.7,30.4L62.7,30.4c0.6-0.5,1-1.2,1.3-1.8c0.1-0.2,0.2-0.5,0.2-0.7c0-0.1,0-0.4-0.1-0.4
		c-0.2-0.1-0.3,0-0.4,0.2c-0.1,0.2-0.2,0.3-0.3,0.5c-0.2,0.6-0.4,1.1-0.6,1.7C62.8,30,62.8,30.2,62.7,30.4"/>
	<path class="st0" d="M18.2,26.9c-0.1,0.1-0.2,0.3-0.3,0.4c-0.7,1.1-1.3,2.2-2,3.2c-0.3,0.5-0.7,1-1.1,1.5c-0.1,0.2-0.4,0.3-0.6,0.4
		c-0.1,0.1-0.3,0-0.4-0.1c-0.1-0.1-0.1-0.3-0.1-0.4s0.1-0.2,0.1-0.3c0.8-1.6,1.7-3.1,2.5-4.7c0.3-0.6,0.7-1.3,1.1-1.9
		c0.1-0.1,0.1-0.3,0.2-0.4c0.3-0.4,0.6-0.4,1,0l0.1,0.1c0.2-0.3,0.5-0.6,0.7-0.9c0.3-0.3,0.5-0.4,0.7-0.3s0.2,0.4,0.1,0.7
		c-0.4,1-0.8,2-1.1,3.1c-0.4,1.2-0.7,2.3-0.9,3.5C18,31.2,18,31.6,18,32c0,0.1,0,0.2,0.1,0.3c0.3-0.1,0.4-0.3,0.5-0.5
		c0.8-1.2,1.6-2.4,2.3-3.6c0.8-1.3,1.6-2.7,2.4-4.1c0-0.1,0.1-0.1,0.1-0.2c0.3-0.5,0.8-0.5,1,0.1c0.1,0.2,0.2,0.3,0.2,0.5
		c0.1,0.2,0.1,0.3-0.1,0.5c-0.2,0.1-0.3,0.1-0.5,0c-0.1-0.1-0.1-0.1-0.2-0.2c-0.1,0.1-0.2,0.2-0.2,0.3c-0.5,0.9-1.1,1.8-1.6,2.7
		c-0.8,1.5-1.7,2.9-2.7,4.3c-0.2,0.2-0.3,0.5-0.5,0.7c-0.3,0.3-0.6,0.4-1,0.3c-0.4-0.2-0.5-0.5-0.6-0.9c0-0.7,0-1.3,0.2-2
		c0.3-1,0.5-2,0.8-3C18.2,27.1,18.2,27,18.2,26.9L18.2,26.9"/>
	<path class="st0" d="M51,25.3c0,0.7-0.1,1.4-0.4,2.1c-0.3,0.7-0.6,1.5-1,2.2c-0.6,1-1.4,1.8-2.4,2.3c-1,0.5-2.1,0.9-3.2,1.4
		c-0.2,0.1-0.3,0.1-0.5,0.1c-0.3,0.1-0.5,0.1-0.7-0.2c-0.2-0.2-0.1-0.5,0.1-0.7c0.1-0.3,0.3-0.5,0.4-0.8c0.5-1,1-2.1,1.5-3.1
		c0.6-1.1,1.1-2.3,1.7-3.4c0.2-0.3,0.4-0.6,0.3-1c0-0.1,0.1-0.3,0.2-0.4c0.2-0.1,0.3-0.2,0.4-0.4c0.3-0.5,0.7-0.8,1.3-0.8
		c0.1,0,0.1,0,0.2,0c1.2,0,1.9,0.5,2.1,1.8C51,24.8,51,25,51,25.3 M43.9,32.5c0.2,0,0.2,0,0.3-0.1c0.9-0.4,1.8-0.8,2.7-1.2
		c0.8-0.4,1.5-1.1,2-1.9c0.4-0.7,0.7-1.5,1.1-2.3c0.3-0.7,0.4-1.5,0.3-2.3c-0.1-1-0.4-1.3-1.4-1.2c-0.3,0-0.6,0.1-0.7,0.4
		c-0.1,0.3-0.2,0.6-0.4,0.8c-0.6,1.2-1.3,2.4-1.9,3.7c-0.6,1.2-1.1,2.3-1.7,3.5C44.1,32.1,44,32.2,43.9,32.5"/>
	<path class="st0" d="M30.2,27.2c0.5,0.2,0.7,0.7,0.8,1.3c0.2-0.2,0.4-0.4,0.6-0.6s0.5-0.4,0.7-0.5c0.3-0.2,0.7-0.1,0.9,0.2
		c0.2,0.2,0.2,0.4,0.1,0.6c-0.1,0.2-0.3,0.2-0.5,0.1c-0.1,0-0.1-0.1-0.2-0.1c-0.6,0.4-1.1,1-1.5,1.6C31,29.7,31,29.9,31,30
		c-0.1,0.6-0.3,1.1-0.6,1.6C30.2,32,30,32.1,29.7,32c-0.2-0.1-0.4-0.3-0.3-0.7c0.1-0.6,0.3-1.1,0.6-1.6c0.3-0.5,0.2-1.3-0.1-1.7
		c-0.1,0.1-0.1,0.1-0.1,0.2c-0.5,1-1,2-1.5,3c-0.3,0.5-0.5,1.1-0.5,1.7c0,0.2-0.1,0.3-0.1,0.5c-0.1,0.2-0.3,0.4-0.6,0.3
		c-0.3,0-0.5-0.3-0.3-0.6c0.2-0.2,0.2-0.5,0.3-0.7c0.1-0.4,0.2-0.9,0.4-1.3c0.4-0.8,0.8-1.7,1.2-2.5c0.1-0.2,0.2-0.4,0.3-0.6
		c-0.2,0-0.3-0.1-0.4,0c-0.4,0-0.8,0.1-1.2,0.1c-0.3,0-0.6,0.1-0.8,0.4c0,0.1-0.3,0.2-0.4,0.1c-0.1,0-0.2-0.2-0.3-0.3
		c-0.1-0.3,0-0.6,0.3-0.7s0.7-0.3,1-0.3c0.6-0.1,1.1-0.1,1.7-0.1c0.3,0,0.4-0.1,0.5-0.3c0.2-0.5,0.4-1,0.6-1.6
		c0.2-0.4,0.2-0.9,0.1-1.4c0-0.1,0-0.2,0-0.2c0-0.3,0.1-0.4,0.3-0.5c0.2,0,0.4,0.1,0.5,0.3c0,0.1,0.1,0.1,0.1,0.2
		c0,0.7,0.1,1.3-0.1,1.9C30.6,26.1,30.5,26.6,30.2,27.2"/>
	<path class="st0" d="M53.5,28.2c0.1,0,0.2,0,0.2,0c0.5,0,0.7,0.2,0.4,0.7c-0.3,0.7-0.7,1.3-1.1,1.9c-0.2,0.4-0.3,0.8-0.3,1.3
		c0.1,0,0.3,0,0.4,0c0.2,0,0.3,0.1,0.4,0.3c0.1,0.2-0.1,0.3-0.2,0.4c-0.5,0.3-1.1,0.1-1.3-0.4c0.1-0.2,0-0.3,0-0.4
		c-0.4,0-0.7,0.1-1,0.1c-0.8,0-1.2-0.5-1.2-1.3c0-1.8,0.9-3,2.4-3.9c0.2-0.1,0.5-0.2,0.7-0.2c0.4,0,0.6,0.2,0.6,0.6
		C53.5,27.6,53.5,27.9,53.5,28.2 M52.7,27.6c-0.1,0-0.2,0-0.2,0c-0.1,0.1-0.2,0.1-0.3,0.2c-1,0.7-1.6,1.6-1.6,2.9
		c0,0.5,0.1,0.6,0.6,0.6s0.9-0.3,1.1-0.7c0.3-0.5,0.6-1.1,0.9-1.7C52.7,28.6,52.7,28.1,52.7,27.6"/>
	<path class="st0" d="M36.8,32.4c-0.6,0-1.3-0.1-1.9-0.3c-0.9-0.3-1.2-0.8-1.2-1.7c0-0.8,0.2-1.6,0.6-2.4c0.2-0.4,0.4-0.7,0.8-0.9
		c0.5-0.3,1.1-0.4,1.6-0.2c0.4,0.1,0.6,0.4,0.6,0.8c0,0.6-0.2,1.1-0.6,1.5c-0.3,0.4-0.8,0.7-1.2,0.9c-0.2,0.1-0.5,0.2-0.7,0.4
		c-0.3,0.2-0.3,0.4,0,0.6c0.2,0.1,0.4,0.2,0.6,0.3c0.7,0.2,1.4,0.2,2.2,0.2c0.2,0,0.4-0.1,0.7-0.1c0.2,0,0.4,0.1,0.4,0.3
		c0.1,0.2-0.1,0.4-0.3,0.5C37.8,32.3,37.3,32.3,36.8,32.4 M34.6,29.7c0.6-0.3,1-0.5,1.4-0.9c0.3-0.3,0.4-0.5,0.5-0.9
		c0-0.2-0.1-0.3-0.3-0.4c-0.4,0-0.7,0.1-1,0.4C34.9,28.4,34.7,29,34.6,29.7"/>
	<path class="st0" d="M25.4,29.2c0,0.9-0.2,1.8-0.8,2.5c-0.5,0.6-1.1,1.1-1.9,1c-0.8,0-1.2-0.4-1.2-1.2c0-0.5,0.1-1,0.4-1.5
		c0.4-0.7,0.9-1.3,1.5-1.8c0.5-0.4,0.9-0.5,1.5-0.1c0.1,0,0.1,0.1,0.2,0.1c0.3,0.1,0.4,0.2,0.4,0.5C25.4,28.9,25.4,29,25.4,29.2
		 M22.2,31.4c0,0.5,0.2,0.7,0.7,0.6c0.3-0.1,0.6-0.2,0.7-0.4c0.7-0.7,1.1-1.5,0.8-2.5c-0.1-0.4-0.2-0.5-0.6-0.2
		c-0.6,0.5-1.1,1-1.4,1.7C22.4,30.8,22.3,31.1,22.2,31.4"/>
	<path class="st0" d="M3.3,31.4c-0.1,0.1-0.2,0.2-0.3,0.2c-0.4,0.3-0.9,0.7-1.3,1c-0.2,0.1-0.5,0.2-0.8,0.2c-0.4,0-0.7-0.2-0.7-0.7
		c0-0.2,0-0.4,0-0.6c0.1-1,0.4-1.9,0.9-2.7c0.7-1.1,1.4-1.2,2.5-1c0.2,0,0.3,0.2,0.6,0.3c0,0,0.1-0.1,0.2-0.1C4.7,27.8,5,28,5,28.4
		c0,0.3-0.1,0.5-0.1,0.8c-0.1,0.4-0.3,0.7-0.5,1c-0.3,0.5-0.2,1.1-0.1,1.6c0.1,0.3,0.3,0.3,0.5,0.1c0.2-0.1,0.3-0.3,0.5-0.5
		c0.2-0.3,0.4-0.7,0.7-1c0,0,0-0.2,0.1-0.3s0.3-0.2,0.4,0c0.1,0.1,0.1,0.2,0.2,0.4c0,0.1,0,0.2-0.1,0.2c-0.4,0.6-0.7,1.1-1.1,1.7
		c-0.1,0.2-0.3,0.3-0.5,0.4c-0.5,0.3-1.1,0.1-1.4-0.4C3.5,32.1,3.4,31.8,3.3,31.4 M3.5,28.7c-1.1-0.3-1.4,0.1-1.8,0.6
		C1.3,30,1,30.8,1,31.6c0,0.2,0,0.3,0,0.5C1.1,32,1.2,32,1.3,32c0.7-0.5,1.4-1,2-1.6c0.1-0.1,0.2-0.4,0.2-0.6
		C3.5,29.4,3.5,29.1,3.5,28.7"/>
	<path class="st0" d="M8.5,26.8c0.5,0,0.9,0.1,1.4,0.1c0.4,0,0.9,0.1,1.3,0.1c0.1,0,0.2,0,0.3,0c0.3,0.1,0.4,0.2,0.4,0.4
		c0,0.2-0.2,0.4-0.5,0.3c-0.7-0.1-1.5-0.1-2.2-0.2c-0.3,0-0.5,0-0.8-0.1c0,0.2-0.1,0.3-0.1,0.5c-0.2,1.2-0.4,2.4-0.6,3.6
		c0,0.3-0.1,0.5-0.1,0.8c0,0.3-0.2,0.4-0.4,0.4c-0.2,0-0.3-0.2-0.3-0.4s0-0.4,0-0.6c0.2-1.3,0.4-2.7,0.6-4c0-0.1,0-0.2,0-0.4
		c-0.2,0-0.4-0.1-0.6-0.1c-0.4,0-0.8-0.1-1.1-0.1c-0.1,0-0.2,0-0.3-0.1c-0.2-0.1-0.3-0.2-0.3-0.4s0.2-0.3,0.4-0.3
		c0.3,0,0.5,0.1,0.8,0.1c0.4,0,0.8,0.1,1.3,0.1c0-0.1,0.1-0.3,0.1-0.4c0.3-1.1,0.6-2.3,0.9-3.4c0-0.1,0.1-0.2,0.1-0.4
		C8.9,22.1,9.1,22,9.4,22c0.2,0,0.5,0.3,0.5,0.5s-0.1,0.4-0.3,0.4S9.4,23,9.3,23.2c-0.2,1-0.5,2.1-0.7,3.1
		C8.5,26.7,8.5,26.7,8.5,26.8"/>
	<path class="st0" d="M18.1,18.2c-0.4-0.2-0.7-0.3-1-0.2c-0.3,0.1-0.5-0.1-0.5-0.3c0-0.2,0.1-0.5,0.4-0.5s0.6,0,0.9,0.1
		c0.2,0,0.4,0.1,0.6,0.2c0.1-0.1,0.1-0.2,0.2-0.3c0.7-1.5,1.2-2.4,1.5-4c0-0.2,0.1-0.4,0.1-0.6c0.1-0.4,0.5-0.5,0.9-0.3
		c0.3,0.2,0.3,0.5,0,0.7c-0.2,0-0.2,0.1-0.3,0.3c-0.3,1.6-0.8,2.5-1.5,4c0,0.1-0.1,0.2-0.1,0.3c0.3,0.2,0.7,0.1,1,0.1
		c0.1-0.4,0.2-0.8,0.4-1.2c0.2-0.5,0.4-1,0.8-1.4c0.2-0.2,0.5-0.4,0.8-0.4c0.5,0,0.7,0.2,0.6,0.7c0,0.2-0.1,0.4-0.2,0.6
		c-0.4,0.8-0.8,1.6-1.6,2.2c-0.1,0.1-0.2,0.3-0.2,0.4c0,0.2,0,0.5,0,0.7c0.1,0.5,0.5,0.7,0.9,0.3c0.1-0.1,0.3-0.2,0.5-0.1
		s0.2,0.3,0.1,0.5c-0.1,0.3-0.4,0.5-0.7,0.6c-0.8,0.1-1.5-0.4-1.6-1.2c0-0.3,0-0.5,0-0.8c-0.4,0-0.9-0.1-1.4-0.1
		c-0.5,1-1.1,2-1.4,3.1c0,0.2-0.1,0.3-0.1,0.5c-0.1,0.3-0.4,0.4-0.6,0.3s-0.4-0.3-0.2-0.5c0.2-0.2,0.2-0.5,0.3-0.8
		c0.3-0.7,0.6-1.4,0.9-2.1C17.9,18.6,18,18.4,18.1,18.2 M21.5,16.6C21.5,16.6,21.6,16.6,21.5,16.6c0.3-0.2,0.5-0.6,0.6-0.9
		C21.7,15.9,21.6,16.2,21.5,16.6"/>
	<path class="st0" d="M10,19.5c-0.1,0.1-0.3,0.1-0.4,0.2c-0.1,0.1-0.2,0.1-0.4,0.1c-0.5,0.1-1,0.1-1.4-0.3c-0.3-0.4-0.2-0.9,0-1.3
		c0.4-0.9,1-1.7,1.9-2.3c0.2-0.1,0.4-0.2,0.6-0.2c0.4-0.1,0.7,0.2,0.7,0.5c0,0.1,0,0.2,0.1,0.3c0.3,0.3,0.2,0.6,0.1,0.9
		c-0.3,0.8-0.5,1.6-0.5,2.5c0,0.4,0.1,0.7,0.5,0.8c0.1,0,0.2,0.1,0.2,0.1c0.2,0.1,0.2,0.3,0.2,0.4c-0.1,0.2-0.2,0.2-0.4,0.2
		c-0.6,0-1.1-0.5-1.2-1.1C10.1,20,10,19.8,10,19.5 M10.3,16.4c-0.8,0.5-1.3,1.2-1.7,2c-0.1,0.1-0.1,0.5,0,0.5C8.8,19.1,9,19,9.3,19
		c0.1,0,0.2-0.1,0.2-0.2c0.2-0.3,0.5-0.6,0.7-0.9C10.4,17.5,10.5,17,10.3,16.4"/>
	<path class="st0" d="M14.7,20.3c-0.1-0.2-0.2-0.5-0.2-0.7c-0.2-0.6-0.4-1.3-0.6-1.9c-0.2-0.6-0.1-1.2,0.4-1.7
		c0.3-0.3,0.6-0.4,1-0.3c0.5,0.1,0.9,0.5,1.1,1c0.1,0.2,0.1,0.3-0.1,0.5c-0.2,0.1-0.3,0.1-0.5,0s-0.3-0.3-0.4-0.4
		c-0.4-0.3-0.7-0.2-0.8,0.2c-0.1,0.2,0,0.5,0,0.7c0.2,0.6,0.4,1.2,0.6,1.8c0.1,0.2,0.2,0.5,0.2,0.7c0.1,0.4-0.1,0.7-0.5,0.9
		c-0.7,0.2-1.4,0.3-2,0.1c-0.5-0.1-0.8-0.5-0.9-1.1c-0.1-0.6,0-1.1,0.5-1.5c0.1-0.1,0.2-0.1,0.2-0.1c0.2-0.1,0.4-0.1,0.5,0.1
		s0.1,0.4-0.1,0.5c-0.3,0.2-0.4,0.5-0.4,0.8c0,0.2,0.2,0.4,0.4,0.5C13.7,20.4,14.2,20.4,14.7,20.3"/>
	<path class="st0" d="M30.6,16c-0.1,0.4,0,0.8,0.1,1.2c0.1,0.5,0.3,1,0.4,1.5c0.1,0.6-0.1,1-0.6,1.4s-1.1,0.6-1.7,0.6
		c-0.4,0-0.7-0.2-0.8-0.6c-0.1-0.2,0-0.4,0.2-0.5s0.4-0.1,0.5,0.1s0.3,0.2,0.5,0.2c0.4,0,0.7-0.3,1-0.6c0.1-0.1,0.2-0.4,0.1-0.5
		c-0.1-0.4-0.2-0.8-0.3-1.2c-0.2-0.5-0.3-0.9-0.2-1.4c0-0.7,0.3-1,1-1c0.1,0,0.3,0,0.4,0c0.6,0,0.8,0.3,1,0.8
		c0.1,0.2,0.1,0.5,0.1,0.8c0,0.2,0,0.4-0.2,0.4c-0.2,0.1-0.4,0-0.5-0.2c-0.1-0.1-0.1-0.3-0.2-0.5C31.4,15.9,31.3,15.9,30.6,16"/>
	<path class="st0" d="M24.5,18.1c0.2-0.2,0.4-0.4,0.6-0.6c0.5-0.4,1-0.9,1.5-1.3c0.2-0.2,0.5-0.2,0.6,0s0.1,0.4-0.1,0.6
		C27,16.9,26.9,17,26.8,17c-0.8,0.6-1.5,1.3-2.1,2c-0.2,0.3-0.4,0.7-0.6,1c-0.1,0.2-0.2,0.4-0.5,0.3c-0.2,0-0.3-0.2-0.3-0.5
		c0-0.1,0-0.2,0-0.3c0.1-0.8,0.2-1.6,0.3-2.4c0-0.2,0.1-0.4,0.2-0.6c0.2-0.2,0.4-0.2,0.6-0.1s0.2,0.3,0.1,0.5
		C24.5,17.4,24.5,17.5,24.5,18.1"/>
	<path class="st0" d="M1.9,16.8c0.1-0.1,0.2-0.2,0.4-0.2c0.5-0.2,0.9-0.1,1.1,0.4c0.1,0.2,0.2,0.5,0.2,0.8c0.1-0.1,0.2-0.2,0.3-0.3
		c0.4-0.4,0.8-0.8,1.3-1.2c0.3-0.3,0.6-0.5,1-0.3c0.3,0.2,0.3,0.5,0.3,0.9c0,0.9-0.1,1.9-0.1,2.8c0,0.2,0,0.3,0,0.6
		c0.2-0.1,0.3-0.2,0.3-0.2c0.1-0.1,0.1-0.2,0.1-0.3c0.1-0.1,0.2-0.2,0.4-0.2c0.2,0,0.3,0.2,0.3,0.4c0,0.4-0.2,0.6-0.5,0.8
		C6.9,20.9,6.6,21,6.3,21c-0.4,0-0.7-0.2-0.7-0.7c0-0.4,0-0.7,0-1.1c0-0.7,0-1.5,0-2.3c0,0.1-0.1,0.1-0.2,0.2
		c-0.6,0.5-1.1,1.1-1.6,1.8c-0.1,0.2-0.2,0.4-0.3,0.6s-0.2,0.4-0.3,0.6S3,20.3,2.8,20.3c-0.2-0.1-0.3-0.2-0.3-0.4
		c0-0.2,0.1-0.5,0.2-0.7c0.3-0.7,0.1-1.3-0.1-2.1c-0.2,0.2-0.3,0.3-0.5,0.5c-0.5,0.6-0.9,1.3-1.1,2.1c-0.1,0.3-0.2,0.7-0.3,1
		c0,0.2-0.1,0.3-0.4,0.3C0.1,20.9,0,20.7,0,20.5c0-0.3,0.1-0.6,0.2-0.9c0.2-0.5,0.4-1.1,0.6-1.6c0.1-0.3,0.1-0.7,0.2-1
		c0-0.1,0-0.3,0.1-0.4c0.1-0.3,0.5-0.4,0.7-0.1C1.8,16.6,1.9,16.7,1.9,16.8"/>
</g>
<g>
	<path class="st0" d="M49,15.6c0.1-0.1,0.1-0.1,0.1-0.2c0.2-0.2,0.4-0.3,0.7-0.1c0.2,0.2,0.4,0.5,0.2,0.7c-0.2,0.3-0.2,0.6-0.2,0.9
		c-0.1,1.4-0.8,2.5-1.9,3.4c-0.5,0.4-1,0.5-1.5,0.3c-0.4-0.1-0.6-0.4-0.6-0.9c0-0.6,0.1-1.1,0.4-1.6c0.2-0.4,0.5-0.8,0.8-1.3
		c-0.6,0.1-1.1,0.2-1.6,0.5s-0.9,0.6-1.2,1.1c-0.4,0.7-1,1.4-1.5,2.1c-0.1,0.2-0.3,0.3-0.5,0.2C42,20.6,42,20.4,42,20.2
		c0-0.3,0.1-0.6,0.2-0.9c0.3-0.6,0.7-1.1,1.3-1.5c0.4-0.3,0.5-0.6,0.5-1.1c0-0.2,0-0.4,0-0.6c0-0.2,0.2-0.3,0.4-0.3s0.3,0.2,0.4,0.4
		c0,0.2,0,0.4,0,0.6c0.1,0,0.2-0.1,0.3-0.1c0.4-0.2,0.9-0.3,1.3-0.5c0.2-0.1,0.4-0.1,0.6-0.2c0.4-0.2,0.4-0.2,0.8,0.1
		C48.1,15.8,48.5,15.4,49,15.6 M48.5,16.5c-0.1,0.1-0.2,0.1-0.2,0.2c-0.6,0.6-1.1,1.2-1.4,1.9c-0.1,0.2-0.2,0.5-0.3,0.8
		c-0.1,0.5,0.2,0.7,0.6,0.5c0.1,0,0.2-0.1,0.3-0.2c0.5-0.4,0.9-0.9,1.2-1.5c0.1-0.4,0.3-0.7,0.2-1.1C48.8,17,48.6,16.7,48.5,16.5"/>
	<path class="st0" d="M52.4,19.8c-0.4,0-0.8,0.1-1.1,0c-0.7-0.1-1-0.5-0.9-1.2c0-0.2,0.1-0.4,0.2-0.6c0.5-0.9,1.3-1.5,2.3-1.8
		c0.4-0.1,0.8-0.1,1.2,0.2c0.3,0.3,0.2,0.7,0.3,1.1c0,0.1-0.1,0.2-0.1,0.2C54,17.8,54,18,53.9,18.3c-0.3,0.9-0.6,1.7-0.9,2.6
		c-0.2,0.6-0.4,1.2-0.7,1.8c-0.3,0.8-0.8,1.5-1.3,2.1c-0.7,0.7-1.5,1.2-2.5,1.4c-0.2,0-0.3,0-0.5,0c-0.4,0-0.7-0.3-0.8-0.7
		c0-0.3-0.1-0.7,0-1c0.2-0.7,0.5-1.2,1-1.7c0.1-0.1,0.2-0.1,0.2-0.1c0.1,0,0.3,0,0.4,0.1c0.1,0.1,0.1,0.2,0.1,0.3
		c0,0.1-0.1,0.2-0.2,0.3c-0.2,0.3-0.4,0.6-0.6,0.9c-0.1,0.2-0.2,0.4-0.2,0.6c0,0.4,0.1,0.5,0.5,0.4c0.3-0.1,0.7-0.2,1-0.3
		c0.4-0.2,0.7-0.5,1-0.8c0.2-0.2,0.4-0.4,0.5-0.7C51.4,22.7,52.2,20.8,52.4,19.8 M53.3,16.9c-1,0-2.3,1.2-2.2,2
		c0.5,0.1,0.8,0.1,1.2-0.2C52.9,18.3,53.2,17.7,53.3,16.9"/>
	<path class="st0" d="M68.7,16.4c0.2-0.2,0.4-0.4,0.5-0.5c0.2-0.2,0.5-0.3,0.7-0.2c0.3,0.1,0.3,0.4,0.3,0.6c0,0.6,0,1.2,0,1.7
		c0,0.7,0,1.3,0.3,2c0.1,0.2,0.1,0.4-0.1,0.5s-0.4,0.1-0.5-0.2c-0.3-0.5-0.4-1-0.4-1.5c0-0.6,0-1.1,0-1.7c0-0.1,0-0.2,0-0.5
		c-0.2,0.2-0.3,0.3-0.4,0.5c-0.4,0.6-0.7,1.2-1.1,1.8c-0.2,0.3-0.4,0.7-0.6,1c-0.1,0.1-0.2,0.3-0.3,0.3c-0.1,0.1-0.3,0.1-0.5,0
		s-0.2-0.3-0.2-0.4c0.1-0.2,0.2-0.5,0.3-0.7c0.3-0.7,0.7-1.3,1-2c0.1-0.3,0.2-0.6,0.1-1c-0.2,0.1-0.3,0.2-0.4,0.3
		c-0.5,0.7-1.1,1.3-1.6,2c-0.3,0.4-0.6,0.8-0.8,1.2c-0.1,0.1-0.1,0.2-0.2,0.3c-0.1,0.2-0.3,0.2-0.5,0.1C64,20,64,19.8,64,19.6
		c0.1-0.3,0.2-0.6,0.3-1c0.3-0.9,0.7-1.7,0.8-2.6c0-0.1,0-0.1,0.1-0.2c0.1-0.2,0.2-0.3,0.4-0.3c0.2,0,0.3,0.2,0.3,0.4
		c0,0.3-0.1,0.5-0.1,0.8c0,0.1,0,0.2-0.1,0.5c0.1-0.1,0.2-0.2,0.3-0.3c0.3-0.4,0.7-0.8,1-1.1c0.2-0.2,0.4-0.3,0.6-0.4
		c0.5-0.2,0.8,0,0.9,0.5C68.6,16,68.6,16.2,68.7,16.4"/>
	<path class="st0" d="M62.5,16.2c0.1,0,0.2,0,0.2-0.1c0.3,0,0.5,0.1,0.5,0.5c0,0.2-0.1,0.4-0.2,0.5c-0.2,0.6-0.4,1.2-0.5,1.8
		c0,0.2,0,0.3,0,0.5h0.1c0.1-0.1,0.2-0.2,0.3-0.3c0.1-0.1,0.3-0.2,0.4-0.1c0.2,0.1,0.2,0.3,0.2,0.5c-0.1,0.4-0.5,0.6-0.9,0.6
		c-0.5,0-0.8-0.2-0.9-0.7c0-0.1,0-0.3-0.1-0.5c-0.3,0.2-0.5,0.4-0.7,0.6c-0.5,0.4-1.1,0.5-1.7,0.4c-0.5-0.1-0.7-0.3-0.7-0.9
		c0-0.2,0-0.5,0.1-0.7c0.4-1.1,1-2,2-2.6c0.3-0.2,0.6-0.3,1-0.3s0.6,0.1,0.7,0.6C62.4,16.1,62.5,16.1,62.5,16.2 M59.4,19.2
		c0.4,0.1,0.8,0.1,1.1-0.2c0.3-0.3,0.6-0.5,0.9-0.8c0.3-0.3,0.6-0.7,0.3-1.2c-0.1-0.1,0-0.3,0-0.4s0-0.2,0-0.3
		C60.7,16.5,59.4,18.2,59.4,19.2"/>
	<path class="st0" d="M56.6,16.7c0.2-0.1,0.3-0.2,0.4-0.3c0.4-0.4,1-0.7,1.6-0.8c0.3-0.1,0.5,0,0.5,0.2c0.1,0.2-0.1,0.4-0.3,0.5
		c-0.1,0-0.1,0.1-0.2,0.1c-0.9,0.2-1.4,0.8-1.9,1.5c-0.1,0.1-0.1,0.3-0.2,0.4c-0.2,0.5-0.3,0.9-0.5,1.3c-0.1,0.2-0.3,0.4-0.4,0.5
		c-0.3,0.2-0.7,0.1-0.8-0.3c0-0.3,0-0.5,0.1-0.8c0.2-0.4,0.4-0.7,0.6-1c0.2-0.3,0.3-0.6,0.3-0.9s0-0.5,0-0.8c0-0.1,0-0.3,0.1-0.4
		c0.1-0.2,0.3-0.3,0.5-0.2s0.3,0.2,0.3,0.4C56.7,16.4,56.6,16.5,56.6,16.7"/>
	<path class="st0" d="M39.1,17.4c0.2-0.3,0.4-0.6,0.7-0.8c0.2-0.2,0.4-0.4,0.7-0.6c0.7-0.4,1.5-0.1,1.7,0.7c0.3,0.9,0.1,1.8-0.7,2.5
		c-0.5,0.4-1,0.8-1.6,0.9c-0.5,0.1-0.8-0.1-0.9-0.6c0-0.2,0-0.3,0.2-0.4s0.3,0,0.4,0.2c0,0.1,0.1,0.1,0.1,0.2
		c0.2-0.1,0.4-0.1,0.5-0.2c0.3-0.2,0.5-0.4,0.8-0.6c0.6-0.5,0.6-1.1,0.4-1.7c-0.1-0.3-0.3-0.5-0.6-0.3c-0.2,0.1-0.3,0.2-0.5,0.3
		c-0.8,0.9-1.5,1.9-1.8,3.1s-0.4,1.6-0.7,2.8c-0.2,0.8-0.5,1.7-0.8,2.5c-0.1,0.4-0.3,0.5-0.5,0.5s-0.3-0.2-0.3-0.6
		c0-0.3,0-0.6,0.1-0.8c0.4-1.5,0.6-2.2,1.1-3.7c0.2-0.6,0.5-1.1,0.7-1.7c0.1-0.3,0.2-0.6,0.2-0.8C38.5,17.5,38.5,17.4,39.1,17.4"/>
</g>
</svg>
