<?xml version="1.0" encoding="utf-8"?>
<!-- Generator: Adobe Illustrator 19.2.1, SVG Export Plug-In . SVG Version: 6.00 Build 0)  -->
<svg version="1.1" id="Layer_1" xmlns="http://www.w3.org/2000/svg" xmlns:xlink="http://www.w3.org/1999/xlink" x="0px" y="0px"
	 viewBox="0 0 70.1 33.6" style="enable-background:new 0 0 70.1 33.6;" xml:space="preserve">
<style type="text/css">
	.st0{fill:#003A70;}
</style>
<title>accepted_into_master</title>
<path class="st0" d="M56.8,8.2c-0.2,0.2-0.5,0.4-0.7,0.6c-0.4,0.3-0.8,0.6-1.2,0.9c-0.3,0.2-0.6,0.3-1,0.3c-0.5,0-0.8-0.3-0.8-0.8
	c0-0.6,0.1-1.2,0.3-1.8c0.1-0.3,0.3-0.7,0.4-1C53.9,6.2,53.9,6,54,5.7c-0.2,0.1-0.3,0.1-0.4,0.1c-0.6,0.4-1.1,0.8-1.4,1.5
	c-0.4,0.9-1.1,1.5-1.8,2.1c-0.2,0.1-0.3,0.2-0.5,0c-0.3-0.2-0.3-0.4-0.2-0.5c0.1-0.2,0.2-0.3,0.3-0.5c0.4-0.5,0.8-1.1,1.3-1.6
	c0.4-0.5,0.3-0.9,0.2-1.4c0-0.1-0.1-0.1-0.1-0.2c-0.1-0.3-0.1-0.5,0.1-0.6c0.2-0.1,0.4,0,0.6,0.2c0.1,0.1,0.1,0.2,0.2,0.3
	c0,0.1,0.1,0.2,0.1,0.4c0.2-0.1,0.3-0.2,0.4-0.3c0.3-0.2,0.7-0.4,1-0.5c0.5,0,0.8,0.2,0.8,0.7c0,0.3-0.1,0.7-0.1,1
	c-0.1,0.4-0.3,0.8-0.4,1.2c-0.2,0.5-0.3,1-0.2,1.5c0.3,0.1,0.5,0,0.7-0.2C55,8.6,55.4,8.3,55.8,8c0.1-0.1,0.2-0.2,0.3-0.3
	c0.4-0.3,0.5-0.3,1,0c0.3-0.8,0.7-1.7,1-2.6c-0.6,0.1-0.8,0.4-1,0.8C57,6,57,6.2,57,6.3c-0.1,0.3-0.3,0.4-0.5,0.3s-0.3-0.2-0.2-0.5
	c0.2-0.8,0.6-1.5,1.5-1.7c0.7-0.1,0.8-0.5,1-1.1c0.3-1,0.8-1.9,1.1-2.9c0-0.1,0.1-0.2,0.1-0.2c0.2-0.2,0.6-0.1,0.6,0.2
	c0,0.4-0.1,0.9-0.1,1.3c0,0.1-0.1,0.2-0.2,0.2c-0.3,0-0.3,0.2-0.4,0.4c-0.3,0.6-0.5,1.2-0.7,1.8c0.2,0,0.3,0,0.3,0
	c0.8,0,1.5,0.1,2.3,0.4c0.1,0,0.3,0,0.4,0c0.2,0,0.5-0.1,0.7,0c0.3,0.1,0.4,0.3,0.2,0.6c-0.1,0.1-0.1,0.2,0,0.4
	c0.3,1.5-0.2,2.8-1.5,3.7c-0.3,0.2-0.6,0.2-0.9,0.2c-0.6-0.1-1-0.4-1-1c0-0.7,0.2-1.4,0.6-1.9c0.3-0.3,0.5-0.6,0.8-0.9
	c0.1-0.1,0.1-0.2,0.2-0.3C60.6,5,59.8,4.9,59.1,5c-0.1,0-0.2,0.1-0.2,0.2c-0.4,1-0.8,2.1-1.2,3.1c-0.1,0.4-0.2,0.8-0.3,1.3
	c0,0.1-0.1,0.3-0.1,0.4c-0.1,0.2-0.4,0.3-0.6,0.2c-0.2-0.1-0.2-0.3-0.1-0.5C56.6,9.2,56.8,8.7,56.8,8.2C56.9,8.2,56.8,8.2,56.8,8.2
	 M62.4,5.3L62.4,5.3c-0.6,0.5-1.1,1.1-1.5,1.6c-0.2,0.5-0.3,0.9-0.3,1.3s0.2,0.6,0.6,0.4c0.1-0.1,0.2-0.1,0.3-0.2
	c0.6-0.5,0.9-1.2,0.9-2C62.4,6,62.4,5.7,62.4,5.3"/>
<path class="st0" d="M26.7,9.8c-0.5,1.2-1,2.4-1.5,3.5c-0.1,0.1-0.1,0.3-0.2,0.4c-0.1,0.1-0.2,0.2-0.4,0.2c-0.2-0.1-0.3-0.2-0.3-0.4
	s0.1-0.3,0.1-0.5c0.3-0.7,0.6-1.4,0.9-2.1c0.1-0.1,0.1-0.3,0.2-0.5c-1.3,0.1-2-0.4-2.3-1.7C23,8.9,23,9,22.8,9.1
	c-0.4,0.3-0.7,0.7-1.1,1c-1.1,0.7-2.4,0.1-2.6-1.2c-0.2-1.2-0.1-2.3,0.5-3.3c0.2-0.3,0.4-0.5,0.6-0.8c0.3-0.3,0.6-0.4,1-0.3
	s0.6,0.3,0.6,0.7c0,0.2-0.1,0.4-0.3,0.4c-0.2,0.1-0.3,0-0.4-0.2c0-0.1-0.1-0.1-0.2-0.2c-0.2,0.1-0.3,0.2-0.4,0.3
	c-0.3,0.4-0.5,0.9-0.6,1.4s-0.1,1-0.1,1.5c0.1,1,0.9,1.4,1.7,0.8c0.6-0.4,1-1,1.4-1.5c-0.3-0.3-0.6-0.6-0.3-1
	c0.2-0.4,0.5-0.5,0.9-0.4c0.2-0.4,0.4-0.8,0.6-1.2c0.4-0.7,0.8-0.8,1.6-0.6c0.5,0.1,0.7,0.4,0.7,0.9c0,0.6-0.3,1.1-0.7,1.5
	c-0.5,0.5-1,0.8-1.6,1.1c0,0.3,0,0.6,0.1,0.9c0.1,0.4,0.4,0.7,0.8,0.7c0.2,0,0.4,0,0.5-0.2c0.1-0.1,0.2-0.2,0.3-0.2
	c0.3,0,0.4-0.2,0.5-0.4c0.3-1,0.7-1.9,1-2.8c0.1-0.4,0.3-0.7,0.8-0.6c0.1,0,0.2-0.1,0.4-0.1c0.2,0,0.4-0.1,0.6-0.1
	c0.4,0,0.7,0.2,0.8,0.6c0.2,0.6,0.2,1.2-0.1,1.7c-0.4,0.8-0.9,1.5-1.6,2.1c-0.1,0.1-0.3,0.2-0.4,0.3C27.4,10.2,27.1,10.3,26.7,9.8
	 M27.1,8.8h0.1c0.1,0.2,0.2,0.3,0.3,0.5c0.8-0.6,1.4-1.3,1.7-2.1c0.1-0.4,0.1-0.7,0-1.1c-0.3-0.1-0.5,0-0.7,0.2S28.1,6.8,28,7
	C27.6,7.6,27.4,8.2,27.1,8.8 M25.5,5.2c-0.2-0.1-0.5-0.1-0.6,0.1c-0.4,0.5-0.6,1-0.7,1.7C25.1,6.6,25.6,5.9,25.5,5.2"/>
<path class="st0" d="M9.8,7.5C9.6,7.6,9.5,7.8,9.3,7.9C9.2,8,9.2,8.1,9.1,8.2c-0.5,0.9-0.9,1.7-1.2,2.7c0,0.1,0,0.2-0.1,0.3
	c-0.1,0.1-0.3,0.2-0.4,0.2s-0.2-0.2-0.3-0.3c0-0.1,0-0.3,0-0.4c0.1-0.3,0.2-0.6,0.3-0.9c0.5-1,1-2,1.5-3c0.8-1.7,1.6-3.3,2.4-5
	c0.1-0.2,0.1-0.5,0.2-0.8c0.1-0.3,0.1-0.4,0.1-0.5c0.1-0.2,0.2-0.3,0.4-0.3s0.3,0.2,0.3,0.3c0,0.2,0,0.4,0,0.7
	c0.2-0.1,0.3-0.2,0.4-0.3c0.1-0.1,0.3-0.3,0.4-0.4c0.3-0.2,0.7-0.2,0.8,0.2c0.1,0.2,0.2,0.5,0.2,0.7c0.1,1.4,0.1,2.8-0.3,4.2
	c0,0.1-0.1,0.2,0,0.2c0.1,0.5-0.2,0.9-0.4,1.3C13,8,12.7,9,12.4,9.9c-0.2,0.5-0.4,1-0.6,1.5c-0.1,0.2-0.3,0.5-0.5,0.7
	c-0.1,0.1-0.2,0.1-0.4,0.2c-0.2,0-0.4,0-0.4-0.2c-0.1-0.2,0-0.3,0.1-0.4c0.5-0.3,0.7-0.8,0.9-1.3c0.4-0.9,0.7-1.8,1-2.7
	c0-0.1,0.1-0.2,0.1-0.4C11.6,7.2,10.7,7.3,9.8,7.5C9.8,7.4,9.8,7.4,9.8,7.5 M13.3,1.5c-0.5,0.4-2.9,4.2-3.1,5.1
	c0.8-0.1,1.6-0.2,2.4-0.2c0.2,0,0.3-0.2,0.4-0.4c0.4-1.4,0.5-2.9,0.4-4.4C13.3,1.6,13.3,1.5,13.3,1.5"/>
<path class="st0" d="M34.2,8.6c-0.2,0.1-0.4,0.2-0.5,0.2c-0.5,0.2-1,0.2-1.5,0.1c-0.6-0.2-0.9-0.5-0.9-1.2c0-0.6,0.1-1.1,0.2-1.6
	c0.3-0.9,0.7-1.9,1-2.8c0.1-0.1,0.1-0.3,0.2-0.5c-0.4,0-0.8,0.1-1.1,0.4c-0.3,0.2-0.4,0.2-0.6,0.1c-0.2-0.2-0.2-0.5,0-0.7
	c0.1-0.1,0.3-0.2,0.4-0.2c0.4-0.1,0.9-0.3,1.3-0.4c0.4-0.1,0.7-0.7,0.5-1.1c-0.1-0.1-0.1-0.3-0.1-0.4c0-0.3,0.2-0.5,0.5-0.5
	c0.2,0,0.5,0.2,0.5,0.5s0,0.6-0.1,1c0,0.2-0.1,0.3-0.1,0.5c0.2,0,0.4,0,0.5,0c0.2,0,0.5,0,0.7,0.1c0.3,0.1,0.4,0.3,0.4,0.5
	c-0.1,0.2-0.2,0.3-0.5,0.3c-0.4,0-0.8,0-1.1-0.1c-0.1-0.2-0.3-0.1-0.3,0.1c-0.4,1.2-0.9,2.5-1.3,3.7c-0.1,0.3-0.1,0.7-0.1,1
	s0.1,0.4,0.4,0.5c0.3,0.1,0.6,0.1,0.9-0.1c0.1,0,0.3-0.1,0.4-0.2c0.3-0.2,0.5-0.4,0.5-0.7c0.2-0.8,0.6-1.6,1.2-2.2
	c0.1-0.2,0.3-0.3,0.5-0.4c0.4-0.2,0.7,0.1,0.7,0.5c0,0.2-0.1,0.4-0.2,0.6c-0.3,0.8-0.7,1.5-1.3,2.1C34.9,8.1,35,8.5,35,8.9
	c0,0.1,0.1,0.2,0.2,0.2c0.1,0,0.2-0.1,0.2-0.1c0.1-0.2,0.2-0.3,0.3-0.5c0.1-0.3,0.3-0.4,0.5-0.3c0.2,0.1,0.3,0.3,0.2,0.6
	S36.2,9.3,36,9.5c-0.3,0.4-0.6,0.5-1,0.4c-0.4-0.1-0.7-0.4-0.8-0.8C34.3,8.9,34.2,8.8,34.2,8.6"/>
<path class="st0" d="M40.5,8.1c-0.2,0.2-0.5,0.5-0.7,0.6c-0.3,0.2-0.6,0.5-1,0.7c-0.5,0.3-1,0.3-1.5,0.2c-0.5-0.1-0.7-0.4-0.7-0.8
	c0-0.4,0.1-0.8,0.3-1.1c0.6-0.9,1.3-1.7,2.2-2.3C39.6,5.1,40,5,40.8,5.3c0-0.2,0.1-0.4,0.1-0.6c0.2-1.2,0.6-2.4,1.2-3.5
	c0.1-0.2,0.3-0.5,0.4-0.7c0.3-0.3,0.6-0.2,0.7,0.2c0,0.2,0,0.4,0,0.6c-0.1,0.3-0.2,0.5-0.3,0.8c-0.7,1.4-1.2,2.9-1.5,4.5
	c-0.1,0.4-0.1,0.9-0.1,1.3c0,0.4,0.1,0.8,0.5,1.1C42,9.1,42,9.3,41.9,9.5c-0.1,0.2-0.3,0.2-0.5,0.1c-0.2-0.1-0.4-0.3-0.5-0.5
	C40.7,8.9,40.6,8.5,40.5,8.1 M40.7,5.9c-0.4,0-0.8-0.1-1.2,0.1c-0.8,0.6-1.4,1.3-1.9,2c-0.2,0.2-0.3,0.5-0.2,0.8
	c0.5,0.1,0.7,0.1,1.1-0.1c0.9-0.5,1.5-1.2,2-2.1C40.6,6.4,40.6,6.2,40.7,5.9"/>
<path class="st0" d="M17.6,5.3c-0.3-0.1-0.5-0.1-0.7,0.1c-0.7,0.8-1.3,1.8-1.3,3c0,0.6,0.2,0.9,0.6,1c0.6,0.2,1.1,0,1.3-0.5
	c0.1-0.1,0.1-0.2,0.2-0.3c0.1-0.2,0.3-0.2,0.5-0.2c0.2,0.1,0.3,0.2,0.2,0.4c0,0.2-0.1,0.3-0.2,0.4c-0.5,0.9-2,1.2-2.8,0.5
	c-0.4-0.2-0.6-0.5-0.6-1s0-0.9,0.1-1.4c0.3-0.9,0.8-1.7,1.5-2.4c0.4-0.5,0.9-0.6,1.5-0.4c0.4,0.1,0.5,0.3,0.5,0.7
	c0,0.4-0.1,0.8-0.3,1.1c-0.2,0.2-0.4,0.3-0.6,0.2c-0.2-0.1-0.2-0.3-0.1-0.6C17.5,5.7,17.6,5.5,17.6,5.3"/>
<path class="st0" d="M46.6,9.9c0.1-0.1,0.1-0.3,0.2-0.5c0.3-0.6,0.7-1.2,1-1.9c0.3-0.6,0.5-1.2,0.7-1.8c0-0.1,0.1-0.3,0.2-0.4
	c0.2-0.2,0.5-0.2,0.7,0s0.2,0.4,0,0.6c-0.1,0.1-0.2,0.2-0.2,0.3c-0.3,1-0.8,1.9-1.3,2.8c-0.2,0.4-0.4,0.7-0.6,1.1
	c-0.1,0.2-0.2,0.3-0.5,0.3C46.7,10.4,46.6,10.2,46.6,9.9"/>
<path class="st0" d="M49.4,3.5c0.1,0,0.2,0,0.2,0.1c0.2,0.2,0.4,0.3,0.6,0.5c0.2,0.2,0.2,0.4,0.1,0.5c-0.1,0.2-0.3,0.2-0.5,0.1
	C49.5,4.5,49.1,4.4,49,4C48.9,3.7,49.1,3.5,49.4,3.5"/>
<g>
	<path class="st0" d="M57,28.3c0.1-0.1,0.2-0.3,0.3-0.4c0.2-0.2,0.3-0.4,0.5-0.5c0.4-0.2,0.7-0.1,0.9,0.3c0.1,0.3,0.1,0.5,0.2,0.9
		c0.1-0.1,0.2-0.2,0.3-0.3c0.1-0.1,0.2-0.1,0.3-0.2c0.2-0.1,0.5-0.2,0.7-0.1c0.3,0.1,0.3,0.4,0.3,0.7c0,0.2,0,0.4-0.1,0.6
		c-0.2,0.8-0.2,1.6-0.2,2.3c0,0.1,0,0.1,0,0.2c0.3,0.1,0.5,0,0.7-0.1c0.4-0.2,0.8-0.4,1.1-0.5c0.2-0.1,0.3-0.3,0.3-0.5
		c0-1.1,0.4-2.1,0.8-3.1c0.1-0.3,0.3-0.6,0.6-0.9c0.3-0.4,0.8-0.4,1.2-0.2c0.4,0.2,0.6,0.5,0.5,0.9s-0.1,0.9-0.3,1.3
		c-0.3,0.9-0.9,1.7-1.6,2.3c-0.1,0.1-0.2,0.1-0.4,0.3c0.3,0.2,0.4,0.3,0.6,0.3c0.4,0.1,0.7,0.2,1.1,0.3c1,0.1,1.9,0.1,2.9-0.1
		c0.4-0.1,0.7-0.3,1.1-0.4l0.1-0.1c0.2-0.1,0.4-0.1,0.5,0.1s0.1,0.4-0.1,0.5c-0.2,0.2-0.5,0.3-0.7,0.4c-0.5,0.1-1,0.3-1.4,0.3
		c-0.9,0.1-1.8,0.1-2.6,0c-0.7-0.1-1.4-0.3-1.9-0.8c-0.4,0.2-0.7,0.3-1.1,0.5c-0.4,0.2-0.9,0.3-1.4,0.3s-0.7-0.2-0.7-0.8
		c0-0.8,0.1-1.6,0.1-2.4c0-0.1,0-0.2,0-0.4c-0.2,0.1-0.2,0.2-0.3,0.3c-0.5,0.6-0.8,1.3-1.2,2c-0.2,0.4-0.4,0.9-0.7,1.3
		c-0.1,0.2-0.3,0.3-0.5,0.5c-0.2,0.1-0.5,0.1-0.6,0c-0.2-0.2-0.2-0.4-0.1-0.6c0.1-0.3,0.3-0.5,0.5-0.7c0.5-0.6,0.8-1.2,1.1-1.8
		c0.2-0.5,0.2-1,0.1-1.6c-0.1,0.1-0.2,0.2-0.3,0.3c-0.8,1.1-1.6,2.2-2.1,3.6c-0.1,0.3-0.2,0.6-0.4,0.8c-0.1,0.1-0.2,0.3-0.3,0.4
		c-0.3,0.2-0.7,0.1-0.7-0.3c0-0.3,0.1-0.5,0.2-0.8c0.2-0.3,0.4-0.6,0.6-0.9c0.2-0.4,0.4-0.8,0.6-1.3c0.2-0.7,0.4-1.3,0.5-2
		c0.1-0.2,0.1-0.4,0.3-0.6c0.1-0.2,0.4-0.2,0.5-0.2c0.2,0.1,0.2,0.3,0.1,0.5C57,28,57,28.1,57,28.3C56.9,28.3,57,28.3,57,28.3
		 M63.3,30.3L63.3,30.3c0.6-0.5,1-1.2,1.3-1.8c0.1-0.2,0.2-0.5,0.2-0.7c0-0.1,0-0.4-0.1-0.4c-0.2-0.1-0.3,0-0.4,0.2
		c-0.1,0.2-0.2,0.3-0.3,0.5c-0.2,0.6-0.4,1.1-0.6,1.7C63.4,29.9,63.4,30.1,63.3,30.3"/>
	<path class="st0" d="M51.6,25.2c0,0.7-0.1,1.4-0.4,2.1c-0.3,0.7-0.6,1.5-1,2.2c-0.6,1-1.4,1.8-2.4,2.3c-1,0.5-2.1,0.9-3.2,1.4
		c-0.2,0.1-0.3,0.1-0.5,0.1c-0.3,0.1-0.5,0.1-0.7-0.2c-0.2-0.2-0.1-0.5,0.1-0.7c0.1-0.3,0.3-0.5,0.4-0.8c0.5-1,1-2.1,1.5-3.1
		c0.6-1.1,1.1-2.3,1.7-3.4c0.2-0.3,0.4-0.6,0.3-1c0-0.1,0.1-0.3,0.2-0.4c0.2-0.1,0.3-0.2,0.4-0.4c0.3-0.5,0.7-0.8,1.3-0.8
		c0.1,0,0.1,0,0.2,0c1.2,0,1.9,0.5,2.1,1.8C51.6,24.7,51.6,24.9,51.6,25.2 M44.5,32.4c0.2,0,0.2,0,0.3-0.1c0.9-0.4,1.8-0.8,2.7-1.2
		c0.8-0.4,1.5-1.1,2-1.9c0.4-0.7,0.7-1.5,1.1-2.3c0.3-0.7,0.4-1.5,0.3-2.3c-0.1-1-0.4-1.3-1.4-1.2c-0.3,0-0.6,0.1-0.7,0.4
		c-0.1,0.3-0.2,0.6-0.4,0.8c-0.6,1.2-1.3,2.4-1.9,3.7c-0.6,1.2-1.1,2.3-1.7,3.5C44.7,32,44.6,32.1,44.5,32.4"/>
	<path class="st0" d="M54.1,28.1c0.1,0,0.2,0,0.2,0c0.5,0,0.7,0.2,0.4,0.7c-0.3,0.7-0.7,1.3-1.1,1.9c-0.2,0.4-0.3,0.8-0.3,1.3
		c0.1,0,0.3,0,0.4,0c0.2,0,0.3,0.1,0.4,0.3c0.1,0.2-0.1,0.3-0.2,0.4c-0.5,0.3-1.1,0.1-1.3-0.4c0.1-0.2,0-0.3,0-0.4
		c-0.4,0-0.7,0.1-1,0.1c-0.8,0-1.2-0.5-1.2-1.3c0-1.8,0.9-3,2.4-3.9c0.2-0.1,0.5-0.2,0.7-0.2c0.4,0,0.6,0.2,0.6,0.6
		C54.1,27.5,54.1,27.8,54.1,28.1 M53.3,27.5c-0.1,0-0.2,0-0.2,0c-0.1,0.1-0.2,0.1-0.3,0.2c-1,0.7-1.6,1.6-1.6,2.9
		c0,0.5,0.1,0.6,0.6,0.6s0.9-0.3,1.1-0.7c0.3-0.5,0.6-1.1,0.9-1.7C53.3,28.5,53.3,28,53.3,27.5"/>
</g>
<g>
	<path class="st0" d="M19,26.8c-0.1,0.1-0.2,0.3-0.3,0.4c-0.7,1.1-1.3,2.2-2,3.2c-0.3,0.5-0.7,1-1.1,1.5c-0.1,0.2-0.4,0.3-0.6,0.4
		c-0.1,0.1-0.3,0-0.4-0.1c-0.1-0.1-0.1-0.3-0.1-0.4s0.1-0.2,0.1-0.3c0.8-1.6,1.7-3.1,2.5-4.7c0.3-0.6,0.7-1.3,1.1-1.9
		c0.1-0.1,0.1-0.3,0.2-0.4c0.3-0.4,0.6-0.4,1,0l0.1,0.1c0.2-0.3,0.5-0.6,0.7-0.9c0.3-0.3,0.5-0.4,0.7-0.3s0.2,0.4,0.1,0.7
		c-0.4,1-0.8,2-1.1,3.1c-0.4,1.2-0.7,2.3-0.9,3.5c-0.2,0.4-0.2,0.8-0.2,1.2c0,0.1,0,0.2,0.1,0.3c0.3-0.1,0.4-0.3,0.5-0.5
		c0.8-1.2,1.6-2.4,2.3-3.6c0.8-1.3,1.6-2.7,2.4-4.1c0-0.1,0.1-0.1,0.1-0.2c0.3-0.5,0.8-0.5,1,0.1c0.1,0.2,0.2,0.3,0.2,0.5
		c0.1,0.2,0.1,0.3-0.1,0.5c-0.2,0.1-0.3,0.1-0.5,0c-0.1-0.1-0.1-0.1-0.2-0.2c-0.1,0.1-0.2,0.2-0.2,0.3c-0.5,0.9-1.1,1.8-1.6,2.7
		c-0.8,1.5-1.7,2.9-2.7,4.3c-0.2,0.2-0.3,0.5-0.5,0.7c-0.3,0.3-0.6,0.4-1,0.3c-0.4-0.2-0.5-0.5-0.6-0.9c0-0.7,0-1.3,0.2-2
		c0.3-1,0.5-2,0.8-3C19,27,19,26.9,19,26.8L19,26.8"/>
	<path class="st0" d="M31,27.1c0.5,0.2,0.7,0.7,0.8,1.3c0.2-0.2,0.4-0.4,0.6-0.6s0.5-0.4,0.7-0.5c0.3-0.2,0.7-0.1,0.9,0.2
		c0.2,0.2,0.2,0.4,0.1,0.6c-0.1,0.2-0.3,0.2-0.5,0.1c-0.1,0-0.1-0.1-0.2-0.1c-0.6,0.4-1.1,1-1.5,1.6c-0.1-0.1-0.1,0.1-0.1,0.2
		c-0.1,0.6-0.3,1.1-0.6,1.6c-0.2,0.4-0.4,0.5-0.7,0.4c-0.2-0.1-0.4-0.3-0.3-0.7c0.1-0.6,0.3-1.1,0.6-1.6c0.3-0.5,0.2-1.3-0.1-1.7
		c-0.1,0.1-0.1,0.1-0.1,0.2c-0.5,1-1,2-1.5,3c-0.3,0.5-0.5,1.1-0.5,1.7c0,0.2-0.1,0.3-0.1,0.5c-0.1,0.2-0.3,0.4-0.6,0.3
		c-0.3,0-0.5-0.3-0.3-0.6c0.2-0.2,0.2-0.5,0.3-0.7c0.1-0.4,0.2-0.9,0.4-1.3c0.4-0.8,0.8-1.7,1.2-2.5c0.1-0.2,0.2-0.4,0.3-0.6
		c-0.2,0-0.3-0.1-0.4,0c-0.4,0-0.8,0.1-1.2,0.1c-0.3,0-0.6,0.1-0.8,0.4c0,0.1-0.3,0.2-0.4,0.1c-0.1,0-0.2-0.2-0.3-0.3
		c-0.1-0.3,0-0.6,0.3-0.7s0.7-0.3,1-0.3c0.6-0.1,1.1-0.1,1.7-0.1c0.3,0,0.4-0.1,0.5-0.3c0.2-0.5,0.4-1,0.6-1.6
		c0.2-0.4,0.2-0.9,0.1-1.4c0-0.1,0-0.2,0-0.2c0-0.3,0.1-0.4,0.3-0.5c0.2,0,0.4,0.1,0.5,0.3c0,0.1,0.1,0.1,0.1,0.2
		c0,0.7,0.1,1.3-0.1,1.9C31.4,26,31.3,26.5,31,27.1"/>
	<path class="st0" d="M37.6,32.3c-0.6,0-1.3-0.1-1.9-0.3c-0.9-0.3-1.2-0.8-1.2-1.7c0-0.8,0.2-1.6,0.6-2.4c0.2-0.4,0.4-0.7,0.8-0.9
		c0.5-0.3,1.1-0.4,1.6-0.2c0.4,0.1,0.6,0.4,0.6,0.8c0,0.6-0.2,1.1-0.6,1.5c-0.3,0.4-0.8,0.7-1.2,0.9c-0.2,0.1-0.5,0.2-0.7,0.4
		c-0.3,0.2-0.3,0.4,0,0.6c0.2,0.1,0.4,0.2,0.6,0.3c0.7,0.2,1.4,0.2,2.2,0.2c0.2,0,0.4-0.1,0.7-0.1c0.2,0,0.4,0.1,0.4,0.3
		c0.1,0.2-0.1,0.4-0.3,0.5C38.6,32.2,38.1,32.2,37.6,32.3 M35.4,29.6c0.6-0.3,1-0.5,1.4-0.9c0.3-0.3,0.4-0.5,0.5-0.9
		c0-0.2-0.1-0.3-0.3-0.4c-0.4,0-0.7,0.1-1,0.4C35.7,28.3,35.5,28.9,35.4,29.6"/>
	<path class="st0" d="M26.2,29.1c0,0.9-0.2,1.8-0.8,2.5c-0.5,0.6-1.1,1.1-1.9,1c-0.8,0-1.2-0.4-1.2-1.2c0-0.5,0.1-1,0.4-1.5
		c0.4-0.7,0.9-1.3,1.5-1.8c0.5-0.4,0.9-0.5,1.5-0.1c0.1,0,0.1,0.1,0.2,0.1c0.3,0.1,0.4,0.2,0.4,0.5C26.2,28.8,26.2,28.9,26.2,29.1
		 M23,31.3c0,0.5,0.2,0.7,0.7,0.6c0.3-0.1,0.6-0.2,0.7-0.4c0.7-0.7,1.1-1.5,0.8-2.5c-0.1-0.4-0.2-0.5-0.6-0.2
		c-0.6,0.5-1.1,1-1.4,1.7C23.2,30.7,23.1,31,23,31.3"/>
	<path class="st0" d="M4.1,31.3c-0.1,0.1-0.2,0.2-0.3,0.2c-0.4,0.3-0.9,0.7-1.3,1c-0.2,0.1-0.5,0.2-0.8,0.2C1.3,32.7,1,32.5,1,32
		c0-0.2,0-0.4,0-0.6c0.1-1,0.4-1.9,0.9-2.7c0.7-1.1,1.4-1.2,2.5-1c0.2,0,0.3,0.2,0.6,0.3c0,0,0.1-0.1,0.2-0.1c0.3-0.2,0.6,0,0.6,0.4
		c0,0.3-0.1,0.5-0.1,0.8c-0.1,0.4-0.3,0.7-0.5,1c-0.3,0.5-0.2,1.1-0.1,1.6C5.2,32,5.4,32,5.6,31.8c0.2-0.1,0.3-0.3,0.5-0.5
		c0.2-0.3,0.4-0.7,0.7-1c0,0,0-0.2,0.1-0.3s0.3-0.2,0.4,0c0.1,0.1,0.1,0.2,0.2,0.4c0,0.1,0,0.2-0.1,0.2c-0.4,0.6-0.7,1.1-1.1,1.7
		c-0.1,0.2-0.3,0.3-0.5,0.4c-0.5,0.3-1.1,0.1-1.4-0.4C4.3,32,4.2,31.7,4.1,31.3 M4.3,28.6c-1.1-0.3-1.4,0.1-1.8,0.6
		c-0.4,0.7-0.7,1.5-0.7,2.3c0,0.2,0,0.3,0,0.5c0.1-0.1,0.2-0.1,0.3-0.1c0.7-0.5,1.4-1,2-1.6c0.1-0.1,0.2-0.4,0.2-0.6
		C4.3,29.3,4.3,29,4.3,28.6"/>
	<path class="st0" d="M9.3,26.7c0.5,0,0.9,0.1,1.4,0.1c0.4,0,0.9,0.1,1.3,0.1c0.1,0,0.2,0,0.3,0c0.3,0.1,0.4,0.2,0.4,0.4
		c0,0.2-0.2,0.4-0.5,0.3c-0.7-0.1-1.5-0.1-2.2-0.2c-0.3,0-0.5,0-0.8-0.1c0,0.2-0.1,0.3-0.1,0.5c-0.2,1.2-0.4,2.4-0.6,3.6
		c0,0.3-0.1,0.5-0.1,0.8c0,0.3-0.2,0.4-0.4,0.4c-0.2,0-0.3-0.2-0.3-0.4c0-0.2,0-0.4,0-0.6c0.2-1.3,0.4-2.7,0.6-4c0-0.1,0-0.2,0-0.4
		c-0.2,0-0.4-0.1-0.6-0.1c-0.4,0-0.8-0.1-1.1-0.1c-0.1,0-0.2,0-0.3-0.1C6.1,26.8,6,26.7,6,26.5s0.2-0.3,0.4-0.3
		c0.3,0,0.5,0.1,0.8,0.1c0.4,0,0.8,0.1,1.3,0.1c0-0.1,0.1-0.3,0.1-0.4c0.3-1.1,0.6-2.3,0.9-3.4c0-0.1,0.1-0.2,0.1-0.4
		c0.1-0.2,0.3-0.3,0.6-0.3c0.2,0,0.5,0.3,0.5,0.5s-0.1,0.4-0.3,0.4s-0.2,0.1-0.3,0.3c-0.2,1-0.5,2.1-0.7,3.1
		C9.3,26.6,9.3,26.6,9.3,26.7"/>
</g>
<g>
	<path class="st0" d="M28.1,15.1c0.4-0.8,0.8-0.9,1.5-1.3c0.2-0.1,0.3-0.1,0.5,0c0.2,0.2,0.1,0.4,0,0.5s-0.2,0.2-0.3,0.3
		c-0.3,0.3-0.6,0.5-0.9,0.8c-0.2,0.2-0.1,0.1-0.3,0.4c-0.1,0.3-0.3,0.4-0.5,0.3s-0.3-0.2-0.3-0.5C27.9,15.6,28,15.3,28.1,15.1"/>
	<path class="st0" d="M18.1,18.1c-0.4-0.2-0.7-0.3-1-0.2c-0.3,0.1-0.5-0.1-0.5-0.3c0-0.2,0.1-0.5,0.4-0.5s0.6,0,0.9,0.1
		c0.2,0,0.4,0.1,0.6,0.2c0.1-0.1,0.1-0.2,0.2-0.3c0.7-1.5,1.2-2.4,1.5-4c0-0.2,0.1-0.4,0.1-0.6c0.1-0.4,0.5-0.5,0.9-0.3
		c0.3,0.2,0.3,0.5,0,0.7c-0.2,0-0.2,0.1-0.3,0.3c-0.3,1.6-0.8,2.5-1.5,4c0,0.1-0.1,0.2-0.1,0.3c0.3,0.2,0.7,0.1,1,0.1
		c0.1-0.4,0.2-0.8,0.4-1.2c0.2-0.5,0.4-1,0.8-1.4c0.2-0.2,0.5-0.4,0.8-0.4c0.5,0,0.7,0.2,0.6,0.7c0,0.2-0.1,0.4-0.2,0.6
		c-0.4,0.8-0.8,1.6-1.6,2.2c-0.1,0.1-0.2,0.3-0.2,0.4c0,0.2,0,0.5,0,0.7c0.1,0.5,0.5,0.7,0.9,0.3c0.1-0.1,0.3-0.2,0.5-0.1
		s0.2,0.3,0.1,0.5c-0.1,0.3-0.4,0.5-0.7,0.6c-0.8,0.1-1.5-0.4-1.6-1.2c0-0.3,0-0.5,0-0.8c-0.4,0-0.9-0.1-1.4-0.1
		c-0.5,1-1.1,2-1.4,3.1c0,0.2-0.1,0.3-0.1,0.5c-0.1,0.3-0.4,0.4-0.6,0.3s-0.4-0.3-0.2-0.5c0.2-0.2,0.2-0.5,0.3-0.8
		c0.3-0.7,0.6-1.4,0.9-2.1C17.9,18.5,18,18.3,18.1,18.1 M21.5,16.5C21.5,16.5,21.6,16.5,21.5,16.5c0.3-0.2,0.5-0.6,0.6-0.9
		C21.7,15.8,21.6,16.1,21.5,16.5"/>
	<path class="st0" d="M10,19.4c-0.1,0.1-0.3,0.1-0.4,0.2c-0.1,0.1-0.2,0.1-0.4,0.1c-0.5,0.1-1,0.1-1.4-0.3c-0.3-0.4-0.2-0.9,0-1.3
		c0.4-0.9,1-1.7,1.9-2.3c0.2-0.1,0.4-0.2,0.6-0.2c0.4-0.1,0.7,0.2,0.7,0.5c0,0.1,0,0.2,0.1,0.3c0.3,0.3,0.2,0.6,0.1,0.9
		c-0.3,0.8-0.5,1.6-0.5,2.5c0,0.4,0.1,0.7,0.5,0.8c0.1,0,0.2,0.1,0.2,0.1c0.2,0.1,0.2,0.3,0.2,0.4c-0.1,0.2-0.2,0.2-0.4,0.2
		c-0.6,0-1.1-0.5-1.2-1.1C10.1,19.9,10,19.7,10,19.4 M10.3,16.3c-0.8,0.5-1.3,1.2-1.7,2c-0.1,0.1-0.1,0.5,0,0.5
		C8.8,19,9,18.9,9.3,18.9c0.1,0,0.2-0.1,0.2-0.2c0.2-0.3,0.5-0.6,0.7-0.9C10.4,17.4,10.5,16.9,10.3,16.3"/>
	<path class="st0" d="M14.7,20.2c-0.1-0.2-0.2-0.5-0.2-0.7c-0.2-0.6-0.4-1.3-0.6-1.9c-0.2-0.6-0.1-1.2,0.4-1.7
		c0.3-0.3,0.6-0.4,1-0.3c0.5,0.1,0.9,0.5,1.1,1c0.1,0.2,0.1,0.3-0.1,0.5c-0.2,0.1-0.3,0.1-0.5,0s-0.3-0.3-0.4-0.4
		c-0.4-0.3-0.7-0.2-0.8,0.2c-0.1,0.2,0,0.5,0,0.7c0.2,0.6,0.4,1.2,0.6,1.8c0.1,0.2,0.2,0.5,0.2,0.7c0.1,0.4-0.1,0.7-0.5,0.9
		c-0.7,0.2-1.4,0.3-2,0.1C12.4,21,12.1,20.6,12,20c-0.1-0.6,0-1.1,0.5-1.5c0.1-0.1,0.2-0.1,0.2-0.1c0.2-0.1,0.4-0.1,0.5,0.1
		s0.1,0.4-0.1,0.5c-0.3,0.2-0.4,0.5-0.4,0.8c0,0.2,0.2,0.4,0.4,0.5C13.7,20.3,14.2,20.3,14.7,20.2"/>
	<path class="st0" d="M30.6,15.9c-0.1,0.4,0,0.8,0.1,1.2c0.1,0.5,0.3,1,0.4,1.5c0.1,0.6-0.1,1-0.6,1.4s-1.1,0.6-1.7,0.6
		c-0.4,0-0.7-0.2-0.8-0.6c-0.1-0.2,0-0.4,0.2-0.5s0.4-0.1,0.5,0.1s0.3,0.2,0.5,0.2c0.4,0,0.7-0.3,1-0.6c0.1-0.1,0.2-0.4,0.1-0.5
		c-0.1-0.4-0.2-0.8-0.3-1.2c-0.2-0.5-0.3-0.9-0.2-1.4c0-0.7,0.3-1,1-1c0.1,0,0.3,0,0.4,0c0.6,0,0.8,0.3,1,0.8
		c0.1,0.2,0.1,0.5,0.1,0.8c0,0.2,0,0.4-0.2,0.4c-0.2,0.1-0.4,0-0.5-0.2c-0.1-0.1-0.1-0.3-0.2-0.5C31.4,15.8,31.3,15.8,30.6,15.9"/>
	<path class="st0" d="M24.5,18c0.2-0.2,0.4-0.4,0.6-0.6c0.5-0.4,1-0.9,1.5-1.3c0.2-0.2,0.5-0.2,0.6,0s0.1,0.4-0.1,0.6
		c-0.1,0.1-0.2,0.2-0.3,0.2c-0.8,0.6-1.5,1.3-2.1,2c-0.2,0.3-0.4,0.7-0.6,1c-0.1,0.2-0.2,0.4-0.5,0.3c-0.2,0-0.3-0.2-0.3-0.5
		c0-0.1,0-0.2,0-0.3c0.1-0.8,0.2-1.6,0.3-2.4c0-0.2,0.1-0.4,0.2-0.6c0.2-0.2,0.4-0.2,0.6-0.1s0.2,0.3,0.1,0.5
		C24.5,17.3,24.5,17.4,24.5,18"/>
	<path class="st0" d="M1.9,16.7c0.1-0.1,0.2-0.2,0.4-0.2c0.5-0.2,0.9-0.1,1.1,0.4c0.1,0.2,0.2,0.5,0.2,0.8c0.1-0.1,0.2-0.2,0.3-0.3
		c0.4-0.4,0.8-0.8,1.3-1.2c0.3-0.3,0.6-0.5,1-0.3c0.3,0.2,0.3,0.5,0.3,0.9c0,0.9-0.1,1.9-0.1,2.8c0,0.2,0,0.3,0,0.6
		C6.6,20.1,6.7,20,6.7,20c0.1-0.1,0.1-0.2,0.1-0.3c0.1-0.1,0.2-0.2,0.4-0.2c0.2,0,0.3,0.2,0.3,0.4c0,0.4-0.2,0.6-0.5,0.8
		c-0.1,0.1-0.4,0.2-0.7,0.2c-0.4,0-0.7-0.2-0.7-0.7c0-0.4,0-0.7,0-1.1c0-0.7,0-1.5,0-2.3c0,0.1-0.1,0.1-0.2,0.2
		c-0.6,0.5-1.1,1.1-1.6,1.8c-0.1,0.2-0.2,0.4-0.3,0.6S3.3,19.8,3.2,20S3,20.2,2.8,20.2c-0.2-0.1-0.3-0.2-0.3-0.4
		c0-0.2,0.1-0.5,0.2-0.7C3,18.4,2.8,17.8,2.6,17c-0.2,0.2-0.3,0.3-0.5,0.5c-0.5,0.6-0.9,1.3-1.1,2.1c-0.1,0.3-0.2,0.7-0.3,1
		c0,0.2-0.1,0.3-0.4,0.3C0.1,20.8,0,20.6,0,20.4c0-0.3,0.1-0.6,0.2-0.9c0.2-0.5,0.4-1.1,0.6-1.6c0.1-0.3,0.1-0.7,0.2-1
		c0-0.1,0-0.3,0.1-0.4c0.1-0.3,0.5-0.4,0.7-0.1C1.8,16.5,1.9,16.6,1.9,16.7"/>
</g>
<g>
	<path class="st0" d="M48.6,15.5c0.1-0.1,0.1-0.1,0.1-0.2c0.2-0.2,0.4-0.3,0.7-0.1c0.2,0.2,0.4,0.5,0.2,0.7
		c-0.2,0.3-0.2,0.6-0.2,0.9c-0.1,1.4-0.8,2.5-1.9,3.4c-0.5,0.4-1,0.5-1.5,0.3c-0.4-0.1-0.6-0.4-0.6-0.9c0-0.6,0.1-1.1,0.4-1.6
		c0.2-0.4,0.5-0.8,0.8-1.3c-0.6,0.1-1.1,0.2-1.6,0.5s-0.9,0.6-1.2,1.1c-0.4,0.7-1,1.4-1.5,2.1c-0.1,0.2-0.3,0.3-0.5,0.2
		c-0.2-0.1-0.2-0.3-0.2-0.5c0-0.3,0.1-0.6,0.2-0.9c0.3-0.6,0.7-1.1,1.3-1.5c0.4-0.3,0.5-0.6,0.5-1.1c0-0.2,0-0.4,0-0.6
		c0-0.2,0.2-0.3,0.4-0.3s0.3,0.2,0.4,0.4c0,0.2,0,0.4,0,0.6c0.1,0,0.2-0.1,0.3-0.1c0.4-0.2,0.9-0.3,1.3-0.5c0.2-0.1,0.4-0.1,0.6-0.2
		c0.4-0.2,0.4-0.2,0.8,0.1C47.7,15.7,48.1,15.3,48.6,15.5 M48.1,16.4c-0.1,0.1-0.2,0.1-0.2,0.2c-0.6,0.6-1.1,1.2-1.4,1.9
		c-0.1,0.2-0.2,0.5-0.3,0.8c-0.1,0.5,0.2,0.7,0.6,0.5c0.1,0,0.2-0.1,0.3-0.2c0.5-0.4,0.9-0.9,1.2-1.5c0.1-0.4,0.3-0.7,0.2-1.1
		C48.4,16.9,48.2,16.6,48.1,16.4"/>
	<path class="st0" d="M52,19.7c-0.4,0-0.8,0.1-1.1,0c-0.7-0.1-1-0.5-0.9-1.2c0-0.2,0.1-0.4,0.2-0.6c0.5-0.9,1.3-1.5,2.3-1.8
		c0.4-0.1,0.8-0.1,1.2,0.2c0.3,0.3,0.2,0.7,0.3,1.1c0,0.1-0.1,0.2-0.1,0.2c-0.3,0.1-0.3,0.3-0.4,0.6c-0.3,0.9-0.6,1.7-0.9,2.6
		c-0.2,0.6-0.4,1.2-0.7,1.8c-0.3,0.8-0.8,1.5-1.3,2.1c-0.7,0.7-1.5,1.2-2.5,1.4c-0.2,0-0.3,0-0.5,0c-0.4,0-0.7-0.3-0.8-0.7
		c0-0.3-0.1-0.7,0-1c0.2-0.7,0.5-1.2,1-1.7c0.1-0.1,0.2-0.1,0.2-0.1c0.1,0,0.3,0,0.4,0.1c0.1,0.1,0.1,0.2,0.1,0.3
		c0,0.1-0.1,0.2-0.2,0.3c-0.2,0.3-0.4,0.6-0.6,0.9c-0.1,0.2-0.2,0.4-0.2,0.6c0,0.4,0.1,0.5,0.5,0.4c0.3-0.1,0.7-0.2,1-0.3
		c0.4-0.2,0.7-0.5,1-0.8c0.2-0.2,0.4-0.4,0.5-0.7C51,22.6,51.8,20.7,52,19.7 M52.9,16.8c-1,0-2.3,1.2-2.2,2c0.5,0.1,0.8,0.1,1.2-0.2
		C52.5,18.2,52.8,17.6,52.9,16.8"/>
	<path class="st0" d="M68.3,16.3c0.2-0.2,0.4-0.4,0.5-0.5c0.2-0.2,0.5-0.3,0.7-0.2c0.3,0.1,0.3,0.4,0.3,0.6c0,0.6,0,1.2,0,1.7
		c0,0.7,0,1.3,0.3,2c0.1,0.2,0.1,0.4-0.1,0.5s-0.4,0.1-0.5-0.2c-0.3-0.5-0.4-1-0.4-1.5c0-0.6,0-1.1,0-1.7c0-0.1,0-0.2,0-0.5
		c-0.2,0.2-0.3,0.3-0.4,0.5c-0.4,0.6-0.7,1.2-1.1,1.8c-0.2,0.3-0.4,0.7-0.6,1c-0.1,0.1-0.2,0.3-0.3,0.3c-0.1,0.1-0.3,0.1-0.5,0
		S66,19.8,66,19.7c0.1-0.2,0.2-0.5,0.3-0.7c0.3-0.7,0.7-1.3,1-2c0.1-0.3,0.2-0.6,0.1-1c-0.2,0.1-0.3,0.2-0.4,0.3
		c-0.5,0.7-1.1,1.3-1.6,2c-0.3,0.4-0.6,0.8-0.8,1.2c-0.1,0.1-0.1,0.2-0.2,0.3c-0.1,0.2-0.3,0.2-0.5,0.1c-0.3,0-0.3-0.2-0.3-0.4
		c0.1-0.3,0.2-0.6,0.3-1c0.3-0.9,0.7-1.7,0.8-2.6c0-0.1,0-0.1,0.1-0.2c0.1-0.2,0.2-0.3,0.4-0.3c0.2,0,0.3,0.2,0.3,0.4
		c0,0.3-0.1,0.5-0.1,0.8c0,0.1,0,0.2-0.1,0.5c0.1-0.1,0.2-0.2,0.3-0.3c0.3-0.4,0.7-0.8,1-1.1c0.2-0.2,0.4-0.3,0.6-0.4
		c0.5-0.2,0.8,0,0.9,0.5C68.2,15.9,68.2,16.1,68.3,16.3"/>
	<path class="st0" d="M62.1,16.1c0.1,0,0.2,0,0.2-0.1c0.3,0,0.5,0.1,0.5,0.5c0,0.2-0.1,0.4-0.2,0.5c-0.2,0.6-0.4,1.2-0.5,1.8
		c0,0.2,0,0.3,0,0.5h0.1c0.1-0.1,0.2-0.2,0.3-0.3c0.1-0.1,0.3-0.2,0.4-0.1c0.2,0.1,0.2,0.3,0.2,0.5C63,19.8,62.6,20,62.2,20
		c-0.5,0-0.8-0.2-0.9-0.7c0-0.1,0-0.3-0.1-0.5c-0.3,0.2-0.5,0.4-0.7,0.6c-0.5,0.4-1.1,0.5-1.7,0.4c-0.5-0.1-0.7-0.3-0.7-0.9
		c0-0.2,0-0.5,0.1-0.7c0.4-1.1,1-2,2-2.6c0.3-0.2,0.6-0.3,1-0.3s0.6,0.1,0.7,0.6C62,16,62.1,16,62.1,16.1 M59,19.1
		c0.4,0.1,0.8,0.1,1.1-0.2c0.3-0.3,0.6-0.5,0.9-0.8c0.3-0.3,0.6-0.7,0.3-1.2c-0.1-0.1,0-0.3,0-0.4s0-0.2,0-0.3
		C60.3,16.4,59,18.1,59,19.1"/>
	<path class="st0" d="M56.2,16.6c0.2-0.1,0.3-0.2,0.4-0.3c0.4-0.4,1-0.7,1.6-0.8c0.3-0.1,0.5,0,0.5,0.2c0.1,0.2-0.1,0.4-0.3,0.5
		c-0.1,0-0.1,0.1-0.2,0.1c-0.9,0.2-1.4,0.8-1.9,1.5c-0.1,0.1-0.1,0.3-0.2,0.4c-0.2,0.5-0.3,0.9-0.5,1.3c-0.1,0.2-0.3,0.4-0.4,0.5
		c-0.3,0.2-0.7,0.1-0.8-0.3c0-0.3,0-0.5,0.1-0.8c0.2-0.4,0.4-0.7,0.6-1c0.2-0.3,0.3-0.6,0.3-0.9s0-0.5,0-0.8c0-0.1,0-0.3,0.1-0.4
		c0.1-0.2,0.3-0.3,0.5-0.2s0.3,0.2,0.3,0.4C56.3,16.3,56.2,16.4,56.2,16.6"/>
	<path class="st0" d="M38.7,17.3c0.2-0.3,0.4-0.6,0.7-0.8c0.2-0.2,0.4-0.4,0.7-0.6c0.7-0.4,1.5-0.1,1.7,0.7c0.3,0.9,0.1,1.8-0.7,2.5
		c-0.5,0.4-1,0.8-1.6,0.9c-0.5,0.1-0.8-0.1-0.9-0.6c0-0.2,0-0.3,0.2-0.4s0.3,0,0.4,0.2c0,0.1,0.1,0.1,0.1,0.2
		c0.2-0.1,0.4-0.1,0.5-0.2c0.3-0.2,0.5-0.4,0.8-0.6c0.6-0.5,0.6-1.1,0.4-1.7c-0.1-0.3-0.3-0.5-0.6-0.3c-0.2,0.1-0.3,0.2-0.5,0.3
		c-0.8,0.9-1.5,1.9-1.8,3.1s-0.4,1.6-0.7,2.8c-0.2,0.8-0.5,1.7-0.8,2.5c-0.1,0.4-0.3,0.5-0.5,0.5s-0.3-0.2-0.3-0.6
		c0-0.3,0-0.6,0.1-0.8c0.4-1.5,0.6-2.2,1.1-3.7c0.2-0.6,0.5-1.1,0.7-1.7c0.1-0.3,0.2-0.6,0.2-0.8C38.1,17.4,38.1,17.3,38.7,17.3"/>
</g>
</svg>
