<?xml version="1.0" encoding="utf-8"?>
<!-- Generator: Adobe Illustrator 19.2.1, SVG Export Plug-In . SVG Version: 6.00 Build 0)  -->
<svg version="1.1" id="Layer_1" xmlns="http://www.w3.org/2000/svg" xmlns:xlink="http://www.w3.org/1999/xlink" x="0px" y="0px"
	 viewBox="0 0 79.8 29.3" style="enable-background:new 0 0 79.8 29.3;" xml:space="preserve">
<style type="text/css">
	.st0{fill:#003A70;}
</style>
<title>completed_masters_program</title>
<g>
	<path class="st0" d="M22.1,9.4c-0.2,0.2-0.4,0.3-0.6,0.4c-0.6,0.5-1.3,0.9-1.9,1.4c-0.5,0.4-1.1,0.6-1.8,0.5
		c-0.8,0-1.4-0.4-1.8-1.1c-0.3-0.5-0.5-1.1-0.5-1.8c0-1.2,0.2-2.3,0.7-3.3c0.8-1.6,1.9-3.1,3.2-4.3c0.6-0.5,1.3-0.9,2-1.1
		C21.9,0,22.3,0,22.8,0c0.5,0.1,0.7,0.4,0.6,0.9c-0.1,0.2-0.2,0.4-0.3,0.7s-0.3,0.7-0.4,1s-0.2,0.5-0.4,0.5C22.1,3,21.9,2.8,22,2.5
		s0.2-0.6,0.3-1c0.1-0.2,0.2-0.5,0.3-0.7c-0.3-0.1-0.6,0-0.9,0c-0.6,0.3-1.1,0.5-1.6,0.9c-1.5,1.3-2.7,2.9-3.5,4.8
		c-0.3,0.8-0.4,1.6-0.3,2.5c0,0.3,0.1,0.7,0.3,1c0.4,0.8,1.1,1.1,1.9,0.8c0.3-0.1,0.7-0.3,1-0.5c0.9-0.6,1.9-1.3,2.8-2
		c0.1-0.1,0.3-0.3,0.4-0.4c0.2-0.5,0.6-1.1,1-1.6c0.2-0.3,0.5-0.5,0.9-0.4c0.1,0,0.2,0,0.3-0.1c0.2,0,0.4-0.1,0.6-0.1
		c0.8,0,1.2,0.4,1.2,1.2c-0.1,0.9-0.4,1.6-1,2.2c-0.4,0.4-0.9,0.8-1.5,1c-0.2,0.1-0.5,0.1-0.7,0.1C22.8,10.3,22.3,10.2,22.1,9.4
		 M23,9.5c0.3,0,0.5,0,0.7-0.1c0.8-0.3,1.4-0.7,1.8-1.4c0.2-0.3,0.3-0.7,0.3-1.1c0-0.3-0.1-0.4-0.4-0.4c-0.3,0-0.5,0.2-0.5,0.5
		c0.1,0.5,0,0.6-0.5,0.5h-0.1c-0.4,0.4-0.7,0.7-1.1,1C23,8.8,22.9,9,23,9.5"/>
	<path class="st0" d="M34.7,9.5c-0.4,0-0.6,0-0.9,0c-0.6,0-1-0.3-1.2-0.8c-0.1-0.3-0.2-0.5-0.3-0.8c0-0.1-0.1-0.2-0.1-0.4
		c-0.7,0.6-1.4,1.1-1.9,1.9c-0.1,0.1-0.1,0.2-0.2,0.3c-0.1,0.2-0.3,0.2-0.5,0.2c-0.2-0.1-0.3-0.3-0.3-0.5s0.1-0.4,0.2-0.6
		c0.2-0.5,0.4-0.9,0.6-1.4c0-0.1,0-0.2,0-0.4c-0.2,0.1-0.4,0.2-0.5,0.3c-0.5,0.4-1,0.8-1.5,1.2c-0.2,0.2-0.3,0.5-0.5,0.7
		c-0.1,0.2-0.3,0.5-0.5,0.7C27,10,26.8,10.1,26.7,10c-0.1,0-0.3-0.2-0.3-0.3c0-0.2,0-0.4,0.1-0.6c0.1-0.2,0.3-0.4,0.4-0.6
		c0.4-0.6,0.7-1.1,0.3-1.8c-0.1-0.2,0-0.4,0.2-0.5c0.3-0.1,0.5,0.1,0.7,0.2c0.6,0.2,0.6,0.4,0.5,0.6c0,0,0,0.1,0,0.2
		c0.3-0.2,0.5-0.3,0.7-0.5c0.3-0.2,0.6-0.3,0.9-0.4c0.5-0.2,0.8,0.1,0.9,0.6c0,0.1,0,0.2,0,0.4c0.2-0.1,0.3-0.2,0.4-0.3
		c0.2-0.1,0.4-0.3,0.6-0.4c0.4-0.2,0.7,0,0.8,0.4c0.1,0.3,0.2,0.6,0.3,0.9c0.3,0.9,0.9,1.1,1.6,0.4c0.2-0.2,0.4-0.5,0.5-0.8
		c0.1-0.4,0.3-0.8,0.5-1.1c0.4-0.6,1.1-0.9,1.8-0.9c0.6,0,1,0.3,1.1,0.9c0.2,0.8,0.2,1.5-0.3,2.2C38,9.2,37.6,9.6,37,10
		c-0.4,0.3-0.8,0.4-1.3,0.4c-0.4,0-0.6,0.2-0.7,0.5c-0.5,1.4-0.8,2-1.3,3.4c0,0.6-0.2,0.7-0.4,0.7c-0.2-0.1-0.3-0.3-0.2-0.7
		c0.3-0.9,0.4-1.1,0.7-2c0.2-0.7,0.5-1.4,0.8-2.1C34.6,10,34.7,9.7,34.7,9.5 M35.7,9.8c0.2,0,0.4-0.1,0.5-0.1C37,9.3,37.6,8.8,38,8
		c0.2-0.4,0.1-0.8,0-1.2c0-0.1-0.1-0.2-0.2-0.2c-0.3-0.2-1,0-1.1,0.4c-0.3,0.8-0.6,1.7-0.9,2.5C35.8,9.5,35.8,9.6,35.7,9.8"/>
	<path class="st0" d="M43.7,9.2c-0.3,0.2-0.5,0.3-0.7,0.5c-0.7,0.4-1.4,0.4-2.1,0.2c-0.5-0.2-0.8-0.5-0.8-1.1c0-0.7,0.1-1.4,0.4-2.1
		c0.4-0.9,0.8-1.9,1.2-2.8c0.3-0.7,0.5-1.4,0.5-2.2V1.6c0-0.2,0.1-0.4,0.3-0.5s0.4,0,0.5,0.2c0.1,0.2,0.2,0.4,0.1,0.6
		C43,2.1,43,2.3,42.9,2.4c-0.2,0.5-0.2,0.9-0.4,1.2c-0.4,1.1-0.9,2.2-1.3,3.2c-0.2,0.6-0.4,1.1-0.4,1.7c0,0.5,0.1,0.6,0.6,0.7
		c0.5,0.1,0.9,0,1.3-0.3c0.2-0.1,0.3-0.2,0.5-0.3c0.4-0.3,0.7-0.7,0.7-1.3c0-0.3,0.1-0.6,0.2-0.8c0-0.3,0.2-0.5,0.5-0.5
		c0.5-0.1,0.8,0.2,0.8,0.7c0,0.4-0.2,0.8-0.5,1.1c-0.4,0.4-0.4,0.9-0.3,1.4c0,0.5,0.3,0.7,0.8,0.6c0.2,0,0.4-0.1,0.5-0.3
		c0.5-0.4,1.1-0.9,1.6-1.4c0.1-0.1,0.2-0.2,0.4-0.3c0.2-0.1,0.3-0.1,0.5,0.1c0.1,0.1,0.1,0.3,0,0.4c0,0.1-0.1,0.1-0.1,0.1
		C47.7,9,47,9.7,46.2,10.2c-0.3,0.2-0.7,0.4-1.1,0.3c-0.7,0-1.1-0.4-1.3-1C43.7,9.5,43.7,9.3,43.7,9.2"/>
	<path class="st0" d="M59.3,8.1c-0.4,0.3-0.7,0.5-0.8,1c0.4,0.2,0.7,0.2,1-0.1c0.3-0.2,0.7-0.5,0.9-0.8c0.3-0.4,0.6-0.9,0.8-1.4
		c0.7-1.5,1.3-3.1,2-4.6c0.2-0.5,0.4-1.1,0.6-1.7C63.9,0.1,64.1,0,64.3,0c0.2,0.1,0.4,0.3,0.3,0.7c-0.3,1.1-0.6,2.1-1,3.2
		c-0.3,0.8-0.6,1.6-1,2.4c-0.3,0.7-0.5,1.5-0.4,2.3c0,0.3,0,0.5,0.3,0.6c0.2,0.1,0.3,0.3,0.2,0.5s-0.3,0.3-0.5,0.2
		c-0.4-0.1-0.6-0.4-0.7-0.8c0-0.2,0-0.4-0.1-0.7c-0.1,0.1-0.2,0.2-0.3,0.3c-0.3,0.3-0.7,0.7-1,0.9c-0.5,0.4-1,0.4-1.6,0.3
		C58,9.8,57.8,9.5,57.8,9c0-0.9,1-1.8,1.7-1.7c0.3,0,0.5,0.1,0.6,0.4c0.1,0.2,0.1,0.4-0.1,0.5c-0.2,0.1-0.3,0.1-0.5,0
		C59.5,8.2,59.4,8.2,59.3,8.1"/>
	<path class="st0" d="M50.4,5.6c-0.6,0.1-1.1,0-1.6,0.3c-0.2,0.1-0.4,0.1-0.6,0c-0.2-0.1-0.3-0.2-0.3-0.4c0-0.1,0.2-0.3,0.3-0.3
		c0.1-0.1,0.3-0.1,0.4-0.1C49.2,5,49.7,5,50.3,4.9c0.3,0,0.4-0.1,0.4-0.4c0.2-1,0.4-2,0.6-3c0-0.1,0.1-0.3,0.1-0.4
		c0-0.1,0.2-0.2,0.3-0.2S52,1,52,1.1c0.1,0.1,0,0.3,0,0.5c-0.2,1-0.4,1.9-0.6,2.9c0,0.1,0,0.1,0,0.2c0.2,0,0.4,0,0.5,0
		c0.3,0,0.6,0.1,0.8,0.2c0.1,0,0.2,0.1,0.3,0.2c0.2,0.2,0.2,0.4,0,0.5c-0.2,0.2-0.3,0.2-0.5,0.1c-0.4-0.3-0.9-0.2-1.4-0.2
		c-0.4,1.3-0.7,2.6-1.1,3.9l0,0c0.1-0.1,0.1-0.3,0.2-0.4c0.1-0.2,0.2-0.3,0.5-0.2C50.9,8.9,51,9,51,9.3c-0.1,0.5-0.3,0.9-0.6,1.3
		c-0.2,0.1-0.4,0.2-0.6,0.3c-0.4,0.1-0.6-0.2-0.6-0.6c0-0.5,0.1-1,0.2-1.5C49.7,8,50,7.1,50.2,6.2C50.3,6,50.3,5.9,50.4,5.6"/>
	<path class="st0" d="M54.7,9c0.1,0.1,0.2,0.3,0.3,0.3c0.4,0.1,0.9,0.3,1.3,0c0.1,0,0.1-0.1,0.2-0.1c0.1,0,0.3,0,0.4,0.1
		C57,9.4,57,9.6,57,9.7c-0.1,0.3-0.3,0.4-0.6,0.5c-0.6,0.2-1.2,0.1-1.8-0.2c-0.3-0.2-0.5-0.5-0.5-0.8h-0.5c-0.1,0-0.3,0-0.4,0
		c-0.3,0-0.5-0.2-0.4-0.4c0-0.2,0.2-0.3,0.4-0.4c0.2,0,0.4,0,0.7,0c0.2,0,0.4-0.1,0.5-0.3c0.2-0.4,0.4-0.8,0.6-1.2
		c0.3-0.4,0.7-0.4,1.1-0.4c0.4,0.1,0.6,0.3,0.5,0.7c0,0.2-0.1,0.5-0.2,0.7c-0.3,0.4-0.6,0.8-1.1,1C55,8.9,54.9,8.9,54.7,9 M55.1,7.9
		c0.2-0.1,0.4-0.3,0.5-0.6C55.3,7.4,55.2,7.6,55.1,7.9"/>
</g>
<g>
	<path class="st0" d="M25.7,18.3c0.1-0.4,0.2-0.8,0.3-1.2c0-0.2,0.1-0.4,0.1-0.6c0.2-0.7,0.6-0.8,1.1-0.3c0,0,0.1,0,0.1,0.1
		c0.2-0.2,0.4-0.4,0.6-0.6c0.1-0.1,0.2-0.2,0.3-0.2c0.1,0,0.3,0,0.4,0.1s0.1,0.2,0.1,0.3s-0.1,0.3-0.3,0.3c-0.5,0.4-0.9,0.9-1.2,1.5
		c-0.3,0.7-0.6,1.3-0.9,2c0,0.1,0,0.2-0.1,0.2c-0.1,0.1-0.3,0.2-0.4,0.2s-0.3-0.2-0.3-0.3c-0.1-0.2,0-0.3,0-0.6
		c-0.7,0.5-1.4,0.6-2.2,0.3c-0.8-0.4-1.2-1-1.2-1.8c-0.5,0-1,0-1.5,0c-0.2,0-0.3,0.2-0.3,0.3c-0.3,0.8-0.6,1.6-0.8,2.4
		c-0.1,0.1-0.1,0.3-0.2,0.4s-0.2,0.3-0.3,0.3c-0.2,0.1-0.4,0.1-0.5-0.1s-0.1-0.3,0-0.5c0.5-0.9,0.7-1.9,1.1-2.9c0,0-0.1,0-0.1-0.1
		c-0.1,0-0.1,0.1-0.2,0.1c-0.1,0.2-0.3,0.2-0.5,0.2c-0.2-0.1-0.4-0.4-0.4-0.6s0.1-0.4,0.3-0.4c0.2-0.1,0.5-0.1,0.8-0.1
		s0.4-0.1,0.5-0.4c0.5-1.3,0.7-1.7,1.1-3c0.1-0.3,0.2-0.6,0-1C21,12.2,21,12,21,11.8s0-0.4,0.3-0.5c0.2-0.1,0.5,0,0.6,0.2
		s0.2,0.3,0.2,0.5c0.1,0.5,0,1-0.2,1.6c-0.4,1.1-0.5,1.4-1,2.5c-0.1,0.2-0.1,0.3-0.2,0.6c0.4,0,0.8,0,1.2,0c0.2,0,0.3-0.2,0.3-0.4
		c0.1-0.3,0.2-0.7,0.4-1c0.2-0.3,0.4-0.6,0.7-0.8c0.1-0.1,0.4-0.2,0.6-0.3c0.6-0.1,1,0.3,0.8,0.9c-0.1,0.3-0.3,0.6-0.5,0.9
		s-0.6,0.5-0.9,0.8c-0.4,0.3-0.5,0.7-0.3,1.2c0.4,0.9,1.6,1.1,2,0.4C25.2,18.4,25.4,18.3,25.7,18.3 M23.5,15.7l0.1,0.1
		c0.1-0.1,0.1-0.1,0.2-0.2l0,0C23.6,15.6,23.6,15.6,23.5,15.7"/>
	<path class="st0" d="M11.6,16.7c0.3-0.1,0.5-0.2,0.7,0c0.2,0.2,0.2,0.5,0.1,0.7c-0.1,0.3-0.3,0.6-0.5,0.9c-0.3,0.5-0.3,1-0.2,1.6
		c0,0.3,0.3,0.4,0.6,0.4c0.1-0.8,0.8-1.1,1.2-1.6c0.2-0.2,0.4-0.1,0.5,0c0.1,0.2,0.1,0.3,0,0.5s-0.3,0.3-0.4,0.5
		c-0.1,0.1-0.3,0.3-0.4,0.4c0.8,0.3,1.9-0.2,2.3-0.9c0.2-0.4,0.1-1.1-0.3-1.4c-0.1-0.1-0.3-0.2-0.4-0.3c-0.3-0.3-0.4-0.6-0.1-1
		s0.7-0.7,1.2-0.8c0.6-0.2,1.5,0.2,1.8,0.8c0.1,0.2,0.1,0.3,0,0.5c-0.1,0.1-0.3,0.1-0.4,0s-0.2-0.2-0.3-0.2
		c-0.6-0.5-0.9-0.5-1.4,0.1c0.1,0.1,0.2,0.2,0.2,0.2c0.8,0.5,1.1,2.1,0.3,2.9c-0.7,0.8-1.6,1-2.7,0.9c-0.2,0-0.5-0.1-0.7,0.1
		c-0.1,0.1-0.2,0.1-0.4,0c-0.8-0.1-1.3-0.6-1.4-1.4c0-0.1,0-0.1-0.1-0.2c-0.2,0.1-0.4,0.3-0.5,0.4c-0.3,0.2-0.6,0.3-1,0.3
		c-0.5,0-0.9-0.4-1-0.9c-0.1-0.8,0-1.5,0.6-2.2c0.3-0.3,0.6-0.6,0.9-0.9c0.3-0.3,0.6-0.4,1-0.3c0.5,0,0.6,0.2,0.7,0.7
		C11.5,16.5,11.6,16.6,11.6,16.7 M10.7,16.6c-0.1,0-0.3,0.1-0.4,0.1c-0.5,0.4-0.9,0.8-1.1,1.5c-0.1,0.3-0.1,0.6-0.1,0.9
		c0,0.2,0.2,0.3,0.4,0.3c0.1,0,0.2-0.1,0.3-0.1c0.3-0.3,0.7-0.6,1-0.9c0.2-0.2,0.3-0.4,0.2-0.7C10.9,17.3,10.8,17,10.7,16.6"/>
	<path class="st0" d="M33.3,16.1c-0.7-0.2-1.4,0.4-1,1.3c0.2,0.6,0.4,1.1,0.4,1.8c0,1.2-0.8,2.1-2,2.1c-0.5,0-1,0-1.6-0.1
		c-0.2,0-0.3-0.1-0.4-0.2s-0.2-0.2-0.1-0.4c0.1-0.2,0.2-0.2,0.4-0.2c0.1,0,0.2,0,0.2,0c0.5,0.2,1,0.2,1.5,0.1c0.8,0,1.3-0.6,1.3-1.4
		c0-0.5-0.1-0.9-0.3-1.3c-0.1-0.3-0.2-0.6-0.2-0.9c-0.1-1.2,1.2-1.9,2.2-1.6c0.3,0.1,0.5,0.3,0.5,0.6c0,0.3,0,0.7,0,1
		s-0.2,0.5-0.4,0.4c-0.2,0-0.3-0.2-0.4-0.5C33.3,16.6,33.3,16.4,33.3,16.1"/>
	<path class="st0" d="M29.7,15.2c0-0.4,0.1-0.6,0.3-0.8c0.4-0.4,1-0.6,1.5-0.8c0.2-0.1,0.3,0,0.4,0.2c0.1,0.2,0.1,0.4-0.1,0.5
		c-0.1,0.1-0.2,0.1-0.4,0.2c-0.2,0.1-0.5,0.2-0.7,0.3s-0.3,0.3-0.3,0.5s0,0.4-0.3,0.4c-0.2,0-0.4-0.1-0.5-0.3
		C29.7,15.4,29.7,15.3,29.7,15.2"/>
	<path class="st0" d="M2.3,16.4c0.1-0.1,0.2-0.2,0.4-0.2c0.5-0.2,0.9-0.1,1.1,0.4C3.9,16.8,4,17.1,4,17.4c0.1-0.1,0.2-0.2,0.3-0.3
		c0.4-0.4,0.8-0.8,1.3-1.2c0.3-0.2,0.6-0.5,0.9-0.3c0.3,0.2,0.3,0.5,0.3,0.9c0,0.9-0.1,1.9-0.1,2.8c0,0.2,0,0.3,0,0.6
		C6.9,19.8,7,19.7,7,19.7c0.1-0.1,0.1-0.2,0.1-0.3c0.1-0.1,0.2-0.2,0.4-0.2s0.3,0.2,0.3,0.4c0,0.4-0.2,0.6-0.5,0.8
		c-0.2,0.2-0.5,0.2-0.8,0.2c-0.4,0-0.7-0.2-0.7-0.7c0-0.4,0-0.7,0-1.1c0-0.7,0-1.5,0-2.3c-0.1,0.1-0.2,0.1-0.3,0.2
		c-0.6,0.5-1.1,1.1-1.6,1.8c-0.1,0.2-0.2,0.4-0.3,0.6c-0.1,0.2-0.2,0.4-0.3,0.6c-0.1,0.2-0.2,0.2-0.4,0.2c-0.2-0.1-0.3-0.2-0.3-0.4
		c0-0.2,0.1-0.5,0.2-0.7c0.3-0.7,0.1-1.3-0.1-2.1c-0.2,0.2-0.3,0.3-0.5,0.5c-0.5,0.6-0.9,1.3-1.1,2.1c-0.1,0.3-0.2,0.7-0.3,1
		c-0.1,0.2-0.2,0.3-0.5,0.3C0.1,20.5,0,20.4,0,20.1s0.1-0.6,0.2-0.9c0.2-0.5,0.4-1.1,0.6-1.6c0.5-0.3,0.5-0.7,0.6-1
		c0-0.1,0-0.3,0.1-0.4c0.1-0.3,0.5-0.4,0.7-0.1C2.2,16.2,2.2,16.3,2.3,16.4"/>
</g>
<g>
	<path class="st0" d="M56.2,20.3c-0.5,0-1,0-1.4,0c-0.2,0-0.3,0-0.5-0.1c-1-0.3-1.3-1.1-0.8-2c0.5-0.8,1.2-1.3,2-1.5
		c0.6-0.2,0.9-0.1,1.6,0.5c0.1-0.1,0.1-0.1,0.2-0.2c0.1-0.2,0.3-0.2,0.6-0.2c0.2,0.1,0.3,0.2,0.4,0.4c0.1,0.5,0,1-0.2,1.4
		c-0.1,0.3-0.3,0.5-0.5,0.7c-0.3,0.3-0.5,0.5-0.5,0.8c-0.4,1.3-0.8,2.6-1.2,3.9c-0.3,1.1-0.9,2-1.5,2.9c-0.5,0.7-1,1.2-1.7,1.7
		c-0.5,0.3-1,0.5-1.6,0.6c-1.3,0.2-2.3-0.5-2.5-1.8c-0.2-0.8-0.1-1.6,0.1-2.4c0.2-0.6,0.5-1.2,0.8-1.7c0-0.1,0.1-0.1,0.1-0.2
		c0.2-0.2,0.4-0.3,0.6-0.1c0.2,0.1,0.2,0.3,0.1,0.6c-0.1,0.2-0.2,0.3-0.3,0.5c-0.5,0.8-0.8,1.7-0.7,2.7c0.1,1.5,1,2.2,2.5,1.5
		c0.7-0.3,1.2-0.8,1.6-1.3c0.7-0.8,1.2-1.7,1.6-2.7c0.4-1.2,0.8-2.4,1.2-3.7C56.2,20.4,56.2,20.4,56.2,20.3 M55.1,19.6
		c0.4,0,0.8-0.1,1.2-0.3c0.2-0.2,0.6-0.9,0.5-1.2c-0.2-0.5-0.8-0.8-1.3-0.6c-0.5,0.2-0.9,0.5-1.2,0.9c-0.1,0.1-0.2,0.2-0.2,0.4
		c-0.1,0.4-0.1,0.6,0.3,0.7C54.6,19.6,54.9,19.6,55.1,19.6"/>
	<path class="st0" d="M76.3,16.8c-0.2,0.1-0.4,0.2-0.5,0.3c-0.3,0.3-0.6,0.6-0.8,0.9c-0.6,0.8-1.2,1.5-1.8,2.3
		c-0.3,0.3-0.4,0.4-0.6,0.3c-0.2-0.1-0.3-0.3-0.2-0.7c0.2-0.7,0.3-1.3,0.5-2c0.1-0.4,0.1-0.7,0-1.1c-0.1,0.1-0.2,0.3-0.3,0.4
		c-0.7,1.2-1.3,2.3-2,3.5c0,0.1-0.1,0.1-0.1,0.2c-0.1,0.2-0.3,0.3-0.5,0.2c-0.2-0.1-0.3-0.3-0.3-0.5c0.1-0.5,0.2-0.9,0.3-1.4
		c0.3-0.9,0.5-1.7,0.3-2.7c-0.1-0.3,0.1-0.6,0.3-0.6c0.2,0,0.5,0.1,0.6,0.3c0,0.1,0.1,0.3,0,0.4c-0.2,0.3-0.1,0.7,0,1.1
		c0.1-0.1,0.2-0.2,0.3-0.4c0.4-0.6,0.8-1.2,1.1-1.7c0.2-0.2,0.4-0.5,0.7-0.4c0.4,0.1,0.4,0.5,0.4,0.8c0,0.8-0.1,1.6-0.1,2.4
		c0.1-0.1,0.1-0.1,0.2-0.2c0.3-0.4,0.6-0.8,0.9-1.2c0.3-0.3,0.6-0.6,1-0.9c0.6-0.4,1.2-0.2,1.5,0.5c0.2,0.4,0.2,0.9,0.3,1.4
		c0.1,0.3,0.1,0.6,0.1,1c0.1,0.7,0.8,1.2,1.5,0.9c0.1,0,0.2-0.1,0.3-0.1c0.2,0,0.4,0,0.4,0.2c0,0.1,0,0.3-0.1,0.4s-0.3,0.2-0.5,0.3
		c-0.7,0.2-1.7-0.1-2.1-0.8c-0.1-0.2-0.2-0.5-0.3-0.8c-0.1-0.5-0.1-1.1-0.2-1.6C76.6,17.3,76.6,17,76.3,16.8"/>
	<path class="st0" d="M67.8,16.7c0.5,0.3,0.5,0.4,0.4,1c-0.1,0.5-0.3,0.9-0.4,1.4c-0.1,0.3,0,0.6,0,0.9c0.2,0,0.4,0.1,0.5,0.1
		c0.2,0.1,0.3,0.2,0.3,0.4c0,0.2-0.2,0.3-0.4,0.3c-0.7,0.1-1.1-0.3-1.2-1c0-0.1,0-0.2,0-0.4c-0.2,0.1-0.3,0.2-0.4,0.3
		c-0.6,0.5-1.4,0.7-2.2,0.4c-0.6-0.2-0.8-0.5-0.8-1.1c0-0.3,0.1-0.5,0.2-0.8c0.4-1,1.1-1.8,2-2.5c0.3-0.2,0.7-0.3,1.1-0.3
		c0.6,0,0.9,0.3,1,0.9C67.8,16.5,67.8,16.6,67.8,16.7 M67,17.2c0-0.2,0-0.4,0-0.6s-0.1-0.3-0.3-0.3c-0.3,0-0.6,0.1-0.8,0.3
		c-0.6,0.5-1.1,1-1.4,1.7c-0.1,0.2-0.2,0.5-0.2,0.8c0,0.2,0.1,0.3,0.3,0.4c0.4,0.1,0.8,0.2,1.2-0.1C66.5,18.8,67.2,18.2,67,17.2"/>
	<path class="st0" d="M51.5,16.4c0.7-0.3,1.2,0,1.4,0.8c0.2,0.9,0.1,1.7-0.4,2.4c-0.4,0.5-0.9,0.9-1.5,1.2c-0.6,0.3-1.2,0.2-1.8,0
		c-0.5-0.2-0.8-0.6-0.7-1.2c0-0.4,0.2-0.8,0.3-1.1c0.4-0.8,1-1.5,1.6-2.1C50.7,16.1,51,16.1,51.5,16.4 M51,17
		c-0.6,0.4-1.5,1.6-1.7,2.2c0,0.1,0,0.2-0.1,0.2c-0.1,0.4,0,0.6,0.5,0.7c1,0.2,2.3-0.8,2.4-1.8c0-0.2,0-0.3,0-0.5
		c-0.6,0.1-0.6,0.1-0.9-0.4C51.2,17.3,51.1,17.2,51,17"/>
	<path class="st0" d="M60.7,17.2c0.3-0.3,0.5-0.6,0.8-0.9c0.5-0.5,1-0.8,1.7-0.9c0.2,0,0.3-0.1,0.5-0.1c0.2,0,0.4,0,0.5,0.2
		c0.1,0.2,0,0.4-0.2,0.5c-0.2,0.1-0.4,0.2-0.6,0.2c-0.6,0.1-1,0.3-1.4,0.7c-0.8,0.8-1.4,1.7-1.8,2.7c-0.1,0.2-0.1,0.4-0.2,0.6
		c0,0.1,0,0.2-0.1,0.3c-0.1,0.1-0.3,0.2-0.4,0.2c-0.1,0-0.2-0.2-0.3-0.3c0-0.1,0-0.2,0-0.3c0-0.9,0.1-1.8,0.1-2.6c0-0.1,0-0.2,0-0.2
		c0-0.3,0.1-0.5,0.4-0.6c0.2-0.1,0.6,0,0.8,0.2C60.6,17,60.6,17.1,60.7,17.2 M60.4,17.6c-0.4,0-0.4,0-0.3,0.4
		C60.3,17.9,60.4,17.7,60.4,17.6"/>
	<path class="st0" d="M46.2,17.6c0.2-0.2,0.4-0.3,0.6-0.5c0.5-0.4,1.1-0.6,1.8-0.7c0.1,0,0.2,0,0.2,0c0.2,0,0.3,0.1,0.3,0.3
		c0,0.2-0.1,0.3-0.3,0.4c-0.1,0-0.3,0.1-0.4,0.1c-0.5,0-0.8,0.2-1.2,0.5c-0.8,0.7-1.6,1.5-1.9,2.6c0,0.1-0.1,0.2-0.1,0.2
		c-0.1,0.2-0.3,0.3-0.5,0.3c-0.2-0.1-0.3-0.3-0.3-0.5s0.1-0.3,0.1-0.5c0.6-1,0.8-2,1-3c0-0.1,0-0.2,0.1-0.3c0.1-0.3,0.3-0.4,0.6-0.3
		c0.2,0.1,0.3,0.3,0.2,0.6C46.3,17,46.2,17.2,46.2,17.6"/>
	<path class="st0" d="M41,17.9c0.2-0.3,0.4-0.6,0.7-0.8c0.2-0.2,0.4-0.4,0.7-0.6c0.7-0.4,1.5-0.1,1.7,0.7c0.3,0.9,0.1,1.8-0.7,2.5
		c-0.5,0.4-1,0.8-1.6,0.9c-0.5,0.1-0.8-0.1-0.9-0.6c0-0.2,0-0.3,0.2-0.4s0.3,0,0.4,0.2c0,0.1,0.1,0.1,0.1,0.2
		c0.3-0.2,0.5-0.2,0.6-0.3c0.3-0.2,0.6-0.4,0.8-0.6c0.6-0.5,0.6-1.1,0.4-1.7c-0.1-0.3-0.3-0.5-0.6-0.3c-0.2,0.1-0.3,0.2-0.5,0.3
		c-0.8,0.9-1.5,1.9-1.8,3.1c-0.3,1.2-0.6,2.3-0.9,3.4c-0.2,0.8-0.5,1.7-0.8,2.5c-0.1,0.4-0.3,0.5-0.5,0.5c-0.1-0.1-0.2-0.3-0.2-0.7
		c0-0.3,0-0.6,0.1-0.8c0.4-1.5,0.8-2.9,1.3-4.3c0.2-0.6,0.5-1.1,0.7-1.7c0.1-0.3,0.2-0.6,0.2-0.8C40.4,17.9,40.5,17.9,41,17.9"/>
</g>
</svg>
