<svg id="Layer_1" data-name="Layer 1" xmlns="http://www.w3.org/2000/svg" viewBox="0 0 50.93 37.43"><defs><style>.cls-1{fill:#003a70;}</style></defs><title>completed_masters_program</title><path class="cls-1" d="M8.4,9.4a2.09,2.09,0,0,1-.6.4c-.6.5-1.3.9-1.9,1.4a2.27,2.27,0,0,1-1.8.5,2,2,0,0,1-1.8-1.1,3.45,3.45,0,0,1-.5-1.8,7.25,7.25,0,0,1,.7-3.3A15.09,15.09,0,0,1,5.7,1.2,5.64,5.64,0,0,1,7.7.1,6.6,6.6,0,0,1,9.1,0a.68.68,0,0,1,.6.9,4.88,4.88,0,0,0-.3.7c-.1.3-.3.7-.4,1s-.2.5-.4.5a.49.49,0,0,1-.3-.6c.1-.3.2-.6.3-1,.1-.2.2-.5.3-.7A2.72,2.72,0,0,0,8,.8a8.27,8.27,0,0,0-1.6.9A13,13,0,0,0,2.9,6.5,5.24,5.24,0,0,0,2.6,9a1.93,1.93,0,0,0,.3,1,1.43,1.43,0,0,0,1.9.8,4.67,4.67,0,0,0,1-.5c.9-.6,1.9-1.3,2.8-2L9,7.9a7,7,0,0,1,1-1.6.81.81,0,0,1,.9-.4.37.37,0,0,0,.3-.1c.2,0,.4-.1.6-.1A1.06,1.06,0,0,1,13,6.9a3.47,3.47,0,0,1-1,2.2,4,4,0,0,1-1.5,1,1.7,1.7,0,0,1-.7.1c-.7.1-1.2,0-1.4-.8m.9.1a1.48,1.48,0,0,0,.7-.1A3.19,3.19,0,0,0,11.8,8a2,2,0,0,0,.3-1.1c0-.3-.1-.4-.4-.4a.47.47,0,0,0-.5.5c.1.5,0,.6-.5.5h-.1a10,10,0,0,1-1.1,1,1.09,1.09,0,0,0-.2,1"/><path class="cls-1" d="M21,9.5h-.9a1.21,1.21,0,0,1-1.2-.8c-.1-.3-.2-.5-.3-.8,0-.1-.1-.2-.1-.4a8.56,8.56,0,0,0-1.9,1.9c-.1.1-.1.2-.2.3s-.3.2-.5.2a.55.55,0,0,1-.3-.5,1.42,1.42,0,0,1,.2-.6c.2-.5.4-.9.6-1.4V7a2.19,2.19,0,0,0-.5.3L14.4,8.5c-.2.2-.3.5-.5.7a3,3,0,0,1-.5.7c-.1.1-.3.2-.4.1a.45.45,0,0,1-.3-.3,1.27,1.27,0,0,1,.1-.6c.1-.2.3-.4.4-.6.4-.6.7-1.1.3-1.8a.37.37,0,0,1,.2-.5c.3-.1.5.1.7.2.6.2.6.4.5.6v.2a4.23,4.23,0,0,0,.7-.5,3.55,3.55,0,0,1,.9-.4c.5-.2.8.1.9.6v.4a1.38,1.38,0,0,0,.4-.3c.2-.1.4-.3.6-.4a.52.52,0,0,1,.8.4l.3.9c.3.9.9,1.1,1.6.4a2.18,2.18,0,0,0,.5-.8,3.7,3.7,0,0,1,.5-1.1,2.14,2.14,0,0,1,1.8-.9,1,1,0,0,1,1.1.9,2.46,2.46,0,0,1-.3,2.2A4.67,4.67,0,0,1,23.3,10a2,2,0,0,1-1.3.4.67.67,0,0,0-.7.5c-.5,1.4-.8,2-1.3,3.4,0,.6-.2.7-.4.7s-.3-.3-.2-.7c.3-.9.4-1.1.7-2a18,18,0,0,1,.8-2.1c0-.2.1-.5.1-.7m1,.3a4.33,4.33,0,0,0,.5-.1A3.72,3.72,0,0,0,24.3,8a1.66,1.66,0,0,0,0-1.2.22.22,0,0,0-.2-.2A.84.84,0,0,0,23,7c-.3.8-.6,1.7-.9,2.5a.77.77,0,0,1-.1.3"/><path class="cls-1" d="M30,9.2a4.23,4.23,0,0,0-.7.5,2.59,2.59,0,0,1-2.1.2,1.08,1.08,0,0,1-.8-1.1,5.22,5.22,0,0,1,.4-2.1c.4-.9.8-1.9,1.2-2.8a5.45,5.45,0,0,0,.5-2.2V1.6a.55.55,0,0,1,.3-.5.37.37,0,0,1,.5.2.66.66,0,0,1,.1.6c-.1.2-.1.4-.2.5a8.34,8.34,0,0,1-.4,1.2c-.4,1.1-.9,2.2-1.3,3.2a5.26,5.26,0,0,0-.4,1.7c0,.5.1.6.6.7A1.52,1.52,0,0,0,29,8.9c.2-.1.3-.2.5-.3a1.56,1.56,0,0,0,.7-1.3,1.88,1.88,0,0,1,.2-.8.47.47,0,0,1,.5-.5c.5-.1.8.2.8.7a1.61,1.61,0,0,1-.5,1.1,1.44,1.44,0,0,0-.3,1.4c0,.5.3.7.8.6a.55.55,0,0,0,.5-.3,20,20,0,0,0,1.6-1.4,1.38,1.38,0,0,1,.4-.3c.2-.1.3-.1.5.1a.3.3,0,0,1,0,.4.1.1,0,0,1-.1.1,12.41,12.41,0,0,1-2.1,1.8,1.43,1.43,0,0,1-1.1.3,1.3,1.3,0,0,1-1.3-1c-.1,0-.1-.2-.1-.3"/><path class="cls-1" d="M45.6,8.1c-.4.3-.7.5-.8,1a.76.76,0,0,0,1-.1,3.45,3.45,0,0,0,.9-.8,6.38,6.38,0,0,0,.8-1.4c.7-1.5,1.3-3.1,2-4.6.2-.5.4-1.1.6-1.7.1-.4.3-.5.5-.5a.56.56,0,0,1,.3.7c-.3,1.1-.6,2.1-1,3.2a24.42,24.42,0,0,1-1,2.4,4.49,4.49,0,0,0-.4,2.3c0,.3,0,.5.3.6a.38.38,0,1,1-.3.7,1,1,0,0,1-.7-.8,2,2,0,0,0-.1-.7l-.3.3a8.12,8.12,0,0,1-1,.9,1.83,1.83,0,0,1-1.6.3.8.8,0,0,1-.7-.9,1.82,1.82,0,0,1,1.7-1.7.55.55,0,0,1,.6.4c.1.2.1.4-.1.5a.45.45,0,0,1-.5,0,.31.31,0,0,1-.2-.1"/><path class="cls-1" d="M36.7,5.6a4.15,4.15,0,0,0-1.6.3.64.64,0,0,1-.6,0c-.2-.1-.3-.2-.3-.4a.45.45,0,0,1,.3-.3.6.6,0,0,1,.4-.1c.6-.1,1.1-.1,1.7-.2.3,0,.4-.1.4-.4l.6-3c0-.1.1-.3.1-.4s.2-.2.3-.2.3.1.3.2,0,.3,0,.5c-.2,1-.4,1.9-.6,2.9v.2h.5a1.88,1.88,0,0,1,.8.2c.1,0,.2.1.3.2s.2.4,0,.5-.3.2-.5.1a2.2,2.2,0,0,0-1.4-.2c-.4,1.3-.7,2.6-1.1,3.9h0c.1-.1.1-.3.2-.4s.2-.3.5-.2a.46.46,0,0,1,.3.5,3.1,3.1,0,0,1-.6,1.3l-.6.3c-.4.1-.6-.2-.6-.6a7.72,7.72,0,0,1,.2-1.5,19.75,19.75,0,0,0,.8-2.6,4.17,4.17,0,0,0,.2-.6"/><path class="cls-1" d="M41,9c.1.1.2.3.3.3.4.1.9.3,1.3,0,.1,0,.1-.1.2-.1a.6.6,0,0,1,.4.1.6.6,0,0,1,.1.4c-.1.3-.3.4-.6.5a2.29,2.29,0,0,1-1.8-.2,1,1,0,0,1-.5-.8h-.9c-.3,0-.5-.2-.4-.4s.2-.3.4-.4h.7a.55.55,0,0,0,.5-.3l.6-1.2a1.19,1.19,0,0,1,1.1-.4c.4.1.6.3.5.7a1.85,1.85,0,0,1-.2.7,2.66,2.66,0,0,1-1.1,1A1.08,1.08,0,0,0,41,9m.4-1.1a1,1,0,0,0,.5-.6c-.3.1-.4.3-.5.6"/><path class="cls-1" d="M27.4,18.3l.3-1.2c0-.2.1-.4.1-.6.2-.7.6-.8,1.1-.3a.1.1,0,0,1,.1.1l.6-.6c.1-.1.2-.2.3-.2a.6.6,0,0,1,.4.1.37.37,0,0,1,.1.3.32.32,0,0,1-.3.3,4.43,4.43,0,0,0-1.2,1.5c-.3.7-.6,1.3-.9,2,0,.1,0,.2-.1.2a.76.76,0,0,1-.4.2.45.45,0,0,1-.3-.3c-.1-.2,0-.3,0-.6a2.19,2.19,0,0,1-2.2.3,1.92,1.92,0,0,1-1.2-1.8H22.3a.32.32,0,0,0-.3.3,22.5,22.5,0,0,0-.8,2.4c-.1.1-.1.3-.2.4s-.2.3-.3.3-.4.1-.5-.1a.45.45,0,0,1,0-.5,24.88,24.88,0,0,0,1.1-2.9.1.1,0,0,1-.1-.1c-.1,0-.1.1-.2.1-.1.2-.3.2-.5.2a.82.82,0,0,1-.4-.6c0-.2.1-.4.3-.4a2,2,0,0,1,.8-.1c.3,0,.4-.1.5-.4.5-1.3.7-1.7,1.1-3a1.16,1.16,0,0,0,0-1,.75.75,0,0,1-.1-.5c0-.2,0-.4.3-.5a.48.48,0,0,1,.6.2c.1.2.2.3.2.5a3.08,3.08,0,0,1-.2,1.6,26,26,0,0,1-1,2.5,4.17,4.17,0,0,0-.2.6h1.2c.2,0,.3-.2.3-.4a4.18,4.18,0,0,1,.4-1,2.7,2.7,0,0,1,.7-.8,3.33,3.33,0,0,1,.6-.3c.6-.1,1,.3.8.9a4.05,4.05,0,0,1-.5.9,7.27,7.27,0,0,1-.9.8.93.93,0,0,0-.3,1.2c.4.9,1.6,1.1,2,.4.2,0,.4-.1.7-.1m-2.2-2.6.1.1.2-.2h0c-.2,0-.2,0-.3.1"/><path class="cls-1" d="M13.3,16.7c.3-.1.5-.2.7,0a.62.62,0,0,1,.1.7,4.05,4.05,0,0,1-.5.9,2.19,2.19,0,0,0-.2,1.6c0,.3.3.4.6.4.1-.8.8-1.1,1.2-1.6a.33.33,0,0,1,.5,0,.45.45,0,0,1,0,.5c-.1.2-.3.3-.4.5l-.4.4a2.09,2.09,0,0,0,2.3-.9,1.24,1.24,0,0,0-.3-1.4c-.1-.1-.3-.2-.4-.3a.67.67,0,0,1-.1-1,2,2,0,0,1,1.2-.8,1.68,1.68,0,0,1,1.8.8.45.45,0,0,1,0,.5.3.3,0,0,1-.4,0c-.1-.1-.2-.2-.3-.2-.6-.5-.9-.5-1.4.1l.2.2a2,2,0,0,1,.3,2.9,2.94,2.94,0,0,1-2.7.9c-.2,0-.5-.1-.7.1s-.2.1-.4,0a1.51,1.51,0,0,1-1.4-1.4c0-.1,0-.1-.1-.2a2.18,2.18,0,0,0-.5.4,1.69,1.69,0,0,1-1,.3,1.06,1.06,0,0,1-1-.9,2.6,2.6,0,0,1,.6-2.2l.9-.9a1,1,0,0,1,1-.3c.5,0,.6.2.7.7a.35.35,0,0,1,.1.2m-.9-.1c-.1,0-.3.1-.4.1a2.83,2.83,0,0,0-1.1,1.5,2.77,2.77,0,0,0-.1.9c0,.2.2.3.4.3s.2-.1.3-.1c.3-.3.7-.6,1-.9a.62.62,0,0,0,.2-.7c-.1-.4-.2-.7-.3-1.1"/><path class="cls-1" d="M35,16.1a.87.87,0,0,0-1,1.3,5.26,5.26,0,0,1,.4,1.8,2,2,0,0,1-2,2.1,9.15,9.15,0,0,1-1.6-.1.52.52,0,0,1-.4-.2c-.1-.1-.2-.2-.1-.4s.2-.2.4-.2h.2a2.57,2.57,0,0,0,1.5.1,1.29,1.29,0,0,0,1.3-1.4,2.77,2.77,0,0,0-.3-1.3,2.92,2.92,0,0,1-.2-.9,1.67,1.67,0,0,1,2.2-1.6.63.63,0,0,1,.5.6v1c0,.3-.2.5-.4.4s-.3-.2-.4-.5a1.48,1.48,0,0,1-.1-.7"/><path class="cls-1" d="M31.4,15.2a1,1,0,0,1,.3-.8,4.35,4.35,0,0,1,1.5-.8c.2-.1.3,0,.4.2s.1.4-.1.5-.2.1-.4.2-.5.2-.7.3a.55.55,0,0,0-.3.5c0,.2,0,.4-.3.4a.55.55,0,0,1-.5-.3c.1,0,.1-.1.1-.2"/><path class="cls-1" d="M18.1,28.5H16.7a.9.9,0,0,1-.5-.1,1.26,1.26,0,0,1-.8-2,3.28,3.28,0,0,1,2-1.5c.6-.2.9-.1,1.6.5l.2-.2c.1-.2.3-.2.6-.2a.78.78,0,0,1,.4.4,2.2,2.2,0,0,1-.2,1.4,1.79,1.79,0,0,1-.5.7c-.3.3-.5.5-.5.8l-1.2,3.9a10,10,0,0,1-1.5,2.9,6.86,6.86,0,0,1-1.7,1.7,4.42,4.42,0,0,1-1.6.6,2,2,0,0,1-2.5-1.8,4.89,4.89,0,0,1,.1-2.4,8.86,8.86,0,0,1,.8-1.7c0-.1.1-.1.1-.2.2-.2.4-.3.6-.1s.2.3.1.6-.2.3-.3.5a4.23,4.23,0,0,0-.7,2.7c.1,1.5,1,2.2,2.5,1.5a4.17,4.17,0,0,0,1.6-1.3,9.19,9.19,0,0,0,1.6-2.7c.4-1.2.8-2.4,1.2-3.7v-.3M17,27.8a2.66,2.66,0,0,0,1.2-.3c.2-.2.6-.9.5-1.2a1,1,0,0,0-1.3-.6,2.73,2.73,0,0,0-1.2.9.52.52,0,0,0-.2.4c-.1.4-.1.6.3.7a1.7,1.7,0,0,0,.7.1"/><path class="cls-1" d="M38.2,25a2.19,2.19,0,0,0-.5.3,6.47,6.47,0,0,0-.8.9c-.6.8-1.2,1.5-1.8,2.3-.3.3-.4.4-.6.3s-.3-.3-.2-.7c.2-.7.3-1.3.5-2a2.05,2.05,0,0,0,0-1.1c-.1.1-.2.3-.3.4-.7,1.2-1.3,2.3-2,3.5,0,.1-.1.1-.1.2a.37.37,0,0,1-.5.2.55.55,0,0,1-.3-.5c.1-.5.2-.9.3-1.4a4.94,4.94,0,0,0,.3-2.7c-.1-.3.1-.6.3-.6a.71.71,0,0,1,.6.3c0,.1.1.3,0,.4a1.39,1.39,0,0,0,0,1.1,1.38,1.38,0,0,0,.3-.4c.4-.6.8-1.2,1.1-1.7.2-.2.4-.5.7-.4s.4.5.4.8c0,.8-.1,1.6-.1,2.4l.2-.2.9-1.2a9,9,0,0,1,1-.9,1,1,0,0,1,1.5.5,5.77,5.77,0,0,1,.3,1.4,3.08,3.08,0,0,1,.1,1,1.09,1.09,0,0,0,1.5.9c.1,0,.2-.1.3-.1s.4,0,.4.2a.6.6,0,0,1-.1.4,2.19,2.19,0,0,1-.5.3,2,2,0,0,1-2.1-.8,6.89,6.89,0,0,1-.3-.8c-.1-.5-.1-1.1-.2-1.6a.74.74,0,0,0-.3-.7"/><path class="cls-1" d="M29.7,24.9c.5.3.5.4.4,1s-.3.9-.4,1.4a2.72,2.72,0,0,0,0,.9,4.33,4.33,0,0,1,.5.1c.2.1.3.2.3.4s-.2.3-.4.3c-.7.1-1.1-.3-1.2-1v-.4a1.38,1.38,0,0,0-.4.3,2.18,2.18,0,0,1-2.2.4,1,1,0,0,1-.8-1.1,2.35,2.35,0,0,1,.2-.8,6,6,0,0,1,2-2.5,2,2,0,0,1,1.1-.3.92.92,0,0,1,1,.9.76.76,0,0,0-.1.4m-.8.5v-.6a.27.27,0,0,0-.3-.3,1.14,1.14,0,0,0-.8.3,4.57,4.57,0,0,0-1.4,1.7,1.88,1.88,0,0,0-.2.8c0,.2.1.3.3.4a1.29,1.29,0,0,0,1.2-.1c.7-.6,1.4-1.2,1.2-2.2"/><path class="cls-1" d="M13.4,24.6c.7-.3,1.2,0,1.4.8a2.86,2.86,0,0,1-.4,2.4A4.43,4.43,0,0,1,12.9,29a2.25,2.25,0,0,1-1.8,0,1,1,0,0,1-.7-1.2,3.54,3.54,0,0,1,.3-1.1,8.34,8.34,0,0,1,1.6-2.1c.3-.3.6-.3,1.1,0m-.5.6a6,6,0,0,0-1.7,2.2c0,.1,0,.2-.1.2-.1.4,0,.6.5.7A2.28,2.28,0,0,0,14,26.5V26c-.6.1-.6.1-.9-.4,0-.1-.1-.2-.2-.4"/><path class="cls-1" d="M22.6,25.4c.3-.3.5-.6.8-.9a2.84,2.84,0,0,1,1.7-.9c.2,0,.3-.1.5-.1s.4,0,.5.2a.37.37,0,0,1-.2.5,1.42,1.42,0,0,1-.6.2,2.35,2.35,0,0,0-1.4.7,8,8,0,0,0-1.8,2.7c-.1.2-.1.4-.2.6a.37.37,0,0,1-.1.3.76.76,0,0,1-.4.2c-.1,0-.2-.2-.3-.3v-.3c0-.9.1-1.8.1-2.6v-.2a.55.55,0,0,1,.4-.6.83.83,0,0,1,.8.2c.1.1.1.2.2.3m-.3.4c-.4,0-.4,0-.3.4a.54.54,0,0,0,.3-.4"/><path class="cls-1" d="M8.1,25.8c.2-.2.4-.3.6-.5a3.59,3.59,0,0,1,1.8-.7h.2a.27.27,0,0,1,.3.3c0,.2-.1.3-.3.4s-.3.1-.4.1a1.85,1.85,0,0,0-1.2.5,5.52,5.52,0,0,0-1.9,2.6.35.35,0,0,1-.1.2.55.55,0,0,1-.5.3.55.55,0,0,1-.3-.5c0-.2.1-.3.1-.5a8.85,8.85,0,0,0,1-3,.37.37,0,0,1,.1-.3.42.42,0,0,1,.6-.3.45.45,0,0,1,.2.6,1.55,1.55,0,0,0-.2.8"/><path class="cls-1" d="M4,16.4a.52.52,0,0,1,.4-.2.74.74,0,0,1,1.1.4,1.88,1.88,0,0,1,.2.8l.3-.3a15.38,15.38,0,0,1,1.3-1.2c.3-.2.6-.5.9-.3s.3.5.3.9c0,.9-.1,1.9-.1,2.8v.6a1.24,1.24,0,0,0,.3-.2.37.37,0,0,0,.1-.3.52.52,0,0,1,.4-.2c.2,0,.3.2.3.4a.89.89,0,0,1-.5.8,1.08,1.08,0,0,1-.8.2.63.63,0,0,1-.7-.7V16.5c-.1.1-.2.1-.3.2a9.34,9.34,0,0,0-1.6,1.8l-.3.6-.3.6c-.1.2-.2.2-.4.2s-.3-.2-.3-.4a1.85,1.85,0,0,1,.2-.7,3.07,3.07,0,0,0-.1-2.1l-.5.5a5.29,5.29,0,0,0-1.1,2.1c-.1.3-.2.7-.3,1a.46.46,0,0,1-.5.3.46.46,0,0,1-.3-.5,2.92,2.92,0,0,1,.2-.9c.2-.5.4-1.1.6-1.6a1.37,1.37,0,0,0,.6-1,.6.6,0,0,1,.1-.4.39.39,0,0,1,.7-.1.37.37,0,0,0,.1.3"/><path class="cls-1" d="M2.9,26.1a2.7,2.7,0,0,1,.7-.8,4.35,4.35,0,0,1,.7-.6,1.11,1.11,0,0,1,1.7.7,2.23,2.23,0,0,1-.7,2.5,3.67,3.67,0,0,1-1.6.9.68.68,0,0,1-.9-.6c0-.2,0-.3.2-.4s.3,0,.4.2.1.1.1.2c.3-.2.5-.2.6-.3a5.55,5.55,0,0,0,.8-.6,1.42,1.42,0,0,0,.4-1.7c-.1-.3-.3-.5-.6-.3s-.3.2-.5.3a7.46,7.46,0,0,0-1.8,3.1c-.3,1.2-.6,2.3-.9,3.4a24.13,24.13,0,0,1-.8,2.5c-.1.4-.3.5-.5.5a1,1,0,0,1-.2-.7,2,2,0,0,1,.1-.8c.4-1.5.8-2.9,1.3-4.3.2-.6.5-1.1.7-1.7a3.09,3.09,0,0,0,.2-.8c0-.7.1-.7.6-.7"/></svg>