<svg xmlns="http://www.w3.org/2000/svg" width="692.969" height="308.969" viewBox="0 0 692.969 308.969">
  <metadata><?xpacket begin="﻿" id="W5M0MpCehiHzreSzNTczkc9d"?>
<x:xmpmeta xmlns:x="adobe:ns:meta/" x:xmptk="Adobe XMP Core 5.6-c138 79.159824, 2016/09/14-01:09:01        ">
   <rdf:RDF xmlns:rdf="http://www.w3.org/1999/02/22-rdf-syntax-ns#">
      <rdf:Description rdf:about=""/>
   </rdf:RDF>
</x:xmpmeta>
                                                                                                    
                                                                                                    
                                                                                                    
                                                                                                    
                                                                                                    
                                                                                                    
                                                                                                    
                                                                                                    
                                                                                                    
                                                                                                    
                                                                                                    
                                                                                                    
                                                                                                    
                                                                                                    
                                                                                                    
                                                                                                    
                                                                                                    
                                                                                                    
                                                                                                    
                                                                                                    
                           
<?xpacket end="w"?></metadata>
<defs>
    <style>
      .cls-1 {
        fill: #002550;
        fill-rule: evenodd;
      }
    </style>
  </defs>
  <path class="cls-1" d="M941.132,685.406c-23.332,24.83-65.071,73.131-55.438,78.3,12.182,6.532,41.327-24.031,52.5-34.218,7.434-6.778,33.4-39.278,39.872-47.114a93.079,93.079,0,0,1,7-8.107c2.357-2.263,5.445-3.011,8.31-.886a5.636,5.636,0,0,1,1.3,8.136c-4.2,6.092-28.706,36.091-33.782,41.423-10.543,11.076-17.776,24.32-25.563,37.744a30.729,30.729,0,0,0,4.721-2.067c13.638-8.86,27.329-17.647,40.8-26.755,13.158-8.895,36.206-38.516,45.516-51.318,1.94-2.665,3.81-5.551,6.33-7.562a8.676,8.676,0,0,1,6.63-1.575c3.05,0.8,3.72,3.711,2.82,6.76-0.29,1-.5,2.032-0.86,3.478,1.54,0.463,2.84.779,4.09,1.241,5.67,2.1,7.96,4.582,7.06,10.433a51.758,51.758,0,0,1-5.19,16.269c-3.17,5.985-19.99,29.5-25.1,36.684,28.65-3.931,31.07-7.8,41.39-20.567,4.44-5.491,25.08-39.853,28.51-46.1,3.14-5.719,5.61-7.744,9.03-6.473,3.8,1.406,5.43,5.747,3.66,11.359a91.405,91.405,0,0,1-5,12.1c-4.37,8.893-25.94,40.977-30.3,49.878-3.6,7.363-7.02,18.247-4.59,19.828,6.79,4.408,34.05-27.246,36.07-30.483,3.06-4.894,30.25-50.2,33.33-55.082a28.055,28.055,0,0,1,4.89-5.563c2.59-2.376,5.72-3.753,9.03-1.674,3.44,2.16,3.55,5.993,1.85,8.824-4.5,7.5-33.6,55.257-39.19,61.937-5.55,6.623-8.26,12.141-9.83,20.347-0.24,1.259-1.26,4.952-.18,6.03,2.61,2.613,8.38-2.171,11.29-4.8,9.6-8.656,34.26-39.53,47.23-56.973S1174.93,686.5,1182,677.7a36.294,36.294,0,0,1,4.25-5.038c5.59-4.812,9.86,15.775,12.31,22.738,2.49,7.062-.4,14.632-4.74,20.3-4.02,5.242-23.74,31.544-27.65,36.855-5.56,8.274-7.8,16.785-3.07,16.544,19.75-1,49.9-46.608,66.63-72.666,4.91-7.643,8.14-12.014,13.46-19.377,2.74-3.789,5.91-7.951,11.47-6.15,5.34,1.728,5.1,6.87,5,11.146-0.26,12.6-.44,22.813-1.01,36.5,2.1-.284,4.9-0.7,7.72-1.04,17.78-2.147,37.02-8.551,54.83-10.445,3.76-.4,6.28,4.355,10.02,5.151,4.33,0.921,6.5,3.879,5.57,6.82-1.13,3.573-3.98,4.136-7.3,3.773-24.3-2.644-42.22,1.733-65.77,6.136-3.59.671-5.7,2.634-6.82,6.241-1.62,5.248-11.18,25.971-19.77,35.254-2.29,3.285-13.79,16.7-25.15,9.348-7.34-5.457-5.27-15.232-3.58-23.294,1.36-6.455,11.43-24.084,33.57-34.112,5.75-1.913,6.38-3.95,6.26-11.727-0.21-14.256-.53-18.222-0.03-21.22-2.45,3.254-4.24,5.165-5.5,7.374-17.5,30.653-40.15,65.908-70.43,82.155-6.44,3.459-8.64,4.52-16.08,3.4-7.29-1.093-8.91-6.025-8.81-13.361,0.1-7.662,3.87-16.051,8.4-22.155,4.26-5.74,23.76-30.6,28.2-36.219,3.4-4.315.8-15.01-1.01-12.707-11.25,14.3-41.46,57.765-55.47,69.544a169.159,169.159,0,0,1-14.59,10.8,22.38,22.38,0,0,1-7.59,3.109c-10.66,2.313-15.49-1.582-15.86-12.47-0.04-1.085-.16-2.166-0.35-4.635-2.79,1.939-4.85,3.518-7.06,4.859-4.45,2.71-8.71,6.044-13.54,7.766-9.28,3.309-15.35-1.431-14.75-11.16,0.31-5.131,1.59-10.2,2.56-16.142-2.06,1.2-32.26,8.486-40.9,7.472-3.64-.426-4.39,1.815-7.07,4.146-4.98,4.329-12.628,12.128-18.09,15.822a29.609,29.609,0,0,1-10.541,4.447c-8.221,1.627-12.981-2.956-11.69-11.163,0.709-4.509,3.1-13.387,4.692-18.945-2.819,1.539-4.869,2.556-6.816,3.74-14.131,8.6-28.353,17.054-42.3,25.945-4.549,2.9-6.4,6.46-9.084,11.086a419.077,419.077,0,0,1-59.186,79.277,180.976,180.976,0,0,1-26.22,22.579c-5.633,3.994-9.034,6.908-15.878,8.583-7.208,1.765-15.25-2.3-17.156-9.545-1.817-6.907-1.777-13.8,2.216-19.924,3.436-5.271,7.01-10.669,11.514-14.983,8.341-7.989,17.167-15.529,26.219-22.719,22.012-17.485,44.063-34.934,66.533-51.824,8.449-6.352,12.59-15.13,17.059-24.249-2.168,1.477,2.2-1.43,0,0-8.082,5.261-27.964,24.069-39.073,18.4-8.554-4.364-14.308-17.266,5.753-45.617,21.938-29.754,36.6-42.789,46.7-54.786a22.393,22.393,0,0,1,4.98-4.316C943.5,669.493,953.066,672.993,941.132,685.406ZM808.072,890.044c3.143,3.8,11.2-1.795,15.785-5.308a197.731,197.731,0,0,0,18.93-15.943c16.308-16.122,30.449-34.088,43.668-52.779,1.84-2.6,3.476-5.345,5.207-8.023a13.616,13.616,0,0,0-6.129,2.485c-15.437,12.021-30.953,23.949-46.211,36.2-7.727,6.2-15.194,12.769-22.341,19.625C813.46,869.673,801.884,882.561,808.072,890.044ZM1245.72,732.728c-24.64,8.579-33.59,37.119-26.56,38.909C1226.74,773.563,1244.57,747.5,1245.72,732.728ZM980.162,769.159c7-2.443,13.1-9.606,18.238-16.244a4.07,4.07,0,0,0,1.289-2.842c-0.264-4.161-.793-8.3-1.4-14.125C990.478,745.569,983.489,758.5,980.162,769.159Zm61.788-76.416c-33.9,18.2-35.95,37.431-29.98,47.131C1019.54,731.538,1039.38,705.669,1041.95,692.743ZM874.628,601.6c-3.444,2.019-6.39,5.219-8.915,8.394-9.948,12.5-19.9,25.012-29.373,37.872-22,29.863-40.707,61.509-51.77,97.2a13.2,13.2,0,0,1-3.871,6.074c-8.507,11.468-47.327,38.988-32.491-8.6,10.308-11.433,16.7-23.375,25.765-35.809,14.111-19.356,27.569-39.194,40.957-59.059,4.6-6.817,19.481-32.332,19.375-40.656-0.13-10.318-6-16.161-15.146-11.2a36.642,36.642,0,0,0-8.9,7.272,364.018,364.018,0,0,0-42.35,54.866c-16.588,26.327-29.119,54.3-32.94,85.6-0.271,2.226-1.938,4.542-3.35,6.282-8.313,10.246-16.3,26.233-23.513,19.8-4.72-4.212-2.96-21.309,3.748-29.742a104.3,104.3,0,0,0,10.022-15.123c6.395-11.8,9.807-24.391,8.534-37.972-0.811-8.622-4.651-12.206-13.289-12.547-7.048-.278-12.869,2.466-18.128,6.833-22.458,18.643-39.179,41.653-51.373,67.949-2.141,4.619-3.016,10.038-3.474,15.174-1.252,14.029,6.007,20.647,20.034,18.365a24.533,24.533,0,0,0,9.789-4.006c4.719-3.3,8.918-7.339,13.324-11.082,1.783-1.515,3.53-3.073,5.629-4.9a18.555,18.555,0,0,1,1.117,2.918c1.854,11.585,5.722,14.819,17.441,15.14,12.692-1.978,17.273-11.742,22.584-17.651,0.654,2.861.974,4.658,1.478,6.4,3.028,10.46,11.348,15,21.735,11.491a41.038,41.038,0,0,0,9.408-5.06c4.8-3.211,9.369-6.751,14.976-10.838,1.107,3.222,1.605,5.734,2.785,7.665,15.752,25.781,44.715.562,43.5-4.04s-8.991-.331-12.88,1.7-7.011,2.576-15.065-.727c-6.248-2.562-8.105-12.446-.894-19.493a347.417,347.417,0,0,0,45.477-55.244c10.706-16.013,20.377-32.7,30.5-49.091a162.2,162.2,0,0,0,8.47-15.109,44.014,44.014,0,0,0,4.327-21.647C887.445,601.2,881.385,597.636,874.628,601.6Zm-51.021,5.417c3.51,3.086-13.841,28.69-17.243,33.621-18.585,26.94-52.687,79.045-57.926,86.474-0.247-.914.2-3.059,0.368-4.472C750.416,696.737,816.19,600.5,823.607,607.018ZM691.952,746.941c-7.128,6.878-13.978,14.064-21.361,20.655a21.023,21.023,0,0,1-9.511,4.394c-4.322.88-6.377-1-5.981-5.417,0.436-4.858.992-10.042,3.032-14.364,11.166-23.652,26.293-44.488,46.3-61.568,6.146-5.249,7.479-5.465,14.353-4.835,1.266,6.754,1.453,12.487-4.246,18.545-7.556,8.037-11.622,18.62-14.795,29.235A29.689,29.689,0,0,1,691.952,746.941ZM870.759,631.787c-12.862,21.241-22.907,39.155-40.5,64.531-8.326,12.011-31.224,40.983-31.89,40.629,0.961-2.537,4.713-11.114,5.835-13.577a365.385,365.385,0,0,1,40.586-68.753c8.937-11.86,26.812-41.277,30-38.1S873.372,627.472,870.759,631.787Z" transform="translate(-644.031 -594.031)"/>
</svg>
