<svg id="Circle_copy_5" data-name="Circle copy 5" xmlns="http://www.w3.org/2000/svg" viewBox="0 0 85.5 85"><defs><style>.cls-1{fill:#fff;}.cls-2,.cls-4{fill:#303139;}.cls-3{isolation:isolate;}.cls-4{fill-rule:evenodd;}</style></defs><title>icon_rss</title><g id="White_Circle" data-name="White Circle"><ellipse class="cls-1" cx="42.75" cy="42.5" rx="42.75" ry="42.5"/></g><g id="Dark_Stroke_Circle" data-name="Dark Stroke Circle"><path class="cls-2" d="M43.25,10.72a31.78,31.78,0,1,1-32,31.78,31.93,31.93,0,0,1,32-31.78m0-6a37.78,37.78,0,1,0,38,37.78,37.89,37.89,0,0,0-38-37.78h0Z" transform="translate(-0.5)"/></g><g id="RSS" class="cls-3"><g id="RSS-2" data-name="RSS"><path class="cls-4" d="M33.83,47.12a4.94,4.94,0,1,0,4.84,4.93A4.89,4.89,0,0,0,33.83,47.12ZM29,32.54v6.82S45.23,39.83,45.74,57h7.15S53.73,33.67,29,32.54ZM29,20v7s26.42-.43,29.36,30H65S65.76,22.06,29,20Z" transform="translate(-0.5)"/></g></g></svg>