<?xml version="1.0" encoding="utf-8"?>
<!-- Generator: Adobe Illustrator 19.2.1, SVG Export Plug-In . SVG Version: 6.00 Build 0)  -->
<svg version="1.1" xmlns="http://www.w3.org/2000/svg" xmlns:xlink="http://www.w3.org/1999/xlink" x="0px" y="0px"
	 viewBox="0 0 16 16" style="enable-background:new 0 0 16 16;" xml:space="preserve">
<style type="text/css">
	.st0{display:none;}
	.st1{display:inline;fill:#002C5F;}
	.st2{display:inline;}
	.st3{fill:#002C5F;}
	.st4{font-family:'FontAwesome';}
	.st5{font-size:15.9104px;}
</style>
<g id="facebook" class="st0">
	<path id="f" class="st1" d="M9.2,16V8.7h2.4L12,5.8H9.2V4c-0.1-0.6,0.3-1.2,0.9-1.4c0.2,0,0.3,0,0.5,0h1.6V0.1C12,0.1,11.1,0,10,0
		C8.1-0.1,6.4,1.3,6.3,3.3c0,0.2,0,0.4,0,0.5v2.1H3.8v2.9h2.4V16H9.2z"/>
</g>
<g id="twitter" class="st0">
	<path class="st1" d="M16,2.9c-0.6,0.3-1.2,0.5-1.8,0.6c0.7-0.4,1.2-1.1,1.5-1.8C15,2,14.2,2.3,13.5,2.5c-0.6-0.7-1.5-1-2.4-1
		c-1.8,0-3.3,1.5-3.3,3.3c0,0,0,0,0,0c0,0.3,0,0.5,0.1,0.7C5.2,5.4,2.8,4.1,1.1,2.1C0.8,2.6,0.6,3.2,0.6,3.7c0,1.1,0.6,2.1,1.5,2.8
		c-0.5,0-1-0.1-1.5-0.4l0,0c0,1.6,1.1,3,2.7,3.2C3.1,9.5,2.8,9.5,2.5,9.5c-0.2,0-0.4,0-0.6-0.1c0.5,1.3,1.7,2.2,3.1,2.3
		c-1.2,0.9-2.6,1.4-4.1,1.4H0c1.5,1,3.3,1.5,5.1,1.5c5.1,0.1,9.3-4,9.3-9.2c0-0.1,0-0.1,0-0.2V4.8C15.1,4.2,15.6,3.6,16,2.9z"/>
</g>
<g id="linkedin" class="st0">
	<g class="st2">
		<path id="LinkedIn" class="st3" d="M16,9.7v5.9h-3.4v-5.5c0-1.4-0.5-2.3-1.7-2.3C9.9,7.8,9.3,8.4,9.1,9C9,9.3,9,9.6,9,9.9v5.8H5.5
			c0,0,0-9.3,0-10.3H9v1.5c0,0,0,0,0,0h0v0c0.5-0.7,1.3-1.7,3.1-1.7C14.3,5.1,16,6.6,16,9.7z M1.9,0.4C0.8,0.4,0,1.1,0,2.1
			c0,1,0.7,1.8,1.9,1.8h0c1.2,0,1.9-0.8,1.9-1.8C3.8,1.1,3.1,0.4,1.9,0.4z M0.2,15.6h3.4V5.3H0.2V15.6z"/>
	</g>
</g>
<g id="google__x2B_">
	<g>
		<g>
			<path class="st3" d="M9.2,10.2C9,10,8.8,9.7,8.6,9.6C8.4,9.4,8.2,9.2,8,9C7.8,8.9,7.6,8.7,7.5,8.6C7.3,8.4,7.2,8.3,7.1,8.1
				C6.9,7.9,6.9,7.8,6.9,7.6C6.9,7.4,7,7.2,7.1,7s0.3-0.4,0.5-0.6C7.9,6.2,8.1,6,8.3,5.8c0.2-0.2,0.4-0.5,0.5-0.9C9,4.5,9,4.1,9,3.6
				C9,3,8.9,2.5,8.7,2C8.4,1.5,8.1,1,7.6,0.8h1.3L10.2,0H6C5.4,0,4.8,0.1,4.2,0.2C3.3,0.4,2.6,0.8,2,1.6C1.4,2.3,1,3.1,1,4
				c0,0.9,0.3,1.7,1,2.4C2.8,7,3.6,7.3,4.5,7.3c0.2,0,0.4,0,0.7,0c0,0.1,0,0.1-0.1,0.2S5.1,7.6,5.1,7.6c0,0.1,0,0.1,0,0.2
				C5,7.9,5,8,5,8c0,0.4,0.2,0.9,0.6,1.4c-0.5,0-1,0.1-1.4,0.1c-0.5,0.1-1,0.2-1.5,0.3c-0.5,0.2-1,0.4-1.4,0.7
				c-0.4,0.3-0.7,0.7-0.9,1.1C0.1,12.2,0,12.6,0,13c0,0.4,0.1,0.8,0.3,1.2C0.5,14.5,0.7,14.8,1,15c0.3,0.2,0.6,0.4,1,0.6
				c0.4,0.2,0.8,0.3,1.2,0.3C3.6,16,4,16,4.4,16c1.7,0,3.1-0.4,4-1.3C9.3,14,9.8,13.1,9.8,12c0-0.4-0.1-0.7-0.2-1
				C9.5,10.7,9.4,10.4,9.2,10.2z M5.5,6.7c-0.3,0-0.6-0.1-0.9-0.3C4.3,6.3,4,6.1,3.8,5.8C3.6,5.5,3.4,5.2,3.3,4.9
				C3.1,4.6,3,4.2,2.9,3.9c-0.1-0.3-0.1-0.7-0.1-1c0-0.6,0.2-1.1,0.5-1.6c0.3-0.4,0.8-0.7,1.4-0.7c0.4,0,0.8,0.1,1.1,0.4
				c0.3,0.3,0.6,0.6,0.8,1C6.9,2.5,7,2.9,7.1,3.3c0.1,0.4,0.2,0.8,0.2,1.2c0,0.6-0.1,1.2-0.4,1.5C6.6,6.5,6.1,6.7,5.5,6.7z
				 M8.2,13.9c-0.2,0.3-0.4,0.5-0.7,0.7c-0.3,0.2-0.6,0.3-1,0.4c-0.3,0.1-0.7,0.1-1.1,0.1c-0.4,0-0.8,0-1.2-0.1
				c-0.4-0.1-0.8-0.2-1.2-0.4c-0.4-0.2-0.7-0.5-0.9-0.8c-0.2-0.3-0.3-0.7-0.3-1.2c0-0.4,0.1-0.7,0.3-1c0.2-0.3,0.4-0.5,0.7-0.7
				c0.3-0.2,0.6-0.3,0.9-0.4c0.4-0.1,0.7-0.2,1-0.2c0.3,0,0.7-0.1,1-0.1c0.2,0,0.4,0,0.5,0c0,0,0.1,0.1,0.3,0.2
				c0.2,0.1,0.3,0.2,0.3,0.2c0.1,0,0.2,0.1,0.3,0.2c0.1,0.1,0.2,0.2,0.3,0.2c0.1,0.1,0.1,0.1,0.3,0.2c0.1,0.1,0.2,0.2,0.3,0.3
				C8,11.6,8,11.7,8.1,11.8c0.1,0.1,0.1,0.2,0.2,0.3c0,0.1,0.1,0.2,0.1,0.3c0,0.1,0,0.3,0,0.4C8.4,13.3,8.3,13.6,8.2,13.9z"/>
			<polygon class="st3" points="13.5,2.5 13.5,0 12.3,0 12.3,2.5 9.8,2.5 9.8,3.7 12.3,3.7 12.3,6.2 13.5,6.2 13.5,3.7 16,3.7 
				16,2.5 			"/>
		</g>
	</g>
</g>
<g id="Layer_5" class="st0">
	<text transform="matrix(1 0 0 1 4.638672e-02 13.3496)" class="st1 st4 st5"></text>
</g>
</svg>
