<svg id="Layer_1" data-name="Layer 1" xmlns="http://www.w3.org/2000/svg" xmlns:xlink="http://www.w3.org/1999/xlink" viewBox="0 0 69.36 43.38"><defs><style>.cls-1{fill:none;}.cls-2{clip-path:url(#clip-path);}.cls-3{fill:#003a70;}</style><clipPath id="clip-path" transform="translate(0 0)"><rect class="cls-1" width="69.36" height="43.38"/></clipPath></defs><title>january_2014</title><g class="cls-2"><path class="cls-3" d="M21.73,9.88c.07,0,.11,0,.13,0a1.09,1.09,0,0,0,.33-.16,9.8,9.8,0,0,0,1.64-2.1c.15-.25.1-.42-.16-.65a.45.45,0,0,0-.61,0A2.86,2.86,0,0,0,22,8.17a2.26,2.26,0,0,0-.27,1.71m5.43-.46-.65.71a1.67,1.67,0,0,1-1.47.56,1.23,1.23,0,0,1-1.25-1c0-.09-.06-.17-.1-.29-.36.15-.51.5-.77.72a5.1,5.1,0,0,1-.75.58.88.88,0,0,1-1.3-.78A4,4,0,0,1,22.25,6.6a1.53,1.53,0,0,1,2.12-.19,4.34,4.34,0,0,0,.22-.5c.32-1.07.62-2.15.94-3.22A2.8,2.8,0,0,1,25.81,2a.45.45,0,0,1,.41-.15.45.45,0,0,1,.25.35,6.37,6.37,0,0,1-.13.75,14.84,14.84,0,0,1-1.2,4,12.63,12.63,0,0,0-.46,1.46,3.07,3.07,0,0,0-.11.66c0,.28-.08.6.26.76a.87.87,0,0,0,1-.13,2.44,2.44,0,0,0,.5-.58c.38-.66.73-1.34,1.09-2a3.86,3.86,0,0,1,.22-.52.53.53,0,0,1,.39-.2.35.35,0,0,1,.32.41c0,.28-.11.56-.15.85q-.1.81-.17,1.62a.72.72,0,0,0,.29.76.3.3,0,0,1,.07.43.41.41,0,0,1-.5.18.77.77,0,0,1-.6-.56c0-.17-.07-.34-.13-.63" transform="translate(0 0)"/><path class="cls-3" d="M5,8.56c-.07.26-.14.53-.21.81a5.61,5.61,0,0,1-1.28,2.32A1.54,1.54,0,0,1,.9,11.3,3.08,3.08,0,0,1,.58,10,9.52,9.52,0,0,1,.93,7a15.41,15.41,0,0,1,1.4-3.35,5.85,5.85,0,0,1,2.25-2.3,2.29,2.29,0,0,1,1.57-.25A.9.9,0,0,1,7,2a3.6,3.6,0,0,1,0,.76A.27.27,0,0,1,6.58,3a.43.43,0,0,1-.28-.2,8,8,0,0,1-.17-.85A1.09,1.09,0,0,0,5,2,7.66,7.66,0,0,0,3.76,3a5.41,5.41,0,0,0-.83,1.17A12.23,12.23,0,0,0,1.46,8.27a12.06,12.06,0,0,0-.09,1.81,2,2,0,0,0,.22.82A.77.77,0,0,0,3,11.13,4.31,4.31,0,0,0,4.12,8.54a6.06,6.06,0,0,1-.48-.42.5.5,0,0,1,0-.69.53.53,0,0,1,.61-.13.54.54,0,0,1,.17.09,1.49,1.49,0,0,0,1.54.2c.55-.15,1.1-.34,1.65-.51A1,1,0,0,1,7.92,7a.42.42,0,0,1,.29.19.37.37,0,0,1,0,.35,2.31,2.31,0,0,1-.64.38c-.42.15-.85.28-1.28.39s-.8.19-1.25.29" transform="translate(0 0)"/><path class="cls-3" d="M36.19,7.39l.74-.84a6.88,6.88,0,0,1,.58-.63.51.51,0,0,1,.9.25,2.54,2.54,0,0,1,.11.85c0,.57-.16,1.14-.21,1.71s-.08,1.27-.11,1.91c0,.06.1.17.17.18a.28.28,0,0,0,.23-.11,2.12,2.12,0,0,0,.16-.34c.08-.16.21-.28.38-.2a.58.58,0,0,1,.29.33,1,1,0,0,1-.78,1.15,1,1,0,0,1-1.2-.68,1.76,1.76,0,0,1-.06-.57c0-.64.1-1.27.17-1.9a4.75,4.75,0,0,0,.14-1.4,1.14,1.14,0,0,0-.33.16,9.78,9.78,0,0,0-1.77,2.6c-.19.44-.46.61-.7.49s-.31-.48-.25-.76A11.11,11.11,0,0,1,35,8.1a3.36,3.36,0,0,0,.3-1.58.36.36,0,0,1,.29-.43.47.47,0,0,1,.55.41c0,.22,0,.44,0,.89" transform="translate(0 0)"/><path class="cls-3" d="M30.57,10.08c.19-.06.3-.06.36-.11A5.29,5.29,0,0,0,32.3,7.62c0-.11-.07-.29-.15-.4a.41.41,0,0,0-.51-.13,1.29,1.29,0,0,0-.38.28,2.85,2.85,0,0,0-.68,2.71m2.63-3.53a3.67,3.67,0,0,1-.14,1.72A9.77,9.77,0,0,0,33,10a4.71,4.71,0,0,1,.4-.38.34.34,0,0,1,.57.24A1.28,1.28,0,0,1,33.37,11a.77.77,0,0,1-1.12-.36,3.89,3.89,0,0,1-.14-.52c-.25-.09-.3.12-.41.21a4.63,4.63,0,0,1-.52.42,1,1,0,0,1-1.43-.62A3.73,3.73,0,0,1,31,6.57a1.37,1.37,0,0,1,1.26-.26l1,.24" transform="translate(0 0)"/><path class="cls-3" d="M15.3,6.94a.69.69,0,0,0-1,.15,4.43,4.43,0,0,0-.61,1,2.18,2.18,0,0,0-.1.84.61.61,0,0,0,.46.55.52.52,0,0,0,.6-.2,3.76,3.76,0,0,0,.77-1.14L15.3,6.94m1.51-.27c0,.32.08.57.08.81s0,.64-.06,1,0,.76.43,1a.31.31,0,0,1,.14.41.41.41,0,0,1-.56.2,2.65,2.65,0,0,1-.59-.46A2.78,2.78,0,0,1,15.94,9l-.65.74a1.22,1.22,0,0,1-1.46.4,1.4,1.4,0,0,1-1-1.29,3,3,0,0,1,1.28-2.64,1.34,1.34,0,0,1,1.62,0,1.74,1.74,0,0,0,1.07.39" transform="translate(0 0)"/><path class="cls-3" d="M9.58,9.53a.45.45,0,0,0,.56-.25c.25-.37.46-.77.74-1.12a8.63,8.63,0,0,1,.93-1A.77.77,0,0,1,12.25,7a.4.4,0,0,1,.32.15c.05.08,0,.24,0,.35a.26.26,0,0,1-.12.14A5.22,5.22,0,0,0,11,9.43a5,5,0,0,1-.51.69,1,1,0,0,1-.87.32.8.8,0,0,1-.8-.8,7.46,7.46,0,0,1,0-1.15C8.88,8,9,7.42,9.05,6.89a.47.47,0,0,1,.29-.32.52.52,0,0,1,.4.18.64.64,0,0,1,.14.71,4.67,4.67,0,0,0-.29,2.08" transform="translate(0 0)"/><path class="cls-3" d="M18.1,7.1h.75c.17-.15.35-.33.56-.48a.69.69,0,0,1,.72-.08.45.45,0,0,1,.23.27c0,.1-.05.31-.12.32-.71.17-.88.78-1.09,1.33s-.29.9-.43,1.36a3.21,3.21,0,0,1-.13.55.48.48,0,0,1-.35.24.5.5,0,0,1-.33-.28.86.86,0,0,1,0-.47A11.26,11.26,0,0,0,18,7.4c0-.09.06-.18.11-.31" transform="translate(0 0)"/><path class="cls-3" d="M30.49,4.14a.8.8,0,0,1-.86-.43.38.38,0,0,1,.28-.58,1.11,1.11,0,0,1,1,.44.42.42,0,0,1,.06.35c0,.1-.17.16-.28.22s-.12,0-.21,0" transform="translate(0 0)"/><path class="cls-3" d="M58.06,8.87l.33.31c.41.39.74.49,1.18.22a3.13,3.13,0,0,0,1.5-1.89.61.61,0,0,0-.21-.68c-.12-.1-.25-.18-.41-.29-1,.56-2.11.94-2.4,2.33m2.41.91a2.47,2.47,0,0,1-2.26.43,1.44,1.44,0,0,0-.47,0c-.16,0-.32,0-.48,0-.9,0-1.29-.33-1.37-1.22,0-.29,0-.58,0-.86s-.07-.49-.12-.83a2.88,2.88,0,0,0-.44.29,7.48,7.48,0,0,0-1.9,2.84,1.12,1.12,0,0,1-.2.43.5.5,0,0,1-.4.15.46.46,0,0,1-.26-.35,2.44,2.44,0,0,1,.16-.74c.18-.51.37-1,.57-1.53A2.76,2.76,0,0,0,53.48,7a1,1,0,0,1,.07-.46.33.33,0,0,1,.56-.07c.13.24.22.51.34.81l.61-.53a4.27,4.27,0,0,1,.45-.36c.48-.31.87-.15,1,.43s.12,1,.16,1.52c0,.31,0,.63.07,1l.48.1c.06-.08.12-.13.12-.18s0-.38,0-.57A2.19,2.19,0,0,1,58,7.26,6.69,6.69,0,0,1,59.86,6,1.22,1.22,0,0,1,61,5.89a1.14,1.14,0,0,0,.88.17c.17,0,.37.19.36.37a2.59,2.59,0,0,1-.12.75c-.65,1.68-.9,3.46-1.41,5.17-.27.92-.6,1.82-.95,2.71a5,5,0,0,1-1.17,1.74,1.83,1.83,0,0,1-1.37.57,1.08,1.08,0,0,1-1-.52,2.49,2.49,0,0,1-.31-.69,5.55,5.55,0,0,1,.44-4.09,1.87,1.87,0,0,1,.34-.45.31.31,0,0,1,.43,0,.41.41,0,0,1,.11.33,4.52,4.52,0,0,1-.31.69,4.92,4.92,0,0,0-.31,3.18c.18,1,.93.94,1.44.38a5.53,5.53,0,0,0,.73-1,8.63,8.63,0,0,0,.59-1.31,23.29,23.29,0,0,0,1.09-4.11" transform="translate(0 0)"/><path class="cls-3" d="M47.53,10.71a.82.82,0,0,1,.32,0,.41.41,0,0,1,.25.25.38.38,0,0,1-.11.33,1.85,1.85,0,0,1-2.13-.24,1.22,1.22,0,0,1-.3-.79,4.86,4.86,0,0,1,.24-1.7c.47-1.53,1-3,1.43-4.57a13.26,13.26,0,0,1,1.1-2.55c.15-.28.22-.6.38-.87a2.1,2.1,0,0,1,.5-.55.38.38,0,0,1,.35,0,.4.4,0,0,1,.16.31,1.73,1.73,0,0,1-.23.62,17.81,17.81,0,0,0-2.07,5.14c-.21.8-.52,1.58-.77,2.37a7.45,7.45,0,0,0-.3,1.3c-.08.73.14.94.84.93l.34,0" transform="translate(0 0)"/><path class="cls-3" d="M50.66,6.55c-.43.72-.85,1.39-1.24,2.08a1.64,1.64,0,0,0-.2.63.73.73,0,0,0,.11.52c.16.18.41.11.63,0a.68.68,0,0,0,.24-.15,3.54,3.54,0,0,0,1.09-2.82l-.62-.29m1.43.38a4.55,4.55,0,0,1-1.19,3.14,1.63,1.63,0,0,1-1.53.59,1,1,0,0,1-1-1.08,2.3,2.3,0,0,1,.27-1.2c.42-.75.86-1.48,1.33-2.2a1.5,1.5,0,0,1,.52-.39c.19-.11.39-.18.59-.28a.56.56,0,0,1,.85.3,2.58,2.58,0,0,1,.13.65,3.79,3.79,0,0,1,0,.48" transform="translate(0 0)"/><path class="cls-3" d="M67,7.81s-.07.18-.16.23a5.53,5.53,0,0,1-1.08.58c-.66.22-1.35.36-2,.52a.4.4,0,0,1-.27,0,.59.59,0,0,1-.23-.27.29.29,0,0,1,.07-.26,1.24,1.24,0,0,1,.4-.24,5.42,5.42,0,0,1,.73-.2,5.33,5.33,0,0,0,2-.71.74.74,0,0,1,.26-.09c.17,0,.39.18.35.44" transform="translate(0 0)"/><path class="cls-3" d="M14.62,19.06c.24-.24.42-.46.64-.65a.5.5,0,0,1,.87.3c.06.28.09.56.13.81.26.1.31-.09.41-.19a6.68,6.68,0,0,1,.85-.76c.48-.31.9-.07.93.49a6.24,6.24,0,0,1,0,.67,9.25,9.25,0,0,0,.16,2.38,2.69,2.69,0,0,0,.11.32c.35.07.37-.25.55-.35a.45.45,0,0,1,.34-.06.41.41,0,0,1,.2.29.94.94,0,0,1-.75,1c-.52.14-.94,0-1.07-.52a16.33,16.33,0,0,1-.32-2c0-.34,0-.68,0-1-.25-.1-.35.06-.42.18-.24.45-.47.91-.69,1.36s-.38.88-.61,1.3-.33.66-.78.58c-.27-.05-.33-.35-.18-.92.1-.4.25-.79.35-1.2a2.55,2.55,0,0,0,.09-1.36c-.23-.08-.28.06-.35.15a7.83,7.83,0,0,0-1.22,2.27,3.7,3.7,0,0,1-.28.71.57.57,0,0,1-.39.21c-.18,0-.29-.13-.3-.3a2.4,2.4,0,0,1,0-.67c.1-.56.22-1.13.37-1.68s.3-.91.47-1.35.33-.41.72-.14l.22.13" transform="translate(0 0)"/><path class="cls-3" d="M1.41,19.57a5.79,5.79,0,0,1-.79.25.46.46,0,0,1-.33-.14.3.3,0,0,1,0-.43,1.66,1.66,0,0,1,.56-.34,9.06,9.06,0,0,1,1-.23c.23-.61.44-1.21.67-1.8.32-.8.64-1.6,1-2.39a2.31,2.31,0,0,1,.44-.62.37.37,0,0,1,.61.18,8.38,8.38,0,0,1,.08.85,2.93,2.93,0,0,0-.65.44,2.26,2.26,0,0,0-.33.69c-.31.84-.61,1.68-.94,2.58l.56.13c.28.06.57.09.85.17a1.55,1.55,0,0,1,.58.31.5.5,0,0,1,.07.42c0,.08-.2.17-.3.16a3.31,3.31,0,0,1-.55-.15,2.79,2.79,0,0,0-1.55,0,6.87,6.87,0,0,0-.58,3.15c0,.43.29.61.73.53a1.32,1.32,0,0,0,.79-.5,6,6,0,0,1,.44-.49.27.27,0,0,1,.26,0,.6.6,0,0,1,.22.28.42.42,0,0,1,0,.28,2.06,2.06,0,0,1-2,1.25A1.18,1.18,0,0,1,1,22.84a7.83,7.83,0,0,1,.24-2.38c.05-.24.1-.48.19-.9" transform="translate(0 0)"/><path class="cls-3" d="M7.76,18.39a.87.87,0,0,0-1.08.07,1.46,1.46,0,0,0-.5,1.4c.75-.29,1.45-.54,1.58-1.47M5.29,20.07a3.6,3.6,0,0,1,.46-1.7,1.69,1.69,0,0,1,1.94-.87,1,1,0,0,1,.83,1.33,2.15,2.15,0,0,1-1,1.25c-.37.23-.77.44-1.19.68a1.4,1.4,0,0,0,.78.68,1.23,1.23,0,0,0,.93.05c.36-.1.59,0,.62.19a.56.56,0,0,1-.43.56,1.84,1.84,0,0,1-1.31,0,2.85,2.85,0,0,1-1.17-.81A.94.94,0,0,0,5,21a.43.43,0,0,1-.18-.05.33.33,0,0,1-.06-.56,4.58,4.58,0,0,1,.56-.28" transform="translate(0 0)"/><path class="cls-3" d="M10.28,20.48l0,0v.09Zm.41-1.66c.16-.18.3-.35.47-.5a1.14,1.14,0,0,1,1.07-.24.44.44,0,0,1,.23.26c0,.07,0,.18-.08.26a.24.24,0,0,1-.15.11c-.68.09-.83.61-1,1.16s-.21,1-.35,1.49a5.86,5.86,0,0,1-.42,1.07.66.66,0,0,1-.78.41.65.65,0,0,1-.42-.69c0-.61.05-1.22.13-1.82s.2-1.07.31-1.6.37-.49.69-.21a3.76,3.76,0,0,1,.27.3" transform="translate(0 0)"/><path class="cls-3" d="M28.12,20a4.78,4.78,0,0,0-.54-.5,1,1,0,0,0-1.46.13,6.29,6.29,0,0,0-1.49,2,3.31,3.31,0,0,0-.24,1,.37.37,0,0,0,.5.4,2.28,2.28,0,0,0,.84-.42c.68-.63,1.33-1.29,2-2a4.21,4.21,0,0,0,.41-.65m7.76-1.57c-.7.42-.75.54-.35,1a3.63,3.63,0,0,1,.57,2.74.86.86,0,0,1-.54.74,1.55,1.55,0,0,1-2-.67L33.36,22c-.17.25-.3.46-.45.66a1.67,1.67,0,0,1-.41.39.84.84,0,0,1-1.16-.3c-.09-.16-.16-.33-.25-.53a5.07,5.07,0,0,1-.64.48,2.34,2.34,0,0,1-.8.29,1.11,1.11,0,0,1-1.32-1.06c0-.15,0-.3-.07-.56l-.55.49c-.54.5-1.07,1-1.63,1.49a1.91,1.91,0,0,1-1.32.5,1.05,1.05,0,0,1-1.18-1.19,3,3,0,0,1,.34-1.39A7.92,7.92,0,0,1,25.61,19,1.7,1.7,0,0,1,28,18.8l.61.39a3.1,3.1,0,0,0,.31-.46,17.68,17.68,0,0,0,.71-1.68c.47-1.43,1.21-2.75,1.81-4.12.12-.28.32-.4.5-.35a.48.48,0,0,1,.25.64,5.57,5.57,0,0,1-.36.89,52.28,52.28,0,0,0-2.43,6.25,5.84,5.84,0,0,0-.26,1.31.43.43,0,0,0,.62.47,1.54,1.54,0,0,0,.49-.28,3.9,3.9,0,0,0,1.19-1.71,11.31,11.31,0,0,1,.5-1.24,1.56,1.56,0,0,1,.39-.53.46.46,0,0,1,.43,0,.47.47,0,0,1,.16.4,2.92,2.92,0,0,1-.26.61A5.7,5.7,0,0,0,32,21.73a2.86,2.86,0,0,0,0,.38s0,0,.06.06.23-.07.29-.17a7.14,7.14,0,0,1,.4-.65c.09-.11.3-.25.39-.22A.76.76,0,0,0,34,21a.29.29,0,0,1,.42.07.48.48,0,0,1,.07.35,4.47,4.47,0,0,1-.24.59c.44.28.44.28,1,.13a2.62,2.62,0,0,0-.54-2.39,1.09,1.09,0,0,1,0-1.42A1.25,1.25,0,0,1,36,17.66a.73.73,0,0,1,.43.17,6.88,6.88,0,0,1,.65.93c0,.07,0,.25-.09.34a.29.29,0,0,1-.43,0c-.24-.21-.44-.46-.69-.73" transform="translate(0 0)"/><path class="cls-3" d="M39.47,19.28a3.45,3.45,0,0,0-1.13.74,1.67,1.67,0,0,0-.52.9c-.05.25-.13.52.09.72a.76.76,0,0,0,.81.09,1.85,1.85,0,0,0,.42-.23,2.1,2.1,0,0,0,1-1.61l-.67-.61m6.22-.6a1,1,0,0,0-.81.32,15,15,0,0,0-2.16,2.29.5.5,0,0,0,.4.83A2.72,2.72,0,0,0,45.52,21a1.89,1.89,0,0,0,.18-2.28m-1.37-.34A7.06,7.06,0,0,1,45,18a3.59,3.59,0,0,1,.74-.17.57.57,0,0,1,.56.3,2.69,2.69,0,0,1,.29,2.49,3.57,3.57,0,0,1-3,2.27,1.83,1.83,0,0,1-1.49-.35,1.9,1.9,0,0,1-1.25.34c-.49-.09-.75-.45-1-.84a5,5,0,0,1-.51.27,3.21,3.21,0,0,1-.81.26A1.28,1.28,0,0,1,37,21a2.33,2.33,0,0,1,.77-1.51A10.4,10.4,0,0,1,39,18.6a1.58,1.58,0,0,1,.63-.17.51.51,0,0,1,.56.28.84.84,0,0,0,.68.59.35.35,0,0,1,.27.45,5.06,5.06,0,0,1-.3.9,1.83,1.83,0,0,0-.2,1,.44.44,0,0,0,.77.29,1.56,1.56,0,0,0,.32-.45c.16-.31.28-.65.47-.93a12.57,12.57,0,0,0,1.65-3.65c.1-.37.23-.73.35-1.09a1.66,1.66,0,0,0,.14-.93.76.76,0,0,1,.28-.77.53.53,0,0,1,.43-.09.47.47,0,0,1,.27.34,3.16,3.16,0,0,1-.12.93c-.24.8-.52,1.58-.78,2.37-.06.17-.08.35-.16.66" transform="translate(0 0)"/><path class="cls-3" d="M62.57,21.19c-1.51.46-2.77.59-3.71-.86a2.51,2.51,0,0,0-.28.41A5.55,5.55,0,0,0,58,22.65a1.86,1.86,0,0,1-.37.86c-.06.09-.29.12-.42.09s-.2-.17-.22-.28a1,1,0,0,1,0-.47c.18-.58.36-1.16.56-1.73s.47-1.19.71-1.79c-.13-.21-.26-.39-.36-.59s0-.49.31-.53a3.73,3.73,0,0,1,.41,0,14.08,14.08,0,0,0,.9-2.6,6.22,6.22,0,0,1,.18-.64.44.44,0,0,1,.72-.15c.1.09.2.33.15.41a14.44,14.44,0,0,0-.89,2.52c-.18.44-.33.9-.51,1.38.15.31.3.62.46.93a1.22,1.22,0,0,0,1.09.65,3.11,3.11,0,0,0,2.51-1.17c.18-.18.31-.41.48-.6a.83.83,0,0,1,.32-.19c.2-.07.48.19.43.38a.84.84,0,0,1-.11.26,15.51,15.51,0,0,0-1.6,3.47,13.27,13.27,0,0,1-1.12,2.43,7.8,7.8,0,0,1-3,2.8,3.79,3.79,0,0,1-1.64.5A1.35,1.35,0,0,1,56,28.17a.8.8,0,0,1-.22-.41.58.58,0,0,1,.16-.41c.05-.06.24,0,.34,0a1.14,1.14,0,0,1,.28.25.71.71,0,0,0,.71.18,6.06,6.06,0,0,0,1.17-.42,6.52,6.52,0,0,0,1.87-1.48,13,13,0,0,0,2.29-4.73" transform="translate(0 0)"/><path class="cls-3" d="M53.94,21.48l-1.23.77a2,2,0,0,1-1.38.28.75.75,0,0,1-.72-.76,3.28,3.28,0,0,1,.08-.95,17.92,17.92,0,0,1,2.24-5.68,2.38,2.38,0,0,0,.27-.7.92.92,0,0,1,.4-.63.66.66,0,0,1,.44-.07.43.43,0,0,1,.29.45,1,1,0,0,1-.09.37A2.55,2.55,0,0,1,54,15a15.76,15.76,0,0,0-2.49,5.87c-.06.24-.2.52,0,.73s.56.1.79-.06a16.78,16.78,0,0,0,1.54-1.13,3.13,3.13,0,0,0,.55-.77c.12-.19.19-.4.31-.59a.46.46,0,0,1,.57-.22.44.44,0,0,1,.2.57,5.51,5.51,0,0,1-.33.69,2.52,2.52,0,0,0-.32,1.29.56.56,0,0,0,.28.56.63.63,0,0,0,.72-.06c.22-.19.39-.42.59-.62a2.13,2.13,0,0,1,.41-.38.38.38,0,0,1,.34,0,.37.37,0,0,1,.12.32,2.66,2.66,0,0,1-1.4,1.49,1.39,1.39,0,0,1-1.8-.83,4,4,0,0,1-.12-.47" transform="translate(0 0)"/><path class="cls-3" d="M48.32,22.4c.35,0,.42-.32.57-.5s.27-.37.54-.28.29.37.12.66a4.53,4.53,0,0,1-.5.7.87.87,0,0,1-1,.24.81.81,0,0,1-.6-.78,2.59,2.59,0,0,1,.17-1.32l.2-.43a8.48,8.48,0,0,0,.91-2c0-.11.22-.23.35-.25a.31.31,0,0,1,.34.27,1.1,1.1,0,0,1,0,.55c-.15.38-.36.75-.54,1.12s-.35.68-.52,1a1.32,1.32,0,0,0-.07,1" transform="translate(0 0)"/><path class="cls-3" d="M34.82,17.38c-.09,0-.17,0-.22,0a6,6,0,0,1-.82-.45.55.55,0,0,1-.15-.41c0-.17.24-.3.44-.27a1.22,1.22,0,0,1,1,.69.35.35,0,0,1-.2.44" transform="translate(0 0)"/><path class="cls-3" d="M56,16.94a.33.33,0,0,1-.35.35.48.48,0,0,1-.46-.5.44.44,0,0,1,.43-.41c.23,0,.38.24.38.56" transform="translate(0 0)"/><path class="cls-3" d="M49.15,15.27a1,1,0,0,1-.33.2c-.21,0-.4-.21-.39-.44a.31.31,0,0,1,.33-.27.43.43,0,0,1,.39.51" transform="translate(0 0)"/><path class="cls-3" d="M13.31,32.61a4.14,4.14,0,0,0,2-1.73,1.73,1.73,0,0,0,.08-.51c-1-.14-1.4,0-1.76.79a2.54,2.54,0,0,0-.28,1.45m-.13-2.46c-.31.13-.46.15-.51.22a1.9,1.9,0,0,0-.23.52,10.85,10.85,0,0,1-2.29,3.73,1.13,1.13,0,0,1-.91.46.74.74,0,0,1-.82-.74,3.53,3.53,0,0,1,.18-1.51,5.09,5.09,0,0,0,.44-1.95.44.44,0,0,1,.38-.48A.46.46,0,0,1,10,31q-.3,1.05-.63,2.1a2,2,0,0,0-.06,1.19,2,2,0,0,0,.4-.29,9.88,9.88,0,0,0,2.08-3.52,1.17,1.17,0,0,1,1.39-1,2.62,2.62,0,0,1,.63.27,2.76,2.76,0,0,1,1.66-.19.8.8,0,0,1,.75,1,2.46,2.46,0,0,1-.54,1.21,6.27,6.27,0,0,1-2.22,1.72c.11.15.18.34.32.43a1.48,1.48,0,0,0,2.06-.22,1.21,1.21,0,0,1,.83-.41,13,13,0,0,0,.44-2.35,6.61,6.61,0,0,1,.09-.66c.12-.47.38-.59.85-.42l.25.11c.51-.21,1-.42,1.51-.61a.31.31,0,0,1,.4.18.36.36,0,0,1-.09.43.85.85,0,0,1-.23.16,2,2,0,0,1-.35.15,1.87,1.87,0,0,0-1.22,1.15c-.3.7-.55,1.43-.81,2.15-.07.18-.09.37-.15.56-.12.36-.26.42-.65.29l-.27-.11-.3.24a2.31,2.31,0,0,1-2.7.1,1.69,1.69,0,0,1-.91-1.48,4.69,4.69,0,0,1,.39-2.34c.07-.14.13-.29.29-.65" transform="translate(0 0)"/><path class="cls-3" d="M5.35,31.83c-.24.12-.43.32-.31.53a.66.66,0,0,1-.16.91.39.39,0,0,0,.05.59.84.84,0,0,0,1.12.06,2.76,2.76,0,0,0,.77-2.85c-.2.35-.36.69-.57,1s-.46.32-.74,0l-.17-.2M3.93,33.92l-1.27.68a2.56,2.56,0,0,1-1.48.3A1.15,1.15,0,0,1,0,33.73a4.77,4.77,0,0,1,1.55-4,1.61,1.61,0,0,1,1.49-.48.94.94,0,0,1,.81,1.1.41.41,0,0,1-.23.26.49.49,0,0,1-.34-.08c-.07,0-.1-.16-.15-.23-.21-.3-.44-.37-.71-.23a1.42,1.42,0,0,0-.31.22A4,4,0,0,0,.79,33.59a.48.48,0,0,0,.55.52A1.86,1.86,0,0,0,2.09,34a17.15,17.15,0,0,0,1.59-.89A.79.79,0,0,0,4,32.65a3.34,3.34,0,0,1,1.09-1.77,1.38,1.38,0,0,0,.4-.84c.1-.55.61-.93,1.34-.49A1.9,1.9,0,0,1,7.71,31,4,4,0,0,1,7,34.05a1.64,1.64,0,0,1-2.76.17l-.28-.31" transform="translate(0 0)"/><path class="cls-3" d="M28.17,31.62a2.57,2.57,0,0,0-1.85-.06,1.59,1.59,0,0,0-1.11,1.09.47.47,0,0,0,.32.61,1.89,1.89,0,0,0,1.81-.3,2.39,2.39,0,0,0,.84-1.34m-3.51,2.17a2.07,2.07,0,0,1,1.26-2.93,2.93,2.93,0,0,1,1.32-.2l1.17.09a3.79,3.79,0,0,1,.39-.51.39.39,0,0,1,.34-.06.47.47,0,0,1,.23.28.69.69,0,0,1,0,.38c-.52,1.84-1,3.7-1.57,5.53a7.31,7.31,0,0,1-2.72,3.74,2.54,2.54,0,0,1-1.5.57,1,1,0,0,1-1.07-.87,2.37,2.37,0,0,1,.2-1.49c.1-.19.33-.3.47-.18a.55.55,0,0,1,.2.38c0,.28-.1.56-.13.85a1.64,1.64,0,0,0,.08.44,1.19,1.19,0,0,0,1.19-.27,6.67,6.67,0,0,0,1.67-1.7,10.69,10.69,0,0,0,1.47-4c-.36-.06-.63.26-1,.25a8.74,8.74,0,0,1-1.05,0,7.31,7.31,0,0,1-1-.3Z" transform="translate(0 0)"/><path class="cls-3" d="M31.69,32.81A1.77,1.77,0,0,0,33,32.06a2.12,2.12,0,0,0,.32-1.55.31.31,0,0,0-.52-.18,3.54,3.54,0,0,0-1.14,2.48m-.92.13c.08-.34.16-.65.24-1a4.89,4.89,0,0,1,1-2A1.4,1.4,0,0,1,33,29.46a1,1,0,0,1,1.06.78,2.76,2.76,0,0,1-1.4,3.08c-.37.18-.75.32-1.11.47a.74.74,0,0,0,.62.88,3.3,3.3,0,0,0,2-.16,7.91,7.91,0,0,1,.81-.29.35.35,0,0,1,.31.14.74.74,0,0,1,0,.43c0,.08-.13.14-.22.18a4.37,4.37,0,0,1-2.77.51,1.59,1.59,0,0,1-1.47-1.29,2.7,2.7,0,0,0-.1-.28,5.62,5.62,0,0,1-.71-.24.32.32,0,0,1,0-.58,5,5,0,0,1,.75-.15" transform="translate(0 0)"/><path class="cls-3" d="M22.57,30.3a2.39,2.39,0,0,0-.52.17,5.84,5.84,0,0,0-1.88,1.75,2.31,2.31,0,0,0-.22.42c-.22.55,0,.88.61.84a1.87,1.87,0,0,0,1.62-1.17,8.83,8.83,0,0,0,.45-1.16.81.81,0,0,0,0-.85m2.07,3.48c.12.21.42.35.3.65a.76.76,0,0,1-.7.41,2,2,0,0,1-2.2-1l-.71.31A2,2,0,0,1,20,34.2a1.11,1.11,0,0,1-.92-1.42,3,3,0,0,1,.4-1,6.24,6.24,0,0,1,2.13-2,2.39,2.39,0,0,1,.8-.29,1.19,1.19,0,0,1,1.35.81.72.72,0,0,1,0,.46c-.22.56-.44,1.12-.69,1.68s-.38.87-.09,1.27.9.41,1.4.28c.11,0,.19-.14.28-.22h0" transform="translate(0 0)"/><path class="cls-3" d="M49.22,31a2.31,2.31,0,0,0-1.08.86,1.59,1.59,0,0,0-.43.94A1.86,1.86,0,0,0,49.22,31m1.9,3a2.15,2.15,0,0,0,1.71-.49,3.93,3.93,0,0,0,.8-1.54,2.48,2.48,0,0,0-2,.77A1.44,1.44,0,0,0,51.12,34m1.44.75a2.3,2.3,0,0,0-1.3.43,3.41,3.41,0,0,1-2.65.54A2,2,0,0,1,47,34.62c-.17-.35-.3-.69-.73-.82-.22-.07-.19-.45,0-.53a.91.91,0,0,0,.58-.69,4.2,4.2,0,0,1,1.57-2.12,1.57,1.57,0,0,1,1-.36c.52,0,.79.28.72.78A3.29,3.29,0,0,1,49,33a9.27,9.27,0,0,1-1,.63l-.42.24a1,1,0,0,0,.72.93,2.9,2.9,0,0,0,2.11-.09,1.94,1.94,0,0,1,.15-1.94,3.19,3.19,0,0,1,1.93-1.48c.25-.06.5-.11.75-.15a1.35,1.35,0,0,1,1.66.9c-.31.46-.62,1-1,1.45a2.75,2.75,0,0,0-.52,1c-.26,1-.51,1.91-.78,2.87a16.66,16.66,0,0,1-1.35,3.38,6.49,6.49,0,0,1-1.47,1.88,3,3,0,0,1-1.84.72,1.29,1.29,0,0,1-1.49-1.27,5.11,5.11,0,0,1,1.25-3.82.36.36,0,0,1,.51-.12.37.37,0,0,1,.11.51c-.11.2-.25.37-.35.57-.22.43-.43.86-.61,1.3a3,3,0,0,0-.12,1.51.54.54,0,0,0,.59.51,2.13,2.13,0,0,0,1.42-.49,4.67,4.67,0,0,0,1.2-1.48,25.28,25.28,0,0,0,1.06-2.36,25.17,25.17,0,0,0,1-3.51" transform="translate(0 0)"/><path class="cls-3" d="M58.11,31.51a2.22,2.22,0,0,0-.72.07,3.17,3.17,0,0,0-1.66,1.75c-.1.3-.23.62,0,.89a.9.9,0,0,0,1,.11,1.55,1.55,0,0,0,.56-.35c.27-.26.5-.56.72-.81a1.88,1.88,0,0,1,.07-1.67m6.45.14c-.32,0-.47.23-.63.4-.69.75-1.37,1.52-2.05,2.28a6.41,6.41,0,0,1-.53.55.37.37,0,0,1-.61-.18,2.48,2.48,0,0,1-.1-.41l-.71.38c-.78.39-1.09.35-1.84-.25l-.61.42a2,2,0,0,1-1.46.32,1.25,1.25,0,0,1-1.17-1.46,2.89,2.89,0,0,1,.54-1.42,4.51,4.51,0,0,1,1.49-1.33,2.07,2.07,0,0,1,1.84-.08c1,.38,1,.39.6,1.36A3.7,3.7,0,0,0,59,33.71a2.12,2.12,0,0,0,.08.36.89.89,0,0,0,.31,0A3.85,3.85,0,0,0,61.49,32c.12-.33.25-.66.38-1a1.81,1.81,0,0,1,.24-.41.3.3,0,0,1,.42-.11.57.57,0,0,1,.24.38,2.22,2.22,0,0,1-.18.64c-.1.29-.31.55-.28.89.22.11.29-.07.39-.17.36-.36.7-.75,1.08-1.08a3.22,3.22,0,0,1,.9-.53.51.51,0,0,1,.7.45,3.06,3.06,0,0,1-.14,1.42A2.79,2.79,0,0,0,65,33.91c.16.22.36.17.54.12A2,2,0,0,0,66,33.8a8.94,8.94,0,0,1,2.8-.94.79.79,0,0,1,.28,0,.3.3,0,0,1,.18.45.94.94,0,0,1-.28.25,1.6,1.6,0,0,1-.54.19,6.08,6.08,0,0,0-2.32.85,1.86,1.86,0,0,1-1.29.22c-.47-.09-.71-.3-.7-.77a10.8,10.8,0,0,1,.19-1.41c.05-.34.28-.64.2-1" transform="translate(0 0)"/><path class="cls-3" d="M41.76,35a4.32,4.32,0,0,0,3.18-2.22,1,1,0,0,0-.49-1.45c-.43-.25-.56-.25-.94,0A4.87,4.87,0,0,0,41.76,35m2.68-8.81a2.19,2.19,0,0,0-.66,1.25q-.39,1.38-.78,2.77a2.84,2.84,0,0,0-.06.36c.08,0,.15.08.17.06.83-.6,1.58-.21,2.29.49a1.74,1.74,0,0,1,.12,2.22A5.06,5.06,0,0,1,42,35.74a9.32,9.32,0,0,1-1.24.11.48.48,0,0,1-.53-.33.44.44,0,0,1,.16-.51A1.34,1.34,0,0,0,41,33.87a1.77,1.77,0,0,1,.21-.73,13.37,13.37,0,0,0,1-2.8c.37-1.26.73-2.51,1.08-3.78.1-.37.13-.75.21-1.12a.36.36,0,0,1,.32-.31.34.34,0,0,1,.38.22c.11.26.19.54.29.84" transform="translate(0 0)"/></g></svg>