<?xml version="1.0" encoding="utf-8"?>
<!-- Generator: Adobe Illustrator 19.2.1, SVG Export Plug-In . SVG Version: 6.00 Build 0)  -->
<svg version="1.1" id="Layer_1" xmlns="http://www.w3.org/2000/svg" xmlns:xlink="http://www.w3.org/1999/xlink" x="0px" y="0px"
	 viewBox="0 0 99 99" style="enable-background:new 0 0 99 99;" xml:space="preserve">
<style type="text/css">
	.st0{opacity:0.2;fill:#363740;enable-background:new    ;}
	.st1{opacity:0.47;fill:#FFFFFF;enable-background:new    ;}
	.st2{fill:#EAEAEB;}
</style>
<g id="Group_1_copy">
	<path id="Rounded_Rectangle_3" class="st0" d="M10,0h79c5.5,0,10,4.5,10,10v79c0,5.5-4.5,10-10,10H10C4.5,99,0,94.5,0,89V10
		C0,4.5,4.5,0,10,0z"/>
	<path class="st1" d="M30.6,60.1h-6.1c-4.1,0-7.5-3.3-7.5-7.4c0-0.1,0-0.1,0-0.2v-2c-0.1-4.1,3.2-7.5,7.3-7.6c0.1,0,0.1,0,0.2,0h6.1
		l20.1-12.7v42.6L30.6,60.1z"/>
	<polygon class="st2" points="80,43 78,41 69.5,49.5 61,41 59,43 67.5,51.5 59,60 61,62 69.5,53.5 78,62 80,60 71.5,51.5 	"/>
</g>
</svg>
