<svg id="Layer_1" data-name="Layer 1" xmlns="http://www.w3.org/2000/svg" viewBox="0 0 88.9 43.14"><defs><style>.cls-1{fill:#003a70;}</style></defs><title>returned_to_practice_medicine</title><path class="cls-1" d="M42.57,21a4.22,4.22,0,0,0,1.21-1.41,1.57,1.57,0,0,0,.15-.4c.07-.35,0-.47-.41-.66A3.16,3.16,0,0,0,42.57,21m-4.39-2,.23-.21a3.11,3.11,0,0,1,.44-.37.61.61,0,0,1,1,.44,10.87,10.87,0,0,1,.1,1.24,1.73,1.73,0,0,0,.61,1.26,1.23,1.23,0,0,0,1.17.25c0-.18,0-.34,0-.49a4.25,4.25,0,0,1,1.06-3,.9.9,0,0,1,1-.39,1.25,1.25,0,0,1,.89,1,4.85,4.85,0,0,1-.28,2.53,23.2,23.2,0,0,0-.77,2.42c-.77,2.71-1.31,3.35-3.56,5-1.17.84-.75-.32.16-1.08,1.86-1.54,2.12-2,2.73-4.35.09-.36.21-.71.31-1.06a.4.4,0,0,0,0-.12,3.52,3.52,0,0,0-1.15.21,2.12,2.12,0,0,1-2.49-.82,2.58,2.58,0,0,1-.47-1.44c0-.25,0-.5,0-.75l-.11,0a4.23,4.23,0,0,0-.34.42c-.53.84-1,1.68-1.57,2.52a3.86,3.86,0,0,1-.23.37.37.37,0,0,1-.47.12.37.37,0,0,1-.21-.44,1.86,1.86,0,0,1,.16-.4l.51-1a3.82,3.82,0,0,0,.43-2.18,1.49,1.49,0,0,1,0-.38.4.4,0,0,1,.45-.39.45.45,0,0,1,.4.51c0,.2,0,.39-.07.58l.09,0" transform="translate(0 0)"/><path class="cls-1" d="M23,19.36l-.19,0c-.44.11-.65-.07-.58-.51a1,1,0,0,1,.6-.81,2.54,2.54,0,0,1,.5-.16.48.48,0,0,0,.4-.36c.18-.58.36-1.16.57-1.73s.46-1.26.71-1.88a1.12,1.12,0,0,1,.34-.45.39.39,0,0,1,.64.32,1.74,1.74,0,0,1-.14.6c-.24.59-.51,1.17-.74,1.77s-.33,1-.51,1.53a1.76,1.76,0,0,0,.38.06c.65-.06,1.3-.13,1.95-.21.33,0,.66-.14,1-.18s.71.14.72.61a3,3,0,0,1-.13,1,14.26,14.26,0,0,1-.62,1.51c-.25.55-.53,1.09-.8,1.64,0,.09-.07.2-.14.24s-.28.17-.37.13a.5.5,0,0,1-.29-.33,1,1,0,0,1,.13-.49c.43-.91.87-1.81,1.29-2.73a5,5,0,0,0,.2-.77c-.64.12-1.2.24-1.76.31s-1.14.07-1.74.1c-.05.16-.11.31-.15.46l-.88,3.19a1.25,1.25,0,0,1-.09.27.37.37,0,0,1-.66,0,2.83,2.83,0,0,1-.28-.71.32.32,0,0,1,.23-.42c.28-.08.28-.3.34-.59l-.31.23c-.55.38-1.09.78-1.67,1.11a3,3,0,0,1-2.19.27,1.93,1.93,0,0,1-1.2-3.15A10,10,0,0,1,18.93,18a.91.91,0,0,1,1-.13c.19.08.39.14.58.22a.37.37,0,0,1,.26.45.4.4,0,0,1-.5.26,2.15,2.15,0,0,1-.45-.15.48.48,0,0,0-.58.07,10.71,10.71,0,0,0-1.06,1,1.17,1.17,0,0,0,.72,2,2.42,2.42,0,0,0,1.64-.19,5,5,0,0,0,2.33-2.07.46.46,0,0,1,.1-.1l.12-.44C23,19,23,19,23,19s0,.22,0,.32" transform="translate(0 0)"/><path class="cls-1" d="M3.35,19.58c.26-.31.51-.64.8-.94a3.79,3.79,0,0,1,.8-.68,1.24,1.24,0,0,1,1.95.8,2.53,2.53,0,0,1-.79,2.82,4.12,4.12,0,0,1-1.82,1,.73.73,0,0,1-1-.71c0-.2,0-.39.21-.49a.36.36,0,0,1,.49.19l.15.25a3.1,3.1,0,0,0,.61-.23,8.76,8.76,0,0,0,.92-.68,1.74,1.74,0,0,0,.48-2c-.11-.4-.35-.52-.73-.35a1.7,1.7,0,0,0-.53.39,7.56,7.56,0,0,0-2,3.52c-.29,1.33-.66,2.64-1,3.94-.27,1-.6,1.89-.91,2.83-.13.4-.31.55-.54.52S0,29.55,0,29.12a4.76,4.76,0,0,1,.14-.95c.47-1.66.93-3.32,1.44-5,.2-.67.52-1.31.76-2a4.24,4.24,0,0,0,.24-1c.07-.64.13-.71.77-.68" transform="translate(0 0)"/><path class="cls-1" d="M34.3,22.29l.35-.54c.16-.26.3-.53.47-.78a.39.39,0,0,1,.54-.17.38.38,0,0,1,.11.55c-.25.45-.52.88-.78,1.32a.9.9,0,0,1-.16.18.8.8,0,0,1-1.4-.42,6.35,6.35,0,0,1,0-1.1c0-.15,0-.31,0-.53l-.83.71a2.21,2.21,0,0,1-1.93.47,1.3,1.3,0,0,1-1.17-1.49A4,4,0,0,1,31,17.56a1.14,1.14,0,0,1,.51-.26c.17,0,.45,0,.53.08a4.46,4.46,0,0,1,.54,1c0,.07-.1.28-.2.33a.44.44,0,0,1-.39-.06,2.93,2.93,0,0,1-.38-.49s-.1,0-.13,0a3.29,3.29,0,0,0-1.23,2.3c0,.48.12.66.6.75A1.33,1.33,0,0,0,32,20.95c.43-.38.84-.78,1.23-1.2.25-.27.46-.58.68-.86.08-.1.15-.23.25-.28a.57.57,0,0,1,.43-.05.49.49,0,0,1,.19.39,1.6,1.6,0,0,1-.18.54A5.7,5.7,0,0,0,34.16,22a.93.93,0,0,0,0,.19s0,0,.12.14" transform="translate(0 0)"/><path class="cls-1" d="M12,20.82c0,.55.19.75.7.65a1.26,1.26,0,0,0,.48-.2c.29-.2.55-.43.82-.65a2,2,0,0,0,.61-1.21c.06-.31-.16-.47-.32-.65s-.36-.09-.53,0a4.16,4.16,0,0,0-1.43,1.17,1.45,1.45,0,0,0-.33.88m2.91-2.63L15,18.1a.41.41,0,0,1,.51-.13.42.42,0,0,1,.21.49c-.13.54-.29,1.08-.42,1.62a7.91,7.91,0,0,0-.23,1.16c0,.34.13.49.47.55a1.08,1.08,0,0,0,.79-.13.78.78,0,0,1,.29-.16.53.53,0,0,1,.38.09A.46.46,0,0,1,17,22a.74.74,0,0,1-.28.31,1.66,1.66,0,0,1-2.53-.83l-.53.38a2,2,0,0,1-1.39.41,1.14,1.14,0,0,1-1.12-1.19,2.43,2.43,0,0,1,.56-1.69,4.86,4.86,0,0,1,1.68-1.33,1.16,1.16,0,0,1,1.46.14" transform="translate(0 0)"/><path class="cls-1" d="M8.73,19.23c.2-.19.34-.3.46-.44a3.1,3.1,0,0,1,1.89-.94c.27,0,.45,0,.51.23a.4.4,0,0,1-.29.49,2.32,2.32,0,0,1-.5.15,1.57,1.57,0,0,0-.88.46c-.36.38-.71.78-1.07,1.17a.93.93,0,0,0-.23.71,4.09,4.09,0,0,1,0,.58,1.69,1.69,0,0,1-.09.47.64.64,0,0,1-.66.45c-.28,0-.44-.25-.47-.64a2.22,2.22,0,0,1,.26-1.15,2.35,2.35,0,0,0,.2-.73c.05-.46.05-.93.11-1.39a2.43,2.43,0,0,1,.19-.74.44.44,0,0,1,.66-.16c.2.14.24.31.07.57a1.38,1.38,0,0,0-.14.91" transform="translate(0 0)"/><path class="cls-1" d="M36,16.36a.43.43,0,0,1,.57-.47.68.68,0,0,1,.36.28,8.22,8.22,0,0,1,.41,1,.33.33,0,0,1-.17.41.32.32,0,0,1-.43-.07c-.25-.32-.48-.66-.71-1a.4.4,0,0,1,0-.16" transform="translate(0 0)"/><path class="cls-1" d="M28.93,16.17a.41.41,0,0,1,.41-.43.64.64,0,0,1,.62.56.59.59,0,0,1-.61.49.55.55,0,0,1-.42-.61" transform="translate(0 0)"/><path class="cls-1" d="M65.86,18.86c-.42-.52-.58-.59-.92-.31-.63.53-1.24,1.11-1.84,1.68a.71.71,0,0,0-.27.65,1,1,0,0,0,1-.22c.62-.5,1.22-1,1.82-1.55a1.27,1.27,0,0,0,.17-.25m4.25,1.92a.94.94,0,0,0,.57-.53c.14-.22.25-.45.4-.66s.4-.28.58-.15.19.31.06.56a10.2,10.2,0,0,1-.53.91,1.93,1.93,0,0,1-.45.49.87.87,0,0,1-1.39-.62c0-.22,0-.44,0-.73-.12.09-.21.15-.28.22l-.66.63a1.74,1.74,0,0,1-2,.07,6.05,6.05,0,0,1-.67-.72l-.25.18c-.45.34-.88.69-1.34,1a1.86,1.86,0,0,1-1.38.29.75.75,0,0,1-.71-1,2.37,2.37,0,0,1,.44-.94,10.79,10.79,0,0,1,2.11-1.94,1.1,1.1,0,0,1,1.3-.05l.22.12c.05-.1.11-.18.14-.26l1.85-4.43a7.29,7.29,0,0,1,.35-.74,2.51,2.51,0,0,1,.33-.47.67.67,0,0,1,.81-.24c.23.12.32.36.25.76a5.16,5.16,0,0,1-.17.75A17.75,17.75,0,0,1,66.83,19a1.26,1.26,0,0,0-.25.55c0,.28-.06.59.25.76a1,1,0,0,0,1,0,2,2,0,0,0,.37-.31,6.64,6.64,0,0,0,1.24-1.7c.2-.38.39-.77.6-1.15s.39-.43.6-.35.31.36.15.7a6.86,6.86,0,0,0-.58,1.72,6.65,6.65,0,0,0-.06,1.53" transform="translate(0 0)"/><path class="cls-1" d="M86.42,19.73a2.81,2.81,0,0,0,1.24-2.66.8.8,0,0,0-.47-.63,23.4,23.4,0,0,0-.76,3.29m-5.17-2,.4-.39a2.28,2.28,0,0,1,.33-.27c.51-.31.93-.12,1,.48s0,1,0,1.49a3.33,3.33,0,0,0,.31,1.39.82.82,0,0,0,.83.53,2.2,2.2,0,0,0,1.29-.44.6.6,0,0,0,.18-.36c.19-1,.37-2,.57-3a5.13,5.13,0,0,1,.34-1,.75.75,0,0,1,1.26-.28,1.84,1.84,0,0,1,.7,1.42,3.83,3.83,0,0,1-1.34,3c-.15.14-.32.27-.48.4a.53.53,0,0,0-.07.85,1,1,0,0,0,1.54-.12c0-.05.06-.11.1-.16s.29-.27.5-.15a.38.38,0,0,1,.16.5,1.45,1.45,0,0,1-1.1,1,1.83,1.83,0,0,1-2.08-1l-.1-.18-.4.17a2.64,2.64,0,0,1-1.65.13,1.19,1.19,0,0,1-.77-.6,3.61,3.61,0,0,1-.55-1.86c0-.38,0-.76,0-1.22a1.23,1.23,0,0,0-.22.15,11.39,11.39,0,0,0-1.44,2.14,3.07,3.07,0,0,1-.25.46.4.4,0,0,1-.49.19.43.43,0,0,1-.25-.51,1.12,1.12,0,0,1,.17-.44,4.38,4.38,0,0,0,.64-2.08c.06-.4.09-.8.18-1.18a1.88,1.88,0,0,1,.3-.64.44.44,0,0,1,.6-.13c.19.12.21.32,0,.58a2.15,2.15,0,0,0-.22,1.23" transform="translate(0 0)"/><path class="cls-1" d="M56.45,17.36a5.23,5.23,0,0,0-.66.31c-.3.21-.59.44-.88.66a2.51,2.51,0,0,0-1,1.55,8.59,8.59,0,0,1-.51,1.39,2,2,0,0,1-.21.38.44.44,0,0,1-.49.22.44.44,0,0,1-.33-.43,2.24,2.24,0,0,1,.15-1.22,5.49,5.49,0,0,1,.53-1,1.53,1.53,0,0,0,.31-1.12c0-.23,0-.47-.06-.76-.12.06-.2.08-.25.13a14.59,14.59,0,0,0-2,2.8c-.12.26-.22.53-.33.8a.92.92,0,0,1-.17.34.51.51,0,0,1-.37.14.46.46,0,0,1-.28-.27.83.83,0,0,1,0-.47,6.52,6.52,0,0,1,.31-.75L51.59,17a2.9,2.9,0,0,1,.14-.31c.21-.35.48-.37.75,0l.09.1h.1c.78-.43,1.28-.18,1.42.71l.07.42c.12-.08.22-.12.3-.18.29-.22.58-.46.88-.66a2.93,2.93,0,0,1,.64-.33c.71-.26,1.15,0,1.27.75a9.12,9.12,0,0,1,.09,1.15c0,.53,0,1.05,0,1.58a1.23,1.23,0,0,0,.38,1c.23.2.23.43.07.59s-.36.14-.6,0a1.52,1.52,0,0,1-.62-1.24c0-.64,0-1.28,0-1.92,0-.38-.05-.76-.09-1.26" transform="translate(0 0)"/><path class="cls-1" d="M76.63,20.16l-.55.47a2.17,2.17,0,0,1-2.06.46A1,1,0,0,1,73.14,20a4.2,4.2,0,0,1,.16-1.13,7.08,7.08,0,0,1,1.46-2.57l0,0c.31-.33.58-.42.84-.29a1,1,0,0,1,.39.88.36.36,0,0,1-.59.29,2,2,0,0,1-.22-.18,5.66,5.66,0,0,0-1.29,2.75c-.06.52,0,.61.56.67a1.32,1.32,0,0,0,1-.27,3.45,3.45,0,0,0,1.2-1.59c.1-.27.18-.55.28-.82a.39.39,0,0,1,.44-.28.38.38,0,0,1,.33.36,2.32,2.32,0,0,1,0,.57c-.05.36-.14.72-.19,1.09s-.06.57-.09.82c.06,0,.09.08.11.08.38,0,.5.1.53.35a.63.63,0,0,1-.39.65.73.73,0,0,1-1-.53c0-.19,0-.4-.07-.66" transform="translate(0 0)"/><path class="cls-1" d="M59.54,20a7.74,7.74,0,0,0,1.37-.58,1,1,0,0,0,.62-1c0-.09,0-.19,0-.29,0-.52-.21-.7-.72-.61a1.31,1.31,0,0,0-.55.26A2.37,2.37,0,0,0,59.54,20m.2.8a1.22,1.22,0,0,0,.9.61c.3,0,.6,0,.9.09s.42.19.4.39a.38.38,0,0,1-.39.36,2.58,2.58,0,0,1-2.37-.85A.85.85,0,0,0,58.7,21c-.31-.08-.38-.34-.15-.59a.71.71,0,0,0,.18-.52c0-.35,0-.7.06-1.05a2.63,2.63,0,0,1,1-1.79,1.84,1.84,0,0,1,1.44-.4,1.15,1.15,0,0,1,1.06,1.06s0,.09,0,.14a2.05,2.05,0,0,1-1.47,2.43c-.35.16-.7.3-1.09.46" transform="translate(0 0)"/><path class="cls-1" d="M71.85,14.73a1.67,1.67,0,0,1,1.16.75.46.46,0,0,1,0,.39.3.3,0,0,1-.43.09,8.79,8.79,0,0,1-.93-.58.4.4,0,0,1-.1-.37c.07-.13.24-.21.33-.28" transform="translate(0 0)"/><path class="cls-1" d="M80.54,15.18c0,.29-.3.49-.51.33a3.5,3.5,0,0,1-.71-.74.35.35,0,0,1,.11-.5.37.37,0,0,1,.51.06,7.42,7.42,0,0,1,.53.67.58.58,0,0,1,.06.19" transform="translate(0 0)"/><path class="cls-1" d="M47.79,8.5a1.63,1.63,0,0,0,1-1.75c-.4-.07-.52,0-.73.26a2,2,0,0,0-.3,1.49m-8.37,2.37c.38.22.36.52.2.84s-.25.52-.39.77a1,1,0,0,1-.29.31.42.42,0,0,1-.69-.34,1.89,1.89,0,0,1,.09-.66c.3-.91.6-1.82.92-2.72.5-1.37,1-2.73,1.52-4.09.06-.16.1-.34.15-.49-.37-.6-.35-.88.17-1.36a.93.93,0,0,0,.34-.85,1.48,1.48,0,0,1,0-.47.37.37,0,0,1,.37-.31.37.37,0,0,1,.38.31c0,.14.06.27.09.4.37,0,.72-.08,1.07-.1a1.29,1.29,0,0,1,1.18.61,2.17,2.17,0,0,1,.33.64,4.37,4.37,0,0,1-.07,2.74A5.82,5.82,0,0,1,43.13,8.5l-.41.35a12.12,12.12,0,0,0,1.77,1.88.73.73,0,0,0,.9,0,8.42,8.42,0,0,0,.86-.69c.19-.17.35-.36.19-.66A.34.34,0,0,1,46.62,9,2.71,2.71,0,0,1,47,8.82c0-.27,0-.56,0-.84a2.55,2.55,0,0,1,.56-1.55A1.4,1.4,0,0,1,49.07,6a.68.68,0,0,1,.6.75,2.57,2.57,0,0,1-1,2.18l-.87.65a2.47,2.47,0,0,0,.51.24,1.48,1.48,0,0,0,1-.16,3.16,3.16,0,0,0,1.34-1.34c.25-.49.27-.5.85-.42L51.76,7a1,1,0,0,0-.76.38l-.08.12c-.19.22-.36.27-.54.16s-.23-.33-.09-.6a1.31,1.31,0,0,1,1-.77c.61-.07.8-.41.91-1A11.62,11.62,0,0,0,52.65,3a.62.62,0,0,1,0-.14c.06-.28.24-.42.46-.38a.43.43,0,0,1,.35.5c-.05.44-.11.89-.2,1.33S53,5.39,52.88,6l.83-.13a8.22,8.22,0,0,1,.85-.15.48.48,0,0,1,.56.46,1.5,1.5,0,0,1-.18,1c-.19.35-.42.69-.58,1a3.19,3.19,0,0,0-.24.81.55.55,0,0,0,.37.61.88.88,0,0,0,1.19-.26,4.5,4.5,0,0,0,.72-2.35,3.92,3.92,0,0,1,.06-.61.36.36,0,0,1,.38-.3.39.39,0,0,1,.37.37.81.81,0,0,1,0,.19,7,7,0,0,1-.56,2.56,4.3,4.3,0,0,1-.34.58,1.56,1.56,0,0,1-1.75.69A1.41,1.41,0,0,1,53.34,9a3.26,3.26,0,0,1,.27-1,8.73,8.73,0,0,1,.47-.84c.09-.16.17-.33.3-.6a5.25,5.25,0,0,1-.82.14c-.72,0-1.05.36-1.21,1s-.46,1.26-.66,1.9-.25,1-.37,1.53c0,.09,0,.21-.07.27s-.22.24-.32.23-.34-.13-.36-.24a2.18,2.18,0,0,1,0-.8c.08-.39.21-.76.26-1.19l-.37.33a2.91,2.91,0,0,1-1.75.81,1.72,1.72,0,0,1-1.43-.49,4,4,0,0,1-.3.33,12.27,12.27,0,0,1-1.21,1,1.39,1.39,0,0,1-1.7-.07A10.92,10.92,0,0,1,43,10.31c-.26-.26-.49-.55-.72-.83a.42.42,0,0,0-.5-.17,1.47,1.47,0,0,1-.43.06.57.57,0,0,1-.63-.58.57.57,0,0,1,.53-.67,2.44,2.44,0,0,1,.76,0,.43.43,0,0,0,.4-.05A4.32,4.32,0,0,0,44.25,4c-.17-1.29-1-1.34-1.9-.87a.71.71,0,0,0-.31.4,62.23,62.23,0,0,1-2.44,6.82c-.06.15-.1.3-.18.51" transform="translate(0 0)"/><path class="cls-1" d="M67.64,8.21c.45-.65.58-1.21.4-1.58-.44.25-.58.79-.4,1.58M72.71,8l-.25-.3a.24.24,0,0,0-.37-.05A5,5,0,0,0,70.8,8.88a1.54,1.54,0,0,0-.19.53c0,.26,0,.33.31.38a.89.89,0,0,0,.83-.27,5.79,5.79,0,0,0,1-1.55m.36,1.11c-.3.37-.53.69-.79,1a1.59,1.59,0,0,1-1.71.45,3.74,3.74,0,0,1-.68-.34c-.34.34-.37.36-.84.17s-1-.42-1.48-.66l-.71.38a2.37,2.37,0,0,1-1.16.26,1.77,1.77,0,0,1-1.87-1.46c-.1-.37-.15-.75-.23-1.14-.22,0-.31.17-.39.31-.43.68-.84,1.36-1.26,2a1.09,1.09,0,0,1-.24.35.63.63,0,0,1-.43.1.33.33,0,0,1-.23-.42,2,2,0,0,1,.15-.45c.08-.19.18-.38.28-.56a2.54,2.54,0,0,0,.34-1.43,2.68,2.68,0,0,1,0-.57.38.38,0,0,1,.37-.37c.23,0,.34.15.37.36l0,.29L63,7.1a.79.79,0,0,1,1.39.47c.07.33.1.66.18,1a1.09,1.09,0,0,0,1.34,1A1.92,1.92,0,0,0,67,9a2.85,2.85,0,0,1-.25-1.61,2,2,0,0,1,.42-1.15,1,1,0,0,1,1-.4.73.73,0,0,1,.69.73A2.94,2.94,0,0,1,68.67,8c-.15.35-.33.69-.5,1.05.44.44,1.06.5,1.56.79,0,0,.07-.06.07-.09a2.52,2.52,0,0,1,.93-2c.28-.26.57-.51.88-.75a.91.91,0,0,1,1.33,0l.17.08c.12-.34.27-.66.36-1,.41-1.58.81-3.16,1.22-4.74,0,0,0-.09,0-.14.08-.26.23-.39.43-.37a.42.42,0,0,1,.36.44,3.44,3.44,0,0,1,0,.52A21.12,21.12,0,0,1,74.41,5.9a10,10,0,0,0-.53,3.15c0,.3,0,.57.35.71a.32.32,0,0,1,.16.45.4.4,0,0,1-.48.22,1,1,0,0,1-.76-.77c0-.17,0-.34-.08-.58" transform="translate(0 0)"/><path class="cls-1" d="M86.39,6.39a5.39,5.39,0,0,0-.43.42,2.74,2.74,0,0,0-.62,1.92c0,.64.55.94,1.05.56A4.23,4.23,0,0,0,88.1,6.7a2.06,2.06,0,0,0,0-.43.35.35,0,0,0-.28-.34c-.17,0-.27,0-.35.18l-.12.21c-.32.5-.49.53-1,.08m-.69-.5a5.85,5.85,0,0,0-1.89.27.44.44,0,0,0-.24.26c-.34,1-.66,2-1,3a4,4,0,0,0-.09.71,1.54,1.54,0,0,1,0,.28.38.38,0,0,1-.4.29.35.35,0,0,1-.35-.33,1.66,1.66,0,0,1,0-.57c.14-.59.29-1.18.47-1.76s.34-1,.53-1.6a3.9,3.9,0,0,0-1.37.37c-.08,0-.11.18-.17.28a.36.36,0,0,1-.6,0,.56.56,0,0,1,0-.81,1.57,1.57,0,0,1,.5-.27c.5-.16,1-.33,1.52-.45a.63.63,0,0,0,.51-.48c.46-1.36.94-2.72,1.42-4.08a5.21,5.21,0,0,1,.33-.74A.51.51,0,0,1,85.5,0a.54.54,0,0,1,.42.47,1.67,1.67,0,0,1,0,.38c0,.38-.11.46-.63.53A18,18,0,0,0,84,5.28c.19,0,.38-.08.56-.09l1.87-.09a.66.66,0,0,1,.33.05.84.84,0,0,0,.68,0A1.14,1.14,0,0,1,88.9,6.22a3.18,3.18,0,0,1-.25,1.4A5.8,5.8,0,0,1,87,9.83a1.52,1.52,0,0,1-1.2.37A1.3,1.3,0,0,1,84.58,9a3.59,3.59,0,0,1,.82-2.73l.3-.37" transform="translate(0 0)"/><path class="cls-1" d="M59.36,7.08a2.79,2.79,0,0,1,1.36-1c.29-.13.48-.09.58.11s0,.4-.22.56a1.48,1.48,0,0,1-.34.17,1.73,1.73,0,0,0-.92.8,6.86,6.86,0,0,0-.72,1.92.89.89,0,0,1-.11.36.56.56,0,0,1-.38.21A.47.47,0,0,1,58.3,10a1.2,1.2,0,0,1,0-.56,7.78,7.78,0,0,0,.25-1.89c0-.55.21-.66.79-.44" transform="translate(0 0)"/><path class="cls-1" d="M83.28,33.46a3,3,0,0,0,1.31-2.12.94.94,0,0,0-.1-.46c-.23-.44-.56-.46-.81,0a3.92,3.92,0,0,0-.5,2.44s0,.08.1.18m.54.66a5.23,5.23,0,0,0,.67.25,6.2,6.2,0,0,0,2.1.06A2.51,2.51,0,0,0,88,33.71a2.14,2.14,0,0,1,.28-.26.36.36,0,0,1,.48,0,.34.34,0,0,1,.05.44,1.63,1.63,0,0,1-.27.34,3.14,3.14,0,0,1-2,1,10.87,10.87,0,0,1-2-.05,4.06,4.06,0,0,1-1.21-.43.87.87,0,0,0-.62-.1,2.81,2.81,0,0,1-2.13-.31,1.76,1.76,0,0,1-.91-1.48c0-.24,0-.47,0-.79a4.15,4.15,0,0,0-.32.27l-1.71,1.82-.14.13a.37.37,0,0,1-.49,0,.38.38,0,0,1-.12-.47A2.6,2.6,0,0,1,77,33.5,19.45,19.45,0,0,0,78,31l-.08-.08a2.21,2.21,0,0,0-.33.27q-.74.88-1.47,1.77c-.4.5-.78,1-1.19,1.51a1,1,0,0,1-.36.31.47.47,0,0,1-.4,0A.45.45,0,0,1,74,34.4a1.54,1.54,0,0,1,.22-.52c.36-.6.74-1.2,1.1-1.8a2.3,2.3,0,0,0,.36-1.56.76.76,0,0,1,0-.19c0-.26.17-.41.38-.42a.4.4,0,0,1,.42.43c0,.22,0,.44,0,.75l.31-.23c.3-.26.59-.54.9-.78a1.51,1.51,0,0,1,.47-.24.49.49,0,0,1,.7.42,2.24,2.24,0,0,1-.08.75c-.07.29-.19.57-.28.86l.08.07c.11-.11.22-.23.34-.34a3.66,3.66,0,0,1,.54-.46.55.55,0,0,1,.89.37,4,4,0,0,1,.07.67c0,.11,0,.22,0,.34a1.3,1.3,0,0,0,1.35,1.42,6.28,6.28,0,0,0,.68,0,4.71,4.71,0,0,1,.13-2.56,4.51,4.51,0,0,1,.55-1.11,1.08,1.08,0,0,1,1.73-.11,1.6,1.6,0,0,1,.48,1.17A2.71,2.71,0,0,1,84.79,33c-.29.38-.61.73-1,1.14" transform="translate(0 0)"/><path class="cls-1" d="M69,29.64c.29,0,.52-.09.75-.11.84-.07,1.69-.18,2.53-.2s1.25.46,1.11,1.32a2.15,2.15,0,0,1-.24.67c-.29.53-.61,1.05-.92,1.57a.75.75,0,0,0-.15.62.86.86,0,0,1-.5.85.44.44,0,0,1-.64-.45,2.12,2.12,0,0,1,.26-.76c.27-.49.58-1,.86-1.44q.23-.39.44-.8a1.4,1.4,0,0,0,.13-.41c0-.29,0-.39-.33-.39a12.52,12.52,0,0,0-1.44.06c-.65.07-1.3.2-1.94.3a.64.64,0,0,0-.55.46c-.23.61-.48,1.22-.71,1.83a4.57,4.57,0,0,0-.32,1.74,1.26,1.26,0,0,1-.06.42.36.36,0,0,1-.5.21.83.83,0,0,1-.36-.82c.08-.27.14-.55.22-.82.22-.68.45-1.37.67-2a.66.66,0,0,0,.05-.37l-.14.27c-.14.26-.3.35-.48.29s-.3-.26-.23-.56a1.07,1.07,0,0,1,.76-.91c.64-.15.87-.6,1.1-1.13.5-1.13,1-2.23,1.56-3.35a8.2,8.2,0,0,0,.34-.89c.07-.21.16-.39.42-.39s.36.18.39.47a6.18,6.18,0,0,1,0,.72.49.49,0,0,1-.28.46.68.68,0,0,0-.3.28c-.49,1-1,2.05-1.44,3.08a1.28,1.28,0,0,0,0,.22" transform="translate(0 0)"/><path class="cls-1" d="M74.26,28.35a.72.72,0,0,1,.56.89.39.39,0,0,1-.49.16.68.68,0,0,1-.45-.7.41.41,0,0,1,.38-.34" transform="translate(0 0)"/><path class="cls-1" d="M41.54,33.33l.08.09c.21-.11.42-.21.62-.33a.59.59,0,0,1,.67-.07.39.39,0,0,0,.31,0,4.43,4.43,0,0,0,1.6-1,.58.58,0,0,0,0-.92,1,1,0,0,0-.83-.31,2.83,2.83,0,0,0-1.82,1,.55.55,0,0,0-.1.21c-.07.21-.14.41-.22.62s-.2.5-.31.75m-.32.95c-.15.63-.29,1.24-.44,1.84-.35,1.44-.72,2.88-1.06,4.33-.17.7-.3,1.41-.45,2.11a1,1,0,0,1-.15.4.47.47,0,0,1-.35.18.65.65,0,0,1-.33-.29.59.59,0,0,1,0-.33,4.24,4.24,0,0,1,.07-.47c.46-2.27.9-4.55,1.39-6.81a18.29,18.29,0,0,1,.74-2.47,4.38,4.38,0,0,1,2.1-2.4A2.94,2.94,0,0,1,44.05,30a1.77,1.77,0,0,1,1.49.74,1.28,1.28,0,0,1,0,1.67,4.13,4.13,0,0,1-.74.67,7,7,0,0,1-3,1.18,4.23,4.23,0,0,1-.58,0" transform="translate(0 0)"/><path class="cls-1" d="M57.06,29.3h-.74l-.24,0c-.33,0-.6-.18-.6-.43s.22-.39.56-.4.57,0,.86,0c.46,0,.45,0,.62-.42.27-.66.56-1.32.85-2a3.11,3.11,0,0,1,.36-.62.65.65,0,0,1,1.07,0,.45.45,0,0,1,.09.53.35.35,0,0,1-.46.15l-.19,0a15,15,0,0,0-1,2.38c.18,0,.33.08.47.13l1.19.49a.79.79,0,0,1,.19.14c.25.21.32.44.19.62s-.36.2-.64,0a3.25,3.25,0,0,0-1.32-.54,2.68,2.68,0,0,0-.35,0,1.76,1.76,0,0,0-.13.25c-.29.93-.59,1.86-.85,2.8a7.17,7.17,0,0,0-.15,1.23c0,.26.14.38.38.4a1.31,1.31,0,0,0,1.24-.58c.09-.11.15-.25.24-.36a.3.3,0,0,1,.42-.09.75.75,0,0,1,.2.39c0,.08,0,.18-.08.27A2.14,2.14,0,0,1,57,34.77a1,1,0,0,1-1-1.1,7.14,7.14,0,0,1,.19-1.56c.19-.77.45-1.53.68-2.3l.14-.52" transform="translate(0 0)"/><path class="cls-1" d="M48.79,30.25a.81.81,0,0,0-.9.19,3.73,3.73,0,0,0-1.18,1.66,2.62,2.62,0,0,0-.13.7c0,.41.12.55.52.58a1.72,1.72,0,0,0,1.68-1.47c0-.54,0-1.08,0-1.66m-.2,3.43-.45.25a1.92,1.92,0,0,1-1.39.19,1.14,1.14,0,0,1-1-1.15,3.11,3.11,0,0,1,.26-1.35,5,5,0,0,1,1.34-1.78,1.81,1.81,0,0,1,1.52-.4.76.76,0,0,1,.72.6c0,.06,0,.14.06.18.34.29.27.67.2,1s-.23.76-.31,1.15a9.62,9.62,0,0,0-.15,1,.28.28,0,0,0,.27.33c.18,0,.36,0,.44-.18,0-.06,0-.12.07-.18a.35.35,0,0,1,.42-.22.39.39,0,0,1,.29.4,1,1,0,0,1-.79,1,1.29,1.29,0,0,1-1.55-.83" transform="translate(0 0)"/><path class="cls-1" d="M53.15,29.83a3,3,0,0,1,1.66-1.27.38.38,0,0,1,.54.12c.14.22,0,.38-.13.5a1.76,1.76,0,0,1-.49.28,1.74,1.74,0,0,0-.93.8,7,7,0,0,0-1.06,3,2,2,0,0,1-.13.56.33.33,0,0,1-.42.23.6.6,0,0,1-.3-.32,1.2,1.2,0,0,1,0-.47q.05-1.15.12-2.3a3.88,3.88,0,0,1,0-.57c.13-.63.48-.82,1.12-.55" transform="translate(0 0)"/></svg>