<?xml version="1.0" encoding="utf-8"?>
<!-- Generator: Adobe Illustrator 19.2.1, SVG Export Plug-In . SVG Version: 6.00 Build 0)  -->
<svg version="1.1" id="Layer_1" xmlns="http://www.w3.org/2000/svg" xmlns:xlink="http://www.w3.org/1999/xlink" x="0px" y="0px"
	 viewBox="0 0 88.9 43.1" style="enable-background:new 0 0 88.9 43.1;" xml:space="preserve">
<style type="text/css">
	.st0{fill:#003A70;}
</style>
<title>returned_to_practice_medicine</title>
<g>
	<path class="st0" d="M36,16.4c0-0.2,0.1-0.5,0.4-0.5c0.1,0,0.1,0,0.2,0c0.1,0,0.3,0.1,0.4,0.3c0.2,0.3,0.3,0.7,0.4,1
		c0.1,0.2,0,0.3-0.2,0.4c-0.1,0.1-0.3,0.1-0.4-0.1c-0.2-0.3-0.5-0.7-0.7-1C36,16.5,36,16.4,36,16.4"/>
	<path class="st0" d="M28.9,16.2c0-0.2,0.2-0.4,0.4-0.4c0,0,0,0,0,0c0.3,0,0.6,0.2,0.6,0.6c-0.1,0.3-0.3,0.5-0.6,0.5
		C29.1,16.7,28.9,16.5,28.9,16.2"/>
	<g>
		<path class="st0" d="M42.6,21c0.5-0.4,0.9-0.9,1.2-1.4c0.1-0.1,0.1-0.3,0.2-0.4c0.1-0.4,0-0.5-0.4-0.7
			C42.8,19.2,42.5,20.1,42.6,21 M38.2,19l0.2-0.2c0.1-0.1,0.3-0.3,0.4-0.4c0.3-0.2,0.6-0.2,0.9,0.1c0.1,0.1,0.1,0.2,0.1,0.4
			c0.1,0.4,0.1,0.8,0.1,1.2c0,0.5,0.2,0.9,0.6,1.3c0.3,0.3,0.8,0.4,1.2,0.2c0-0.2,0-0.3,0-0.5c0-1.1,0.3-2.2,1.1-3
			c0.2-0.3,0.6-0.5,1-0.4c0.5,0.1,0.8,0.5,0.9,1c0.1,0.9,0,1.7-0.3,2.5c-0.3,0.8-0.6,1.6-0.8,2.4c-0.8,2.7-0.6,2.9-2.6,4.3
			c-1.2,0.8-1.4,0.1-0.5-0.6c1.4-1.1,1.8-1.7,2.4-4.1c0.1-0.4,0.2-0.7,0.3-1.1c0,0,0-0.1,0-0.1c-0.4,0-0.8,0.1-1.2,0.2
			c-0.9,0.3-1.9,0-2.5-0.8c-0.3-0.4-0.5-0.9-0.5-1.4c0-0.2,0-0.5,0-0.8H39c-0.1,0.1-0.2,0.3-0.3,0.4c-0.5,0.8-1,1.7-1.6,2.5
			c-0.1,0.1-0.1,0.3-0.2,0.4c-0.1,0.2-0.3,0.2-0.5,0.1c-0.2-0.1-0.3-0.3-0.2-0.4c0-0.1,0.1-0.3,0.2-0.4l0.5-1
			c0.4-0.7,0.5-1.4,0.4-2.2c0-0.1,0-0.3,0-0.4c0-0.2,0.2-0.4,0.4-0.4c0,0,0,0,0,0c0.2,0,0.4,0.2,0.4,0.5c0,0,0,0,0,0
			C38.2,18.6,38.2,18.8,38.2,19L38.2,19"/>
		<path class="st0" d="M23,19.4h-0.2c-0.4,0.1-0.6-0.1-0.6-0.5c0-0.4,0.3-0.7,0.6-0.8c0.2-0.1,0.3-0.1,0.5-0.2
			c0.2,0,0.4-0.2,0.4-0.4c0.2-0.6,0.4-1.2,0.6-1.7s0.5-1.3,0.7-1.9c0.1-0.2,0.2-0.3,0.3-0.4c0.2-0.1,0.4-0.1,0.5,0
			c0.1,0.1,0.1,0.2,0.1,0.3c0,0.2-0.1,0.4-0.1,0.6c-0.2,0.6-0.5,1.2-0.7,1.8s-0.3,1-0.5,1.5c0.1,0,0.3,0.1,0.4,0.1
			c0.6-0.1,1.3-0.1,2-0.2c0.3,0,0.7-0.1,1-0.2s0.7,0.1,0.7,0.6c0,0.3,0,0.7-0.1,1c-0.2,0.5-0.4,1-0.6,1.5c-0.2,0.5-0.5,1.1-0.8,1.6
			c0,0.1-0.1,0.2-0.1,0.2s-0.3,0.2-0.4,0.1c-0.1-0.1-0.2-0.2-0.3-0.3c0-0.2,0-0.3,0.1-0.5c0.4-0.9,0.9-1.8,1.3-2.7
			c0.1-0.3,0.2-0.5,0.2-0.8c-0.6,0.1-1.2,0.2-1.8,0.3s-1.1,0.1-1.7,0.1c0,0.2-0.1,0.3-0.1,0.5l-0.9,3.2c0,0.1,0,0.2-0.1,0.3
			c-0.1,0.2-0.3,0.3-0.5,0.2c-0.1,0-0.1-0.1-0.2-0.2c-0.1-0.2-0.2-0.5-0.3-0.7c-0.1-0.2,0-0.3,0.2-0.4c0,0,0,0,0,0
			c0.3-0.1,0.3-0.3,0.3-0.6L22.6,21c-0.5,0.4-1.1,0.8-1.7,1.1c-0.7,0.4-1.5,0.5-2.2,0.3c-1.1-0.2-1.8-1.1-1.6-2.2
			c0.1-0.4,0.2-0.7,0.4-1c0.4-0.5,0.9-0.9,1.4-1.2c0.3-0.2,0.7-0.3,1-0.1c0.2,0.1,0.4,0.1,0.6,0.2c0.2,0.1,0.3,0.3,0.3,0.5
			c-0.1,0.2-0.3,0.3-0.5,0.3c-0.2,0-0.3-0.1-0.5-0.1c-0.2-0.1-0.4-0.1-0.6,0.1c-0.4,0.3-0.7,0.6-1.1,1c-0.5,0.5-0.5,1.2,0,1.7
			c0.2,0.2,0.5,0.3,0.7,0.3c0.6,0.1,1.1,0.1,1.6-0.2c1-0.4,1.8-1.1,2.3-2.1C22.9,19.4,22.9,19.4,23,19.4l0.1-0.4C23,19,23,19,23,19
			S23,19.2,23,19.4"/>
		<path class="st0" d="M3.3,19.6c0.3-0.3,0.5-0.6,0.8-0.9c0.2-0.3,0.5-0.5,0.8-0.7c0.6-0.4,1.3-0.3,1.7,0.3c0.1,0.2,0.2,0.3,0.2,0.5
			c0.4,1,0,2.1-0.8,2.8c-0.5,0.5-1.1,0.8-1.8,1c-0.4,0.1-0.8,0-0.9-0.4c0-0.1-0.1-0.2-0.1-0.3c0-0.2,0-0.4,0.2-0.5
			c0.2-0.1,0.4,0,0.5,0.2c0,0,0,0,0,0l0.2,0.2c0.2-0.1,0.4-0.1,0.6-0.2c0.3-0.2,0.6-0.4,0.9-0.7c0.6-0.5,0.8-1.3,0.5-2
			c-0.1-0.4-0.3-0.5-0.7-0.4c-0.2,0.1-0.4,0.2-0.5,0.4c-1,1-1.7,2.2-2,3.5c-0.3,1.3-0.7,2.6-1,3.9c-0.3,1-0.6,1.9-0.9,2.8
			c-0.1,0.4-0.3,0.5-0.5,0.5S0,29.5,0,29.1c0-0.3,0.1-0.6,0.1-1c0.5-1.7,0.9-3.3,1.4-5c0.2-0.7,0.5-1.3,0.8-2c0.1-0.3,0.2-0.7,0.2-1
			C2.6,19.5,2.7,19.5,3.3,19.6"/>
		<path class="st0" d="M34.3,22.3l0.3-0.5c0.2-0.3,0.3-0.5,0.5-0.8c0.1-0.2,0.3-0.3,0.5-0.2c0,0,0,0,0,0c0.2,0.1,0.2,0.3,0.1,0.5
			c0,0,0,0,0,0c-0.2,0.5-0.5,0.9-0.8,1.3c0,0.1-0.1,0.1-0.2,0.2c-0.3,0.3-0.8,0.4-1.1,0.1c-0.1-0.1-0.2-0.3-0.3-0.5
			c0-0.4,0-0.7,0-1.1c0-0.1,0-0.3,0-0.5l-0.8,0.7c-0.5,0.5-1.2,0.6-1.9,0.5c-0.7-0.1-1.2-0.7-1.2-1.4c0,0,0-0.1,0-0.1
			c0.1-1.1,0.6-2.2,1.5-2.9c0.1-0.1,0.3-0.2,0.5-0.3c0.2,0,0.5,0,0.5,0.1c0.2,0.3,0.4,0.6,0.5,1c0,0.1-0.1,0.3-0.2,0.3
			c-0.1,0-0.3,0-0.4-0.1c-0.1-0.1-0.3-0.3-0.4-0.5c0,0-0.1,0-0.1,0c-0.7,0.6-1.2,1.4-1.2,2.3c0,0.5,0.1,0.7,0.6,0.8
			c0.4,0.1,0.8,0,1.1-0.3c0.4-0.4,0.8-0.8,1.2-1.2c0.2-0.3,0.5-0.6,0.7-0.9c0.1-0.1,0.2-0.2,0.2-0.3c0.1-0.1,0.3-0.1,0.4,0
			c0.1,0.1,0.2,0.2,0.2,0.4c0,0.2-0.1,0.4-0.2,0.5c-0.3,0.8-0.5,1.7-0.4,2.5c0,0.1,0,0.1,0,0.2C34.2,22.2,34.2,22.2,34.3,22.3"/>
		<path class="st0" d="M12,20.8c0,0.5,0.2,0.8,0.7,0.6c0.2,0,0.3-0.1,0.5-0.2c0.3-0.2,0.6-0.4,0.8-0.6c0.3-0.3,0.6-0.7,0.6-1.2
			c0.1-0.3-0.2-0.5-0.3-0.6s-0.4-0.1-0.5,0c-0.6,0.3-1,0.7-1.4,1.2C12.1,20.2,12,20.5,12,20.8 M14.9,18.2L14.9,18.2
			c0.2-0.2,0.4-0.3,0.6-0.2c0.2,0.1,0.3,0.3,0.2,0.5c-0.1,0.5-0.3,1.1-0.4,1.6c-0.1,0.4-0.2,0.8-0.2,1.2c0,0.3,0.1,0.5,0.5,0.5
			c0.3,0.1,0.6,0,0.8-0.1c0.1-0.1,0.2-0.1,0.3-0.2c0.1,0,0.3,0,0.4,0.1c0.1,0.1,0.1,0.3,0,0.4c-0.1,0.1-0.2,0.2-0.3,0.3
			c-0.7,0.5-1.8,0.3-2.3-0.4c-0.1-0.1-0.2-0.3-0.2-0.4l-0.5,0.4c-0.4,0.3-0.9,0.5-1.4,0.4c-0.6,0-1.1-0.5-1.1-1.2c0,0,0,0,0,0
			c0-0.6,0.2-1.2,0.6-1.7c0.5-0.6,1-1,1.7-1.3C13.8,17.8,14.4,17.8,14.9,18.2"/>
		<path class="st0" d="M8.7,19.2c0.2-0.2,0.3-0.3,0.5-0.4c0.5-0.5,1.2-0.9,1.9-0.9c0.3,0,0.4,0,0.5,0.2c0.1,0.2-0.1,0.4-0.3,0.5
			c0,0,0,0,0,0c-0.2,0.1-0.3,0.1-0.5,0.1c-0.3,0.1-0.6,0.2-0.9,0.5c-0.4,0.4-0.7,0.8-1.1,1.2c-0.2,0.2-0.3,0.5-0.2,0.7
			c0,0.2,0,0.4,0,0.6c0,0.2,0,0.3-0.1,0.5c-0.1,0.3-0.4,0.5-0.7,0.5c-0.3,0-0.4-0.2-0.5-0.6c0-0.4,0.1-0.8,0.3-1.1
			c0.1-0.2,0.2-0.5,0.2-0.7c0.1-0.5,0.1-0.9,0.1-1.4c0-0.3,0.1-0.5,0.2-0.7c0.1-0.2,0.4-0.3,0.6-0.2c0,0,0,0,0.1,0
			c0.2,0.1,0.2,0.3,0.1,0.6C8.7,18.6,8.7,18.9,8.7,19.2"/>
		<path class="st0" d="M65.9,18.9c-0.4-0.5-0.6-0.6-0.9-0.3c-0.6,0.5-1.2,1.1-1.8,1.7c-0.2,0.2-0.3,0.4-0.3,0.6c0.3,0.1,0.7,0,1-0.2
			c0.6-0.5,1.2-1,1.8-1.5C65.7,19,65.8,18.9,65.9,18.9 M70.1,20.8c0.3-0.1,0.5-0.3,0.6-0.5c0.1-0.2,0.2-0.5,0.4-0.7s0.4-0.3,0.6-0.1
			s0.2,0.3,0.1,0.6c-0.2,0.3-0.3,0.6-0.5,0.9c-0.1,0.2-0.3,0.4-0.4,0.5c-0.4,0.3-0.9,0.2-1.2-0.2c-0.1-0.1-0.2-0.3-0.2-0.4
			c0-0.2,0-0.4,0-0.7c-0.1,0.1-0.2,0.1-0.3,0.2l-0.7,0.6c-0.6,0.4-1.4,0.5-2,0.1c-0.2-0.2-0.5-0.5-0.7-0.7l-0.2,0.2
			c-0.4,0.3-0.9,0.7-1.3,1c-0.4,0.3-0.9,0.4-1.4,0.3c-0.4,0-0.8-0.3-0.8-0.7c0-0.1,0-0.2,0-0.3c0.1-0.3,0.2-0.7,0.4-0.9
			c0.6-0.7,1.3-1.4,2.1-1.9c0.4-0.3,0.9-0.3,1.3,0l0.2,0.1c0.1-0.1,0.1-0.2,0.1-0.3l1.8-4.4c0.1-0.3,0.2-0.5,0.3-0.7
			c0.1-0.2,0.2-0.3,0.3-0.5c0.2-0.3,0.5-0.4,0.8-0.2c0.2,0.1,0.3,0.4,0.2,0.8c0,0.3-0.1,0.5-0.2,0.8c-0.6,2.1-1.5,4-2.8,5.7
			c-0.1,0.2-0.2,0.3-0.2,0.5c0,0.3-0.1,0.6,0.2,0.8c0.3,0.2,0.7,0.2,1,0c0.1-0.1,0.3-0.2,0.4-0.3c0.5-0.5,0.9-1.1,1.2-1.7
			c0.2-0.4,0.4-0.8,0.6-1.1s0.4-0.4,0.6-0.4s0.3,0.4,0.2,0.7c-0.3,0.5-0.5,1.1-0.6,1.7C70.1,19.7,70.1,20.2,70.1,20.8"/>
		<path class="st0" d="M86.4,19.7c0.9-0.6,1.4-1.6,1.2-2.7c0-0.3-0.2-0.5-0.5-0.6C86.8,17.5,86.6,18.6,86.4,19.7 M81.3,17.7l0.4-0.4
			c0.1-0.1,0.2-0.2,0.3-0.3c0.5-0.3,0.9-0.1,1,0.5s0,1,0,1.5c0,0.5,0.1,1,0.3,1.4c0.1,0.3,0.5,0.6,0.8,0.5c0.5,0,0.9-0.2,1.3-0.4
			c0.1-0.1,0.2-0.2,0.2-0.4c0.2-1,0.4-2,0.6-3c0.1-0.3,0.2-0.7,0.3-1c0.1-0.4,0.6-0.6,0.9-0.5c0.1,0,0.2,0.1,0.3,0.2
			c0.4,0.3,0.7,0.9,0.7,1.4c0,1.2-0.5,2.3-1.3,3c-0.2,0.1-0.3,0.3-0.5,0.4c-0.2,0.2-0.3,0.5-0.2,0.7c0,0,0.1,0.1,0.1,0.1
			c0.4,0.4,1,0.4,1.4,0c0,0,0.1-0.1,0.1-0.1c0,0,0.1-0.1,0.1-0.2s0.3-0.3,0.5-0.1c0.2,0.1,0.2,0.3,0.2,0.5c-0.2,0.5-0.6,0.9-1.1,1
			c-0.8,0.2-1.7-0.2-2.1-1l-0.1-0.2l-0.4,0.2c-0.5,0.2-1.1,0.3-1.7,0.1c-0.3-0.1-0.6-0.3-0.8-0.6c-0.3-0.6-0.5-1.2-0.6-1.9
			c0-0.4,0-0.8,0-1.2c-0.1,0-0.2,0.1-0.2,0.1c-0.6,0.7-1,1.4-1.4,2.1c-0.1,0.2-0.2,0.3-0.2,0.5C80.2,21,80,21.1,79.8,21
			c-0.2-0.1-0.3-0.3-0.2-0.5c0-0.2,0.1-0.3,0.2-0.4c0.4-0.6,0.6-1.3,0.6-2.1c0.1-0.4,0.1-0.8,0.2-1.2c0.1-0.2,0.2-0.4,0.3-0.6
			c0.1-0.2,0.4-0.3,0.6-0.1c0.2,0.1,0.2,0.3,0,0.6C81.3,17,81.2,17.4,81.3,17.7"/>
		<path class="st0" d="M56.4,17.4c-0.2,0.1-0.4,0.2-0.7,0.3c-0.3,0.2-0.6,0.4-0.9,0.7c-0.5,0.4-0.9,0.9-1,1.5
			c-0.1,0.5-0.3,0.9-0.5,1.4c-0.1,0.1-0.1,0.3-0.2,0.4c-0.1,0.2-0.3,0.3-0.5,0.2c-0.2-0.1-0.3-0.2-0.3-0.4c-0.1-0.4,0-0.8,0.2-1.2
			c0.1-0.4,0.3-0.7,0.5-1c0.2-0.3,0.4-0.7,0.3-1.1c0-0.2,0-0.5-0.1-0.8c-0.1,0.1-0.2,0.1-0.2,0.1c-0.8,0.9-1.4,1.8-2,2.8
			c-0.1,0.3-0.2,0.5-0.3,0.8c0,0.1-0.1,0.2-0.2,0.3c-0.1,0.1-0.2,0.1-0.4,0.1c-0.1,0-0.2-0.1-0.3-0.3c0-0.2,0-0.3,0-0.5
			c0.1-0.3,0.2-0.5,0.3-0.8l1.4-3.1c0-0.1,0.1-0.2,0.1-0.3c0.2-0.4,0.5-0.4,0.8,0l0.1,0.1h0.1c0.8-0.4,1.3-0.2,1.4,0.7l0.1,0.4
			c0.1-0.1,0.2-0.1,0.3-0.2c0.3-0.2,0.6-0.5,0.9-0.7c0.2-0.1,0.4-0.2,0.6-0.3c0.7-0.3,1.2,0,1.3,0.8c0.1,0.4,0.1,0.8,0.1,1.1
			c0,0.5,0,1,0,1.6c0,0.4,0.1,0.7,0.4,1c0.2,0.2,0.2,0.4,0.1,0.6s-0.4,0.1-0.6,0c-0.4-0.3-0.6-0.8-0.6-1.2c0-0.6,0-1.3,0-1.9
			C56.6,18.3,56.5,17.9,56.4,17.4"/>
		<path class="st0" d="M76.6,20.2l-0.6,0.5c-0.6,0.5-1.3,0.7-2.1,0.5c-0.5-0.1-0.9-0.5-0.9-1.1c0-0.4,0.1-0.8,0.2-1.1
			c0.3-0.9,0.8-1.8,1.5-2.6l0,0c0.3-0.3,0.6-0.4,0.8-0.3c0.3,0.2,0.4,0.5,0.4,0.9c0,0.2-0.1,0.4-0.3,0.4c-0.1,0-0.2,0-0.2-0.1
			c-0.1-0.1-0.2-0.1-0.2-0.2c-0.7,0.8-1.1,1.7-1.3,2.8c-0.1,0.5,0,0.6,0.6,0.7c0.4,0.1,0.7,0,1-0.3c0.5-0.4,1-1,1.2-1.6
			c0.1-0.3,0.2-0.5,0.3-0.8c0.1-0.2,0.2-0.3,0.4-0.3c0.2,0,0.3,0.2,0.3,0.4c0,0.2,0,0.4,0,0.6c-0.1,0.4-0.1,0.7-0.2,1.1
			s-0.1,0.6-0.1,0.8c0.1,0,0.1,0.1,0.1,0.1c0.4,0,0.5,0.1,0.5,0.4c0,0.3-0.1,0.5-0.4,0.6c-0.4,0.2-0.8,0-1-0.4c0,0,0-0.1,0-0.1
			C76.7,20.7,76.7,20.4,76.6,20.2"/>
		<path class="st0" d="M59.5,20c0.5-0.1,0.9-0.3,1.4-0.6c0.4-0.2,0.7-0.6,0.6-1c0-0.1,0-0.2,0-0.3c0-0.5-0.2-0.7-0.7-0.6
			c-0.2,0-0.4,0.1-0.5,0.3C59.6,18.3,59.4,19.2,59.5,20 M59.7,20.8c0.2,0.3,0.5,0.6,0.9,0.6c0.3,0,0.6,0,0.9,0.1s0.4,0.2,0.4,0.4
			c0,0.2-0.2,0.4-0.4,0.4c-0.9,0.1-1.8-0.2-2.4-0.9c-0.1-0.2-0.3-0.3-0.5-0.4c-0.3-0.1-0.4-0.3-0.2-0.6c0.1-0.1,0.2-0.3,0.2-0.5
			c0-0.4,0-0.7,0.1-1c0.1-0.7,0.4-1.4,1-1.8c0.4-0.3,0.9-0.5,1.4-0.4c0.6,0,1,0.5,1.1,1.1c0,0,0,0.1,0,0.1c0.2,1.1-0.4,2.1-1.5,2.4
			C60.5,20.4,60.1,20.6,59.7,20.8"/>
	</g>
	<path class="st0" d="M71.8,14.7c0.5,0.1,0.9,0.3,1.2,0.8c0.1,0.1,0.1,0.3,0,0.4c-0.1,0.1-0.3,0.2-0.4,0.1c0,0,0,0,0,0
		c-0.3-0.2-0.6-0.4-0.9-0.6c-0.1-0.1-0.1-0.2-0.1-0.4C71.6,14.9,71.8,14.8,71.8,14.7"/>
	<path class="st0" d="M80.5,15.2c0,0.3-0.3,0.5-0.5,0.3c-0.3-0.2-0.5-0.5-0.7-0.7c-0.1-0.2-0.1-0.4,0.1-0.5c0,0,0,0,0,0
		c0.2-0.1,0.4-0.1,0.5,0.1c0.2,0.2,0.4,0.4,0.5,0.7C80.5,15.1,80.5,15.1,80.5,15.2"/>
</g>
<g>
	<path class="st0" d="M28.7,8.5c0.7-0.3,1.1-1,1-1.8c-0.4-0.1-0.5,0-0.7,0.3C28.7,7.4,28.5,8,28.7,8.5 M20.3,10.9
		c0.4,0.2,0.4,0.5,0.2,0.8s-0.2,0.5-0.4,0.8c-0.1,0.1-0.2,0.2-0.3,0.3c-0.2,0.1-0.4,0.1-0.6-0.1c-0.1-0.1-0.1-0.2-0.1-0.3
		c0-0.2,0-0.4,0.1-0.7c0.3-0.9,0.6-1.8,0.9-2.7c0.5-1.4,1-2.7,1.5-4.1c0.1-0.2,0.1-0.3,0.2-0.5c-0.4-0.6-0.3-0.9,0.2-1.4
		c0.3-0.2,0.4-0.5,0.3-0.8c0-0.2,0-0.3,0-0.5c0-0.2,0.2-0.3,0.4-0.3c0.2,0,0.3,0.1,0.4,0.3c0,0.1,0.1,0.3,0.1,0.4
		c0.4,0,0.7-0.1,1.1-0.1c0.5,0,0.9,0.2,1.2,0.6c0.1,0.2,0.3,0.4,0.3,0.6C26,4.3,26,5.2,25.6,6.1C25.3,7,24.8,7.9,24,8.5l-0.4,0.4
		c0.5,0.7,1.1,1.3,1.8,1.9c0.3,0.2,0.6,0.2,0.9,0c0.3-0.2,0.6-0.4,0.9-0.7c0.2-0.2,0.3-0.4,0.2-0.7c0-0.2,0-0.3,0.2-0.4
		c0.1-0.1,0.2-0.1,0.4-0.2c0-0.3,0-0.6,0-0.8c0-0.6,0.2-1.1,0.6-1.6C28.8,6,29.4,5.8,30,6c0.4,0,0.6,0.4,0.6,0.8
		c0,0.8-0.3,1.7-1,2.2l-0.9,0.6c0.2,0.1,0.3,0.2,0.5,0.2c0.3,0.1,0.7,0,1-0.2c0.6-0.3,1-0.8,1.3-1.3c0.2-0.5,0.3-0.5,0.9-0.4L32.6,7
		c-0.3,0-0.6,0.1-0.8,0.4l-0.1,0.1c-0.2,0.2-0.4,0.3-0.5,0.2S31,7.3,31.2,7.1c0.2-0.4,0.6-0.7,1-0.8c0.6-0.1,0.8-0.4,0.9-1
		c0.2-0.7,0.4-1.5,0.5-2.3c0,0,0-0.1,0-0.1c0.1-0.3,0.2-0.4,0.5-0.4c0.2,0,0.4,0.3,0.4,0.5c0,0,0,0,0,0c0,0.4-0.1,0.9-0.2,1.3
		S33.9,5.4,33.8,6l0.8-0.1c0.3-0.1,0.6-0.1,0.8-0.2c0.3,0,0.5,0.1,0.6,0.4c0,0,0,0,0,0.1c0.1,0.3,0,0.7-0.2,1
		c-0.2,0.3-0.4,0.7-0.6,1C35.1,8.4,35.1,8.7,35,9c0,0.3,0.1,0.5,0.4,0.6c0.4,0.2,0.9,0.1,1.2-0.3C37,8.6,37.3,7.8,37.3,7
		c0-0.2,0-0.4,0.1-0.6c0-0.2,0.2-0.3,0.4-0.3c0.2,0,0.4,0.2,0.4,0.4c0,0.1,0,0.1,0,0.2c0,0.9-0.2,1.7-0.6,2.6
		c-0.1,0.2-0.2,0.4-0.3,0.6c-0.4,0.6-1.1,0.9-1.8,0.7c-0.7-0.1-1.3-0.7-1.2-1.5c0-0.3,0.1-0.7,0.3-1c0.1-0.3,0.3-0.6,0.5-0.8
		c0.1-0.2,0.2-0.3,0.3-0.6c-0.3,0.1-0.5,0.1-0.8,0.1c-0.7,0-1,0.4-1.2,1S32.8,9,32.6,9.6s-0.2,1-0.4,1.5c0,0.1,0,0.2-0.1,0.3
		s-0.2,0.2-0.3,0.2s-0.3-0.1-0.4-0.2c0-0.3,0-0.5,0-0.8c0.1-0.4,0.2-0.8,0.3-1.2l-0.4,0.3c-0.5,0.5-1.1,0.7-1.8,0.8
		c-0.5,0.1-1.1-0.1-1.4-0.5c-0.1,0.1-0.2,0.2-0.3,0.3c-0.4,0.4-0.8,0.7-1.2,1c-0.5,0.4-1.2,0.3-1.7-0.1c-0.4-0.3-0.7-0.6-1.1-1
		c-0.3-0.3-0.5-0.6-0.7-0.8c-0.1-0.2-0.3-0.2-0.5-0.2c-0.1,0-0.3,0.1-0.4,0.1c-0.3,0-0.6-0.2-0.6-0.5c0,0,0,0,0-0.1
		c-0.1-0.3,0.2-0.6,0.5-0.7c0,0,0,0,0.1,0c0.3,0,0.5,0,0.8,0c0.1,0.1,0.3,0,0.4-0.1c1.3-0.9,2-2.5,1.8-4.1c-0.2-1.3-1-1.3-1.9-0.9
		c-0.1,0.1-0.3,0.2-0.3,0.4c-0.7,2.3-1.5,4.6-2.4,6.8C20.4,10.5,20.4,10.7,20.3,10.9"/>
	<path class="st0" d="M48.5,8.2C49,7.6,49.1,7,48.9,6.6C48.5,6.9,48.3,7.4,48.5,8.2 M53.6,8l-0.2-0.3c-0.1-0.1-0.2-0.1-0.3-0.1
		c0,0,0,0,0,0C52.5,8,52,8.4,51.7,8.9c-0.1,0.2-0.2,0.3-0.2,0.5c0,0.3,0,0.3,0.3,0.4c0.3,0.1,0.6,0,0.8-0.3
		C53.1,9.1,53.4,8.5,53.6,8 M54,9.1c-0.3,0.4-0.5,0.7-0.8,1c-0.4,0.5-1.1,0.7-1.7,0.4c-0.2-0.1-0.5-0.2-0.7-0.3
		c-0.3,0.3-0.4,0.4-0.8,0.2s-1-0.4-1.5-0.7l-0.7,0.4c-0.4,0.2-0.8,0.3-1.2,0.3c-0.9,0.1-1.7-0.6-1.9-1.5c-0.1-0.4-0.2-0.8-0.2-1.1
		c-0.2,0-0.3,0.2-0.4,0.3c-0.4,0.7-0.8,1.4-1.3,2c-0.1,0.1-0.1,0.3-0.2,0.4c-0.1,0.1-0.3,0.1-0.4,0.1c-0.2,0-0.3-0.2-0.2-0.4
		c0,0,0,0,0,0c0-0.2,0.1-0.3,0.2-0.4c0.1-0.2,0.2-0.4,0.3-0.6c0.3-0.4,0.4-0.9,0.3-1.4c0-0.2,0-0.4,0-0.6c0-0.2,0.2-0.4,0.4-0.4
		c0.2,0,0.3,0.2,0.4,0.4v0.3l0.4-0.2C44.2,6.8,44.7,6.7,45,7c0.2,0.1,0.3,0.3,0.3,0.6c0.1,0.3,0.1,0.7,0.2,1c0,0.6,0.5,1.1,1.1,1
		c0.1,0,0.1,0,0.2,0c0.4-0.1,0.8-0.3,1.1-0.6c-0.2-0.5-0.3-1.1-0.2-1.6c0-0.4,0.2-0.8,0.4-1.2c0.2-0.3,0.6-0.5,1-0.4
		c0.4,0,0.7,0.3,0.7,0.7c0.1,0.5,0,1-0.2,1.4c-0.2,0.4-0.3,0.7-0.5,1.1c0.4,0.4,1.1,0.5,1.6,0.8c0,0,0.1-0.1,0.1-0.1
		c0-0.8,0.3-1.5,0.9-2c0.3-0.3,0.6-0.5,0.9-0.8c0.3-0.4,0.9-0.4,1.3,0c0,0,0,0,0,0L54,7.1c0.1-0.3,0.3-0.7,0.4-1
		c0.4-1.6,0.8-3.2,1.2-4.7c0,0,0-0.1,0-0.1c0.1-0.3,0.2-0.4,0.4-0.4c0.2,0,0.4,0.2,0.4,0.4c0,0.2,0,0.3,0,0.5
		c-0.2,1.4-0.6,2.8-1.1,4.1c-0.3,1-0.5,2.1-0.5,3.2c0,0.3,0,0.6,0.3,0.7c0.2,0.1,0.2,0.3,0.2,0.4c0,0,0,0,0,0
		c-0.1,0.2-0.3,0.3-0.5,0.2c-0.4-0.1-0.7-0.4-0.8-0.8C54,9.5,54,9.3,54,9.1"/>
	<path class="st0" d="M67.3,6.4c-0.2,0.1-0.3,0.3-0.4,0.4c-0.4,0.5-0.7,1.2-0.6,1.9c0,0.6,0.6,0.9,1.1,0.6c0.9-0.6,1.5-1.5,1.7-2.6
		c0-0.1,0-0.3,0-0.4c0-0.2-0.1-0.3-0.3-0.3c-0.2,0-0.3,0-0.3,0.2l-0.1,0.2C67.9,6.8,67.7,6.8,67.3,6.4 M66.5,5.9
		c-0.6,0-1.3,0.1-1.9,0.3c-0.1,0-0.2,0.1-0.2,0.3c-0.3,1-0.7,2-1,3c-0.1,0.2-0.1,0.5-0.1,0.7c0,0.1,0,0.2,0,0.3
		c0,0.2-0.2,0.3-0.4,0.3c-0.2,0-0.3-0.1-0.3-0.3c0-0.2,0-0.4,0-0.6C62.7,9.2,62.9,8.6,63,8s0.3-1,0.5-1.6c-0.5,0-0.9,0.2-1.4,0.4
		c-0.1,0-0.1,0.2-0.2,0.3c-0.1,0.2-0.3,0.2-0.5,0.1c0,0-0.1-0.1-0.1-0.1c-0.2-0.2-0.2-0.6,0-0.8c0,0,0,0,0,0
		c0.1-0.1,0.3-0.2,0.5-0.3c0.5-0.2,1-0.3,1.5-0.4c0.3,0,0.5-0.2,0.5-0.5c0.5-1.4,0.9-2.7,1.4-4.1c0.1-0.3,0.2-0.5,0.3-0.7
		C65.8,0,66.1-0.1,66.4,0c0,0,0,0,0,0c0.2,0.1,0.4,0.2,0.4,0.5c0,0.1,0,0.3,0,0.4c0,0.4-0.1,0.5-0.6,0.5c-0.6,1.2-1,2.6-1.3,3.9
		c0.2,0,0.4-0.1,0.6-0.1l1.9-0.1c0.1,0,0.2,0,0.3,0.1c0.2,0.1,0.5,0.1,0.7,0c0.6-0.2,1.2,0.2,1.4,0.8c0,0.1,0,0.2,0,0.3
		c0,0.5-0.1,1-0.2,1.4c-0.4,0.9-0.9,1.6-1.7,2.2c-0.3,0.3-0.8,0.4-1.2,0.4c-0.6,0-1.2-0.6-1.2-1.2c-0.1-1,0.2-2,0.8-2.7L66.5,5.9"/>
	<path class="st0" d="M40.2,7.1c0.3-0.5,0.8-0.8,1.4-1c0.3-0.1,0.5-0.1,0.6,0.1s0,0.4-0.2,0.6c-0.1,0.1-0.2,0.1-0.3,0.2
		c-0.4,0.1-0.7,0.4-0.9,0.8C40.4,8.3,40.1,9,40,9.6c0,0.1,0,0.2-0.1,0.4c-0.1,0.1-0.2,0.2-0.4,0.2c-0.1,0-0.2-0.1-0.3-0.2
		c0-0.2,0-0.4,0-0.6c0.2-0.6,0.2-1.3,0.2-1.9C39.4,7,39.6,6.9,40.2,7.1"/>
</g>
<g>
	<path class="st0" d="M64.1,33.5c0.7-0.5,1.2-1.3,1.3-2.1c0-0.2,0-0.3-0.1-0.5c-0.2-0.4-0.6-0.5-0.8,0c-0.4,0.7-0.6,1.6-0.5,2.4
		C64,33.3,64,33.4,64.1,33.5 M64.6,34.2c0.2,0.1,0.4,0.2,0.7,0.2c0.7,0.1,1.4,0.2,2.1,0.1c0.5-0.1,1-0.4,1.4-0.8
		c0.1-0.1,0.2-0.2,0.3-0.3c0.1-0.1,0.3-0.1,0.5,0c0.1,0.1,0.1,0.3,0.1,0.4c-0.1,0.1-0.2,0.2-0.3,0.3c-0.5,0.6-1.2,0.9-2,1
		c-0.7,0-1.3,0-2,0c-0.4-0.1-0.8-0.2-1.2-0.4c-0.2-0.1-0.4-0.1-0.6-0.1c-0.7,0.2-1.5,0.1-2.1-0.3c-0.5-0.3-0.9-0.9-0.9-1.5
		c0-0.2,0-0.5,0-0.8c-0.1,0.1-0.2,0.2-0.3,0.3l-1.7,1.8l-0.1,0.1c-0.1,0.1-0.4,0.1-0.5,0c-0.1-0.1-0.2-0.3-0.1-0.5
		c0-0.1,0.1-0.2,0.1-0.3c0.4-0.8,0.7-1.6,1-2.5l-0.1-0.1c-0.1,0.1-0.2,0.2-0.3,0.3c-0.5,0.6-1,1.2-1.5,1.8c-0.4,0.5-0.8,1-1.2,1.5
		c-0.1,0.1-0.2,0.2-0.4,0.3c-0.1,0.1-0.3,0.1-0.4,0c-0.1-0.1-0.2-0.2-0.2-0.4c0-0.2,0.1-0.4,0.2-0.5c0.4-0.6,0.7-1.2,1.1-1.8
		c0.3-0.5,0.4-1,0.4-1.6c0-0.1,0-0.1,0-0.2c0-0.3,0.2-0.4,0.4-0.4c0.2,0,0.4,0.2,0.4,0.4c0,0,0,0,0,0.1c0,0.2,0,0.4,0,0.8l0.3-0.2
		c0.3-0.3,0.6-0.5,0.9-0.8c0.1-0.1,0.3-0.2,0.5-0.2c0.2-0.1,0.5,0,0.7,0.2c0,0.1,0,0.1,0,0.2c0,0.3,0,0.5-0.1,0.8
		c-0.1,0.3-0.2,0.6-0.3,0.9l0.1,0.1c0.1-0.1,0.2-0.2,0.3-0.3c0.2-0.2,0.3-0.3,0.5-0.5c0.2-0.2,0.6-0.2,0.8,0.1
		c0.1,0.1,0.1,0.2,0.1,0.3c0,0.2,0.1,0.4,0.1,0.7c0,0.1,0,0.2,0,0.3c-0.1,0.7,0.5,1.3,1.2,1.4c0.1,0,0.1,0,0.2,0c0.2,0,0.5,0,0.7,0
		c-0.2-0.8-0.1-1.7,0.1-2.6c0.1-0.4,0.3-0.8,0.6-1.1c0.3-0.5,1-0.6,1.5-0.3c0.1,0.1,0.2,0.1,0.2,0.2c0.3,0.3,0.5,0.7,0.5,1.2
		c0,0.6-0.2,1.2-0.5,1.7C65.3,33.4,65,33.7,64.6,34.2"/>
	<path class="st0" d="M49.8,29.6c0.3,0,0.5-0.1,0.8-0.1c0.8-0.1,1.7-0.2,2.5-0.2s1.2,0.5,1.1,1.3c0,0.2-0.1,0.5-0.2,0.7
		c-0.3,0.5-0.6,1.1-0.9,1.6c-0.1,0.2-0.2,0.4-0.2,0.6c0,0.4-0.2,0.7-0.5,0.8c-0.2,0.1-0.5,0-0.6-0.2c0-0.1-0.1-0.2,0-0.3
		c0-0.3,0.1-0.5,0.3-0.8c0.3-0.5,0.6-1,0.9-1.4c0.2-0.3,0.3-0.5,0.4-0.8c0.1-0.1,0.1-0.3,0.1-0.4c0-0.3,0-0.4-0.3-0.4
		c-0.5,0-1,0-1.4,0.1c-0.7,0.1-1.3,0.2-1.9,0.3c-0.3,0-0.5,0.2-0.6,0.5c-0.2,0.6-0.5,1.2-0.7,1.8c-0.2,0.6-0.3,1.1-0.3,1.7
		c0,0.1,0,0.3-0.1,0.4c-0.1,0.2-0.3,0.3-0.5,0.2c0,0,0,0,0,0c-0.3-0.2-0.4-0.5-0.4-0.8c0.1-0.3,0.1-0.5,0.2-0.8
		c0.2-0.7,0.4-1.4,0.7-2c0.1-0.1,0.1-0.2,0.1-0.4L48,31.4c-0.1,0.3-0.3,0.4-0.5,0.3s-0.3-0.3-0.2-0.6c0-0.4,0.3-0.8,0.8-0.9
		c0.6-0.1,0.9-0.6,1.1-1.1c0.5-1.1,1-2.2,1.6-3.4c0.1-0.3,0.2-0.6,0.3-0.9c0.1-0.2,0.2-0.4,0.4-0.4s0.4,0.2,0.4,0.5
		c0,0.2,0,0.5,0,0.7c0,0.2-0.1,0.4-0.3,0.5c-0.1,0.1-0.2,0.2-0.3,0.3c-0.5,1-1,2-1.4,3.1C49.9,29.5,49.9,29.6,49.8,29.6"/>
	<path class="st0" d="M55.1,28.4c0.4,0.1,0.6,0.5,0.6,0.8c0,0,0,0,0,0c-0.1,0.2-0.3,0.2-0.5,0.2c-0.3-0.1-0.5-0.4-0.4-0.7
		C54.7,28.5,54.9,28.4,55.1,28.4"/>
	<path class="st0" d="M22.3,33.3L22.3,33.3c0.3,0,0.5-0.1,0.7-0.2c0.2-0.2,0.5-0.2,0.7-0.1c0.1,0,0.2,0,0.3,0c0.6-0.2,1.1-0.6,1.6-1
		c0.3-0.2,0.3-0.6,0.1-0.8c0,0-0.1-0.1-0.1-0.1c-0.2-0.2-0.5-0.3-0.8-0.3c-0.7,0.1-1.4,0.4-1.8,1c0,0.1-0.1,0.1-0.1,0.2
		c-0.1,0.2-0.1,0.4-0.2,0.6S22.5,33.1,22.3,33.3 M22,34.3c-0.2,0.6-0.3,1.2-0.4,1.8c-0.3,1.4-0.7,2.9-1.1,4.3
		c-0.2,0.7-0.3,1.4-0.5,2.1c0,0.1-0.1,0.3-0.2,0.4c-0.1,0.1-0.2,0.2-0.3,0.2c-0.1-0.1-0.3-0.2-0.3-0.3c0-0.1,0-0.2,0-0.3
		c0-0.2,0-0.3,0.1-0.5c0.5-2.3,0.9-4.5,1.4-6.8c0.2-0.8,0.4-1.7,0.7-2.5c0.4-1,1.1-1.9,2.1-2.4c0.4-0.2,0.8-0.4,1.3-0.4
		c0.6,0,1.1,0.3,1.5,0.7c0.4,0.5,0.4,1.2,0,1.7c-0.2,0.3-0.5,0.5-0.7,0.7c-0.9,0.6-1.9,1-3,1.2C22.4,34.3,22.2,34.3,22,34.3"/>
	<path class="st0" d="M37.9,29.3h-0.7h-0.2c-0.3,0-0.6-0.2-0.6-0.4s0.2-0.4,0.6-0.4s0.6,0,0.9,0c0.5,0,0.5,0,0.6-0.4
		c0.3-0.7,0.6-1.3,0.8-2c0.1-0.2,0.2-0.4,0.4-0.6c0.2-0.3,0.6-0.4,0.9-0.2c0.1,0,0.1,0.1,0.2,0.2c0.1,0.1,0.2,0.4,0.1,0.5
		c-0.1,0.2-0.3,0.2-0.5,0.1H40c-0.4,0.8-0.7,1.6-1,2.4c0.2,0,0.3,0.1,0.5,0.1l1.2,0.5c0.1,0,0.1,0.1,0.2,0.1
		c0.2,0.2,0.3,0.4,0.2,0.6s-0.4,0.2-0.6,0c-0.4-0.3-0.8-0.5-1.3-0.5c-0.1,0-0.2,0-0.3,0c0,0.1-0.1,0.2-0.1,0.2
		c-0.3,0.9-0.6,1.9-0.8,2.8c-0.1,0.4-0.1,0.8-0.2,1.2c0,0.3,0.1,0.4,0.4,0.4c0.5,0.1,1-0.2,1.2-0.6c0.1-0.1,0.2-0.2,0.2-0.4
		c0.1-0.1,0.3-0.2,0.4-0.1c0,0,0,0,0,0c0.1,0.1,0.2,0.2,0.2,0.4c0,0.1,0,0.2-0.1,0.3c-0.4,0.8-1.3,1.3-2.2,1.1c-0.6,0-1-0.4-1-1
		c0,0,0-0.1,0-0.1c0-0.5,0.1-1,0.2-1.6c0.2-0.8,0.5-1.5,0.7-2.3L37.9,29.3"/>
	<path class="st0" d="M29.6,30.2c-0.3-0.1-0.7-0.1-0.9,0.2c-0.5,0.4-0.9,1-1.2,1.7c-0.1,0.2-0.1,0.5-0.1,0.7c0,0.4,0.1,0.5,0.5,0.6
		c0.8,0,1.6-0.6,1.7-1.5C29.6,31.4,29.6,30.8,29.6,30.2 M29.4,33.7l-0.5,0.2c-0.4,0.2-0.9,0.3-1.4,0.2c-0.6-0.1-1-0.6-1-1.2
		c0-0.5,0.1-0.9,0.3-1.4c0.3-0.7,0.8-1.3,1.3-1.8c0.4-0.4,1-0.5,1.5-0.4c0.3,0,0.6,0.3,0.7,0.6c0,0.1,0,0.1,0.1,0.2
		c0.3,0.3,0.3,0.7,0.2,1s-0.2,0.8-0.3,1.2c-0.1,0.3-0.1,0.7-0.2,1c0,0.2,0.1,0.3,0.2,0.3c0,0,0,0,0,0c0.2,0,0.4,0,0.4-0.2
		c0-0.1,0-0.1,0.1-0.2c0.1-0.2,0.2-0.3,0.4-0.2c0.2,0,0.3,0.2,0.3,0.4c0,0.5-0.3,0.9-0.8,1C30.2,34.7,29.6,34.3,29.4,33.7"/>
	<path class="st0" d="M34,29.8c0.4-0.6,1-1.1,1.7-1.3c0.2-0.1,0.4-0.1,0.5,0.1c0,0,0,0,0,0c0.1,0.2,0,0.4-0.1,0.5
		c-0.1,0.1-0.3,0.2-0.5,0.3c-0.4,0.1-0.7,0.4-0.9,0.8c-0.6,0.9-0.9,1.9-1.1,3c0,0.2-0.1,0.4-0.1,0.6c0,0.2-0.2,0.3-0.4,0.2
		c0,0,0,0,0,0c-0.1-0.1-0.2-0.2-0.3-0.3c0-0.2,0-0.3,0-0.5c0-0.8,0.1-1.5,0.1-2.3c0-0.2,0-0.4,0-0.6C32.9,29.8,33.3,29.6,34,29.8"/>
</g>
</svg>
