<svg id="Layer_1" data-name="Layer 1" xmlns="http://www.w3.org/2000/svg" viewBox="0 0 75.74 29.18"><defs><style>.cls-1{fill:#003a70;}.cls-2{fill:none;}</style></defs><title>september_2013</title><path class="cls-1" d="M29.58,20.72a3.39,3.39,0,0,0,.88-2.44,2.48,2.48,0,0,0-.88,2.44M17,20.46a2.81,2.81,0,0,0,1.7-2.27c-.69,0-1.58,1.2-1.7,2.27m-.62-.84-.58-.54c-.1.21-.2.42-.3.62-.45.88-.9,1.77-1.37,2.63a4.48,4.48,0,0,1-.7.91,1.36,1.36,0,0,1-.61.36.7.7,0,0,1-.88-.7,10.16,10.16,0,0,1,.1-1.67c.11-.71.28-1.41.43-2.11a.43.43,0,0,1,.38-.38.77.77,0,0,1,.65.41.39.39,0,0,1-.13.51.67.67,0,0,0-.23.28,8.66,8.66,0,0,0-.44,2.54c0,.08,0,.15,0,.27a.86.86,0,0,0,.49-.46q.77-1.38,1.51-2.78c.16-.31.28-.65.45-1a.68.68,0,0,1,1.26,0l.25.38c.12-.16.21-.29.31-.4a10.21,10.21,0,0,1,.85-.84,1.27,1.27,0,0,1,.61-.26c.8-.12,1.2.29,1.06,1.08a3.08,3.08,0,0,1-.34.94A5,5,0,0,1,18,20.85a1.15,1.15,0,0,1-1,.36,1.18,1.18,0,0,0,1.08,1.52,2.57,2.57,0,0,0,2-.66.94.94,0,0,0,.22-.41c.37-1,.74-2,1.11-3a.5.5,0,0,1,.49-.4c.27,0,.37.21.44.44s.1.36.16.6l.28-.31c.12-.13.22-.28.34-.4.52-.49,1.1-.32,1.25.37A10.07,10.07,0,0,1,24.47,20c.11-.12.19-.2.27-.29.23-.28.45-.58.7-.85a.66.66,0,0,1,.74-.22.62.62,0,0,1,.37.66c0,.66,0,1.31,0,2a2.89,2.89,0,0,0,.07.66.63.63,0,0,0,1,.46,5.75,5.75,0,0,0,1-.73.61.61,0,0,0,.11-.39c0-.41,0-.83,0-1.25a3.71,3.71,0,0,1,.66-1.88,2.35,2.35,0,0,1,.49-.52.84.84,0,0,1,.91-.07.76.76,0,0,1,.43.74,4,4,0,0,1-.83,2.6,7.94,7.94,0,0,1-.65.76.38.38,0,0,0-.06.51,1,1,0,0,0,1.34.39A2.18,2.18,0,0,0,32.3,21c.09-.45.24-.89.37-1.34s.21-.7.32-1.06c0,0,0-.06,0-.09.08-.25.25-.37.45-.34a.43.43,0,0,1,.34.46c0,.11,0,.22,0,.33s0,.2,0,.41c.15-.21.23-.34.33-.46a3,3,0,0,1,.53-.55.56.56,0,0,1,.92.37,1.43,1.43,0,0,1,0,.43c0,.62-.07,1.24-.14,1.86a8.89,8.89,0,0,0-.09,1.74.43.43,0,0,0,.59-.11,10.39,10.39,0,0,0,.81-.82A9.55,9.55,0,0,0,38.47,19c.33-.88.66-1.77,1-2.65a2.5,2.5,0,0,0,.06-.27,2.4,2.4,0,0,0-.4,0l-1.43.4a.9.9,0,0,1-.46,0,.58.58,0,0,1-.31-.31.31.31,0,0,1,.2-.39,1.63,1.63,0,0,1,.32-.11c.73-.18,1.45-.38,2.19-.54a.42.42,0,0,0,.37-.37,2.79,2.79,0,0,1,.12-.46.42.42,0,0,1,.47-.32.44.44,0,0,1,.33.47c0,.15,0,.31,0,.53l.68-.13a1.24,1.24,0,0,1,.37-.09.57.57,0,0,1,.35.19.31.31,0,0,1-.08.43.94.94,0,0,1-.33.19,3.12,3.12,0,0,1-.79.17.67.67,0,0,0-.72.54A20.05,20.05,0,0,0,39.29,20c-.09.6-.1,1.21-.14,1.82a2.07,2.07,0,0,0,0,.28c.08,0,.13,0,.17,0a5.52,5.52,0,0,0,1.86-1.9,1.23,1.23,0,0,1,.26-.4.52.52,0,0,1,.39-.09.31.31,0,0,1,.22.38,1,1,0,0,1-.13.36,6.49,6.49,0,0,1-.73,1.06,15.25,15.25,0,0,1-1.41,1.22,1.83,1.83,0,0,1-.59.3.58.58,0,0,1-.83-.57c0-.21,0-.42,0-.62v-.73l-.3.37c-.47.56-.93,1.13-1.42,1.68a2.08,2.08,0,0,1-.61.45,1,1,0,0,1-1.47-.87c0-.72.12-1.43.18-2.15,0-.34.06-.69.09-1.13-.13.1-.19.13-.22.17-.5.82-1,1.63-1.49,2.46a10.67,10.67,0,0,0-.45,1,1.76,1.76,0,0,1-.17.34.37.37,0,0,1-.64,0,1.79,1.79,0,0,1-.13-.24c-1.51.64-2.15.22-2.81-.67l-.65.46a1.75,1.75,0,0,1-1.23.32,1.22,1.22,0,0,1-1-.66,2.33,2.33,0,0,1-.27-1.16c0-.54,0-1.08,0-1.72a3.24,3.24,0,0,0-.28.28c-.4.56-.82,1.1-1.19,1.68a8.91,8.91,0,0,0-.52,1.08,2.09,2.09,0,0,1-.14.31.32.32,0,0,1-.41.15.5.5,0,0,1-.26-.3,1.41,1.41,0,0,1,.06-.56c.15-.56.32-1.1.48-1.66a2.93,2.93,0,0,0,.08-1.43,2.15,2.15,0,0,0-.27.24c-.26.33-.51.65-.75,1q-.71,1-1.4,2.06a4.06,4.06,0,0,0-.24.52c-.22.47-.5.5-.8.09l-.1-.11-.39.19a2.81,2.81,0,0,1-2.15.15,1.8,1.8,0,0,1-1.32-1.66,4.59,4.59,0,0,1,.23-2.12" transform="translate(-0.05 0)"/><path class="cls-1" d="M9.24,20.34,9,19.88l-.26.35.49.09a.63.63,0,0,1-.06.72c-.23.31-.44.63-.68.93a.55.55,0,0,0-.12.66A.7.7,0,0,0,9,23a.92.92,0,0,0,.84-.45,3.66,3.66,0,0,0,.67-2.26c0-.52,0-.54-.59-.66-.18.6-.18.6-.69.69m-6.86-2A4.41,4.41,0,0,1,2.79,18a.65.65,0,0,1,1.06.43,9.06,9.06,0,0,1,.12.95c0,.09,0,.18.06.34l.29-.28a6.49,6.49,0,0,1,.85-.76c.55-.35,1-.11,1,.53a5.06,5.06,0,0,1-.05,1.05,9.76,9.76,0,0,0-.06,2.2,1.56,1.56,0,0,0,0,.24c.06.23.17.3.38.19a1.3,1.3,0,0,0,.3-.23,4,4,0,0,0,.5-.52,1,1,0,0,0,.21-.5,4.59,4.59,0,0,1,1.7-3.16l.18-.16a.64.64,0,0,1,1-.09,2.11,2.11,0,0,1,.84,1.3,4.5,4.5,0,0,1-.7,3.39,1.69,1.69,0,0,1-1.23.83,1.51,1.51,0,0,1-1.45-.56L7.64,23c-.12.11-.22.21-.33.29a3.06,3.06,0,0,1-.46.34,1,1,0,0,1-1.51-.78,17.22,17.22,0,0,1,0-2.06c0-.39.09-.79.14-1.27a1.67,1.67,0,0,0-.32.22,7.4,7.4,0,0,0-1.57,2.61,5.74,5.74,0,0,1-.25.68,1.83,1.83,0,0,1-.25.4.42.42,0,0,1-.51.16.41.41,0,0,1-.24-.52,3.74,3.74,0,0,1,.29-.76,5.4,5.4,0,0,0,.57-1.72,8.1,8.1,0,0,0,0-1.8,3.78,3.78,0,0,0-.31.3A9.59,9.59,0,0,0,1,22.4a4.47,4.47,0,0,1-.18.55c-.12.28-.3.39-.51.33S0,23,.05,22.73a2.38,2.38,0,0,1,.13-.51c.37-1,.75-2,1.13-3a4.07,4.07,0,0,0,.15-.45c.14-.6.36-.7.91-.4" transform="translate(-0.05 0)"/><path class="cls-1" d="M62.82,20.73a3.29,3.29,0,0,0,.66-2.14,2.81,2.81,0,0,0-.66,2.14m6.1-1.51A4.11,4.11,0,0,0,67,21a3.35,3.35,0,0,0-.19.83c0,.16.07.26.24.31a1.68,1.68,0,0,0,1.77-1,7.44,7.44,0,0,0,.09-1.89m-6.55,3.21-.83.49A2.51,2.51,0,0,1,60,23.2a1.32,1.32,0,0,1-1.29-1.39A11.41,11.41,0,0,1,59,19a18,18,0,0,1,1.43-4,.42.42,0,0,1,.4-.3c.2,0,.3.15.38.32.2.41.18.49-.21.78a.7.7,0,0,0-.2.26,13.6,13.6,0,0,0-1.31,5.42c0,.77.2,1,1,.93a2.63,2.63,0,0,0,1.46-.66c.09-.07.1-.25.11-.39.07-.65.1-1.31.19-2A2.87,2.87,0,0,1,62.86,18a1.61,1.61,0,0,1,.39-.35.68.68,0,0,1,1.11.63,5.51,5.51,0,0,1-1.05,3.18l-.32.42a4.1,4.1,0,0,0,.48.32,2.29,2.29,0,0,0,1.41.18,1.69,1.69,0,0,0,.58-.3c.18-.12.35-.27.56-.44.11-1.45,1.13-2.31,2.29-3.05a1.06,1.06,0,0,1,1.45.11l.17-.07c.42-.13.68,0,.67.46a3.38,3.38,0,0,1-.69,2.2,3.27,3.27,0,0,0-.66,1.41,10.92,10.92,0,0,1-1.87,4.12,7.93,7.93,0,0,1-1.65,1.6,3.51,3.51,0,0,1-2.19.74,1,1,0,0,1-1.06-.95A2.16,2.16,0,0,1,62.67,27c.3-.6.64-1.18,1-1.77a.69.69,0,0,1,.23-.24.33.33,0,0,1,.53.31,1.19,1.19,0,0,1-.17.44c-.24.45-.51.89-.74,1.35a2.87,2.87,0,0,0-.25.86c0,.39.08.49.46.48A2.51,2.51,0,0,0,65,28a6.94,6.94,0,0,0,2.3-2.4,10.19,10.19,0,0,0,1.16-2.89,2.27,2.27,0,0,1-2.26-.21,2,2,0,0,1-1.87.73,3,3,0,0,1-1.93-.8" transform="translate(-0.05 0)"/><path class="cls-1" d="M50.09,20.5c.25-.24.48-.51.75-.73a2.62,2.62,0,0,1,.76-.48.69.69,0,0,1,1,.64A2.12,2.12,0,0,1,52.42,21a7.62,7.62,0,0,0-.35,1.14c-.06.27-.1.6.2.78a.84.84,0,0,0,1,0,4.09,4.09,0,0,0,.6-.67c.09-.11.14-.25.22-.37a.35.35,0,0,1,.47-.13.37.37,0,0,1,.18.45,2.13,2.13,0,0,1-2.58,1.56,1.22,1.22,0,0,1-.89-1.17,3.76,3.76,0,0,1,.35-1.67,1.1,1.1,0,0,0,.15-.85,4.83,4.83,0,0,0-.42.31c-.64.6-1.28,1.2-1.91,1.82a5.11,5.11,0,0,0-.47.6c-.09.11-.14.27-.25.34a.47.47,0,0,1-.38.09.51.51,0,0,1-.25-.36.84.84,0,0,1,.14-.49,14.39,14.39,0,0,0,1.24-2.75.84.84,0,0,0,0-.74.92.92,0,0,1-.06-.47.47.47,0,0,1,.42-.45.45.45,0,0,1,.54.36,4.28,4.28,0,0,1,0,1,4.27,4.27,0,0,1-.23.73l-.11.36.08,0" transform="translate(-0.05 0)"/><path class="cls-1" d="M74.32,22.08a2.18,2.18,0,0,0-1-1.29,2.6,2.6,0,0,0-.34-.17c-.74-.3-.82-.88-.56-1.59a1.37,1.37,0,0,1,.25-.4,3.39,3.39,0,0,1,1.73-1.06,1.78,1.78,0,0,1,.38-.05c.81,0,1.11.35.89,1.14a7.54,7.54,0,0,1-.28.82c-.11.28-.31.38-.51.31s-.28-.27-.2-.57.17-.57.25-.84c-.08,0-.11-.07-.14-.06a2.22,2.22,0,0,0-1.57.9c-.26.33-.19.58.2.75a2.85,2.85,0,0,1,1.4,1.38,2.33,2.33,0,0,1,.19.49.8.8,0,0,1-.49,1.05,2.5,2.5,0,0,1-.54.2c-.79.18-1.59.36-2.39.51-.27.05-.6.14-.79-.16s0-.54.2-.77.2-.29.3-.43a.39.39,0,0,1,.49-.18.36.36,0,0,1,.21.44c0,.06,0,.12,0,.18a5.68,5.68,0,0,0,2.3-.6" transform="translate(-0.05 0)"/><path class="cls-1" d="M47.76,19.45A5.74,5.74,0,0,1,47,21.51c-.33.58-.71,1.13-1.07,1.7a.35.35,0,0,1-.45.18.36.36,0,0,1-.22-.47,2.33,2.33,0,0,1,.26-.56c.22-.35.48-.68.69-1a4.53,4.53,0,0,0,.74-2.1c0-.29.17-.46.38-.47s.38.17.41.45c0,.06,0,.13,0,.24" transform="translate(-0.05 0)"/><path class="cls-1" d="M47.63,18.24a1.29,1.29,0,0,1-.2.21.33.33,0,0,1-.55-.22,3.66,3.66,0,0,1,0-.95.46.46,0,0,1,.44-.38.65.65,0,0,1,.72.25,2.4,2.4,0,0,1,.29.7.58.58,0,0,1-.1.43c-.13.16-.31.11-.47,0l-.13-.05" transform="translate(-0.05 0)"/><path class="cls-1" d="M42.68,7.91a3.25,3.25,0,0,0,.4-.12,3.67,3.67,0,0,0,1.64-1.67.76.76,0,0,0,0-.14c.07-.21,0-.33-.22-.4a1,1,0,0,0-1.24.33,3.37,3.37,0,0,0-.63,2M48.5,6.73a7.06,7.06,0,0,0-1.15.6,4.33,4.33,0,0,0-.87.8,1.78,1.78,0,0,0-.24.71c0,.14.06.23.21.26a1.54,1.54,0,0,0,1.67-1c.11-.35.22-.7.33-1.05a2.66,2.66,0,0,0,0-.36M41.86,8.92h-.45c-.22,0-.38-.09-.4-.32s.12-.35.32-.41.34-.08.52-.12c0-.3.07-.59.12-.87a3.54,3.54,0,0,1,.91-2,1.89,1.89,0,0,1,2.37-.16.79.79,0,0,1,.33.75,2.08,2.08,0,0,1-.21.73,4.1,4.1,0,0,1-2.43,2.12l-.25.1A1.33,1.33,0,0,0,43.37,10a1.5,1.5,0,0,0,2.07-.49.4.4,0,0,0,0-.27,2.26,2.26,0,0,1,1-2.2,10.9,10.9,0,0,1,1.7-1,.74.74,0,0,1,1.06.5A2.52,2.52,0,0,1,49,8.6a3.84,3.84,0,0,0-.4.86c-.3,1-.56,2-.85,3a10.2,10.2,0,0,1-1.08,2.61,4.46,4.46,0,0,1-1.34,1.42,1.92,1.92,0,0,1-1.14.32,1,1,0,0,1-.91-.59,3.9,3.9,0,0,1,.66-4,1.08,1.08,0,0,1,.18-.15.37.37,0,0,1,.48,0,.36.36,0,0,1,0,.48,2.17,2.17,0,0,1-.21.26,3.09,3.09,0,0,0-.51,2.82c.07.31.22.39.54.32a1.22,1.22,0,0,0,.52-.23,9.07,9.07,0,0,0,.87-.88,3.15,3.15,0,0,0,.38-.61,24.49,24.49,0,0,0,1.46-4.51c-.29,0-.52.09-.75.11s-.48,0-.72,0-.2.14-.28.23A2.27,2.27,0,0,1,42,9.34c0-.13-.08-.27-.12-.41" transform="translate(-0.05 0)"/><path class="cls-1" d="M37.39,6.92A15,15,0,0,1,38.93,11l.25-.33a.35.35,0,0,1,.46-.15.4.4,0,0,1,.22.44.82.82,0,0,1-.61.72.84.84,0,0,1-1-.36,2.75,2.75,0,0,1-.24-.67,13,13,0,0,0-1-2.79l-.22-.42c-.15-.27-.32-.5-.69-.49a.43.43,0,0,1-.46-.4c0-.23.18-.4.48-.44h.24A4.15,4.15,0,0,0,40,4.31a1.32,1.32,0,0,0,.09-1.45,1,1,0,0,0-.89-.64,12.11,12.11,0,0,0-1.29,0,.65.65,0,0,0-.55.4,52.29,52.29,0,0,0-2.47,5c-.18.41-.38.81-.56,1.22-.11.24-.27.47-.12.77,0,.1,0,.28-.08.4-.19.39-.4.77-.61,1.15a.82.82,0,0,1-.17.23.37.37,0,0,1-.64-.24.86.86,0,0,1,0-.38,11.37,11.37,0,0,1,.42-1.22Q34.28,7,35.46,4.51c.19-.41.41-.8.63-1.19a.63.63,0,0,0,.07-.62c-.13-.32.05-.56.31-.72a.79.79,0,0,0,.4-.45c.07-.23.18-.5.46-.47s.35.21.6.36h1a1.87,1.87,0,0,1,1.81,1,2.11,2.11,0,0,1,0,2.2,3.81,3.81,0,0,1-1.23,1.26c-.51.32-1.07.56-1.61.83-.12.06-.26.1-.45.17" transform="translate(-0.05 0)"/><path class="cls-1" d="M66.7,6.62c-.53-.17-.78-.09-1,.36a3.78,3.78,0,0,0-.33,2.18A2.34,2.34,0,0,0,66.7,6.62M65.77,10c.28.1.51.2.75.26s.54.08.81.13a.93.93,0,0,1,.41.12.6.6,0,0,1,.22.38c0,.17-.14.28-.32.3a.9.9,0,0,1-.24,0L66.31,11a2.18,2.18,0,0,1-1.18-.6.65.65,0,0,0-.56-.19,8.61,8.61,0,0,1-1.1,0,1.28,1.28,0,0,1-1.22-1c-.19-.61-.34-1.23-.51-1.85l-.12-.44c-.17.18-.3.3-.42.44a10,10,0,0,0-1.56,2.74,1,1,0,0,1-.15.35.67.67,0,0,1-.4.19c-.2,0-.3-.17-.31-.36a1.12,1.12,0,0,1,.06-.37c.07-.21.15-.42.23-.63a6.62,6.62,0,0,0,.44-2.44,2.88,2.88,0,0,1,.08-.76A.36.36,0,0,1,60,5.79c.23,0,.29.22.29.43s0,.57,0,.93l.29-.3a7.35,7.35,0,0,1,.8-.75c.5-.36.88-.17,1,.43q.23,1.13.51,2.24c.14.55.28.64.84.68.24,0,.47,0,.77,0,0-.27,0-.48,0-.7a13.83,13.83,0,0,1,.16-1.42A2.48,2.48,0,0,1,65,6.54a1.51,1.51,0,0,1,1.85-.72.77.77,0,0,1,.65.82,3.46,3.46,0,0,1-1.61,3.18,1.28,1.28,0,0,0-.14.16" transform="translate(-0.05 0)"/><path class="cls-1" d="M72.27,9.33c-.36.37-.65.68-1,1a1.77,1.77,0,0,1-1.83.42,1.1,1.1,0,0,1-.89-1.15,4,4,0,0,1,1-2.64,1.59,1.59,0,0,1,1.74-.51.91.91,0,0,1,.74.84c0,.21,0,.39-.2.49s-.36,0-.51-.23-.17-.3-.3-.33a1.12,1.12,0,0,0-.56,0,.67.67,0,0,0-.3.23,3.17,3.17,0,0,0-.8,2.06c0,.33.08.43.39.5a1.06,1.06,0,0,0,1.06-.29,7.26,7.26,0,0,0,1.85-3c.5-1.53,1-3.07,1.54-4.59.21-.6.5-1.18.76-1.76,0-.09.07-.2.15-.24A.7.7,0,0,1,75.55,0a.42.42,0,0,1,.24.31,1.78,1.78,0,0,1-.09.66c-.33,1-.65,1.94-1,2.9-.42,1.14-.88,2.27-1.3,3.4a6.35,6.35,0,0,0-.3,2.46c0,.31.08.35.4.3l.09,0a.36.36,0,0,1,.47.22.4.4,0,0,1-.22.48,1,1,0,0,1-1.49-.64,7.08,7.08,0,0,1-.06-.75" transform="translate(-0.05 0)"/><path class="cls-1" d="M53.45,7.91c-.12-.32-.21-.54-.28-.76s-.17-.35-.44-.31a.87.87,0,0,0-.4.15,3.55,3.55,0,0,0-1.46,2.68c0,.36.12.46.46.41a.75.75,0,0,0,.31-.12,6.17,6.17,0,0,0,1.81-2m.5-1.22a1.35,1.35,0,0,1,.12-.18.37.37,0,0,1,.51-.09.41.41,0,0,1,.15.51,6.27,6.27,0,0,1-.33.85,2.63,2.63,0,0,0-.24,1.31.52.52,0,0,0,.83.45,1.66,1.66,0,0,0,.38-.36,4.69,4.69,0,0,0,.81-1.51,3.11,3.11,0,0,1,.22-.53.36.36,0,0,1,.45-.19.38.38,0,0,1,.27.45,4.51,4.51,0,0,1-.12.46c-.13.51-.25,1-.37,1.54a1,1,0,0,0,0,.27c.15-.13.24-.23.35-.31a.31.31,0,0,1,.44,0,.53.53,0,0,1,.11.38,1.17,1.17,0,0,1-.93.79c-.38,0-.57-.09-.87-.58a1.59,1.59,0,0,1-1.35.43,1.25,1.25,0,0,1-1-.92c-.37.34-.7.65-1,1a1.65,1.65,0,0,1-1,.45c-.83.06-1.28-.35-1.26-1.17a4.37,4.37,0,0,1,1.72-3.3,1.61,1.61,0,0,1,.42-.24,1.39,1.39,0,0,1,1.72.53" transform="translate(-0.05 0)"/><path class="cls-1" d="M59.24,5.14c0,.36-.29.56-.52.39a1.75,1.75,0,0,1-.48-.63.39.39,0,0,1,.69-.33c.13.2.23.41.32.57" transform="translate(-0.05 0)"/><path class="cls-2" d="M31.74,1.22" transform="translate(-0.05 0)"/></svg>