<?xml version="1.0" encoding="utf-8"?>
<!-- Generator: Adobe Illustrator 19.2.1, SVG Export Plug-In . SVG Version: 6.00 Build 0)  -->
<svg version="1.1" id="Layer_1" xmlns="http://www.w3.org/2000/svg" xmlns:xlink="http://www.w3.org/1999/xlink" x="0px" y="0px"
	 viewBox="0 0 75.7 29.2" style="enable-background:new 0 0 75.7 29.2;" xml:space="preserve">
<style type="text/css">
	.st0{fill:#003A70;}
</style>
<title>september_2013</title>
<g>
	<path class="st0" d="M29.6,20.7c0.6-0.7,0.9-1.5,0.9-2.4C29.7,18.9,29.4,19.8,29.6,20.7 M17,20.5c0.9-0.4,1.6-1.3,1.7-2.3
		C18,18.2,17.1,19.4,17,20.5 M16.4,19.6l-0.6-0.5c-0.1,0.2-0.2,0.4-0.3,0.6c-0.4,0.9-0.9,1.8-1.4,2.6c-0.2,0.3-0.4,0.6-0.7,0.9
		c-0.2,0.2-0.4,0.3-0.6,0.4c-0.4,0.1-0.8-0.1-0.9-0.5c0-0.1,0-0.1,0-0.2c0-0.6,0-1.1,0.1-1.7c0.1-0.7,0.3-1.4,0.4-2.1
		c0-0.2,0.2-0.4,0.4-0.4c0.3,0,0.5,0.2,0.6,0.4c0.1,0.2,0,0.4-0.1,0.5c-0.1,0.1-0.2,0.2-0.2,0.3c-0.3,0.8-0.4,1.7-0.4,2.5
		c0,0.1,0,0.1,0,0.3c0.2-0.1,0.4-0.2,0.5-0.5c0.5-0.9,1-1.8,1.5-2.8c0.2-0.3,0.3-0.6,0.4-1c0.1-0.3,0.5-0.5,0.9-0.4
		c0.2,0.1,0.3,0.2,0.4,0.4l0.2,0.4c0.1-0.2,0.2-0.3,0.3-0.4c0.3-0.3,0.6-0.6,0.9-0.8c0.2-0.1,0.4-0.2,0.6-0.3
		c0.8-0.1,1.2,0.3,1.1,1.1c-0.1,0.3-0.2,0.6-0.3,0.9c-0.3,0.5-0.7,1-1.1,1.4c-0.3,0.3-0.6,0.4-1,0.4c-0.2,0.6,0.2,1.3,0.8,1.5
		c0.1,0,0.2,0,0.3,0c0.7,0.1,1.5-0.2,2-0.7c0.1-0.1,0.2-0.3,0.2-0.4c0.4-1,0.7-2,1.1-3c0-0.2,0.3-0.4,0.5-0.4c0.3,0,0.4,0.2,0.4,0.4
		s0.1,0.4,0.2,0.6l0.3-0.3c0.1-0.1,0.2-0.3,0.3-0.4c0.5-0.5,1.1-0.3,1.2,0.4c0.1,0.3,0.1,0.7,0.1,1c0.1-0.1,0.2-0.2,0.3-0.3
		c0.2-0.3,0.5-0.6,0.7-0.9c0.2-0.2,0.5-0.3,0.7-0.2c0.3,0.1,0.4,0.4,0.4,0.7c0,0.7,0,1.3,0,2c0,0.2,0,0.4,0.1,0.7
		c0,0.3,0.3,0.6,0.7,0.6c0.1,0,0.2-0.1,0.3-0.1c0.4-0.2,0.7-0.5,1-0.7c0.1-0.1,0.1-0.3,0.1-0.4c0-0.4,0-0.8,0-1.2
		c0-0.7,0.3-1.3,0.7-1.9c0.1-0.2,0.3-0.4,0.5-0.5c0.3-0.2,0.6-0.2,0.9-0.1c0.3,0.1,0.5,0.4,0.4,0.7c0,0.9-0.3,1.9-0.8,2.6
		c-0.2,0.3-0.4,0.5-0.6,0.8c-0.1,0.1-0.2,0.4-0.1,0.5c0.3,0.5,0.9,0.6,1.3,0.4c0.7-0.3,1.1-0.9,1.3-1.6c0.1-0.5,0.2-0.9,0.4-1.3
		s0.2-0.7,0.3-1.1c0,0,0-0.1,0-0.1c0.1-0.2,0.2-0.4,0.5-0.3c0.2,0,0.4,0.2,0.3,0.5c0,0.1,0,0.2,0,0.3s0,0.2,0,0.4
		c0.2-0.2,0.2-0.3,0.3-0.5c0.2-0.2,0.3-0.4,0.5-0.5c0.2-0.2,0.6-0.2,0.8,0.1c0.1,0.1,0.1,0.2,0.1,0.3c0,0.1,0,0.3,0,0.4
		c0,0.6-0.1,1.2-0.1,1.9c-0.1,0.6-0.1,1.2-0.1,1.7c0.2,0.1,0.5,0.1,0.6-0.1c0.3-0.3,0.6-0.5,0.8-0.8C37.5,21,38,20,38.5,19
		c0.3-0.9,0.7-1.8,1-2.6c0-0.1,0-0.2,0.1-0.3c-0.1,0-0.3,0-0.4,0l-1.4,0.4c-0.2,0-0.3,0-0.5,0c-0.1-0.1-0.3-0.2-0.3-0.3
		c-0.1-0.2,0-0.3,0.2-0.4c0.1,0,0.2-0.1,0.3-0.1c0.7-0.2,1.5-0.4,2.2-0.5c0.2,0,0.3-0.2,0.4-0.4c0-0.2,0.1-0.3,0.1-0.5
		c0-0.2,0.3-0.4,0.5-0.3c0.2,0.1,0.4,0.3,0.3,0.5c0,0.1,0,0.3,0,0.5l0.7-0.1c0.1,0,0.2-0.1,0.4-0.1c0.1,0,0.3,0.1,0.3,0.2
		c0.1,0.1,0.1,0.3-0.1,0.4c-0.1,0.1-0.2,0.1-0.3,0.2c-0.3,0.1-0.5,0.1-0.8,0.2c-0.3,0-0.7,0.2-0.7,0.5c-0.5,1.2-0.9,2.4-1.1,3.7
		c-0.1,0.6-0.1,1.2-0.1,1.8c0,0.1,0,0.2,0,0.3c0.1,0,0.1,0,0.2,0c0.8-0.5,1.4-1.1,1.9-1.9c0.1-0.1,0.1-0.3,0.3-0.4
		c0.1-0.1,0.3-0.1,0.4-0.1c0.2,0,0.3,0.2,0.2,0.4c0,0,0,0,0,0c0,0.1-0.1,0.2-0.1,0.4c-0.2,0.4-0.5,0.7-0.7,1.1
		c-0.4,0.4-0.9,0.8-1.4,1.2c-0.2,0.1-0.4,0.2-0.6,0.3c-0.3,0.1-0.6,0-0.8-0.3c0-0.1-0.1-0.2-0.1-0.3c0-0.2,0-0.4,0-0.6v-0.7L38,21.5
		c-0.5,0.6-0.9,1.1-1.4,1.7c-0.2,0.2-0.4,0.3-0.6,0.5c-0.5,0.3-1.1,0.1-1.4-0.4c-0.1-0.1-0.1-0.3-0.1-0.5c0-0.7,0.1-1.4,0.2-2.1
		c0-0.3,0.1-0.7,0.1-1.1c-0.1,0.1-0.2,0.1-0.2,0.2c-0.5,0.8-1,1.6-1.5,2.5c-0.2,0.3-0.3,0.7-0.5,1c0,0.1-0.1,0.2-0.2,0.3
		c-0.1,0.2-0.3,0.2-0.5,0.1c-0.1,0-0.1-0.1-0.1-0.1c0-0.1-0.1-0.2-0.1-0.2c-1.5,0.6-2.1,0.2-2.8-0.7L28.3,23
		c-0.4,0.3-0.8,0.4-1.2,0.3c-0.4,0-0.8-0.3-1-0.7c-0.2-0.4-0.3-0.8-0.3-1.2c0-0.5,0-1.1,0-1.7c-0.1,0.1-0.2,0.2-0.3,0.3
		c-0.4,0.6-0.8,1.1-1.2,1.7c-0.2,0.3-0.4,0.7-0.5,1.1c0,0.1-0.1,0.2-0.1,0.3c-0.1,0.1-0.3,0.2-0.4,0.1C23.1,23.2,23,23.1,23,23
		c0-0.2,0-0.4,0.1-0.6c0.1-0.6,0.3-1.1,0.5-1.7c0.1-0.5,0.2-1,0.1-1.4c-0.1,0.1-0.2,0.2-0.3,0.2c-0.3,0.3-0.5,0.6-0.8,1
		c-0.5,0.7-0.9,1.4-1.4,2.1c-0.1,0.2-0.2,0.3-0.2,0.5c-0.2,0.5-0.5,0.5-0.8,0.1L20,23.1l-0.4,0.2c-0.7,0.3-1.4,0.4-2.1,0.1
		c-0.8-0.2-1.3-0.9-1.3-1.7C16.1,21.1,16.1,20.3,16.4,19.6"/>
	<path class="st0" d="M9.2,20.3L9,19.9l-0.3,0.4L9.2,20.3c0.1,0.2,0.1,0.5-0.1,0.7c-0.2,0.3-0.4,0.6-0.7,0.9
		c-0.2,0.2-0.2,0.4-0.1,0.7C8.5,22.9,8.7,23,9,23c0.3,0,0.7-0.2,0.8-0.5c0.5-0.7,0.7-1.5,0.7-2.3c0-0.5,0-0.5-0.6-0.7
		C9.7,20.2,9.7,20.2,9.2,20.3 M2.4,18.3c0.1-0.1,0.3-0.2,0.4-0.3c0.3-0.2,0.7-0.2,0.9,0.1c0.1,0.1,0.1,0.2,0.1,0.3
		c0.1,0.3,0.1,0.6,0.1,1c0,0.1,0,0.2,0.1,0.3l0.3-0.3c0.3-0.3,0.5-0.5,0.8-0.8c0.6-0.4,1-0.1,1,0.5c0,0.4,0,0.7-0.1,1
		C6,21,6,21.7,6,22.5c0,0.1,0,0.2,0,0.2c0.1,0.2,0.2,0.3,0.4,0.2c0.1-0.1,0.2-0.1,0.3-0.2c0.2-0.2,0.3-0.3,0.5-0.5
		c0.1-0.1,0.2-0.3,0.2-0.5c0.1-1.2,0.7-2.4,1.7-3.2l0.2-0.2c0.2-0.3,0.6-0.4,0.9-0.2c0,0,0.1,0.1,0.1,0.1c0.4,0.3,0.7,0.8,0.8,1.3
		c0.2,1.2,0,2.4-0.7,3.4c-0.3,0.5-0.7,0.8-1.2,0.8c-0.5,0.1-1.1-0.1-1.4-0.6L7.6,23c-0.1,0.1-0.2,0.2-0.3,0.3
		c-0.1,0.1-0.3,0.2-0.5,0.3c-0.5,0.3-1.1,0.1-1.4-0.3c-0.1-0.1-0.1-0.3-0.1-0.4c0-0.7,0-1.4,0-2.1c0-0.4,0.1-0.8,0.1-1.3
		c-0.1,0.1-0.2,0.1-0.3,0.2c-0.7,0.8-1.2,1.6-1.6,2.6c-0.1,0.2-0.2,0.5-0.2,0.7c-0.1,0.1-0.1,0.3-0.2,0.4c-0.1,0.2-0.3,0.2-0.5,0.2
		c-0.2-0.1-0.3-0.3-0.2-0.5c0.1-0.3,0.2-0.5,0.3-0.8c0.3-0.5,0.5-1.1,0.6-1.7c0.1-0.6,0.1-1.2,0-1.8C3.1,18.9,3,19,2.9,19.1
		c-0.8,1-1.5,2.1-1.9,3.3c0,0.2-0.1,0.4-0.2,0.5c-0.1,0.3-0.3,0.4-0.5,0.3S0,23,0,22.7c0-0.2,0.1-0.3,0.1-0.5c0.4-1,0.8-2,1.1-3
		c0.1-0.1,0.1-0.3,0.1-0.5C1.6,18.2,1.8,18.1,2.4,18.3"/>
	<path class="st0" d="M62.8,20.7c0.5-0.6,0.7-1.4,0.7-2.1C63,19.2,62.7,20,62.8,20.7 M68.9,19.2c-0.8,0.4-1.5,1-1.9,1.8
		c-0.1,0.3-0.2,0.5-0.2,0.8c0,0.2,0.1,0.3,0.2,0.3c0.7,0.1,1.5-0.3,1.8-1C68.9,20.5,68.9,19.9,68.9,19.2 M62.3,22.5l-0.8,0.5
		c-0.5,0.2-1,0.3-1.5,0.3c-0.7,0-1.3-0.6-1.3-1.3c0,0,0,0,0,0c0-0.9,0.1-1.9,0.3-2.8c0.3-1.4,0.8-2.7,1.4-4c0.1-0.2,0.2-0.3,0.4-0.3
		c0.2,0,0.3,0.1,0.4,0.3c0.2,0.4,0.2,0.5-0.2,0.8c-0.1,0.1-0.2,0.2-0.2,0.3c-0.8,1.7-1.3,3.5-1.3,5.4c0,0.8,0.2,1,1,0.9
		c0.5-0.1,1.1-0.3,1.5-0.7c0.1-0.1,0.1-0.2,0.1-0.4c0.1-0.6,0.1-1.3,0.2-2c0.1-0.5,0.3-1,0.6-1.4c0.1-0.1,0.2-0.3,0.4-0.4
		c0.3-0.2,0.7-0.2,1,0.1c0.1,0.2,0.2,0.4,0.2,0.5c0,1.1-0.4,2.3-1,3.2L63,21.9c0.2,0.1,0.3,0.2,0.5,0.3c0.4,0.2,0.9,0.3,1.4,0.2
		c0.2-0.1,0.4-0.2,0.6-0.3c0.2-0.1,0.3-0.3,0.6-0.4c0.1-1.5,1.1-2.3,2.3-3c0.4-0.4,1.1-0.3,1.4,0.1l0.2-0.1c0.4-0.1,0.7,0,0.7,0.5
		c0,0.8-0.2,1.6-0.7,2.2c-0.3,0.4-0.6,0.9-0.7,1.4c-0.3,1.5-1,2.9-1.9,4.1c-0.5,0.6-1,1.1-1.7,1.6c-0.6,0.5-1.4,0.7-2.2,0.7
		c-0.6,0-1-0.4-1.1-0.9c0,0,0,0,0,0c-0.1-0.4,0-0.8,0.2-1.2c0.3-0.6,0.6-1.2,1-1.8c0.1-0.1,0.1-0.2,0.2-0.2c0.1-0.1,0.4-0.1,0.5,0.1
		c0.1,0.1,0.1,0.2,0.1,0.3c0,0.2-0.1,0.3-0.2,0.4c-0.2,0.5-0.5,0.9-0.7,1.4c-0.1,0.3-0.2,0.6-0.2,0.9c0,0.4,0.1,0.5,0.5,0.5
		c0.5,0,0.9-0.2,1.3-0.4c0.9-0.6,1.7-1.4,2.3-2.4c0.5-0.9,0.9-1.9,1.2-2.9c-0.7,0.3-1.6,0.3-2.3-0.2c-0.4,0.6-1.2,0.8-1.9,0.7
		C63.6,23.2,62.9,22.9,62.3,22.5"/>
	<path class="st0" d="M50.1,20.5c0.2-0.2,0.5-0.5,0.8-0.7c0.2-0.2,0.5-0.4,0.8-0.5c0.3-0.2,0.8,0,0.9,0.3c0.1,0.1,0.1,0.2,0.1,0.3
		c0,0.4,0,0.7-0.2,1.1c-0.1,0.4-0.3,0.8-0.3,1.1c-0.1,0.3-0.1,0.6,0.2,0.8c0.3,0.2,0.7,0.2,1,0c0.2-0.2,0.4-0.4,0.6-0.7
		c0.1-0.1,0.1-0.2,0.2-0.4c0.1-0.2,0.3-0.2,0.5-0.1c0.2,0.1,0.2,0.3,0.2,0.5c-0.3,1.1-1.4,1.8-2.6,1.6c0,0,0,0,0,0
		c-0.5-0.1-0.9-0.6-0.9-1.2c0-0.6,0.1-1.1,0.3-1.7c0.2-0.3,0.2-0.6,0.2-0.9c-0.1,0.1-0.3,0.2-0.4,0.3c-0.6,0.6-1.3,1.2-1.9,1.8
		c-0.2,0.2-0.3,0.4-0.5,0.6c-0.1,0.1-0.1,0.3-0.2,0.3c-0.1,0.1-0.2,0.1-0.4,0.1c-0.1-0.1-0.2-0.2-0.2-0.4c0-0.2,0-0.3,0.1-0.5
		c0.5-0.9,0.9-1.8,1.2-2.8c0.1-0.2,0.1-0.5,0-0.7c-0.1-0.1-0.1-0.3-0.1-0.5c0-0.2,0.2-0.4,0.4-0.5c0.2-0.1,0.5,0.1,0.5,0.3
		c0,0,0,0,0,0c0,0.3,0,0.7,0,1c-0.1,0.2-0.1,0.5-0.2,0.7L50.1,20.5L50.1,20.5"/>
	<path class="st0" d="M74.3,22.1c-0.2-0.5-0.5-1-1-1.3c-0.1-0.1-0.2-0.1-0.3-0.2c-0.7-0.3-0.8-0.9-0.6-1.6c0.1-0.1,0.1-0.3,0.2-0.4
		c0.5-0.5,1.1-0.9,1.7-1.1c0.1,0,0.3,0,0.4,0c0.8,0,1.1,0.4,0.9,1.1c-0.1,0.3-0.2,0.6-0.3,0.8c-0.1,0.3-0.3,0.4-0.5,0.3
		s-0.3-0.3-0.2-0.6s0.2-0.6,0.2-0.8c-0.1,0-0.1-0.1-0.1-0.1c-0.6,0.1-1.2,0.4-1.6,0.9c-0.3,0.3-0.2,0.6,0.2,0.8
		c0.6,0.3,1.1,0.8,1.4,1.4c0.1,0.2,0.1,0.3,0.2,0.5c0.2,0.4,0,0.9-0.5,1c0,0,0,0,0,0C74.3,23,74.1,23,74,23.1
		c-0.8,0.2-1.6,0.4-2.4,0.5c-0.3,0-0.6,0.1-0.8-0.2s0-0.5,0.2-0.8s0.2-0.3,0.3-0.4c0.1-0.2,0.3-0.3,0.5-0.2c0.2,0.1,0.3,0.3,0.2,0.4
		c0,0.1,0,0.1,0,0.2C72.8,22.6,73.6,22.4,74.3,22.1"/>
	<path class="st0" d="M47.7,19.5c-0.1,0.7-0.4,1.4-0.8,2.1c-0.3,0.6-0.7,1.1-1.1,1.7c-0.1,0.2-0.3,0.3-0.5,0.2
		c-0.2-0.1-0.3-0.3-0.2-0.5c0,0,0,0,0,0c0.1-0.2,0.1-0.4,0.3-0.6c0.2-0.4,0.5-0.7,0.7-1c0.4-0.6,0.7-1.3,0.7-2.1
		c0-0.3,0.2-0.5,0.4-0.5s0.4,0.2,0.4,0.5C47.7,19.3,47.7,19.4,47.7,19.5"/>
</g>
<path class="st0" d="M47.6,18.2c-0.1,0.1-0.1,0.1-0.2,0.2c-0.1,0.1-0.3,0.1-0.5,0c0-0.1-0.1-0.1-0.1-0.2c0-0.3,0-0.6,0-1
	c0-0.2,0.2-0.4,0.4-0.4c0.3-0.1,0.6,0,0.7,0.2c0.1,0.2,0.2,0.5,0.3,0.7c0,0.2,0,0.3-0.1,0.4c-0.1,0.2-0.3,0.1-0.5,0L47.6,18.2"/>
<g>
	<path class="st0" d="M26.3,7.9c0.1,0,0.3-0.1,0.4-0.1c0.7-0.4,1.3-0.9,1.6-1.7c0,0,0-0.1,0-0.1c0.1-0.2,0-0.3-0.2-0.4
		c-0.4-0.2-1-0.1-1.2,0.3C26.5,6.5,26.3,7.2,26.3,7.9 M32.1,6.7c-0.4,0.2-0.8,0.4-1.2,0.6c-0.3,0.2-0.6,0.5-0.9,0.8
		c-0.1,0.2-0.2,0.5-0.2,0.7c0,0.1,0.1,0.2,0.2,0.3c0.7,0.1,1.4-0.3,1.7-1c0.1-0.3,0.2-0.7,0.3-1.1C32.1,6.9,32.1,6.8,32.1,6.7
		 M25.5,8.9H25c-0.2,0-0.4-0.1-0.4-0.3s0.1-0.4,0.3-0.4s0.3-0.1,0.5-0.1c0-0.3,0.1-0.6,0.1-0.9c0.1-0.7,0.4-1.4,0.9-2
		c0.7-0.6,1.6-0.7,2.4-0.2c0.2,0.2,0.4,0.5,0.3,0.8c0,0.3-0.1,0.5-0.2,0.7c-0.5,1-1.4,1.8-2.4,2.1l-0.2,0.1c0,0.5,0.2,1,0.7,1.3
		c0.7,0.4,1.6,0.2,2.1-0.5c0,0,0,0,0,0c0-0.1,0-0.2,0-0.3c-0.1-0.9,0.3-1.7,1-2.2c0.5-0.4,1.1-0.7,1.7-1c0.4-0.2,0.8,0,1,0.3
		c0,0.1,0.1,0.1,0.1,0.2C33.1,7.2,33,8,32.6,8.6c-0.2,0.3-0.3,0.6-0.4,0.9c-0.3,1-0.6,2-0.9,3c-0.2,0.9-0.6,1.8-1.1,2.6
		c-0.3,0.6-0.8,1.1-1.3,1.4c-0.3,0.2-0.7,0.3-1.1,0.3c-0.4,0-0.7-0.2-0.9-0.6c-0.5-1.4-0.3-2.9,0.7-4c0.1-0.1,0.1-0.1,0.2-0.1
		c0.1-0.1,0.3-0.1,0.5,0c0.1,0.1,0.1,0.3,0,0.5c-0.1,0.1-0.1,0.2-0.2,0.3c-0.6,0.8-0.8,1.9-0.5,2.8c0.1,0.3,0.2,0.4,0.5,0.3
		c0.2,0,0.4-0.1,0.5-0.2c0.3-0.3,0.6-0.6,0.9-0.9c0.1-0.2,0.3-0.4,0.4-0.6c0.6-1.5,1.1-3,1.5-4.5c-0.3,0-0.5,0.1-0.8,0.1
		s-0.5,0-0.7,0s-0.2,0.1-0.3,0.2c-0.8,1-2.2,1.1-3.2,0.3c-0.3-0.3-0.6-0.6-0.7-1C25.6,9.2,25.5,9.1,25.5,8.9"/>
	<path class="st0" d="M21,6.9c0.7,1.3,1.2,2.7,1.5,4.1l0.2-0.3c0.1-0.2,0.3-0.2,0.5-0.1c0.2,0.1,0.3,0.3,0.2,0.4
		c0,0.3-0.3,0.6-0.6,0.7c-0.4,0.1-0.8,0-1-0.4c-0.1-0.2-0.2-0.4-0.2-0.7c-0.2-1-0.6-1.9-1-2.8l-0.2-0.4c-0.2-0.3-0.3-0.5-0.7-0.5
		c-0.2,0-0.4-0.2-0.5-0.4c0,0,0,0,0,0c0-0.2,0.2-0.4,0.5-0.4H20c1.4,0.1,2.8-0.6,3.6-1.8c0.3-0.4,0.4-1,0.1-1.5
		c-0.1-0.4-0.5-0.6-0.9-0.6c-0.4,0-0.9,0-1.3,0c-0.2,0-0.5,0.2-0.5,0.4c-0.9,1.6-1.7,3.3-2.5,5C18.3,8,18.1,8.4,18,8.8
		c-0.1,0.2-0.3,0.5-0.1,0.8c0,0.1,0,0.3-0.1,0.4c-0.2,0.4-0.4,0.8-0.6,1.1c0,0.1-0.1,0.2-0.2,0.2c-0.1,0.1-0.4,0.2-0.5,0
		c-0.1-0.1-0.1-0.2-0.1-0.3c0-0.1,0-0.3,0-0.4c0.1-0.4,0.3-0.8,0.4-1.2c0.8-1.7,1.5-3.4,2.3-5c0.2-0.4,0.4-0.8,0.6-1.2
		c0.1-0.2,0.2-0.4,0.1-0.6c-0.1-0.3,0-0.6,0.3-0.7c0.2-0.1,0.3-0.3,0.4-0.5C20.6,1.3,20.7,1,21,1.1s0.3,0.2,0.6,0.4h1
		c0.7-0.1,1.5,0.3,1.8,1c0.4,0.7,0.4,1.5,0,2.2c-0.3,0.5-0.7,0.9-1.2,1.3c-0.5,0.3-1.1,0.6-1.6,0.8C21.4,6.8,21.3,6.8,21,6.9"/>
	<path class="st0" d="M50.3,6.6c-0.5-0.2-0.8-0.1-1,0.4C49,7.7,48.9,8.4,49,9.2C50,8.7,50.5,7.7,50.3,6.6 M49.4,10
		c0.3,0.1,0.5,0.2,0.8,0.3s0.5,0.1,0.8,0.1c0.1,0,0.3,0,0.4,0.1c0.1,0.1,0.2,0.2,0.2,0.4c0,0.2-0.1,0.3-0.3,0.3c-0.1,0-0.2,0-0.2,0
		L49.9,11c-0.4-0.1-0.9-0.3-1.2-0.6c-0.1-0.1-0.4-0.2-0.6-0.2c-0.4,0-0.7,0-1.1,0c-0.6,0-1.1-0.4-1.2-1c-0.2-0.6-0.3-1.2-0.5-1.8
		l-0.1-0.4c-0.2,0.2-0.3,0.3-0.4,0.4c-0.7,0.8-1.2,1.7-1.6,2.7c0,0.1-0.1,0.2-0.2,0.4c-0.1,0.1-0.2,0.2-0.4,0.2
		c-0.2,0-0.3-0.2-0.3-0.4c0-0.1,0-0.3,0.1-0.4c0.1-0.2,0.2-0.4,0.2-0.6c0.3-0.8,0.4-1.6,0.4-2.4c0-0.3,0-0.5,0.1-0.8
		c0-0.2,0.2-0.3,0.4-0.3c0.2,0,0.3,0.2,0.3,0.4s0,0.6,0,0.9l0.3-0.3c0.2-0.3,0.5-0.5,0.8-0.8c0.5-0.4,0.9-0.2,1,0.4
		c0.2,0.8,0.3,1.5,0.5,2.2c0.1,0.6,0.3,0.6,0.8,0.7c0.2,0,0.5,0,0.8,0c0-0.3,0-0.5,0-0.7c0-0.5,0.1-0.9,0.2-1.4
		c0.1-0.3,0.2-0.5,0.3-0.8c0.4-0.7,1.1-1,1.8-0.7c0.4,0.1,0.7,0.4,0.7,0.8c0.1,1.3-0.5,2.5-1.6,3.2C49.5,9.9,49.4,9.9,49.4,10"/>
	<path class="st0" d="M55.9,9.3c-0.4,0.4-0.7,0.7-1,1c-0.5,0.5-1.2,0.6-1.8,0.4c-0.5-0.1-0.9-0.6-0.9-1.1c0-1,0.4-1.9,1-2.6
		c0.4-0.5,1.1-0.7,1.7-0.5c0.4,0.1,0.7,0.4,0.7,0.8c0,0.2,0,0.4-0.2,0.5s-0.4,0-0.5-0.2s-0.2-0.3-0.3-0.3c-0.2,0-0.4,0-0.6,0
		c-0.1,0-0.2,0.1-0.3,0.2C53.3,8,53,8.7,53,9.5c0,0.3,0.1,0.4,0.4,0.5c0.4,0.1,0.8,0,1.1-0.3c0.9-0.8,1.5-1.9,1.8-3
		c0.5-1.5,1-3.1,1.5-4.6C58,1.5,58.3,1,58.6,0.4c0-0.1,0.1-0.2,0.2-0.2C58.9,0,59,0,59.2,0c0.1,0.1,0.2,0.2,0.2,0.3
		c0,0.2,0,0.4-0.1,0.7c-0.3,1-0.7,1.9-1,2.9C57.9,5,57.4,6.1,57,7.3c-0.3,0.8-0.4,1.6-0.3,2.5c0,0.3,0.1,0.4,0.4,0.3h0.1
		c0.2-0.1,0.4,0,0.5,0.2c0,0,0,0,0,0c0.1,0.2,0,0.4-0.2,0.5c-0.5,0.3-1.1,0.1-1.4-0.3C56,10.3,56,10.2,56,10.1
		C55.9,9.8,55.9,9.6,55.9,9.3"/>
	<path class="st0" d="M37.1,7.9c-0.1-0.3-0.2-0.5-0.3-0.8s-0.2-0.3-0.4-0.3c-0.1,0-0.3,0.1-0.4,0.2c-0.9,0.6-1.4,1.6-1.5,2.7
		c0,0.4,0.1,0.5,0.5,0.4c0.1,0,0.2-0.1,0.3-0.1C36,9.4,36.6,8.8,37.1,7.9 M37.6,6.7c0-0.1,0.1-0.1,0.1-0.2c0.1-0.2,0.3-0.2,0.5-0.1
		c0.2,0.1,0.2,0.3,0.2,0.5c-0.1,0.3-0.2,0.6-0.3,0.8c-0.2,0.4-0.3,0.9-0.2,1.3c0,0.3,0.2,0.5,0.5,0.6c0.1,0,0.2,0,0.3-0.1
		c0.1-0.1,0.3-0.2,0.4-0.4c0.4-0.4,0.6-1,0.8-1.5c0.1-0.2,0.1-0.4,0.2-0.5C40.1,7,40.3,6.9,40.5,7c0.2,0.1,0.3,0.3,0.3,0.4
		c0,0.2-0.1,0.3-0.1,0.5c-0.1,0.5-0.2,1-0.4,1.5c0,0.1,0,0.2,0,0.3c0.2-0.1,0.2-0.2,0.3-0.3c0.1-0.1,0.3-0.1,0.4,0c0,0,0,0,0,0
		c0.1,0.1,0.1,0.2,0.1,0.4c-0.1,0.4-0.5,0.7-0.9,0.8c-0.4,0-0.6-0.1-0.9-0.6c-0.4,0.3-0.9,0.5-1.3,0.4c-0.5-0.1-0.9-0.4-1-0.9
		c-0.4,0.3-0.7,0.6-1,1c-0.3,0.3-0.6,0.4-1,0.4c-0.8,0.1-1.3-0.4-1.3-1.2c0.1-1.3,0.7-2.5,1.7-3.3c0.1-0.1,0.3-0.2,0.4-0.2
		C36.5,6,37.2,6.2,37.6,6.7"/>
	<path class="st0" d="M42.9,5.1c0,0.4-0.3,0.6-0.5,0.4c-0.2-0.2-0.4-0.4-0.5-0.6c-0.1-0.2,0.1-0.4,0.3-0.5c0.2,0,0.3,0,0.4,0.1
		C42.7,4.8,42.8,5,42.9,5.1"/>
</g>
</svg>
