<?xml version="1.0" encoding="utf-8"?>
<!-- Generator: Adobe Illustrator 19.2.1, SVG Export Plug-In . SVG Version: 6.00 Build 0)  -->
<svg version="1.1" id="_x35_4115eb7-651d-46e8-adbf-a987f5af5059"
	 xmlns="http://www.w3.org/2000/svg" xmlns:xlink="http://www.w3.org/1999/xlink" x="0px" y="0px" viewBox="0 0 77.3 75.2"
	 style="enable-background:new 0 0 77.3 75.2;" xml:space="preserve">
<style type="text/css">
	.st0{opacity:0.7;fill:#363740;enable-background:new    ;}
</style>
<title>story-prev</title>
<path id="_x33_85c90d9-874f-4d64-b1fc-ccbf82355b9a" class="st0" d="M1.2,36.6c1.8,2.2,5.1,2.5,7.3,0.7c0,0,0,0,0,0l0,0l24.8-20.8
	l-0.1,53.4c0.1,2.9,2.6,5.2,5.5,5c2.7-0.1,4.9-2.3,5-5l0.1-53.3l24.7,20.7c2.2,1.9,5.6,1.6,7.4-0.7c1.9-2.2,1.6-5.6-0.7-7.4L42,1.2
	c-1.9-1.6-4.8-1.6-6.7,0L1.9,29.2C-0.3,31-0.6,34.3,1.2,36.6z"/>
</svg>
