<?xml version="1.0" encoding="utf-8"?>
<!-- Generator: Adobe Illustrator 19.2.1, SVG Export Plug-In . SVG Version: 6.00 Build 0)  -->
<svg version="1.1" id="_x34_9b232a0-fdc6-4357-b231-a8ec6f745fe3"
	 xmlns="http://www.w3.org/2000/svg" xmlns:xlink="http://www.w3.org/1999/xlink" x="0px" y="0px" viewBox="0 0 77.9 76.2"
	 style="enable-background:new 0 0 77.9 76.2;" xml:space="preserve">
<style type="text/css">
	.st0{opacity:0.7;fill:#363740;enable-background:new    ;}
</style>
<title>story-next</title>
<path class="st0" d="M76.6,39.2c-1.8-2.2-5.1-2.6-7.4-0.7c0,0,0,0,0,0h-0.1l-25,21l0.1-54c0.1-2.9-2.1-5.4-5.1-5.5
	c-2.9-0.1-5.4,2.1-5.5,5.1c0,0.2,0,0.3,0,0.5l0,54L8.7,38.5c-2.3-1.9-5.6-1.6-7.5,0.7s-1.6,5.6,0.7,7.5L35.6,75c2,1.6,4.8,1.6,6.8,0
	L76,46.7c1.1-0.9,1.8-2.2,1.9-3.6C78,41.7,77.5,40.3,76.6,39.2z"/>
</svg>
