<?xml version="1.0" encoding="utf-8"?>
<!-- Generator: Adobe Illustrator 19.2.1, SVG Export Plug-In . SVG Version: 6.00 Build 0)  -->
<svg version="1.1" id="Layer_1" xmlns="http://www.w3.org/2000/svg" xmlns:xlink="http://www.w3.org/1999/xlink" x="0px" y="0px"
	 viewBox="0 0 340 340" style="enable-background:new 0 0 340 340;" xml:space="preserve">
<style type="text/css">
	.st0{fill:#D8DBE4;}
	.st1{fill:#FFFFFF;}
	.st2{fill:#5A5A5F;}
</style>
<circle class="st0" cx="170" cy="170" r="170"/>
<path class="st1" d="M207.7,250.5c-1.8-2.2-5.2-2.6-7.4-0.7c0,0,0,0-0.1,0l-25,21l0.1-53.9c0.1-2.9-2.1-5.4-5.1-5.5
	c-2.9-0.1-5.4,2.1-5.5,5.1c0,0.2,0,0.3,0,0.5l-0.1,53.9l-24.9-20.9c-2.3-1.8-5.6-1.5-7.5,0.8c-1.8,2.2-1.5,5.5,0.7,7.4l33.6,28.2
	c2,1.6,4.8,1.6,6.8,0L207,258C209.2,256.1,209.6,252.7,207.7,250.5z"/>
<path id="TAP_TO_START" class="st2" d="M129.4,134.9c0,0.6,0.5,1,1.1,1.1h5.2c0.6,0,1-0.5,1.1-1.1v-31.4h8.6c0.6,0,1.1-0.5,1.1-1.1
	v-4.6c0-0.6-0.5-1.1-1.1-1.1c0,0,0,0,0,0h-24.5c-0.6,0-1.1,0.5-1.1,1.1c0,0,0,0,0,0v4.6c0,0.6,0.5,1.1,1.1,1.1h8.6L129.4,134.9
	L129.4,134.9z M148.7,136h4.9c0.7,0,1.4-0.4,1.6-1.1l2.7-6h16.8l2.7,6c0.2,0.7,0.9,1.2,1.6,1.1h4.9c0.5,0,1-0.4,1.1-0.9
	c0-0.2,0-0.4-0.1-0.6l-17.3-37.7c-0.2-0.4-0.5-0.6-1-0.6h-0.6c-0.4,0-0.8,0.2-1,0.6l-17.4,37.7c-0.3,0.5-0.1,1.1,0.4,1.3
	C148.4,136,148.6,136,148.7,136L148.7,136z M160.7,122.6l5.5-12.3h0.2l5.6,12.3H160.7L160.7,122.6z M192.9,134.9
	c0,0.6,0.5,1.1,1.1,1.1c0,0,0,0,0,0h5.2c0.6,0,1-0.5,1.1-1.1v-13.2h7c6.9,0,12.5-5.6,12.5-12.5c0-6.9-5.6-12.5-12.5-12.5h-13.2
	c-0.6,0-1.1,0.5-1.1,1.1c0,0,0,0,0,0L192.9,134.9L192.9,134.9z M200.2,114.9v-11.3h6.5c3.1-0.1,5.7,2.3,5.8,5.4c0,0,0,0,0,0
	c0,3.2-2.5,5.8-5.7,5.8c0,0,0,0,0,0L200.2,114.9L200.2,114.9z M87.6,181.3c0,0.4,0.3,0.7,0.7,0.7h3.5c0.4,0,0.7-0.3,0.7-0.7v-21.3
	h5.8c0.4,0,0.7-0.3,0.7-0.7c0,0,0,0,0,0v-3.1c0-0.4-0.3-0.7-0.7-0.7H81.8c-0.4,0-0.7,0.3-0.7,0.7v3.1c0,0.4,0.3,0.7,0.7,0.7
	c0,0,0,0,0,0h5.8L87.6,181.3L87.6,181.3z M102.9,168.7c0,7.6,6.2,13.7,13.7,13.6c7.6,0,13.7-6.2,13.6-13.7c0-7.5-6.2-13.6-13.7-13.6
	c-7.5-0.1-13.6,6-13.7,13.5C102.9,168.6,102.9,168.6,102.9,168.7L102.9,168.7z M107.8,168.7c0-4.8,3.9-8.7,8.7-8.8
	c4.8,0,8.7,3.9,8.8,8.7c0,4.8-3.9,8.7-8.7,8.8c0,0,0,0,0,0C111.7,177.4,107.9,173.5,107.8,168.7L107.8,168.7z M146,179.4
	c2.3,2,5.3,3.1,8.4,3c5.4,0,8.8-3.6,8.8-7.5c0-4.9-4.3-7.1-8-8.6c-3.1-1.2-4.5-2.5-4.5-4.2c0-1.2,1.2-2.7,3.3-2.7
	c2.1,0,5,1.9,5.3,2.1c0.5,0.2,1.1,0,1.3-0.5l1.4-2.2c0.3-0.4,0.2-1-0.2-1.2c-2.2-1.6-4.9-2.5-7.6-2.6c-6,0-8.6,3.9-8.6,7.3
	c0,4.5,3.6,6.8,7.2,8.2c3.2,1.3,4.8,2.6,4.8,4.6c0,1.6-1.5,2.9-3.5,2.9c-2.5,0-5.6-2.2-5.7-2.3c-0.4-0.3-0.9-0.2-1.2,0.2
	c0,0,0,0.1-0.1,0.1l-1.4,2.4c-0.3,0.3-0.2,0.8,0.1,1.1C146,179.3,146,179.4,146,179.4L146,179.4z M173.5,181.3
	c0,0.4,0.3,0.7,0.7,0.7h3.5c0.4,0,0.7-0.3,0.7-0.7v-21.3h5.8c0.4,0,0.7-0.3,0.7-0.7c0,0,0,0,0,0v-3.1c0-0.4-0.3-0.7-0.7-0.7h-16.6
	c-0.4,0-0.7,0.3-0.7,0.7v3.1c0,0.4,0.3,0.7,0.7,0.7c0,0,0,0,0,0h5.8L173.5,181.3L173.5,181.3z M186.6,182h3.3c0.5,0,0.9-0.3,1.1-0.8
	l1.9-4.1h11.4l1.9,4.1c0.1,0.5,0.6,0.8,1.1,0.8h3.3c0.4,0,0.7-0.2,0.7-0.6c0-0.1,0-0.3-0.1-0.4l-11.7-25.6c-0.1-0.3-0.4-0.4-0.6-0.4
	h-0.4c-0.3,0-0.5,0.2-0.6,0.4L186,181c-0.2,0.3-0.1,0.7,0.3,0.9C186.4,182,186.5,182,186.6,182L186.6,182z M194.8,172.9l3.7-8.4h0.1
	l3.8,8.4H194.8L194.8,172.9z M216.6,181.3c0,0.4,0.3,0.7,0.7,0.7c0,0,0,0,0,0h3.5c0.4,0,0.7-0.3,0.7-0.7v-9.7h4.2l5.1,10.1
	c0.1,0.2,0.4,0.4,0.6,0.3h4c0.4,0,0.7-0.3,0.8-0.7c0-0.2,0-0.3-0.1-0.4l-5.2-9.7c3.3-1.1,5.5-4.2,5.6-7.7c0-4.5-3.7-8.2-8.3-8.2
	h-10.9c-0.4,0-0.7,0.3-0.7,0.7L216.6,181.3L216.6,181.3z M221.5,167.5v-7.6h6.2c2,0,3.7,1.6,3.8,3.7c0,2.1-1.7,3.8-3.8,3.9H221.5z
	 M247.4,181.3c0,0.4,0.3,0.7,0.7,0.7h3.5c0.4,0,0.7-0.3,0.7-0.7v-21.3h5.8c0.4,0,0.7-0.3,0.7-0.7c0,0,0,0,0,0v-3.1
	c0-0.4-0.3-0.7-0.7-0.7h-16.6c-0.4,0-0.7,0.3-0.7,0.7v3.1c0,0.4,0.3,0.7,0.7,0.7c0,0,0,0,0,0h5.8L247.4,181.3L247.4,181.3z"/>
</svg>
