<svg id="Layer_1" data-name="Layer 1" xmlns="http://www.w3.org/2000/svg" xmlns:xlink="http://www.w3.org/1999/xlink" viewBox="0 0 54.24 10.42"><defs><style>.cls-1{fill:none;}.cls-2{clip-path:url(#clip-path);}.cls-3{fill:#003a70;}</style><clipPath id="clip-path" transform="translate(0 0)"><rect class="cls-1" width="54.24" height="10.42"/></clipPath></defs><title>the_accident</title><g class="cls-2"><path class="cls-3" d="M12,7.29a1.45,1.45,0,0,0,.85-1.4.55.55,0,0,0-.09-.39c-.15-.13-.33,0-.47.09a1.69,1.69,0,0,0-.78,1.34l.49.36M10.45,9.62l-.72.47a2,2,0,0,1-1.29.29,1,1,0,0,1-1-1.06,15.1,15.1,0,0,1,.14-1.81,6.75,6.75,0,0,0,0-1.69.38.38,0,0,0-.51.08,5.23,5.23,0,0,0-.55.53C6,7,5.52,7.55,5,8.13a5.94,5.94,0,0,0-.49.82c0,.06,0,.12-.07.18a.39.39,0,0,1-.74-.2,1.76,1.76,0,0,1,.12-.51L6.25,2.09c0-.13.09-.26.14-.43H4.72c-.2,0-.27.14-.33.3-.23.6-.47,1.19-.7,1.79a33.22,33.22,0,0,1-1.81,4c-.36.67-.6,1.41-.91,2.11a1.68,1.68,0,0,1-.38.52.33.33,0,0,1-.44,0,.35.35,0,0,1-.08-.44,25.28,25.28,0,0,1,1.39-3,37.43,37.43,0,0,0,2.12-5,.63.63,0,0,0,0-.13,1.3,1.3,0,0,0-.3-.06c-.88,0-1.76,0-2.64.08-.42,0-.65-.1-.66-.37S.18,1,.59,1L3.46.88A.73.73,0,0,0,4.14.63a.35.35,0,0,1,.61,0,.54.54,0,0,0,.54.21L6.73.82a3,3,0,0,1,.48,0c.41.05.55.38.28.68a3.39,3.39,0,0,0-.62,1.13L5.66,5.81a1,1,0,0,0-.08.48c.11-.12.22-.25.35-.37s.5-.5.77-.72A1.38,1.38,0,0,1,7.22,5c.64-.16,1.07.09,1.13.74a14,14,0,0,1,0,1.91c0,.51-.11,1-.13,1.53,0,.36.1.46.46.44a1.54,1.54,0,0,0,.6-.14A5,5,0,0,0,9.94,9a1.32,1.32,0,0,0,.6-1.12,7.6,7.6,0,0,1,.23-1.47A2.42,2.42,0,0,1,12,4.83a1.09,1.09,0,0,1,1.14,0,.87.87,0,0,1,.46.79,2.51,2.51,0,0,1-1.87,2.68.73.73,0,0,0-.41,1,.41.41,0,0,0,.31.18,2,2,0,0,0,.74-.16,4.72,4.72,0,0,0,1.9-1.58,1.32,1.32,0,0,1,.21-.26.36.36,0,0,1,.59.36,1.38,1.38,0,0,1-.17.34,5.53,5.53,0,0,1-2.49,2,1.45,1.45,0,0,1-1.13.06,5.36,5.36,0,0,1-.84-.55" transform="translate(0 0)"/><path class="cls-3" d="M37,6a.52.52,0,0,0-.61.13,3.25,3.25,0,0,0-1,2.74.32.32,0,0,0,.39.32.75.75,0,0,0,.44-.15,5.41,5.41,0,0,0,.85-1,3.33,3.33,0,0,0,.22-1C37,6.78,37,6.4,37,6m.76-.49c.07-.2.13-.34.17-.49.36-1.13.7-2.26,1.07-3.38a11.88,11.88,0,0,1,.49-1.2A1,1,0,0,1,39.78.1a.42.42,0,0,1,.68.3.88.88,0,0,1,0,.29,2.09,2.09,0,0,1-.11.41,41.36,41.36,0,0,0-1.41,4.57c-.23.78-.56,1.52-.86,2.28-.13.33-.24.62.12.89a.28.28,0,0,1,.06.43.56.56,0,0,1-.41.16,2.14,2.14,0,0,1-.55-.24l-.51.46A1.42,1.42,0,0,1,35.6,10a1,1,0,0,1-1-.95,4.1,4.1,0,0,1,1.13-3.38,1.44,1.44,0,0,1,2-.13" transform="translate(0 0)"/><path class="cls-3" d="M44.67,7.22l.48-.58c.26-.31.51-.62.77-.92a1.9,1.9,0,0,1,.35-.33c.36-.24.74-.09.78.33a3.61,3.61,0,0,1-.1,1,7.89,7.89,0,0,1-.31.86,3.33,3.33,0,0,0-.17,1.45.63.63,0,0,0,.74,0,2.84,2.84,0,0,0,1-.91,3,3,0,0,1,.33-.41A.33.33,0,0,1,49,7.66a.36.36,0,0,1,.15.42.42.42,0,0,1,0,.13,3.68,3.68,0,0,1-1.7,1.63,1.67,1.67,0,0,1-.65.12.91.91,0,0,1-1-1.05,13,13,0,0,1,.22-1.51,5,5,0,0,1,.14-.5,1.93,1.93,0,0,0-.26.21l-1.68,2.1a2,2,0,0,1-.38.43.52.52,0,0,1-.43.07.61.61,0,0,1-.23-.38.71.71,0,0,1,0-.37c.19-.59.38-1.19.61-1.77s.58-1.32.87-2l.06-.13a.43.43,0,0,1,.45-.29.66.66,0,0,1,.47.49.4.4,0,0,1-.19.45,1.18,1.18,0,0,0-.33.38c-.17.34-.31.7-.47,1l.09.08" transform="translate(0 0)"/><path class="cls-3" d="M52.3,3.15c.41.12.78.22,1.14.34a2.53,2.53,0,0,1,.56.26.39.39,0,0,1,.19.53c-.1.18-.28.22-.55.13L52.28,4a1.43,1.43,0,0,0-.3,0,2.39,2.39,0,0,0-.16.29c-.39,1.05-.78,2.1-1.14,3.16a8.85,8.85,0,0,0-.25,1.26,1.62,1.62,0,0,0,0,.34c.18-.23.31-.36.4-.51s.28-.5.44-.74a.39.39,0,0,1,.53-.19.39.39,0,0,1,.13.55A4.41,4.41,0,0,1,51,9.54a.83.83,0,0,1-.93.21A.76.76,0,0,1,49.65,9a4.66,4.66,0,0,1,.26-1.74l1-2.75c.06-.16.11-.33.19-.57l-.57.1c-.28.06-.43,0-.52-.2a.39.39,0,0,1,.24-.55A2.07,2.07,0,0,1,51,3.15a.54.54,0,0,0,.61-.4A6.53,6.53,0,0,1,52,2a1.23,1.23,0,0,0,.19-.87.6.6,0,0,1,0-.28.44.44,0,0,1,.46-.35A.43.43,0,0,1,53,.81a1.3,1.3,0,0,1-.1.89c-.18.39-.36.78-.55,1.17,0,.07-.05.15-.1.27" transform="translate(0 0)"/><path class="cls-3" d="M29.31,5.43a1.14,1.14,0,0,0-.29.19,3.76,3.76,0,0,0-.92,2.22.72.72,0,0,0,.64.86,1.72,1.72,0,0,0,1.55-.27,5.74,5.74,0,0,0,1.76-2,2.3,2.3,0,0,1,.42-.58.41.41,0,0,1,.66.47c-.07.16-.19.3-.27.45s-.31.58-.46.87c.19.14.37.21.45.34.23.36-.26,1.16-.69,1.16a.51.51,0,0,1-.5-.31,3.47,3.47,0,0,1-.13-.39l-.82.63a2.43,2.43,0,0,1-2.37.3,1.38,1.38,0,0,1-1-1.45A4.48,4.48,0,0,1,28.52,5a1.11,1.11,0,0,1,1.19-.31.78.78,0,0,1,.45,1,.34.34,0,0,1-.56.11,2.89,2.89,0,0,1-.28-.41" transform="translate(0 0)"/><path class="cls-3" d="M21,5.46a.6.6,0,0,0-.67.06,3.26,3.26,0,0,0-1.09,2.41c0,.11.06.28.14.31a.38.38,0,0,0,.34-.09c.44-.46.86-.94,1.27-1.42a.47.47,0,0,0,.11-.3c0-.31-.06-.62-.1-1m.71-.63a1.3,1.3,0,0,1,.19-.18.37.37,0,0,1,.61.31,1.19,1.19,0,0,1-.07.47c-.15.44-.33.87-.5,1.29a4.26,4.26,0,0,0-.41,1.61.55.55,0,0,0,.21.5c.23.18.26.37.14.53s-.31.2-.56.09a.81.81,0,0,1-.56-.71c0-.11,0-.22,0-.35-.25,0-.35.21-.49.34a1.12,1.12,0,0,1-1,.33.94.94,0,0,1-.84-.9,2.91,2.91,0,0,1,.23-1.55,13.93,13.93,0,0,1,.74-1.28,1.5,1.5,0,0,1,1.79-.66l.49.14" transform="translate(0 0)"/><path class="cls-3" d="M42.61,5.79c-.4-.18-.47-.19-.6-.09a2.16,2.16,0,0,0-.57,1.2c.66-.09.85-.64,1.17-1.1M41,7.66A2.65,2.65,0,0,0,40.9,9,.62.62,0,0,0,42,9.35c.16-.15.31-.23.51-.12a.43.43,0,0,1,.13.56.8.8,0,0,1-.56.49,1.5,1.5,0,0,1-1.94-1.36c0-.3,0-.61,0-.91a1,1,0,0,0-.05-.65.32.32,0,0,1,.18-.47c.23-.08.3-.27.4-.45a9.93,9.93,0,0,1,.65-1.12,1.29,1.29,0,0,1,2-.05.62.62,0,0,1,.11.67,3.23,3.23,0,0,1-1.14,1.5,1.77,1.77,0,0,1-.67.2,3.07,3.07,0,0,1-.54,0" transform="translate(0 0)"/><path class="cls-3" d="M25.43,5.66a1.82,1.82,0,0,0-.55.16A2.6,2.6,0,0,0,23.63,8c0,.43.13.58.56.62a2.23,2.23,0,0,0,2.2-.87c0-.06.1-.15.17-.16a.59.59,0,0,1,.39,0,.44.44,0,0,1,.16.36.92.92,0,0,1-.2.42,2.67,2.67,0,0,1-1.37.93,3.47,3.47,0,0,1-1.57.1,1.2,1.2,0,0,1-1.12-1.32,3.41,3.41,0,0,1,1.63-2.93,1.52,1.52,0,0,1,1.24-.2.8.8,0,0,1,.46,1.26.52.52,0,0,1-.63.21c-.23-.13-.22-.33-.13-.54a.77.77,0,0,0,0-.21" transform="translate(0 0)"/><path class="cls-3" d="M34.25,3.17a.7.7,0,0,1,.63.6.36.36,0,0,1-.35.38.79.79,0,0,1-.67-.59.38.38,0,0,1,.38-.4" transform="translate(0 0)"/></g></svg>