<?xml version="1.0" encoding="utf-8"?>
<!-- Generator: Adobe Illustrator 19.2.1, SVG Export Plug-In . SVG Version: 6.00 Build 0)  -->
<svg version="1.1" id="Layer_1" xmlns="http://www.w3.org/2000/svg" xmlns:xlink="http://www.w3.org/1999/xlink" x="0px" y="0px"
	 viewBox="0 0 64.2 39.7" style="enable-background:new 0 0 64.2 39.7;" xml:space="preserve">
<style type="text/css">
	.st0{fill:#003A70;}
</style>
<title>vocational</title>
<g>
	<path class="st0" d="M46.2,8.2c0.5,0,1-0.3,1.2-0.7c0.5-0.6,0.8-1.4,0.8-2.2C47,5.7,46.1,6.9,46.2,8.2 M51.3,8.2
		c-0.4,0.3-0.8,0.5-1.1,0.7c-0.3,0.1-0.6,0.2-0.9,0.3c-0.5,0.1-1.1-0.2-1.2-0.8L48,8.2c-0.3,0.2-0.5,0.4-0.8,0.6
		C46.8,9,46.4,9.1,46.1,9c-0.4,0-0.7-0.4-0.7-0.8c-0.1-0.5,0-1,0.2-1.4c0.4-0.8,1-1.5,1.8-2c0.3-0.2,0.6-0.3,1-0.2
		c0.2,0,0.4,0.1,0.5,0.3C49,5.3,49.1,5.7,49,6.2c-0.2,0.5-0.3,1.1-0.2,1.6c0,0.5,0.3,0.7,0.8,0.5c0.7-0.3,1.3-0.7,1.8-1.3
		c0.1-0.2,0.2-0.5,0.3-0.7C52,4.6,52.5,2.8,53,1.2c0.1-0.2,0.2-0.5,0.3-0.7c0.1-0.1,0.1-0.2,0.2-0.3C53.7,0,53.9,0,54.1,0
		c0.2,0.1,0.3,0.3,0.3,0.5c0,0.2,0,0.3-0.1,0.5c-0.4,1.5-0.9,3.1-1.3,4.7c-0.1,0.4-0.3,0.8-0.5,1.2c-0.2,0.3-0.3,0.6-0.3,0.9
		c0,0.5,0,1,0,1.5c0,0.4,0.2,0.6,0.6,0.7c0.2,0,0.3,0.1,0.4,0.3c0,0,0,0,0,0c0,0.2-0.2,0.4-0.4,0.4c-0.4,0.1-0.8-0.1-1-0.4
		c-0.3-0.4-0.4-0.8-0.4-1.3C51.4,8.7,51.4,8.5,51.3,8.2"/>
	<path class="st0" d="M24.4,9.1c0.2,0,0.4-0.1,0.5-0.2c0.6-0.4,1-1,1.1-1.7c0-0.1,0-0.2,0-0.3c-0.2-0.1-0.5-0.1-0.6-0.2
		C25,6.5,24.8,6.6,24.6,7C24.3,7.7,24.3,8.4,24.4,9.1 M23.5,8.4c0-0.4,0.1-0.7,0.2-1c0.1-0.3,0.2-0.5,0.4-0.8c0.3-0.6,1-0.9,1.6-0.7
		c0,0,0.1,0,0.1,0.1c0.2,0.1,0.4,0.2,0.6,0.3l0.2-0.2c0.1-0.2,0.3-0.2,0.5-0.1c0.2,0.1,0.3,0.3,0.2,0.5c0,0.3-0.1,0.5-0.2,0.8
		S26.8,8,26.8,8.3c-0.1,0.3,0.1,0.5,0.3,0.6c0.3,0.2,0.6,0.1,0.9-0.1c0.1-0.1,0.3-0.3,0.4-0.4c0.2-0.3,0.4-0.6,0.7-0.8
		c0.1-0.1,0.2-0.2,0.3-0.3c0.1-0.1,0.3-0.1,0.4,0C30,7.5,30,7.7,29.9,7.9c0,0.1-0.1,0.2-0.2,0.2l-0.9,1.1c-0.6,0.7-1.6,0.8-2.3,0.3
		C26.3,9.4,26.1,9.2,26,9c-0.1,0.1-0.2,0.3-0.4,0.4c-0.2,0.2-0.5,0.4-0.8,0.5c-0.5,0.2-0.9-0.1-1.3-0.6l-0.3,0.4
		c-0.4,0.5-1.1,0.8-1.8,0.6c-0.7-0.1-1.2-0.6-1.2-1.3c-0.1-1.1,0-2.1,0.5-3.1c0.2-0.6,0.8-1,1.5-0.9c0.5,0.1,0.8,0.5,0.9,1
		c0,0.1-0.1,0.2-0.2,0.3c-0.1,0.1-0.3,0.1-0.4,0c-0.1-0.1-0.2-0.2-0.3-0.3c-0.2-0.3-0.4-0.3-0.7-0.1c-0.1,0.1-0.2,0.3-0.3,0.4
		C21,7,20.9,7.8,20.9,8.6c0,0.4,0.3,0.8,0.7,0.8c0,0,0.1,0,0.1,0c0.4,0,0.7-0.2,0.9-0.5C22.9,8.6,23.2,8.4,23.5,8.4"/>
	<path class="st0" d="M11,9.4c0.1-0.1,0.2-0.3,0.3-0.4c0.9-1.5,1.7-3.1,2.5-4.6c0.5-0.9,1.1-1.8,1.6-2.7c0.2-0.3,0.5-0.6,0.7-0.8
		c0.1-0.1,0.2-0.1,0.3-0.2c0.1,0,0.3,0,0.4,0.1c0,0.1,0,0.3,0,0.4c0,0.1-0.1,0.1-0.2,0.2c-0.3,0.3-0.6,0.6-0.8,0.9
		c-0.9,1.3-1.7,2.7-2.4,4.2c-0.6,1.1-1.2,2.1-1.8,3.2c-0.1,0.2-0.3,0.4-0.5,0.6c-0.3,0.3-0.7,0.3-0.9,0c-0.1-0.1-0.2-0.3-0.2-0.4
		c0-0.2,0-0.3,0-0.5C10,7,10,4.6,10,2.2c0-0.3-0.1-0.5-0.1-0.8c-0.1-0.3,0-0.6,0.3-0.6s0.5,0.1,0.5,0.4c0,0.3,0.1,0.5,0.1,0.8
		c0,2.3,0.1,4.6,0.1,6.8c0,0.1,0,0.3,0,0.5L11,9.4"/>
	<path class="st0" d="M31.9,4.9c0.5,0,1.1-0.1,1.6-0.2c0.3-0.1,0.5-0.2,0.8-0.3c0.5-0.2,0.9,0,0.9,0.6c0,0.4-0.1,0.7-0.1,1.1
		c-0.2,0.6-0.4,1.2-0.6,1.8c-0.1,0.2-0.1,0.5-0.1,0.7c0,0.3-0.2,0.5-0.5,0.5c-0.3,0-0.4-0.2-0.4-0.5c0,0,0,0,0,0
		c0-0.2,0.1-0.4,0.2-0.6c0.2-0.7,0.5-1.3,0.7-2c0.1-0.2,0.1-0.5,0.1-0.7L34,5.3c-0.7,0.1-1.3,0.3-2,0.4c-0.2,0-0.4,0.1-0.4,0.3
		c-0.2,1-0.4,2-0.6,3c-0.1,0.2,0,0.4,0.1,0.6c0.1,0.2,0.1,0.6-0.1,0.8c-0.1,0.2-0.4,0.2-0.6,0.1c-0.1-0.1-0.1-0.1-0.2-0.2
		c0-0.1-0.1-0.3,0-0.4c0.1-0.6,0.1-1.3,0.2-1.9s0.3-1.2,0.4-1.8c0-0.1,0-0.2,0-0.4h-1.1c-0.2,0-0.3,0-0.5-0.1
		c-0.1-0.1-0.2-0.2-0.3-0.3c0-0.2,0-0.3,0.2-0.4c0,0,0,0,0,0c0.2-0.1,0.4-0.1,0.6-0.1c0.3,0,0.7,0,1,0s0.4,0,0.5-0.4
		c0.2-1,0.4-1.9,0.6-2.9c0-0.2,0.1-0.4,0.1-0.6c0-0.2,0.2-0.4,0.4-0.4c0.2,0,0.4,0.1,0.5,0.3c0.1,0.2,0.2,0.5,0,0.6
		c-0.2,0.2-0.4,0.6-0.4,0.9C32.2,3.2,32.1,4,31.9,4.9"/>
	<path class="st0" d="M42.4,5.5c-0.6,0.4-1,1-1.3,1.6c-0.2,0.3-0.3,0.7-0.4,1s-0.3,0.8-0.5,1.1c-0.1,0.1-0.2,0.3-0.3,0.4
		c-0.1,0.1-0.3,0.1-0.4,0.1c-0.2-0.1-0.3-0.2-0.2-0.4c0-0.2,0.1-0.3,0.1-0.4c0.2-0.4,0.4-0.7,0.6-1.1c0.3-0.5,0.5-1.1,0.4-1.7
		c0-0.1,0-0.3,0-0.4c0-0.2,0.2-0.4,0.4-0.4c0.2,0,0.3,0.1,0.4,0.3c0,0.1,0,0.1,0.1,0.2c0.2-0.2,0.3-0.3,0.4-0.4
		c0.2-0.2,0.4-0.3,0.6-0.4c0.3-0.2,0.7-0.2,0.9,0.1c0,0.1,0.1,0.1,0.1,0.2c0.2,0.4,0.2,0.8,0.3,1.2c0,0.7,0,1.3,0,2
		c0,0.5,0,0.5,0.5,0.7c0.3,0.1,0.5,0.2,0.8,0.2c0.3,0.1,0.4,0.2,0.4,0.4c0,0.2-0.2,0.4-0.4,0.4c0,0,0,0,0,0c-0.6,0-1.3-0.2-1.8-0.6
		c-0.2-0.2-0.3-0.5-0.2-0.8c0-0.6,0-1.2,0-1.8C42.6,6.4,42.5,5.9,42.4,5.5"/>
	<path class="st0" d="M38,5.7c-0.2-0.1-0.4-0.1-0.5,0.1c0,0,0,0.1,0,0.1c-0.2,0.5-0.5,1.1-0.7,1.6c-0.1,0.2-0.1,0.4-0.1,0.6
		c0,0.1,0.1,0.3,0.1,0.3c0.1,0,0.3,0,0.4-0.1c0.1-0.1,0.2-0.2,0.3-0.4C38,7.3,38.1,6.5,38,5.7 M38.8,5.9c0,0.7-0.1,1.4-0.3,2
		c-0.2,0.4-0.4,0.7-0.6,1c-0.3,0.3-0.8,0.5-1.2,0.3c-0.3-0.1-0.6-0.4-0.6-0.7c0-0.3,0-0.7,0-1c0.2-0.8,0.5-1.5,0.8-2.1
		c0.1-0.1,0.1-0.1,0.2-0.2c0.4-0.2,0.7-0.5,0.9-0.9c0.1-0.2,0.5-0.2,0.6,0.1c0.1,0.2,0.2,0.4,0.2,0.6c0,0.1,0,0.1,0,0.2
		C38.8,5.4,38.8,5.6,38.8,5.9"/>
	<path class="st0" d="M17.3,5.8c-0.1,0-0.1,0-0.2,0c-0.5,0.4-0.8,1-1,1.6c0,0.3,0,0.5,0,0.8c0,0.3,0.3,0.5,0.5,0.5
		c0.3,0,0.4-0.2,0.4-0.4C17.2,7.5,17.3,6.7,17.3,5.8 M15.2,7.9c0.1-0.4,0.1-0.7,0.3-1.1c0.3-0.7,0.7-1.3,1.2-1.8
		c0.2-0.3,0.6-0.4,0.9-0.3c0.3,0,0.6,0.3,0.6,0.6c0,0.2-0.1,0.3-0.2,0.5C18.1,5.9,18,6,18,6.2c0,0.6,0,1.2-0.1,1.9
		c-0.1,0.3-0.2,0.6-0.3,0.9c-0.2,0.3-0.5,0.5-0.9,0.5C15.9,9.4,15.2,8.7,15.2,7.9C15.3,7.9,15.3,7.9,15.2,7.9"/>
	<path class="st0" d="M35.8,3.6c-0.1,0-0.2,0-0.4-0.1c-0.2,0-0.3-0.3-0.3-0.5c0-0.2,0.2-0.3,0.4-0.3c0.2,0,0.3,0,0.5,0
		c0.2,0,0.4,0.3,0.4,0.5c0,0,0,0,0,0C36.4,3.4,36.2,3.6,35.8,3.6"/>
</g>
<g>
	<path class="st0" d="M42.6,17.2c-0.3,0.4-0.3,0.4-0.7,0.4c-0.1,0-0.3,0.1-0.4,0.1c-0.5,0.5-0.8,1.2-1,1.9c0,0.2-0.1,0.4-0.1,0.6
		c0.2-0.1,0.4-0.1,0.6-0.2c1-0.5,1.7-1.4,2-2.5L42.6,17.2 M46.9,19.7c-0.1,0.1-0.2,0.2-0.3,0.4c-0.4,0.5-0.9,0.9-1.5,1.2
		c-0.5,0.3-1.1,0.4-1.6,0.3c-0.6,0-1.2-0.5-1.2-1.2c0-0.1,0-0.2-0.1-0.3l-0.8,0.6c-0.3,0.2-0.6,0.3-1,0.3c-0.4,0-0.7-0.3-0.7-0.7
		c0,0,0,0,0,0c0-0.6,0.1-1.2,0.5-1.7c0.2-0.4,0.4-0.7,0.6-1.1c-0.1,0-0.3-0.1-0.5-0.1h-1.9c-0.2,0-0.4,0.1-0.5,0.4
		c-0.4,1-0.9,2-1.3,3c-0.1,0.2-0.2,0.3-0.3,0.5c-0.1,0.1-0.3,0.2-0.5,0.2c-0.2,0-0.3-0.1-0.4-0.2c-0.1-0.1,0-0.3,0.1-0.4
		c0.2-0.2,0.3-0.4,0.4-0.6c0.4-0.9,0.8-1.7,1.1-2.6c-0.3,0-0.6,0-0.9,0.1c-0.3,0-0.5,0.2-0.7,0.5c0,0.1-0.2,0.2-0.3,0.2c0,0,0,0,0,0
		c-0.1-0.1-0.2-0.2-0.3-0.4c-0.1-0.3,0.1-0.6,0.4-0.7c0.4-0.2,0.9-0.4,1.4-0.5c0.5,0,1-0.4,1.1-0.9c0.4-1.3,0.8-2.5,1.1-3.9
		c0.1-0.4,0.3-0.6,0.6-0.5c0.2,0,0.4,0.2,0.4,0.5c0,0.1,0,0.1-0.1,0.2c-0.1,0.2-0.2,0.5-0.3,0.7c-0.3,1.1-0.7,2.1-1,3.2l-0.2,0.5
		h0.4c0.8,0,1.6,0.1,2.4,0.1c0.2,0,0.4,0,0.6-0.1c0.6-0.3,1.3-0.1,1.7,0.4c0,0,0,0.1,0.1,0.1c0,0.1,0,0.2,0,0.3c0,0.1,0,0.2,0,0.2
		c0.3,0.5,0.1,0.9-0.2,1.3c-0.2,0.3-0.3,0.7-0.3,1.1c0,0.7,0.2,0.9,0.9,0.9c0.3,0,0.5-0.1,0.8-0.2c0.5-0.3,1-0.7,1.4-1.1
		c0.2-0.2,0.4-0.5,0.6-0.7c0.2-0.2,0.4-0.3,0.6-0.5l0.1,0.1l0.3-1.1c-0.4,0.1-0.6,0.2-0.7,0.5c0,0.2-0.2,0.3-0.4,0.3c0,0,0,0,0,0
		c-0.2-0.1-0.3-0.3-0.3-0.5c0-0.3,0.2-0.6,0.5-0.7c0.3-0.2,0.6-0.3,0.9-0.4c0.2-0.1,0.4-0.2,0.5-0.5c0.4-1.4,0.9-2.8,1.3-4.2
		c0-0.1,0.1-0.2,0.1-0.3c0.1-0.2,0.3-0.3,0.4-0.2c0.2,0,0.3,0.2,0.3,0.4c0,0.1,0,0.2,0,0.3c-0.2,0.8-0.4,1.6-0.6,2.4
		c0,0.1-0.1,0.3-0.2,0.4c-0.4,0.2-0.4,0.6-0.5,0.9c0,0.1-0.1,0.3-0.1,0.5h0.8c0.6,0,1.3,0.1,1.9,0.2c0.3,0.1,0.6,0.1,0.9,0.1
		c0.7,0,0.8,0.4,0.8,0.9c0,0.2-0.1,0.4-0.2,0.6c-0.4,0.9-0.7,1.7-1.1,2.6c-0.1,0.3-0.2,0.7-0.3,1c-0.1,0.3-0.2,0.4-0.5,0.4
		c-0.2,0-0.4-0.2-0.4-0.5c0,0,0,0,0-0.1c0.1-0.3,0.1-0.6,0.3-0.9c0.4-0.9,0.8-1.9,1.2-2.8c0.1-0.1,0.1-0.3,0.2-0.4l-0.3-0.1
		c-0.4-0.1-0.7-0.1-1.1-0.2c-0.7-0.2-1.5-0.2-2.2-0.1c-0.2,0-0.3,0.2-0.3,0.4c-0.2,0.8-0.4,1.5-0.6,2.3c-0.1,0.5-0.2,1-0.4,1.4
		c-0.1,0.3-0.4,0.6-0.8,0.5c0,0-0.1,0-0.1,0c-0.2-0.1-0.4-0.1-0.4-0.4s0.1-0.3,0.3-0.4c0.1,0,0.1,0,0.2-0.1l0.2-0.9L46.9,19.7"/>
	<path class="st0" d="M6.7,17.1C5.9,17,5.1,17.5,5,18.3c0,0.1,0,0.2,0,0.4C5.8,18.5,6.5,17.9,6.7,17.1 M11.7,16.8
		c-0.1,0.1-0.3,0.2-0.4,0.4c-0.9,1-1.7,2.1-2.4,3.4C8.8,20.8,8.7,21,8.3,21c-0.1,0-0.2,0.1-0.3,0.2c-0.2,0.2-0.5,0.4-0.7,0.6
		c-0.9,0.7-2.1,0.6-2.8-0.3C4.2,21.2,4,20.8,4,20.3c0-0.1,0-0.3,0-0.4c0-0.2,0-0.4-0.2-0.5c-0.2-0.2-0.2-0.4,0-0.6s0.3-0.7,0.4-1
		c0-0.1,0-0.2-0.1-0.2C4,17.3,3.7,17,3.5,16.8c-0.1,0.1-0.2,0.2-0.3,0.3c-0.5,0.7-1,1.3-1.5,2c-0.4,0.7-0.7,1.4-0.8,2.2
		c0,0.2-0.1,0.4-0.2,0.5C0.7,22,0.5,22,0.3,22c-0.1-0.1-0.2-0.2-0.3-0.3c0-0.1,0-0.2,0-0.3c0-0.9,0.1-1.8,0.4-2.6
		c0.2-0.5,0.3-1,0.5-1.5c0-0.1,0.1-0.2,0.1-0.3c0.1-0.2,0.3-0.2,0.5-0.1c0,0,0.1,0.1,0.1,0.1c0.1,0.2,0.2,0.3,0.3,0.5l0.8-0.9
		c0.6-0.7,0.9-0.8,1.6-0.1L4.8,17c0.1,0,0.1,0,0.1-0.1c0.5-0.5,1.3-0.7,2-0.5c0.4,0,0.6,0.3,0.6,0.7c0,0.1,0,0.1,0,0.2
		c0,0.1-0.1,0.2-0.1,0.4c-0.3,0.7-0.8,1.2-1.4,1.6c-0.4,0.2-0.7,0.3-1.1,0.4c0,0.3,0,0.5,0.1,0.8c0.1,0.7,0.7,1.1,1.4,1.1
		c0.2,0,0.4-0.1,0.5-0.2c0.4-0.2,0.7-0.6,1-0.9c0.1-0.2,0.3-0.4,0.5-0.6c0.1-0.1,0.1-0.2,0.1-0.2c0.7-1.8,1.4-3.5,2-5.3
		c0.2-0.7,0.4-1.3,0.5-2c0-0.1,0-0.2,0.1-0.3c0.1-0.2,0.2-0.3,0.4-0.3c0.2,0,0.3,0.2,0.3,0.4c0,0.1,0,0.2,0,0.3
		c-0.2,1.2-0.5,2.4-1,3.5c-0.2,0.5-0.4,1-0.5,1.5l0.3-0.3c0.3-0.3,0.5-0.5,0.8-0.8c0.2-0.1,0.3-0.2,0.6-0.3c0.3-0.1,0.6,0,0.7,0.3
		c0,0.1,0,0.1,0,0.2c0.1,0.5,0.1,1.1-0.1,1.6c-0.1,0.6-0.3,1.2-0.4,1.8c0,0.3,0,0.5,0,0.8c0,0.3,0.1,0.4,0.4,0.4
		c0.3,0,0.7-0.1,0.9-0.4c0.1-0.1,0.2-0.2,0.3-0.3c0.1-0.1,0.3-0.1,0.5,0c0.2,0.1,0.2,0.3,0.1,0.5c0,0,0,0,0,0
		c-0.3,0.5-0.8,0.9-1.4,1c-0.2,0-0.3,0-0.5,0c-0.6,0-1-0.4-1.1-0.9c0-0.1,0-0.1,0-0.2c0-0.7,0.1-1.5,0.3-2.2
		c0.1-0.4,0.2-0.7,0.3-1.1c0-0.1,0-0.3,0-0.5h-0.1"/>
	<path class="st0" d="M22.8,16.8c-0.2,0.1-0.4,0.3-0.6,0.4c-0.8,0.7-1.4,1.5-1.9,2.4c-0.1,0.1-0.1,0.2,0,0.3
		c0.1,0.2,0.1,0.5-0.2,0.7c-0.2,0.1-0.3,0.3-0.2,0.6c0.2-0.1,0.4-0.1,0.5-0.2c1.1-0.6,1.9-1.4,2.5-2.5C23,17.9,23,17.3,22.8,16.8
		 M21.3,16.9c0.4-0.4,0.8-0.7,1.4-0.8c0.3-0.1,0.7,0,0.8,0.4c0,0,0,0.1,0,0.1c0.3,0.8,0.3,1.6-0.1,2.4c-0.6,1.1-1.5,2-2.6,2.6
		c-0.4,0.2-0.8,0.3-1.2,0.4c-0.3,0.1-0.7-0.1-0.8-0.5c0-0.1,0-0.2,0-0.3c0.1-0.3,0.1-0.6,0.3-0.8c0.1-0.1,0.1-0.3,0.1-0.4
		c0-0.2,0-0.4,0.1-0.6c0.3-0.8,0.6-1.5,0.9-2.2c0.4-1.2,0.8-2.4,1.2-3.5c0.1-0.4,0.1-0.7,0.2-1.1c0-0.1,0-0.2,0-0.2s0.2-0.4,0.4-0.4
		c0.2,0,0.4,0.1,0.4,0.4c0,0.1,0,0.3,0,0.4c-0.2,1.2-0.6,2.4-1,3.6c-0.1,0.2-0.2,0.5-0.2,0.7L21.3,16.9"/>
	<path class="st0" d="M28.6,19.6c0.3,0.1,0.6,0.1,0.9-0.1c0.5-0.4,1.1-0.7,1.6-1.1c0.2-0.2,0.3-0.4,0.4-0.6c0.1-0.2,0.2-0.5,0.4-0.7
		c0.1-0.2,0.4-0.3,0.6-0.1c0.2,0.1,0.3,0.4,0.2,0.6c-0.1,0.2-0.2,0.5-0.4,0.7c-0.4,0.6-0.4,1.3-0.2,2c0.1,0.2,0.2,0.3,0.3,0.3
		c0.1,0,0.3-0.1,0.4-0.3c0.1-0.2,0.2-0.3,0.2-0.5c0.1-0.2,0.3-0.4,0.5-0.3c0.2,0.1,0.3,0.3,0.2,0.5c-0.1,0.4-0.3,0.8-0.7,1.1
		c-0.4,0.4-1,0.4-1.4,0c-0.1-0.1-0.1-0.1-0.1-0.2c-0.2-0.3-0.3-0.6-0.4-0.9c0-0.2-0.1-0.4-0.1-0.6l-0.4,0.2c-0.3,0.2-0.7,0.4-1,0.6
		c-0.4,0.2-0.9,0.3-1.3,0.2c-0.4-0.1-0.6-0.3-0.6-0.7c0-0.5,0.1-1,0.2-1.5c0.2-0.8,0.6-1.6,0.9-2.4s0.8-1.8,1.1-2.7v-0.1
		c0.2-0.3,0.5-0.5,0.7-0.3c0.2,0.2,0.2,0.5,0.1,0.8c-0.1,0.2-0.3,0.4-0.4,0.7c-0.5,1.1-0.9,2.2-1.4,3.3c-0.2,0.4-0.3,0.8-0.4,1.2
		C28.7,19.1,28.6,19.4,28.6,19.6"/>
	<path class="st0" d="M59.2,18.6c0.2-0.2,0.3-0.3,0.5-0.5c0.3-0.3,0.6-0.5,1-0.7c0.5-0.2,0.9,0,0.9,0.5c0,0.3-0.1,0.7-0.1,1
		c0,0.4-0.1,0.8-0.1,1.2c0,0.2,0.1,0.3,0.3,0.4c0.5,0.1,1.1-0.1,1.5-0.5c0.2-0.1,0.3-0.3,0.4-0.5c0.1-0.2,0.4-0.2,0.5-0.1
		c0.2,0.1,0.2,0.3,0.1,0.5c0,0,0,0,0,0c-0.4,0.7-1.1,1.1-1.9,1.2c-0.3,0-0.6,0-0.9,0c-0.5-0.1-0.9-0.5-0.9-1c0-0.5,0-1.1,0.2-1.6
		c0-0.1,0-0.3,0.1-0.4c-0.2,0.1-0.4,0.3-0.5,0.4c-0.5,0.5-0.9,1.1-1.4,1.6c-0.3,0.3-0.5,0.7-0.8,1c-0.1,0.1-0.2,0.2-0.4,0.3
		c-0.2,0.1-0.4,0-0.5-0.1c0-0.1-0.1-0.2,0-0.3c0-0.2,0.1-0.4,0.2-0.6c0.3-0.6,0.6-1.2,0.8-1.9c0.3-0.6,0.5-1.2,0.6-1.8
		c0-0.1,0-0.2,0.1-0.3c0-0.2,0.2-0.3,0.4-0.3c0,0,0,0,0,0c0.2,0,0.3,0.2,0.3,0.4c0,0.1,0,0.1,0,0.2l-0.3,1.2
		C59.2,18.3,59.1,18.4,59.2,18.6L59.2,18.6"/>
	<path class="st0" d="M16.9,17.4c-0.2-0.3-0.7-0.4-1-0.2c-0.4,0.2-0.8,0.5-1.1,0.9c-0.2,0.3-0.3,0.6-0.3,1c0,0.3,0.2,0.6,0.5,0.6
		c0.1,0,0.3,0,0.4-0.1c0.1-0.1,0.2-0.1,0.3-0.2C16.3,18.8,16.7,18.1,16.9,17.4 M16.3,19.9c-0.2,0.1-0.4,0.2-0.5,0.3
		c-0.6,0.3-1.4,0.1-1.8-0.5c0-0.1-0.1-0.1-0.1-0.2c-0.1-0.4-0.1-0.9,0.1-1.3c0.4-0.8,1-1.4,1.9-1.7c0.5-0.2,1-0.1,1.5,0.2
		c0.1,0.1,0.2,0.1,0.3,0.1c0.4,0.1,0.5,0.3,0.4,0.6c-0.1,0.4-0.3,0.7-0.5,1c-0.4,0.7-0.6,1.6-0.4,2.5c0,0.1,0.1,0.2,0.2,0.2
		c0.1,0,0.3,0,0.4-0.1c0.1-0.1,0.1-0.2,0.1-0.3c0-0.2,0.2-0.3,0.4-0.2c0.2,0,0.3,0.2,0.3,0.3c0,0.5-0.2,0.9-0.7,1.1
		c-0.6,0.2-1.2,0-1.4-0.6c-0.1-0.1-0.1-0.3-0.1-0.4C16.3,20.6,16.3,20.3,16.3,19.9"/>
	<path class="st0" d="M56.7,17.3c-0.4-0.2-1,0-1.2,0.4c0,0,0,0,0,0.1c-0.2,0.3-0.4,0.5-0.5,0.8c-0.2,0.3-0.3,0.6-0.4,0.9
		c-0.1,0.2-0.2,0.5,0,0.7c0.3,0.2,0.6,0.2,0.9,0c0.1-0.1,0.3-0.1,0.4-0.2c0.3-0.2,0.6-0.6,0.7-1C56.7,18.5,56.8,17.9,56.7,17.3
		 M56.7,16.6c0.1-0.1,0.1-0.1,0.2-0.2c0.1-0.2,0.3-0.2,0.5-0.1c0.1,0.1,0.2,0.2,0.2,0.4c0,0.6,0,1.3-0.1,2c-0.1,0.9-0.6,1.8-1.4,2.3
		c-0.5,0.3-1,0.4-1.6,0.2c-0.5-0.1-0.8-0.5-0.8-1c0-0.7,0.2-1.3,0.5-1.9c0.3-0.4,0.5-0.8,0.8-1.2C55.6,16.4,55.9,16.3,56.7,16.6"/>
	<path class="st0" d="M24.7,21c0.3,0.1,0.6,0,0.8-0.3c0.5-0.4,0.8-1,1.1-1.5c0.1-0.2,0.2-0.5,0.3-0.7s0.3-0.3,0.5-0.2
		c0.2,0.1,0.3,0.3,0.2,0.5c0,0,0,0,0,0c-0.4,1.1-1,2-1.9,2.8c-0.3,0.2-0.7,0.3-1.1,0.2c-0.4-0.1-0.7-0.3-0.7-0.7
		c0-0.5,0.1-0.9,0.2-1.4c0.2-0.5,0.4-1,0.7-1.5c0.2-0.3,0.3-0.6,0.3-0.9c0-0.2,0.1-0.4,0.3-0.4c0,0,0,0,0.1,0c0.2,0,0.4,0.2,0.4,0.3
		c0.1,0.3,0,0.6-0.1,0.9c-0.2,0.4-0.4,0.7-0.5,1.1s-0.4,1-0.5,1.5C24.7,20.7,24.7,20.9,24.7,21"/>
</g>
<path class="st0" d="M32.4,15.2c-0.2,0-0.3,0-0.5-0.1c-0.3-0.1-0.5-0.4-0.5-0.7c0-0.2,0.2-0.4,0.5-0.4c0,0,0,0,0.1,0
	c0.4,0.1,0.7,0.3,0.8,0.7C32.9,15,32.7,15.3,32.4,15.2"/>
<path class="st0" d="M31.9,14c0.3,0.1,0.5,0.2,0.8,0.3c0.2,0.1,0.3,0.3,0.2,0.5c0,0.1-0.1,0.1-0.2,0.2c-0.4,0.2-1,0.1-1.2-0.3
	C31.2,14.3,31.4,14,31.9,14"/>
<path class="st0" d="M31.6,14.3c0.1-0.1,0.1-0.2,0.2-0.4c0.1-0.2,0.4-0.2,0.6-0.1c0.2,0.1,0.2,0.4,0.1,0.5c0,0.1-0.1,0.1-0.1,0.2
	c0,0.2-0.2,0.3-0.4,0.3c0,0,0,0,0,0C31.8,14.9,31.6,14.7,31.6,14.3"/>
<g>
	<path class="st0" d="M36.2,29c-1.2,0-2.3,1-2.3,2.2c0,0.5,0.1,0.6,0.6,0.6c0.7,0,1.3-0.4,1.7-0.9c0.1-0.1,0-0.3,0-0.5
		c0-0.3-0.1-0.6-0.1-0.9C36.1,29.3,36.1,29.1,36.2,29 M38.8,32c-1.1,1-2,1-2.6-0.1l-0.4,0.3c-0.5,0.3-1,0.4-1.6,0.4
		c-0.6,0-1.1-0.6-1.1-1.2c-0.1-1.5,1-2.8,2.4-3.1c0.3-0.1,0.7-0.1,1-0.1c0.1,0,0.3,0.1,0.4,0.2c0.1,0.1,0.2,0.1,0.3,0.2
		c0.3,0.1,0.4,0.3,0.4,0.6c0,0.6-0.1,1.3-0.4,1.8c-0.1,0.2-0.2,0.4-0.2,0.6c0,0.2,0.2,0.4,0.4,0.5c0.1,0,0.2,0,0.2-0.1
		c0.1-0.1,0.3-0.2,0.4-0.3c0.4-0.4,0.7-0.8,0.8-1.3c0.1-0.4,0.3-0.8,0.4-1.2c0.2-0.4,0.4-0.8,0.8-1.1c0.2-0.2,0.4-0.2,0.6-0.1
		c0.2,0.1,0.3,0.4,0.2,0.6c0,0.2-0.1,0.4-0.2,0.5c-0.2,0.5-0.4,1.1-0.6,1.6c-0.1,0.2-0.1,0.3-0.1,0.5c0.1-0.1,0.2-0.2,0.3-0.3
		l1.8-2.1c0.2-0.2,0.3-0.4,0.5-0.5c0.2-0.2,0.5-0.2,0.7,0c0.1,0.1,0.1,0.2,0.1,0.3c0,0.3,0,0.5,0,0.8c0,0.3,0,0.7,0,1
		c0,0.8,0.6,1.4,1.4,1.5c0,0,0,0,0,0c0.2,0,0.3,0,0.5,0c0.2,0,0.4,0.1,0.4,0.3c0,0.2-0.1,0.4-0.4,0.4c-1.1,0.2-2.7-0.7-2.6-2.1
		c0-0.3,0-0.7,0-1c-0.2,0-0.3,0.2-0.4,0.3l-2.3,2.6c-0.1,0.1-0.2,0.3-0.4,0.4c-0.4,0.3-0.7,0.1-0.8-0.3C38.9,32.2,38.9,32.2,38.8,32
		"/>
	<path class="st0" d="M29.8,31.5c0.5,0,1.1-0.2,1.3-0.7c0.2-0.4,0.3-0.9,0.4-1.4c0.1-0.5-0.1-0.6-0.6-0.5c-0.1,0-0.2,0.1-0.3,0.1
		c-0.5,0.4-1,0.9-1.3,1.4c-0.1,0.2-0.2,0.4-0.2,0.7c0,0.2,0.1,0.3,0.2,0.3L29.8,31.5 M30.8,32.1c-0.5,0-1,0.1-1.4,0
		c-0.5,0.1-0.9-0.3-1-0.7c0-0.1,0-0.1,0-0.2c0-0.3,0.1-0.7,0.2-1c0.4-0.8,1-1.4,1.7-1.9c0.4-0.2,0.8-0.3,1.2-0.2
		c0.5,0.1,0.9,0.6,0.9,1.1c0.1,0.7-0.1,1.4-0.5,2c-0.1,0.2-0.2,0.4-0.3,0.7c-0.4,1.1-0.7,2.3-1.1,3.4c-0.2,0.6-0.5,1.2-0.9,1.8
		c-0.6,1-1.5,1.8-2.6,2.3c-0.4,0.2-0.9,0.3-1.4,0.3c-0.5,0-0.9-0.3-0.9-0.8c-0.1-0.4-0.1-0.8,0.1-1.2c0.4-0.9,0.7-1.7,1.1-2.5
		c0.1-0.3,0.3-0.4,0.5-0.3s0.3,0.3,0.2,0.6c-0.3,0.6-0.6,1.2-0.8,1.9c-0.1,0.3-0.2,0.6-0.3,0.9c-0.1,0.5,0.1,0.7,0.6,0.6
		c0.2,0,0.5-0.1,0.7-0.2c0.9-0.4,1.7-1.1,2.2-2c0.5-0.8,0.9-1.7,1.2-2.7C30.4,33.4,30.6,32.8,30.8,32.1"/>
	<path class="st0" d="M19.3,32.9c0.1,0,0.2,0,0.2,0c1.1-0.4,2.1-1.1,2.6-2.2c0.2-0.4,0.2-0.8,0.1-1.2c0-0.2-0.1-0.3-0.3-0.3
		c0,0-0.1,0-0.1,0c-0.3,0.1-0.6,0.2-0.9,0.5c-0.4,0.4-0.7,0.8-1,1.2c-0.3,0.3-0.4,0.8-0.3,1.2c0,0.1-0.1,0.2-0.1,0.3
		S19.4,32.8,19.3,32.9 M20.6,28.9c0.2-0.1,0.4-0.2,0.6-0.3c1.1-0.4,1.7,0,1.8,1.1c0.1,0.7-0.1,1.3-0.5,1.8c-0.7,0.9-1.6,1.6-2.7,2
		c-0.3,0.1-0.5,0.1-0.8,0.2c-0.3,0-0.6-0.2-0.7-0.5c0,0,0-0.1,0-0.1c-0.1-0.5,0-1,0.2-1.4c0.9-1.8,1.6-3.8,1.9-5.9
		c0.1-0.4,0.1-0.8,0.1-1.2c0-0.2,0-0.4,0-0.5s0.2-0.4,0.4-0.4c0.2,0,0.4,0.2,0.4,0.5c0,0,0,0,0,0c0,0.5,0,1.1-0.1,1.6
		c-0.2,0.9-0.4,1.7-0.6,2.6C20.8,28.6,20.7,28.7,20.6,28.9"/>
	<path class="st0" d="M25,30.9c0.4,0.1,0.8,0,1.2-0.2c0.3-0.2,0.5-0.4,0.8-0.7c0.3-0.3,0.4-0.8,0.2-1.1c-0.2-0.5-0.5-0.6-0.9-0.3
		c-0.4,0.3-0.7,0.6-0.9,1C25.1,29.9,25,30.4,25,30.9 M24.1,31.7c-0.3-0.1-0.6-0.1-0.6-0.5s0.4-0.3,0.6-0.4l0.1-0.5
		c0.2-1,0.7-1.8,1.5-2.4c0.3-0.2,0.7-0.3,1.1-0.3c0.3,0,0.6,0.2,0.8,0.5c0.5,0.7,0.5,1.7-0.2,2.4c-0.3,0.3-0.6,0.6-0.9,0.8
		c-0.4,0.3-0.8,0.4-1.3,0.5c-0.1,0-0.2,0-0.3,0c-0.1,0.5,0.1,0.9,0.5,1.2c0.5,0.4,1.2,0.5,1.8,0.3c0.2-0.1,0.3-0.2,0.5-0.4
		c0.2-0.2,0.4-0.3,0.5-0.2c0.2,0.1,0.3,0.4,0.1,0.6c0,0,0,0,0,0c-0.2,0.4-0.6,0.7-1,0.7c-0.8,0.2-1.6,0-2.3-0.4
		c-0.5-0.3-0.9-0.8-1-1.4c0-0.2,0-0.3-0.1-0.5"/>
</g>
</svg>
