<svg id="Layer_1" data-name="Layer 1" xmlns="http://www.w3.org/2000/svg" viewBox="0 0 64.19 39.67"><defs><style>.cls-1{fill:#003a70;}</style></defs><title>vocational</title><path class="cls-1" d="M57.17,9a1.36,1.36,0,0,0,1.2-.68,2.92,2.92,0,0,0,.76-2.19,3,3,0,0,0-2,2.87m5.16,0c-.44.26-.77.5-1.14.68a2.84,2.84,0,0,1-.9.28,1.07,1.07,0,0,1-1.23-.77L58.94,9c-.29.22-.55.43-.82.62a1.35,1.35,0,0,1-1.1.21.77.77,0,0,1-.68-.76,2.7,2.7,0,0,1,.24-1.45,5.18,5.18,0,0,1,1.75-2,1.5,1.5,0,0,1,1-.24.5.5,0,0,1,.48.33A2.05,2.05,0,0,1,59.94,7a3.66,3.66,0,0,0-.21,1.65c0,.54.3.72.81.52a4,4,0,0,0,1.78-1.33,2,2,0,0,0,.26-.71A42.62,42.62,0,0,1,64,2c.09-.24.19-.48.3-.71A1.31,1.31,0,0,1,64.53,1a.45.45,0,0,1,.52-.13.42.42,0,0,1,.28.46,2.16,2.16,0,0,1-.08.47c-.43,1.55-.86,3.11-1.31,4.66a6.42,6.42,0,0,1-.52,1.18,2,2,0,0,0-.28.9c0,.51,0,1,0,1.53,0,.35.18.65.62.66a.34.34,0,0,1,.36.36.39.39,0,0,1-.37.38,1,1,0,0,1-1-.4,2.07,2.07,0,0,1-.42-1.3c0-.22,0-.43,0-.72" transform="translate(-1.15 -0.83)"/><path class="cls-1" d="M35.34,9.94a2,2,0,0,0,.54-.2A3,3,0,0,0,37,8a2.68,2.68,0,0,0,0-.32c-.24-.06-.45-.1-.64-.17-.43-.14-.6-.08-.8.35a3.91,3.91,0,0,0-.24,2m-.85-.64c.05-.36.08-.69.16-1A3.93,3.93,0,0,1,35,7.42a1.21,1.21,0,0,1,1.7-.61,5.17,5.17,0,0,1,.57.27l.15-.18a.38.38,0,0,1,.47-.13.41.41,0,0,1,.23.48c0,.27-.14.53-.19.79s-.12.75-.16,1.13a.57.57,0,0,0,.3.65.82.82,0,0,0,.91-.07,3.31,3.31,0,0,0,.41-.41c.23-.27.44-.55.67-.82a2.17,2.17,0,0,1,.26-.28.34.34,0,0,1,.44,0,.35.35,0,0,1,.11.47,1.09,1.09,0,0,1-.15.25l-.94,1.15A1.64,1.64,0,0,1,37,9.79a3.18,3.18,0,0,1-.37.36,3.13,3.13,0,0,1-.81.49c-.54.16-.94-.06-1.29-.62l-.32.35A1.9,1.9,0,0,1,32.4,11a1.39,1.39,0,0,1-1.25-1.26,6.34,6.34,0,0,1,.46-3.1,1.35,1.35,0,0,1,1.49-.88,1.24,1.24,0,0,1,.93,1,.41.41,0,0,1-.16.31.49.49,0,0,1-.4,0c-.11-.06-.19-.21-.27-.33-.2-.28-.44-.32-.67-.08a1.23,1.23,0,0,0-.28.44,6.53,6.53,0,0,0-.35,2.36.74.74,0,0,0,.84.77,1.1,1.1,0,0,0,.94-.5.77.77,0,0,1,.82-.44" transform="translate(-1.15 -0.83)"/><path class="cls-1" d="M21.94,10.24c.09-.14.19-.27.27-.42.85-1.54,1.68-3.09,2.54-4.62.52-.92,1.07-1.82,1.64-2.7a5.11,5.11,0,0,1,.74-.81.55.55,0,0,1,.34-.16.49.49,0,0,1,.37.14.6.6,0,0,1,0,.4c0,.07-.1.11-.16.17-.27.31-.57.6-.81.94a39.12,39.12,0,0,0-2.37,4.16c-.58,1.07-1.19,2.12-1.8,3.17a2.43,2.43,0,0,1-.47.6.67.67,0,0,1-1.15-.41,3.05,3.05,0,0,1,0-.52C21,7.79,21,5.41,20.92,3a4.4,4.4,0,0,0-.11-.75c-.07-.33,0-.56.27-.62s.47.11.53.43a4.78,4.78,0,0,1,.08.81q.07,3.43.13,6.85c0,.15,0,.31,0,.46l.09,0" transform="translate(-1.15 -0.83)"/><path class="cls-1" d="M42.89,5.73a4.71,4.71,0,0,0,1.57-.24c.28-.08.54-.19.82-.27.55-.15.86,0,.87.61A4,4,0,0,1,46,6.91c-.16.6-.39,1.18-.57,1.78a3.41,3.41,0,0,0-.12.7c0,.31-.19.52-.45.51a.46.46,0,0,1-.42-.54,2.71,2.71,0,0,1,.15-.6c.22-.67.45-1.33.66-2a5.75,5.75,0,0,0,.13-.7L45,6.13c-.66.13-1.31.29-2,.4-.23,0-.38.09-.43.35-.19,1-.4,2-.61,3a.79.79,0,0,0,.08.6.63.63,0,0,1-.1.76.43.43,0,0,1-.76-.13,1,1,0,0,1-.05-.42c.07-.63.13-1.27.24-1.9s.26-1.22.39-1.83c0-.1,0-.21,0-.38H40.64a1.21,1.21,0,0,1-.47-.06.55.55,0,0,1-.26-.3.3.3,0,0,1,.21-.38,1.87,1.87,0,0,1,.56-.08c.33,0,.67,0,1,0s.4,0,.47-.38c.2-1,.39-1.94.58-2.92a5.55,5.55,0,0,1,.13-.56.49.49,0,0,1,.43-.4.47.47,0,0,1,.47.27c.12.21.18.47,0,.62a1.34,1.34,0,0,0-.39.89c-.16.78-.31,1.56-.47,2.41" transform="translate(-1.15 -0.83)"/><path class="cls-1" d="M53.36,6.32a4.54,4.54,0,0,0-1.31,1.59c-.16.31-.27.65-.42,1s-.35.75-.55,1.12a.88.88,0,0,1-.32.35.65.65,0,0,1-.44.06.36.36,0,0,1-.24-.42,1.44,1.44,0,0,1,.14-.45c.18-.36.37-.71.57-1.05a2.79,2.79,0,0,0,.42-1.74,1.4,1.4,0,0,1,0-.43.41.41,0,0,1,.38-.37.35.35,0,0,1,.38.29c0,.06,0,.11.08.2.16-.16.29-.3.44-.42a3.09,3.09,0,0,1,.58-.42.64.64,0,0,1,1,.34,4.32,4.32,0,0,1,.28,1.2c.05.67,0,1.34,0,2,0,.51,0,.53.47.7a5.12,5.12,0,0,0,.78.2c.28.05.43.17.44.36a.41.41,0,0,1-.45.4,2.72,2.72,0,0,1-1.76-.64.89.89,0,0,1-.25-.75c0-.61,0-1.21,0-1.82a3.16,3.16,0,0,0-.23-1.28" transform="translate(-1.15 -0.83)"/><path class="cls-1" d="M49,6.57a.35.35,0,0,0-.53.21c-.23.54-.45,1.09-.65,1.64a1.54,1.54,0,0,0-.06.57c0,.11.06.29.14.31a.5.5,0,0,0,.39-.07,1.23,1.23,0,0,0,.33-.4A4.42,4.42,0,0,0,49,6.57m.78.17a5,5,0,0,1-.3,2,4.21,4.21,0,0,1-.63,1,1.09,1.09,0,0,1-1.23.29A.81.81,0,0,1,47,9.31a4,4,0,0,1,0-1,7.15,7.15,0,0,1,.85-2.13A.6.6,0,0,1,48.06,6a2.61,2.61,0,0,0,.88-.9c.12-.24.48-.19.64.07a2.62,2.62,0,0,1,.22.62.63.63,0,0,1,0,.19c0,.24,0,.48,0,.72" transform="translate(-1.15 -0.83)"/><path class="cls-1" d="M28.23,6.66c-.1,0-.14,0-.16,0a3.46,3.46,0,0,0-1,1.62,2.32,2.32,0,0,0,0,.76.58.58,0,0,0,.53.47c.28,0,.35-.17.41-.37a8.21,8.21,0,0,0,.2-2.48m-2,2.07a8.1,8.1,0,0,1,.26-1.06,5,5,0,0,1,1.25-1.79,1.1,1.1,0,0,1,.91-.35.63.63,0,0,1,.48,1.06A1,1,0,0,0,29,7c0,.62,0,1.24-.12,1.86a3.15,3.15,0,0,1-.32.94.87.87,0,0,1-.91.48,1.49,1.49,0,0,1-1.43-1.58" transform="translate(-1.15 -0.83)"/><path class="cls-1" d="M46.8,4.4a3.09,3.09,0,0,1-.36-.08.38.38,0,0,1,.08-.75,1.33,1.33,0,0,1,.47,0,.43.43,0,0,1,.35.5c0,.2-.2.31-.54.31" transform="translate(-1.15 -0.83)"/><path class="cls-1" d="M43.68,18c-.27.42-.26.41-.7.39a.54.54,0,0,0-.36.15,4.1,4.1,0,0,0-1,1.85,5.16,5.16,0,0,0-.07.6,3.59,3.59,0,0,0,.59-.22,3.87,3.87,0,0,0,2-2.45L43.68,18m4.39,2.5c-.12.12-.24.24-.35.36a6,6,0,0,1-1.48,1.21,2.51,2.51,0,0,1-1.61.32A1.32,1.32,0,0,1,43.4,21.2c0-.09,0-.18-.06-.33l-.81.56a1.49,1.49,0,0,1-1,.28.74.74,0,0,1-.74-.78,3.26,3.26,0,0,1,.45-1.69c.19-.35.4-.68.63-1.06a3,3,0,0,0-.45-.08H39.5a.48.48,0,0,0-.49.36c-.42,1-.87,2-1.31,3a1.32,1.32,0,0,1-.27.45.91.91,0,0,1-.49.24.54.54,0,0,1-.38-.22c-.11-.14,0-.29.1-.42a2.77,2.77,0,0,0,.44-.61c.39-.86.75-1.73,1.13-2.62a1.75,1.75,0,0,0-.88.13.84.84,0,0,0-.67.48.28.28,0,0,1-.39.17.59.59,0,0,1-.27-.35.64.64,0,0,1,.4-.74,5.15,5.15,0,0,1,1.4-.46,1.09,1.09,0,0,0,1.06-.94A34,34,0,0,0,40,12.72c.06-.37.28-.55.58-.5a.43.43,0,0,1,.32.64,5.25,5.25,0,0,0-.26.7c-.33,1.07-.65,2.14-1,3.21l-.15.49.4,0c.8,0,1.6.07,2.39.12a1,1,0,0,0,.59-.14,1.23,1.23,0,0,1,1.74.55.77.77,0,0,1,0,.28c0,.08,0,.18,0,.22.34.48.1.9-.15,1.29a2.13,2.13,0,0,0-.32,1.13c0,.68.2.9.88.86a2.11,2.11,0,0,0,.77-.22,4.34,4.34,0,0,0,1.37-1.11c.2-.23.38-.48.6-.69a7,7,0,0,1,.61-.49l.08.06L48.76,18c-.37.07-.62.16-.72.49a.35.35,0,0,1-.43.28.42.42,0,0,1-.3-.48.86.86,0,0,1,.47-.74,4.52,4.52,0,0,1,.88-.37.61.61,0,0,0,.46-.48c.42-1.39.87-2.77,1.31-4.16a1.61,1.61,0,0,1,.13-.31A.38.38,0,0,1,51,12a.39.39,0,0,1,.3.44,1.31,1.31,0,0,1,0,.28c-.18.81-.37,1.62-.56,2.43,0,.13-.08.33-.18.38-.38.18-.4.55-.5.87,0,.15-.07.31-.12.53h.75a5.3,5.3,0,0,1,1.89.25,2.55,2.55,0,0,0,.9.1c.66,0,.84.36.79.87a2.08,2.08,0,0,1-.17.59c-.36.87-.74,1.74-1.1,2.61a9.05,9.05,0,0,0-.32,1c-.08.27-.23.43-.45.4a.42.42,0,0,1-.34-.54,4.49,4.49,0,0,1,.26-.87c.38-.93.79-1.85,1.18-2.78.06-.13.1-.26.16-.44l-.29-.06a10.14,10.14,0,0,1-1.08-.21,6.67,6.67,0,0,0-2.19-.13c-.23,0-.28.17-.32.35-.18.76-.37,1.52-.56,2.28-.12.48-.23,1-.38,1.43a.63.63,0,0,1-.83.45c-.2-.06-.36-.15-.38-.38s.13-.34.34-.39a1.39,1.39,0,0,0,.2-.08l.21-.87-.08-.05" transform="translate(-1.15 -0.83)"/><path class="cls-1" d="M7.83,17.95a1.48,1.48,0,0,0-1.75,1.54,2.2,2.2,0,0,0,1.75-1.54m5-.29a5.09,5.09,0,0,0-.41.37,16.65,16.65,0,0,0-2.37,3.36c-.14.25-.26.47-.6.44-.1,0-.21.11-.31.19a8.69,8.69,0,0,1-.72.63,2,2,0,0,1-3.27-1.52,4.12,4.12,0,0,1,0-.43.63.63,0,0,0-.2-.55c-.22-.19-.19-.39,0-.56s.3-.68.44-1c0-.06,0-.18-.1-.25-.2-.24-.42-.48-.65-.74a2.72,2.72,0,0,0-.3.29c-.49.67-1,1.34-1.47,2a6.39,6.39,0,0,0-.84,2.18,2.88,2.88,0,0,1-.18.54.34.34,0,0,1-.43.21.8.8,0,0,1-.3-.33.58.58,0,0,1,0-.28,8.87,8.87,0,0,1,.4-2.65c.16-.48.31-1,.47-1.46a1.33,1.33,0,0,1,.13-.31.38.38,0,0,1,.64,0,3.45,3.45,0,0,1,.28.49l.76-.94c.61-.74.92-.75,1.59-.07l.5.52a.47.47,0,0,0,.14-.07,2.07,2.07,0,0,1,2-.53.64.64,0,0,1,.59.85,1.36,1.36,0,0,1-.12.36A3.83,3.83,0,0,1,7.05,20a7.7,7.7,0,0,1-1.13.42,6,6,0,0,0,.05.79,1.22,1.22,0,0,0,1.87.88,3.13,3.13,0,0,0,1-.94c.15-.2.33-.38.49-.58a.89.89,0,0,0,.14-.24c.67-1.76,1.36-3.52,2-5.3a19.4,19.4,0,0,0,.5-2,2.2,2.2,0,0,1,.08-.32.37.37,0,0,1,.41-.26.38.38,0,0,1,.33.36,1.38,1.38,0,0,1,0,.33,17.5,17.5,0,0,1-1,3.5,14.65,14.65,0,0,0-.49,1.52l.31-.32c.26-.26.51-.53.79-.77a1.54,1.54,0,0,1,.55-.29.56.56,0,0,1,.78.48,3.62,3.62,0,0,1-.09,1.57c-.15.6-.3,1.21-.43,1.82a3.36,3.36,0,0,0,0,.76c0,.31.1.39.41.41a1.14,1.14,0,0,0,.91-.35c.1-.1.2-.21.3-.31a.36.36,0,0,1,.48,0,.35.35,0,0,1,.08.51,2,2,0,0,1-1.43,1,2.19,2.19,0,0,1-.48,0,1,1,0,0,1-1.06-1.12,7.19,7.19,0,0,1,.32-2.17c.1-.37.19-.74.26-1.12a2.35,2.35,0,0,0,0-.45l-.09,0" transform="translate(-1.15 -0.83)"/><path class="cls-1" d="M23.9,17.61a5.78,5.78,0,0,0-.63.43,9.76,9.76,0,0,0-1.89,2.39.43.43,0,0,0-.05.34.51.51,0,0,1-.16.68.61.61,0,0,0-.25.57,4.81,4.81,0,0,0,.52-.19,5.75,5.75,0,0,0,2.48-2.51,2.26,2.26,0,0,0,0-1.71m-1.49.14a3.47,3.47,0,0,1,1.36-.84.65.65,0,0,1,.87.47,2.92,2.92,0,0,1-.07,2.38A6.52,6.52,0,0,1,22,22.4a3.59,3.59,0,0,1-1.17.38.63.63,0,0,1-.76-.75,2.77,2.77,0,0,1,.29-.84.61.61,0,0,0,.07-.44,1.2,1.2,0,0,1,.06-.65c.28-.75.63-1.47.9-2.22.42-1.17.81-2.36,1.18-3.54a7.18,7.18,0,0,0,.17-1.08c0-.08,0-.16,0-.24s.16-.35.39-.35a.4.4,0,0,1,.4.35,1.21,1.21,0,0,1,0,.38,19.44,19.44,0,0,1-1,3.6c-.07.22-.16.45-.24.67l.07.07" transform="translate(-1.15 -0.83)"/><path class="cls-1" d="M29.76,20.43a.88.88,0,0,0,.88-.07c.54-.35,1.07-.7,1.57-1.09a2.31,2.31,0,0,0,.44-.62c.14-.23.25-.48.41-.7a.47.47,0,0,1,.6-.15.44.44,0,0,1,.15.59,3.09,3.09,0,0,1-.37.67,2.39,2.39,0,0,0-.21,2,.51.51,0,0,0,.35.33c.13,0,.31-.14.41-.26a2.69,2.69,0,0,0,.25-.51c.12-.25.3-.35.49-.28a.41.41,0,0,1,.23.52,2,2,0,0,1-.65,1.1,1,1,0,0,1-1.56-.18,3.08,3.08,0,0,1-.36-.87,3.35,3.35,0,0,1-.07-.61l-.36.2c-.34.21-.67.43-1,.62a1.84,1.84,0,0,1-1.3.18c-.42-.09-.64-.3-.63-.72a5.52,5.52,0,0,1,.19-1.46c.24-.81.56-1.6.87-2.39s.77-1.79,1.15-2.69l0-.09c.17-.34.45-.46.69-.29a.57.57,0,0,1,.06.77,4.36,4.36,0,0,0-.38.66c-.47,1.1-.93,2.21-1.38,3.32a8.91,8.91,0,0,0-.38,1.19,6.84,6.84,0,0,0-.1.88" transform="translate(-1.15 -0.83)"/><path class="cls-1" d="M60.31,19.39a6,6,0,0,1,.5-.5,6,6,0,0,1,1-.72c.49-.24.87,0,.88.55a7.23,7.23,0,0,1-.12,1c0,.4-.1.79-.13,1.19,0,.23.11.34.34.37a1.72,1.72,0,0,0,1.45-.48c.15-.14.28-.31.43-.45a.39.39,0,0,1,.52-.08.37.37,0,0,1,.06.55,2.67,2.67,0,0,1-1.86,1.23,3,3,0,0,1-.86,0,1,1,0,0,1-.86-1,4.41,4.41,0,0,1,.19-1.61A2.9,2.9,0,0,0,61.9,19a4.53,4.53,0,0,0-.51.42q-.71.81-1.4,1.64c-.26.32-.51.66-.77,1a1.07,1.07,0,0,1-.37.29.39.39,0,0,1-.58-.4,2,2,0,0,1,.18-.59c.28-.63.56-1.25.85-1.88a6.3,6.3,0,0,0,.58-1.77,1.11,1.11,0,0,1,.08-.28.37.37,0,0,1,.45-.27.38.38,0,0,1,.28.44.87.87,0,0,1,0,.19L60.35,19c0,.13-.08.26-.12.39l.07,0" transform="translate(-1.15 -0.83)"/><path class="cls-1" d="M18,18.19a.72.72,0,0,0-1-.19,2.85,2.85,0,0,0-1.1.91,1.42,1.42,0,0,0-.27.95.53.53,0,0,0,.83.5,2.28,2.28,0,0,0,.31-.22A3.56,3.56,0,0,0,18,18.19m-.61,2.53c-.24.15-.38.24-.53.32A1.32,1.32,0,0,1,15,20.32,2.09,2.09,0,0,1,15.05,19a3.26,3.26,0,0,1,1.89-1.74,1.39,1.39,0,0,1,1.45.21.82.82,0,0,0,.34.14c.4.09.53.26.39.64a4,4,0,0,1-.5,1,3.7,3.7,0,0,0-.41,2.45.35.35,0,0,0,.23.25.55.55,0,0,0,.37-.14c.07-.06.07-.2.11-.31a.34.34,0,0,1,.37-.25.38.38,0,0,1,.34.34,1.06,1.06,0,0,1-.69,1.09,1.09,1.09,0,0,1-1.53-1c0-.28,0-.57,0-1" transform="translate(-1.15 -0.83)"/><path class="cls-1" d="M57.87,18.15a.89.89,0,0,0-1.21.5c-.17.29-.39.55-.55.84a5.35,5.35,0,0,0-.39.92c-.08.23-.19.54,0,.72a.86.86,0,0,0,.87,0,1.5,1.5,0,0,0,.37-.21,2,2,0,0,0,.74-1,5.09,5.09,0,0,0,.15-1.76m0-.72c.06-.08.11-.15.16-.21a.36.36,0,0,1,.65.28c0,.65,0,1.31-.09,2a2.9,2.9,0,0,1-1.41,2.28,2,2,0,0,1-1.57.21.9.9,0,0,1-.76-1,3.32,3.32,0,0,1,.54-1.86c.26-.42.55-.83.84-1.22.52-.69.79-.76,1.64-.48" transform="translate(-1.15 -0.83)"/><path class="cls-1" d="M25.85,21.79a.76.76,0,0,0,.75-.26A4.81,4.81,0,0,0,27.71,20c.11-.23.21-.47.34-.69s.34-.3.52-.2a.37.37,0,0,1,.17.5,5.93,5.93,0,0,1-1.91,2.76,1.41,1.41,0,0,1-1.09.25c-.43-.07-.69-.3-.67-.73a4.94,4.94,0,0,1,.23-1.36A12.27,12.27,0,0,1,26,19a1.7,1.7,0,0,0,.29-.94.34.34,0,0,1,.33-.4A.4.4,0,0,1,27,18a1.16,1.16,0,0,1-.1.88c-.17.36-.4.7-.55,1.06s-.36,1-.53,1.48a1.37,1.37,0,0,0,0,.39" transform="translate(-1.15 -0.83)"/><path class="cls-1" d="M55.77,16.06c-.17,0-.35,0-.52-.08a.7.7,0,0,1-.47-.7.44.44,0,0,1,.56-.37,1.15,1.15,0,0,1,.81.69c.13.27-.08.51-.39.46" transform="translate(-1.15 -0.83)"/><path class="cls-1" d="M34.83,14.81a5.07,5.07,0,0,1,.77.32.35.35,0,0,1,0,.64.91.91,0,0,1-1.23-.34c-.17-.3,0-.61.5-.62" transform="translate(-1.15 -0.83)"/><path class="cls-1" d="M28.17,15.15a1.76,1.76,0,0,1,.22-.36.41.41,0,0,1,.56-.07.38.38,0,0,1,.06.52c0,.07-.07.15-.09.22a.36.36,0,0,1-.44.27c-.19,0-.32-.24-.32-.58" transform="translate(-1.15 -0.83)"/><path class="cls-1" d="M55.71,29.79A2.27,2.27,0,0,0,53.41,32c0,.49.12.61.63.63a2.2,2.2,0,0,0,1.67-.91c.08-.09,0-.3,0-.45,0-.31-.07-.63-.09-.94a3.74,3.74,0,0,1,.05-.54m2.71,3.06c-1.12,1-2,1-2.63-.08l-.44.27a2.31,2.31,0,0,1-1.6.36,1.17,1.17,0,0,1-1.11-1.21A3.1,3.1,0,0,1,55,29.06,3.53,3.53,0,0,1,56,29a1,1,0,0,1,.38.17,1.53,1.53,0,0,0,.32.18.52.52,0,0,1,.41.57,3.42,3.42,0,0,1-.39,1.81,1.29,1.29,0,0,0-.16.63.43.43,0,0,0,.64.4,1.45,1.45,0,0,0,.4-.26,2.93,2.93,0,0,0,.84-1.32c.13-.39.26-.79.42-1.18a2.75,2.75,0,0,1,.8-1.12.52.52,0,0,1,.62-.11.5.5,0,0,1,.2.59,3.24,3.24,0,0,1-.17.55c-.21.54-.43,1.07-.64,1.61a1,1,0,0,0-.07.49c.11-.11.22-.21.32-.32l1.81-2.11a3.37,3.37,0,0,1,.55-.54.47.47,0,0,1,.8.35,6.53,6.53,0,0,1,0,.77c0,.34,0,.67,0,1a1.42,1.42,0,0,0,1.37,1.48c.16,0,.32,0,.48,0a.38.38,0,0,1,.39.35c0,.2-.13.36-.4.4-1.11.17-2.74-.71-2.62-2.14,0-.33,0-.67,0-1-.23,0-.29.17-.38.28l-2.28,2.59a2.47,2.47,0,0,1-.38.36c-.4.29-.74.14-.82-.35,0-.07,0-.15,0-.29" transform="translate(-1.15 -0.83)"/><path class="cls-1" d="M49.33,32.29a1.42,1.42,0,0,0,1.34-.72,5.35,5.35,0,0,0,.4-1.37c.1-.46-.12-.63-.56-.48a.9.9,0,0,0-.26.13A4.12,4.12,0,0,0,49,31.29a2.57,2.57,0,0,0-.19.68c0,.17.07.27.24.28l.32,0m1,.71c-.53,0-1,.06-1.41,0A.86.86,0,0,1,48,32a2.88,2.88,0,0,1,.24-1,4.73,4.73,0,0,1,1.68-1.87,1.55,1.55,0,0,1,1.2-.21A1.09,1.09,0,0,1,52,30a3,3,0,0,1-.49,2,2.23,2.23,0,0,0-.28.66c-.36,1.14-.68,2.3-1.08,3.43a10.92,10.92,0,0,1-.87,1.81,6,6,0,0,1-2.57,2.31,2.76,2.76,0,0,1-1.39.32.91.91,0,0,1-.93-.75,1.75,1.75,0,0,1,.06-1.18c.36-.86.74-1.7,1.13-2.54.13-.27.34-.36.54-.26s.27.3.15.58c-.27.63-.56,1.25-.84,1.88a4.38,4.38,0,0,0-.3.86c-.11.52.08.7.59.59a2.64,2.64,0,0,0,.68-.23,5.48,5.48,0,0,0,2.23-2,12.12,12.12,0,0,0,1.16-2.68c.19-.59.36-1.19.54-1.79" transform="translate(-1.15 -0.83)"/><path class="cls-1" d="M38.88,33.78a.74.74,0,0,0,.23,0,4.52,4.52,0,0,0,2.62-2.17,1.78,1.78,0,0,0,.09-1.17.3.3,0,0,0-.41-.27,1.49,1.49,0,0,0-.87.47,9.54,9.54,0,0,0-1,1.25,1.55,1.55,0,0,0-.35,1.2c0,.1-.08.23-.13.34s-.13.21-.22.35m1.34-4c.25-.11.43-.21.62-.28,1.09-.43,1.7,0,1.8,1.13a2.66,2.66,0,0,1-.52,1.85,5.71,5.71,0,0,1-2.65,2,2.62,2.62,0,0,1-.8.15.59.59,0,0,1-.67-.59,2.34,2.34,0,0,1,.24-1.44,20.07,20.07,0,0,0,1.91-5.85,6.9,6.9,0,0,0,.1-1.19c0-.18,0-.35,0-.53s.22-.44.44-.42a.42.42,0,0,1,.37.48,10.44,10.44,0,0,1-.12,1.57c-.17.88-.4,1.74-.61,2.62,0,.15-.07.3-.11.52" transform="translate(-1.15 -0.83)"/><path class="cls-1" d="M44.51,31.72a1.31,1.31,0,0,0,1.15-.24,6.88,6.88,0,0,0,.78-.7,1,1,0,0,0,.22-1.15c-.17-.47-.46-.59-.88-.31a2.83,2.83,0,0,0-.93,1,2.69,2.69,0,0,0-.34,1.39m-.83.78c-.3-.09-.63-.1-.62-.47s.37-.32.63-.4l.08-.52a3.65,3.65,0,0,1,1.52-2.41,1.52,1.52,0,0,1,1.09-.29,1,1,0,0,1,.79.48A1.9,1.9,0,0,1,47,31.28a7,7,0,0,1-.88.8,2.08,2.08,0,0,1-1.29.45,2.69,2.69,0,0,0-.34,0A1.31,1.31,0,0,0,45,33.74a2.11,2.11,0,0,0,1.82.34,1.17,1.17,0,0,0,.47-.37c.2-.21.36-.28.53-.18a.43.43,0,0,1,.12.6,1.33,1.33,0,0,1-1,.74,3.09,3.09,0,0,1-2.31-.38,2.1,2.1,0,0,1-1-1.44c0-.17-.05-.34-.08-.54" transform="translate(-1.15 -0.83)"/></svg>